<svg xmlns="http://www.w3.org/2000/svg" width="55.384" height="60.433" viewBox="0 0 55.384 60.433">
  <g id="apply_chain_and_logistics_icon" transform="translate(-3338.983 -790.143)">
    <path id="Path_51" data-name="Path 51" d="M3454.107,1097.508a.676.676,0,0,0-.675.675v13.7a.675.675,0,1,0,1.351,0v-13.7a.676.676,0,0,0-.676-.675Z" transform="translate(-98.914 -265.648)"/>
    <path id="Path_52" data-name="Path 52" d="M3396.054,1097.508a.676.676,0,0,0-.675.675v13.7a.675.675,0,0,0,1.351,0v-13.7a.675.675,0,0,0-.676-.675Z" transform="translate(-48.741 -265.648)"/>
    <path id="Path_53" data-name="Path 53" d="M3566.9,1097.508a.676.676,0,0,0-.676.675v13.7a.675.675,0,1,0,1.35,0v-13.7a.676.676,0,0,0-.675-.675Z" transform="translate(-196.394 -265.648)"/>
    <path id="Path_54" data-name="Path 54" d="M3623.291,1097.508a.676.676,0,0,0-.675.675v13.7a.675.675,0,0,0,1.351,0v-13.7a.675.675,0,0,0-.676-.675Z" transform="translate(-245.135 -265.648)"/>
    <path id="Path_55" data-name="Path 55" d="M3510.5,1097.508a.676.676,0,0,0-.676.675v13.7a.676.676,0,0,0,1.351,0v-13.7a.676.676,0,0,0-.675-.675Z" transform="translate(-147.655 -265.648)"/>
    <path id="Path_56" data-name="Path 56" d="M3681.34,1097.508a.676.676,0,0,0-.676.675v13.7a.675.675,0,0,0,1.351,0v-13.7a.675.675,0,0,0-.674-.675Z" transform="translate(-295.309 -265.648)"/>
    <path id="Path_57" data-name="Path 57" d="M3394.344,850.577a3.861,3.861,0,0,0,.022-.512V828.7a.656.656,0,0,0-.664-.644h-.61l-25.742-16.817V805.7l.59-.213a3.652,3.652,0,0,0,0-6.855l-.589-.213V796.1h2.307a.676.676,0,0,0,0-1.351h-2.307v-3.932a.675.675,0,0,0-1.351,0v3.932h-2.3a.676.676,0,0,0,0,1.351h2.3v2.987a.676.676,0,0,0,.675.676,2.3,2.3,0,1,1-2.3,2.307.676.676,0,0,0-1.351,0,3.574,3.574,0,0,0,2.379,3.421l.6.213v5.54l-25.737,16.817h-.615a.665.665,0,0,0-.663.648v21.352a3.958,3.958,0,0,0,.021.513Zm-27.666-38.125.369.24,23.573,15.371h-47.884Zm-26.343,16.964h52.68v20.036h-52.68Z" transform="translate(0)"/>
  </g>
</svg>
