<svg xmlns="http://www.w3.org/2000/svg" width="72.845" height="54.283" viewBox="0 0 72.845 54.283">
  <g id="Group_24" data-name="Group 24" transform="translate(-1971.597 399.204)">
    <path id="Path_28" data-name="Path 28" d="M2071.138-261.849a3.407,3.407,0,0,0-2.745-3.243l-.383-.089v-4.739l.7.326a2.308,2.308,0,0,1,1.411,2.068.507.507,0,0,0,.507.507.507.507,0,0,0,.507-.507,3.407,3.407,0,0,0-2.745-3.244l-.383-.089v-.687a.507.507,0,0,0-.507-.507.507.507,0,0,0-.507.507v.687l-.383.089a3.407,3.407,0,0,0-2.745,3.244,3.407,3.407,0,0,0,2.745,3.244l.383.089v4.739l-.7-.326a2.308,2.308,0,0,1-1.411-2.069.507.507,0,0,0-.507-.507.507.507,0,0,0-.507.507,3.407,3.407,0,0,0,2.745,3.244l.383.089v.8a.507.507,0,0,0,.507.507.507.507,0,0,0,.507-.507v-.8l.383-.089a3.407,3.407,0,0,0,2.745-3.244ZM2067-265.131l-.7-.326a2.308,2.308,0,0,1-1.411-2.068,2.309,2.309,0,0,1,1.411-2.069l.7-.326Zm1.717,5.351-.7.326v-4.789l.7.326a2.308,2.308,0,0,1,1.411,2.068,2.307,2.307,0,0,1-1.415,2.069Z" transform="translate(-71.862 -99.022)"/>
    <path id="Path_29" data-name="Path 29" d="M2015.341-323.923a11.258,11.258,0,0,1-.837-4.2,49.689,49.689,0,0,0-1.807-10.132,24.384,24.384,0,0,0-6.557-10.356,32.865,32.865,0,0,0-3.871-3.247l-.394-.28,4.478-6.632a.506.506,0,0,0,.028-.521.506.506,0,0,0-.448-.269,4.53,4.53,0,0,0-2.892,1.1,3.488,3.488,0,0,1-2.251.9,3.81,3.81,0,0,1-2.36-.929,4.543,4.543,0,0,0-2.782-1.071,4.672,4.672,0,0,0-2.825,1.081,3.828,3.828,0,0,1-2.315.919,3.829,3.829,0,0,1-2.316-.918,4.672,4.672,0,0,0-2.825-1.081.507.507,0,0,0-.448.269.507.507,0,0,0,.028.521l4.478,6.631-.394.28a32.9,32.9,0,0,0-3.871,3.247,24.386,24.386,0,0,0-6.557,10.356,49.715,49.715,0,0,0-1.807,10.132,11.266,11.266,0,0,1-.837,4.2,24.525,24.525,0,0,1-1.691,2.613c-1.707,2.431-3.641,5.185-2.121,6.705a2.1,2.1,0,0,0,2.345.341,14.626,14.626,0,0,0,2.542-1.317c1.411-.842,3.009-1.8,4.385-1.8a20.784,20.784,0,0,1,5.486,1.361c2.737.91,5.838,1.941,8.737,1.945h.017c2.9,0,6-1.035,8.74-1.945a20.793,20.793,0,0,1,5.487-1.361c1.376,0,2.974.954,4.385,1.8a14.644,14.644,0,0,0,2.542,1.317,2.1,2.1,0,0,0,2.345-.341c1.52-1.52-.415-4.274-2.121-6.7l.4-.285h0l-.405.284a24.531,24.531,0,0,1-1.691-2.617Zm-28.778-34.263,1.847,1.057a4.078,4.078,0,0,0,2.1.58,4.769,4.769,0,0,0,2.894-1.1,3.739,3.739,0,0,1,2.247-.9,3.564,3.564,0,0,1,2.2.886,4.756,4.756,0,0,0,2.944,1.114,3.948,3.948,0,0,0,2.093-.58l1.9-1.124L2000.9-352.5h-10.494Zm31.749,40.818c.46,1,.5,1.67.125,2.047a.83.83,0,0,1-.618.24,7.763,7.763,0,0,1-3.033-1.369c-1.523-.909-3.249-1.939-4.9-1.939a20.888,20.888,0,0,0-5.807,1.413c-2.668.887-5.689,1.891-8.426,1.893s-5.76-1.006-8.425-1.893a20.9,20.9,0,0,0-5.808-1.413c-1.655,0-3.381,1.03-4.9,1.938-1.863,1.112-3.039,1.743-3.651,1.13-.377-.377-.336-1.046.125-2.047a24.024,24.024,0,0,1,2.109-3.358,25.087,25.087,0,0,0,1.765-2.736,12.077,12.077,0,0,0,.943-4.573,48.815,48.815,0,0,1,1.773-9.946c2.1-7.432,9.181-12.485,10.58-13.423l.125-.084h10.737l.125.084c1.4.938,8.481,5.992,10.58,13.423a48.78,48.78,0,0,1,1.773,9.945,12.084,12.084,0,0,0,.944,4.574,25.072,25.072,0,0,0,1.764,2.736A24.042,24.042,0,0,1,2018.312-317.368Z" transform="translate(0 -30.871)"/>
    <path id="Path_30" data-name="Path 30" d="M2164.423-372.636a23.937,23.937,0,0,0-4.906-17.235l-.291-.375,2.727-2.3a.529.529,0,0,0,.063-.745.529.529,0,0,0-.744-.063l-2.727,2.3-.321-.35a23.938,23.938,0,0,0-16.16-7.746,23.933,23.933,0,0,0-16.233,4.929,10.006,10.006,0,0,1,6.691,3.531,10.038,10.038,0,0,1,1.906,9.529,10.036,10.036,0,0,1,8.334,2.7l.4.381-10.739,9.056a7.334,7.334,0,0,1,.2,1.215l11.223-9.464.308.456a10.033,10.033,0,0,1,1.256,8.67,10.121,10.121,0,0,1,1.384-.1,10.038,10.038,0,0,1,7.688,3.583,10,10,0,0,1,2.35,7.188,23.934,23.934,0,0,0,7.592-15.16Zm-9.14,7.3a11.108,11.108,0,0,0-5.062-3.409,11.241,11.241,0,0,0-2.908-.533l-.532-.026.065-.529a11.179,11.179,0,0,0-.034-2.956,11.109,11.109,0,0,0-2.506-5.564,11.1,11.1,0,0,0-5.062-3.408,11.182,11.182,0,0,0-2.908-.533l-.532-.025.064-.529a11.259,11.259,0,0,0-.035-2.957,11.1,11.1,0,0,0-2.506-5.564,11.029,11.029,0,0,0-3.981-2.995l-.905-.4.865-.482a22.825,22.825,0,0,1,4.363-1.866,22.914,22.914,0,0,1,8.769-.945,22.923,22.923,0,0,1,8.484,2.411,22.87,22.87,0,0,1,7.154,5.68,22.87,22.87,0,0,1,4.392,8.011,22.918,22.918,0,0,1,.944,8.77A22.947,22.947,0,0,1,2161-364.7h0a22.921,22.921,0,0,1-2.576,3.984l-.622.771-.244-.96a11.034,11.034,0,0,0-2.28-4.433Z" transform="translate(-120.116)"/>
  </g>
</svg>
