<svg xmlns="http://www.w3.org/2000/svg" width="66.068" height="47.719" viewBox="0 0 66.068 47.719">
  <g id="education_and_e_learning_icon" transform="translate(-2700.003 390.193)">
    <path id="Path_34" data-name="Path 34" d="M2730.611-348.671a.437.437,0,0,0,.417.048,35.985,35.985,0,0,1,13.759-2.913,33.191,33.191,0,0,1,13.315,2.888l.244.059.074-.019.127-.04a33.168,33.168,0,0,1,13.312-2.888,35.5,35.5,0,0,1,13.761,2.914h0a.438.438,0,0,0,.414-.048.51.51,0,0,0,.209-.419v-37.8a.5.5,0,0,0-.28-.458,30.9,30.9,0,0,0-13.11-2.845,42.463,42.463,0,0,0-14.346,2.714l-.187.067-.187-.067a42.481,42.481,0,0,0-14.349-2.715,30.872,30.872,0,0,0-13.107,2.845.5.5,0,0,0-.28.458v37.8a.507.507,0,0,0,.213.419Zm27.252-1.16-.752-.294a33.711,33.711,0,0,0-12.324-2.373,36.228,36.228,0,0,0-12.718,2.4l-.744.279V-386.56l.33-.144a30.141,30.141,0,0,1,12.152-2.488,41.317,41.317,0,0,1,13.688,2.532l.368.13Zm14.979-39.362a30.136,30.136,0,0,1,12.152,2.489l.33.144v36.744l-.744-.279a36.238,36.238,0,0,0-12.719-2.4,33.707,33.707,0,0,0-12.324,2.373l-.751.294v-36.7l.368-.13A41.311,41.311,0,0,1,2772.842-389.193Z" transform="translate(-25.144)"/>
    <path id="Path_35" data-name="Path 35" d="M2765.575-367.056a.493.493,0,0,0-.493.493v40.184h-26.215l-.075.008a.666.666,0,0,0-.066.012l-.09.013-.089-.017a.484.484,0,0,0-.393.085,8.064,8.064,0,0,1-5,1.925,9.007,9.007,0,0,1-5.177-1.883l-.061-.035q-.034-.015-.066-.033a.662.662,0,0,0-.062-.032l-.055-.018a.557.557,0,0,0-.069-.011.707.707,0,0,1-.073-.011l-.035-.007h-26.567v-40.184a.493.493,0,0,0-.493-.493.493.493,0,0,0-.493.493v40.676a.493.493,0,0,0,.493.493h26.97l.142.1a9.871,9.871,0,0,0,5.554,1.957,8.872,8.872,0,0,0,5.308-1.945l.148-.11h26.96a.493.493,0,0,0,.493-.493v-40.676a.492.492,0,0,0-.146-.348A.492.492,0,0,0,2765.575-367.056Z" transform="translate(0 -19.134)"/>
  </g>
</svg>
