<svg xmlns="http://www.w3.org/2000/svg" width="91.871" height="67.08" viewBox="0 0 91.871 67.08">
  <g id="olive-branches-award-symbol" transform="translate(-371.812 484.338)">
    <g id="Group_34" data-name="Group 34" transform="translate(374 -482.561)">
      <g id="Group_32" data-name="Group 32" transform="translate(0 0.046)">
        <path id="Path_420" data-name="Path 420" d="M7.346,20.489a8.636,8.636,0,0,0,.908-7.917A11.63,11.63,0,0,0,2.7,6.225s-2.908,3.95-1.283,8.433A10.014,10.014,0,0,0,7.346,20.489Z" transform="translate(0.094 8.216)" fill="none" stroke="#000" stroke-width="3"/>
        <path id="Path_421" data-name="Path 421" d="M5.98,20.4a10.015,10.015,0,0,0,7.069-4.379c2.574-4.016.607-8.509.607-8.509a11.63,11.63,0,0,0-6.817,4.971A8.609,8.609,0,0,0,5.98,20.4Z" transform="translate(11.197 9.356)" fill="none" stroke="#000" stroke-width="3"/>
        <path id="Path_424" data-name="Path 424" d="M12.451,33.193a10.03,10.03,0,0,0,3.985-7.3c.25-4.765-3.683-7.7-3.683-7.7a11.624,11.624,0,0,0-3.468,7.688A8.636,8.636,0,0,0,12.451,33.193Z" transform="matrix(0.875, 0.485, -0.485, 0.875, 26.783, 11.771)" fill="none" stroke="#000" stroke-width="3"/>
        <path id="Path_425" data-name="Path 425" d="M6.4,17.549a8.622,8.622,0,0,0,5.145-6.08,11.618,11.618,0,0,0-1.091-8.361S5.844,4.78,4.7,9.414A10.011,10.011,0,0,0,6.4,17.549Z" transform="translate(8.433 -3.108)" fill="none" stroke="#000" stroke-width="3"/>
        <path id="Path_427" data-name="Path 427" d="M11.6,24.779a8.642,8.642,0,0,0-3.172-7.307A11.613,11.613,0,0,0,.447,14.747S-.1,19.622,3.546,22.7A10.037,10.037,0,0,0,11.6,24.779Z" transform="translate(-1.062 20.921)" fill="none" stroke="#000" stroke-width="3"/>
        <path id="Path_429" data-name="Path 429" d="M12.258,22.65a11.628,11.628,0,0,0-8.393.827s1.524,4.661,6.115,5.946a10.01,10.01,0,0,0,8.19-1.439A8.607,8.607,0,0,0,12.258,22.65Z" transform="translate(2.143 31.248)" fill="none" stroke="#000" stroke-width="3"/>
        <path id="Path_430" data-name="Path 430" d="M7.933,9.735,5.837,8.7c-.11.229-10.889,23.124,19.4,49.013l1.515-1.773C-2.085,31.292,7.509,10.6,7.933,9.735Z" transform="translate(7.389 7.538)"/>
      </g>
      <g id="Group_2406" data-name="Group 2406" transform="translate(53.356 0.046)">
        <path id="Path_420-2" data-name="Path 420" d="M2.391,20.489a8.636,8.636,0,0,1-.908-7.917A11.63,11.63,0,0,1,7.037,6.225s2.908,3.95,1.283,8.434A10.014,10.014,0,0,1,2.391,20.489Z" transform="translate(24.309 8.216)" fill="none" stroke="#000" stroke-width="3"/>
        <path id="Path_421-2" data-name="Path 421" d="M13.788,20.4a10.015,10.015,0,0,1-7.069-4.379C4.144,12,6.112,7.51,6.112,7.51a11.63,11.63,0,0,1,6.817,4.971A8.609,8.609,0,0,1,13.788,20.4Z" transform="translate(3.174 9.356)" fill="none" stroke="#000" stroke-width="3"/>
        <path id="Path_424-2" data-name="Path 424" d="M3.18,0A10.03,10.03,0,0,1,7.164,7.3c.25,4.765-3.683,7.7-3.683,7.7A11.624,11.624,0,0,1,.014,7.31,8.636,8.636,0,0,1,3.18,0Z" transform="matrix(-0.875, 0.485, -0.485, -0.875, 15.339, 45.298)" fill="none" stroke="#000" stroke-width="3"/>
        <path id="Path_425-2" data-name="Path 425" d="M9.915,17.549a8.622,8.622,0,0,1-5.145-6.08A11.618,11.618,0,0,1,5.861,3.108S10.47,4.78,11.61,9.414A10.012,10.012,0,0,1,9.915,17.549Z" transform="translate(9.392 -3.108)" fill="none" stroke="#000" stroke-width="3"/>
        <path id="Path_427-2" data-name="Path 427" d="M.449,24.779a8.642,8.642,0,0,1,3.172-7.308A11.612,11.612,0,0,1,11.6,14.747s.546,4.876-3.1,7.949A10.037,10.037,0,0,1,.449,24.779Z" transform="translate(23.153 20.921)" fill="none" stroke="#000" stroke-width="3"/>
        <path id="Path_429-2" data-name="Path 429" d="M9.777,22.65a11.628,11.628,0,0,1,8.393.827s-1.524,4.661-6.115,5.946a10.01,10.01,0,0,1-8.19-1.439A8.607,8.607,0,0,1,9.777,22.65Z" transform="translate(9.961 31.248)" fill="none" stroke="#000" stroke-width="3"/>
        <path id="Path_430-2" data-name="Path 430" d="M22.7,9.735,24.8,8.7c.11.229,10.889,23.124-19.4,49.014L3.885,55.946C32.72,31.292,23.126,10.6,22.7,9.735Z" transform="translate(-3.885 7.538)"/>
      </g>
    </g>
  </g>
</svg>
