<svg xmlns="http://www.w3.org/2000/svg" width="58.354" height="56.149" viewBox="0 0 58.354 56.149">
  <path id="government_icon" d="M3287.346-407.33h-4.167a19.153,19.153,0,0,0-18.564-18.639v-5.25h7.3v-4.808H3263.5v10.057a19.154,19.154,0,0,0-18.564,18.639h-6.042a4.955,4.955,0,0,0-4.949,4.949v17.555a4.954,4.954,0,0,0,4.949,4.949h48.456a4.955,4.955,0,0,0,4.949-4.949v-17.555a4.955,4.955,0,0,0-4.953-4.948Zm-22.731-27.577h6.176v2.57h-6.176Zm-.559,10.048a18.032,18.032,0,0,1,18,17.528h-36.008a18.032,18.032,0,0,1,18.007-17.528Zm15.083,43.912h-5.513v-16.48a2.761,2.761,0,0,1,2.757-2.757,2.76,2.76,0,0,1,2.757,2.757Zm-6.632,0h-5.513v-16.48a2.76,2.76,0,0,1,2.757-2.757,2.76,2.76,0,0,1,2.757,2.757Zm-6.632,0h-5.514v-16.48a2.76,2.76,0,0,1,2.757-2.757,2.76,2.76,0,0,1,2.757,2.757Zm-6.632,0h-5.513v-16.48a2.76,2.76,0,0,1,2.757-2.757,2.76,2.76,0,0,1,2.757,2.757Zm-6.632,0h-5.51v-16.48a2.761,2.761,0,0,1,2.757-2.757,2.76,2.76,0,0,1,2.757,2.757Zm38.615-3.879a3.884,3.884,0,0,1-3.879,3.879h-7.089v-16.48a3.879,3.879,0,0,0-3.875-3.876,3.873,3.873,0,0,0-3.316,1.88,3.874,3.874,0,0,0-3.316-1.88,3.873,3.873,0,0,0-3.316,1.88,3.874,3.874,0,0,0-3.316-1.88,3.873,3.873,0,0,0-3.316,1.88,3.873,3.873,0,0,0-3.316-1.88,3.874,3.874,0,0,0-3.316,1.88,3.873,3.873,0,0,0-3.316-1.88,3.88,3.88,0,0,0-3.875,3.876v16.48h-7.088a3.884,3.884,0,0,1-3.879-3.879v-17.555a3.884,3.884,0,0,1,3.879-3.879h48.456a3.884,3.884,0,0,1,3.879,3.879Z" transform="translate(-3233.945 436.027)"/>
</svg>
