<svg xmlns="http://www.w3.org/2000/svg" width="48.845" height="48.844" viewBox="0 0 48.845 48.844">
  <g id="healthcare_icon" transform="translate(-3664.63 423.137)">
    <path id="Path_37" data-name="Path 37" d="M3742.733-363.354a2.567,2.567,0,0,0-2.564-2.564h-8.4v-8.4a2.567,2.567,0,0,0-2.564-2.564h-4.794a2.567,2.567,0,0,0-2.564,2.564v8.4h-8.4a2.567,2.567,0,0,0-2.564,2.564v4.794a2.567,2.567,0,0,0,2.564,2.564h8.4v8.4a2.567,2.567,0,0,0,2.564,2.564h4.794a2.545,2.545,0,0,0,1.812-.752,2.545,2.545,0,0,0,.752-1.812V-356h8.4a2.567,2.567,0,0,0,2.564-2.564Zm-1.048,4.794a1.517,1.517,0,0,1-1.516,1.516h-8.924a.525.525,0,0,0-.524.524v8.924a1.518,1.518,0,0,1-1.516,1.516h-4.794a1.518,1.518,0,0,1-1.516-1.516v-8.924a.525.525,0,0,0-.524-.524h-8.924a1.517,1.517,0,0,1-1.516-1.516v-4.794a1.518,1.518,0,0,1,1.516-1.516h8.924a.525.525,0,0,0,.524-.524v-8.924a1.518,1.518,0,0,1,1.516-1.516h4.794a1.518,1.518,0,0,1,1.516,1.516v8.924a.525.525,0,0,0,.524.524h8.924a1.517,1.517,0,0,1,1.516,1.516Z" transform="translate(-37.756 -37.757)"/>
    <path id="Path_38" data-name="Path 38" d="M3709.268-423.137h-40.431a4.212,4.212,0,0,0-4.207,4.207v40.43a4.212,4.212,0,0,0,4.207,4.207h40.431a4.212,4.212,0,0,0,4.207-4.208v-40.43A4.212,4.212,0,0,0,3709.268-423.137Zm3.159,44.638a3.163,3.163,0,0,1-3.159,3.159h-40.431a3.163,3.163,0,0,1-3.159-3.159V-418.93a3.163,3.163,0,0,1,3.159-3.159h40.431a3.163,3.163,0,0,1,3.159,3.159Z"/>
  </g>
</svg>
