<svg xmlns="http://www.w3.org/2000/svg" width="51.448" height="57.436" viewBox="0 0 51.448 57.436">
  <path id="insurance_icon" d="M4079.249-410.105a25.6,25.6,0,0,0-17.491-7.865l-.432-.017v-2.553a.6.6,0,0,0-.6-.6.6.6,0,0,0-.6.6v2.553l-.432.017a25.6,25.6,0,0,0-17.491,7.865,25.59,25.59,0,0,0-7.2,17.771v.038a.285.285,0,0,0,.008.068.778.778,0,0,0,.021.085l.032.128.142.194.044.023.043.025.023.015a.677.677,0,0,0,.067.04l.058.029h.077l.057.009.052.011.221-.059.124-.091.046-.034.02-.019c.013-.013.025-.025.036-.034l.025-.025a7.539,7.539,0,0,1,5.78-2.874c3.3,0,6.017,3.06,6.017,3.06l.043.025a.439.439,0,0,0,.354.077c.122-.019.371-.29.371-.29a7.561,7.561,0,0,1,5.781-2.872,7.5,7.5,0,0,1,5.571,2.648l.115.128v23.54a3.6,3.6,0,0,1-3.591,3.591,3.6,3.6,0,0,1-3.592-3.591.6.6,0,0,0-.6-.6.6.6,0,0,0-.6.6,4.791,4.791,0,0,0,4.785,4.785,4.791,4.791,0,0,0,4.785-4.785v-23.54l.115-.128a7.5,7.5,0,0,1,5.571-2.648,7.542,7.542,0,0,1,5.772,2.865l.036.035a.506.506,0,0,1,.059.052l.029.031v.008l.145.082.025.014.083.024.072.009.045.007.046.009.078-.018a.571.571,0,0,0,.146-.043.72.72,0,0,0,.063-.04l.083-.064a.759.759,0,0,1,.073-.065l.034-.033a7.541,7.541,0,0,1,5.779-2.872,7.542,7.542,0,0,1,5.776,2.87l.025.026a.553.553,0,0,1,.043.041.608.608,0,0,0,.153.114.576.576,0,0,1,.049.032l.061.031a.52.52,0,0,0,.351,0l.049-.023.061-.037.05-.027.037-.023.163-.21.038-.148a.614.614,0,0,0,.015-.061l.01-.132a25.588,25.588,0,0,0-7.2-17.754Zm5.984,16.276-.812-.579a8.323,8.323,0,0,0-4.843-1.6,8.474,8.474,0,0,0-5.969,2.526l-.313.3-.314-.3a8.473,8.473,0,0,0-5.969-2.526,8.474,8.474,0,0,0-5.969,2.526l-.314.3-.314-.3a8.472,8.472,0,0,0-5.969-2.526,8.474,8.474,0,0,0-5.969,2.526l-.314.3-.314-.3a8.473,8.473,0,0,0-5.969-2.526,8.325,8.325,0,0,0-4.843,1.6l-.812.579.1-.992a24.486,24.486,0,0,1,7.932-15.615,24.463,24.463,0,0,1,16.469-6.365,24.464,24.464,0,0,1,16.469,6.365,24.487,24.487,0,0,1,7.931,15.615Z" transform="translate(-4035 421.14)"/>
</svg>
