<svg xmlns="http://www.w3.org/2000/svg" width="62.757" height="60.095" viewBox="0 0 62.757 60.095">
  <path id="it_and_consulting_icon" d="M4393.337-367a.6.6,0,0,0,.6-.6v-.015c.127-4.985-2.972-9.191-9.209-12.5a49.907,49.907,0,0,0-13.063-4.427l-.489-.095v-1.9l.224-.181a10.758,10.758,0,0,0,.848-.768,15.8,15.8,0,0,0,4.014-8.849l.053-.458.455-.069a7.468,7.468,0,0,0,4.842-2.874c1.639-2.325,1.759-5.674.359-9.955a.6.6,0,0,0-.241-.311l-.943-.635.008-.331a15.738,15.738,0,0,0-3.767-10.612c-3.107-3.5-7.946-5.292-14.375-5.315-6.387,0-11.225,1.774-14.376,5.273a15.74,15.74,0,0,0-3.762,10.606l.008.331-.938.631a.612.612,0,0,0-.247.317c-1.394,4.286-1.273,7.636.362,9.953a7.5,7.5,0,0,0,4.845,2.909l.453.071.053.455a15.814,15.814,0,0,0,4.024,8.862,11.146,11.146,0,0,0,.85.769l.222.181v1.895l-.489.1a49.9,49.9,0,0,0-13.063,4.427c-6.238,3.31-9.336,7.516-9.209,12.5v.015a.6.6,0,0,0,.6.6ZM4371.9-383.268c4.611.958,19.737,4.825,20.776,14.356l.073.669h-29.492v-7.708l.562-.038c4.262-.292,7.355-2.216,7.355-4.575v-2.854Zm-9.246,6.118c-4.31,0-7.313-1.794-7.313-3.4v-5.109l.857.4a14.107,14.107,0,0,0,6.144,1.3h.616a14.07,14.07,0,0,0,6.153-1.3l.857-.4v5.109c0,1.6-3,3.4-7.313,3.4Zm-15.121-21.25a5.814,5.814,0,0,1-2.853-2.086l-.918-1.254.35.07c-.713-1.855-.615-4.3.3-7.29l.062-.2,1.059-.711a.6.6,0,0,0,.267-.562v-.025a14.82,14.82,0,0,1,3.421-10.353l.011-.013c2.827-3.2,7.343-4.837,13.424-4.862h.134c5.955,0,10.441,1.635,13.339,4.859l.015.017a14.819,14.819,0,0,1,3.421,10.353v.025a.6.6,0,0,0,.265.561l1.061.712.063.2c1.135,3.711,1.025,6.563-.325,8.477a5.851,5.851,0,0,1-2.873,2.1l-2.119.708,1.475-1.678a7.466,7.466,0,0,0,1.821-5.557,5.052,5.052,0,0,0-1.731-3l-.2-.171-.011-.266v-.02l-1.763.1a25.34,25.34,0,0,1-14.772-3.708l-.031-.021a.607.607,0,0,0-.784.079c-1.081,1.161-3.735,3.167-9.343,3.518l-.692.043.053-.692c.307-4.019,1.626-6.986,3.921-8.82a10.665,10.665,0,0,1,6.842-2.128,12.461,12.461,0,0,1,2.166.178h.018a.6.6,0,0,0,.241,0h.019a12.442,12.442,0,0,1,2.17-.178,10.511,10.511,0,0,1,6.816,2.164c2.2,1.79,3.5,4.631,3.846,8.447l1.245.246c-.342-4.171-2.274-12.052-11.971-12.052h-.041a14.656,14.656,0,0,0-2.174.162l-.09.013-.09-.013a15.02,15.02,0,0,0-2.214-.162,12.676,12.676,0,0,0-7.117,2.066c-3.024,2.116-4.674,5.742-4.906,10.778l-.012.268-.207.17a5.051,5.051,0,0,0-1.751,2.983,7.452,7.452,0,0,0,1.821,5.555l1.483,1.685Zm6.449,10.11c-3.851-3.838-3.92-9.787-3.916-10.453v-.231a.628.628,0,0,0-.1-.166c-1.795-2.057-2.586-3.917-2.354-5.53a3.781,3.781,0,0,1,1.3-2.412l.169-.145h.223c1.113,0,6.85-.158,10.467-3.281l.324-.28.371.213a26.652,26.652,0,0,0,13.1,3.54,15.476,15.476,0,0,0,2.39-.126l.274-.042.21.18a3.789,3.789,0,0,1,1.292,2.354c.232,1.584-.581,3.5-2.351,5.525a.6.6,0,0,0-.153.407v.994l-7.726,4.142-.316-.3a2.846,2.846,0,0,0-2.053-.785,2.855,2.855,0,0,0-2.008.9,2.853,2.853,0,0,0-.785,2.053,2.855,2.855,0,0,0,.9,2.007,2.85,2.85,0,0,0,2.052.785,2.851,2.851,0,0,0,2.007-.9,2.86,2.86,0,0,0,.787-1.976v-.295l-.02-.382,7-3.754-.251,1.254a13.879,13.879,0,0,1-3.381,6.662l-.025.027a11.4,11.4,0,0,1-7.883,3.175c-.184,0-.368,0-.551-.013h-.573a11.426,11.426,0,0,1-8.42-3.148Zm12.9-3.525a1.679,1.679,0,0,1-1.678,1.677,1.679,1.679,0,0,1-1.677-1.677,1.679,1.679,0,0,1,1.677-1.677,1.679,1.679,0,0,1,1.674,1.676Zm-34.247,22.867c.43-4.094,3.5-7.6,9.107-10.424a50.709,50.709,0,0,1,11.667-3.934l.729-.155v2.9c0,2.363,3.026,4.245,7.359,4.575l.558.043v7.655h-29.49Z" transform="translate(-4331.284 426.995)" stroke="#fff" stroke-width="0.2"/>
</svg>
