<svg xmlns="http://www.w3.org/2000/svg" xmlns:xlink="http://www.w3.org/1999/xlink" width="59.86" height="59.582" viewBox="0 0 59.86 59.582">
  <defs>
    <clipPath id="clip-path">
      <rect id="Rectangle_96" data-name="Rectangle 96" width="59.86" height="59.582" fill="none" stroke="#000" stroke-width="0.2"/>
    </clipPath>
  </defs>
  <g id="manufacturing_icon" transform="translate(-1040 -499)">
    <g id="Group_118" data-name="Group 118" transform="translate(1040 499)">
      <g id="Mask_Group_117" data-name="Mask Group 117" transform="translate(0 0)" clip-path="url(#clip-path)">
        <path id="Path_1172" data-name="Path 1172" d="M0,59.582H59.86v-.6H57.883V41.269H55.9V35.354H53.077l-.092-.582a1.438,1.438,0,0,1-.031-.264V33.019c0-3.036,0-6.073.008-9.109a2.322,2.322,0,0,1,.3-1.039,6.2,6.2,0,0,0-1.214-7.3c-.183-.175-.378-.338-.573-.5a8.853,8.853,0,0,1-.909-.837q-2.876-3.175-5.725-6.373L42.9,5.69a8.774,8.774,0,0,1-1.361-2.037A6.529,6.529,0,0,0,35.84,0a7.011,7.011,0,0,0-5.248,2.67,8.944,8.944,0,0,1-.692.79c-.74.724-1.5,1.434-2.252,2.143q-.758.71-1.511,1.426-.952.912-1.909,1.819c-1.819,1.728-3.7,3.515-5.5,5.316a4.356,4.356,0,0,0-.659,5.055,1.148,1.148,0,0,1-.231,1.537c-1.238,1.213-2.464,2.439-3.689,3.666l-.758.758.554.625q2.246-2.243,4.49-4.488a.969.969,0,0,1,1.363-.235,4.67,4.67,0,0,0,5.725-.693c1.977-1.867,4.014-3.73,5.985-5.532l2.159-1.977a1.591,1.591,0,0,1,2.228.106l.343.385c1.562,1.756,3.123,3.512,4.663,5.288a1.956,1.956,0,0,1,.425,1.224A6.893,6.893,0,0,0,42.065,23a2.448,2.448,0,0,1,.224,1.046q.015,4.61.007,9.218v.97c0,.13-.01.259-.023.407l-.053.741H39.328v5.92h-1.94V58.948H18.509V41.28H16.641V38.144h1.842v-.8a3.926,3.926,0,0,0-.536.015,1.43,1.43,0,0,1-1.7-1.126,4.145,4.145,0,0,0-3.894-2.79c-1.508-.013-3.017-.016-4.525-.02l-3.443,0H3.9v3.965H1.99v.806H3.884v3.133H1.961v17.66H0ZM32.061,13.207c-.482.453-.959.9-1.441,1.347l-2.634,2.432q-1.546,1.425-3.089,2.853a4.047,4.047,0,0,1-2.746,1.1,3.7,3.7,0,0,1-2.7-1.161,3.779,3.779,0,0,1,.2-5.435q3.292-3.156,6.609-6.286L28.4,6.026c.155-.148,1.167-1.068,1.167-1.068l-.059,1.429a6.4,6.4,0,0,0,3.111,5.329l.6.4Zm3.806-1.456H35.8a5.31,5.31,0,1,1,.069,0m6.048,5.6-.39.708-4.81-5.4.809-.281a6.561,6.561,0,0,0,4.542-5.028l.25-1.071,6.617,7.4-1.207.052a6.435,6.435,0,0,0-5.811,3.615m.261,2.687a5.36,5.36,0,0,1,5.5-5.458,5.456,5.456,0,0,1,5.455,5.436v.034a5.446,5.446,0,0,1-5.416,5.474h-.046a5.355,5.355,0,0,1-5.49-5.487m9.944,4.642V35.339H43.2V24.691l.885.576a6.334,6.334,0,0,0,7.157-.037ZM40.234,36.265H55.052v5H40.234Zm-2,5.866h18.8V58.95h-18.8Zm-33.423-7.9,3.132,0c1.377,0,2.754-.006,4.132.014a3.345,3.345,0,0,1,3.363,2.379l.188.717H4.815ZM15.69,41.268H4.817V38.19H15.69Zm-12.873.825,4.9,0c2.913,0,5.824.005,8.736-.013a1.254,1.254,0,0,1,.965.313,1.293,1.293,0,0,1,.3.975c-.02,1.106-.011,2.214,0,3.322l.01,1.664v.814H15.762v.8c.322,0,.654,0,.991.023a1.066,1.066,0,0,1,.94.89c.02,2.069.019,4.138.018,6.236v1.821H2.82V49.979h9.8v-.8h-9.8Z" transform="translate(0 0)" fill="#231f20" stroke="#000" stroke-width="0.2"/>
        <rect id="Rectangle_92" data-name="Rectangle 92" width="0.816" height="0.765" transform="translate(8.867 28.507)" fill="#231f20" stroke="#000" stroke-width="0.2"/>
        <rect id="Rectangle_93" data-name="Rectangle 93" width="0.782" height="0.801" transform="translate(19.706 28.504)" fill="#231f20" stroke="#000" stroke-width="0.2"/>
        <rect id="Rectangle_94" data-name="Rectangle 94" width="0.776" height="0.777" transform="translate(15.772 30.477)" fill="#231f20" stroke="#000" stroke-width="0.2"/>
        <rect id="Rectangle_95" data-name="Rectangle 95" width="0.721" height="0.733" transform="translate(6.933 25.589)" fill="#231f20" stroke="#000" stroke-width="0.2"/>
        <path id="Path_1173" data-name="Path 1173" d="M60.873,59.312h0a5.381,5.381,0,0,0-5.4,5.326,5.4,5.4,0,0,0,5.342,5.335h0a5.319,5.319,0,0,0,3.759-9.084,5.182,5.182,0,0,0-3.7-1.577m2.34,4.417,1.994-1.13v4l-1.99-1.055-.41.709,1.99,1.191-3.542,2.064V67.223h-.875v2.255L56.8,67.469l2.015-1.206-.4-.708L56.427,66.62V62.609l1.989,1.111.4-.7-1.952-1.193,3.494-2.072v2.322h.854V59.763l3.617,2.063L62.8,63.013Z" transform="translate(-13.171 -14.083)" fill="#231f20" stroke="#000" stroke-width="0.2"/>
      </g>
    </g>
  </g>
</svg>
