<svg xmlns="http://www.w3.org/2000/svg" width="62.012" height="48.918" viewBox="0 0 62.012 48.918">
  <g id="media_and_entertainment_icon" transform="translate(-3910.789 -1295.5)">
    <path id="Path_42" data-name="Path 42" d="M4157.347,1465.589a.451.451,0,0,0,.215.054.464.464,0,0,0,.249-.071l12-7.637a.454.454,0,0,0,0-.766l-12-7.638a.463.463,0,0,0-.466-.013.453.453,0,0,0-.231.4V1465.2a.454.454,0,0,0,.234.394Zm.669-1.224v-13.627l10.705,6.813Z" transform="translate(-220.133 -137.592)"/>
    <path id="Path_43" data-name="Path 43" d="M3972.348,1295.5h-61.106a.454.454,0,0,0-.453.453v48.012a.454.454,0,0,0,.453.453h61.106a.454.454,0,0,0,.453-.453v-48.012a.454.454,0,0,0-.453-.453Zm-.453,36.916v11.1h-10v-11.1Zm0-12v11.1h-10v-11.1Zm0-12v11.1h-10v-11.1Zm0-12v11.1h-10v-11.1Zm-10.912,0v47.106h-38.376v-47.106Zm-39.283,36.009v11.1h-10v-11.1Zm0-12v11.1h-10v-11.1Zm0-12v11.1h-10v-11.1Zm0-12v11.1h-10v-11.1Z"/>
  </g>
</svg>
