<svg xmlns="http://www.w3.org/2000/svg" width="59.263" height="54.792" viewBox="0 0 59.263 54.792">
  <g id="news_and_publication_icon" transform="translate(-2717.894 -790.973)">
    <path id="Path_44" data-name="Path 44" d="M2774.486,790.973H2730.61a2.678,2.678,0,0,0-2.675,2.676V798.6h-7.365a2.679,2.679,0,0,0-2.676,2.676V840.22a5.559,5.559,0,0,0,5.5,5.545h48.216a5.553,5.553,0,0,0,5.547-5.547V793.649a2.679,2.679,0,0,0-2.671-2.676Zm-53.915,8.676h7.365v19.325a.519.519,0,0,0,.044.211l.062.141-.062.141a.523.523,0,0,0-.044.211V840.22a4.5,4.5,0,0,1-4.469,4.492h-.037a4.5,4.5,0,0,1-4.48-4.491v-38.95a1.623,1.623,0,0,1,1.621-1.622Zm51.043,45.063H2726.8l.591-.6a5.511,5.511,0,0,0,1.6-3.894V819.677a.527.527,0,0,0-.044-.21l-.062-.141.062-.141h0a.518.518,0,0,0,.044-.211V793.649a1.623,1.623,0,0,1,1.621-1.621h43.875a1.623,1.623,0,0,1,1.621,1.621V840.22a4.5,4.5,0,0,1-4.494,4.492Z"/>
    <path id="Path_45" data-name="Path 45" d="M2866.2,917.381h12.048a1.729,1.729,0,0,0,1.727-1.727V903.606a1.729,1.729,0,0,0-1.727-1.727H2866.2a1.729,1.729,0,0,0-1.727,1.727v12.048a1.729,1.729,0,0,0,1.727,1.727Zm0-14.448h12.048a.674.674,0,0,1,.673.673v12.048a.674.674,0,0,1-.673.673H2866.2a.674.674,0,0,1-.673-.673V903.606a.674.674,0,0,1,.673-.673Z" transform="translate(-129.407 -97.916)"/>
    <path id="Path_46" data-name="Path 46" d="M3039.418,901.879h-16.3a.527.527,0,1,0,0,1.054h16.3a.527.527,0,1,0,0-1.054Z" transform="translate(-269.004 -97.916)"/>
    <path id="Path_47" data-name="Path 47" d="M3039.418,963.559h-16.3a.527.527,0,1,0,0,1.054h16.3a.527.527,0,1,0,0-1.054Z" transform="translate(-269.004 -152.372)"/>
    <path id="Path_48" data-name="Path 48" d="M3039.418,1025.234h-16.3a.527.527,0,0,0,0,1.054h16.3a.527.527,0,1,0,0-1.054Z" transform="translate(-269.004 -206.823)"/>
    <path id="Path_49" data-name="Path 49" d="M2899.821,1086.91H2865a.527.527,0,1,0,0,1.054h34.824a.527.527,0,1,0,0-1.054Z" transform="translate(-129.407 -261.275)"/>
    <path id="Path_50" data-name="Path 50" d="M2899.821,1148.59H2865a.527.527,0,1,0,0,1.054h34.824a.527.527,0,1,0,0-1.054Z" transform="translate(-129.407 -315.73)"/>
  </g>
</svg>
