<svg xmlns="http://www.w3.org/2000/svg" width="57.476" height="58.304" viewBox="0 0 57.476 58.304">
  <g id="telecom_icon" transform="translate(-3822.813 -791.914)">
    <path id="Path_58" data-name="Path 58" d="M4150.883,861.273l.785.785.187-.221a20.733,20.733,0,0,0,0-26.69l-.187-.221-.784.785.157.187a19.656,19.656,0,0,1,0,25.189Z" transform="translate(-284.487 -37.298)"/>
    <path id="Path_59" data-name="Path 59" d="M4107.8,892.88l.789.789.184-.244a12.688,12.688,0,0,0,0-15.2l-.185-.244-.789.789.137.184a11.563,11.563,0,0,1,0,13.742Z" transform="translate(-247.126 -74.633)"/>
    <rect id="Rectangle_10" data-name="Rectangle 10" width="37.409" height="1.107" transform="translate(3832.218 849.111)"/>
    <path id="Path_60" data-name="Path 60" d="M4194.813,792.126l-.187-.211-.784.783.166.187a27.706,27.706,0,0,1,0,36.611l-.166.187.784.784.188-.211a28.8,28.8,0,0,0,0-38.13Z" transform="translate(-321.739 -0.001)"/>
    <path id="Path_61" data-name="Path 61" d="M3888.275,861.783l.187.221.784-.785-.156-.187a19.653,19.653,0,0,1,0-25.19l.157-.187-.784-.784-.186.221a20.726,20.726,0,0,0,0,26.69Z" transform="translate(-52.546 -37.251)"/>
    <path id="Path_62" data-name="Path 62" d="M3946.82,893.617l.788-.788-.137-.184a11.561,11.561,0,0,1,0-13.748l.137-.184-.787-.787-.184.245a12.7,12.7,0,0,0,0,15.2Z" transform="translate(-105.185 -74.585)"/>
    <path id="Path_63" data-name="Path 63" d="M3823.917,811.187a27.6,27.6,0,0,1,6.909-18.3l.167-.187-.783-.783-.187.211a28.809,28.809,0,0,0,0,38.13l.187.211.783-.784-.165-.187a27.618,27.618,0,0,1-6.911-18.311Z"/>
    <path id="Path_64" data-name="Path 64" d="M3956.491,938.677a1.793,1.793,0,1,0-3.006.131L3942.127,969.1H3967.9Zm-12.766,29.315,4.948-13.2h12.679l4.947,13.2Zm5.362-14.3,5.327-14.207a1.781,1.781,0,0,0,1.179-.043l5.344,14.25Z" transform="translate(-103.465 -124.924)"/>
  </g>
</svg>
