<svg xmlns="http://www.w3.org/2000/svg" width="358.447" height="95.846" viewBox="0 0 358.447 95.846">
  <g id="Group_1" data-name="Group 1" transform="translate(-35.488 -375.64)">
    <path id="Path_1" data-name="Path 1" d="M52.064,380.027h-12.5V436.74H53.449l-.309-34.181,21.7,34.181H87.421V380.027H73.534l.316,34.564Zm87.269,39.852c1-7.815-.608-14.639-5.982-20.392a21.769,21.769,0,0,0-16.1-6.736c-12.963,0-22.315,10.96-22.315,22.836a22.593,22.593,0,0,0,22.548,22.547,20.62,20.62,0,0,0,12.112-3.849,24.926,24.926,0,0,0,8.665-10.881H125.227a8.583,8.583,0,0,1-7.745,3.984c-4.985,0-9.278-2.989-9.823-7.51Zm-31.517-9.656c.312-2,2.916-6.745,9.513-6.745s9.2,4.748,9.511,6.745Zm36.967,5.209c0,10.421,7.439,22.624,22.929,22.624s22.931-12.2,22.931-22.624-7.441-22.6-22.931-22.6-22.929,12.176-22.929,22.53Zm12.726,0a10.7,10.7,0,1,1,0,.074Z" transform="translate(-2.51 -2.699)" fill="#fff" fill-rule="evenodd"/>
    <path id="Path_2" data-name="Path 2" d="M443.885,416.257c-.383,11.114,5.6,19.864,20.473,19.864,15.036,0,19.783-9.138,19.783-18.178,0-6.594-2.681-11.5-13.262-16.253-10.2-4.593-11.734-5.287-11.734-7.893,0-2.676,2.451-4.446,4.983-4.446,4.451,0,4.909,3.606,5.215,5.521h14.343c-.226-13.637-11.277-17.622-19.1-17.622-9.513,0-19.865,6.051-19.865,17.467,0,10.658,9.894,14.639,13.88,16.248,8.744,3.679,11.126,4.6,11.126,7.592A5.475,5.475,0,0,1,464.211,424c-1.845,0-5.911-1.152-5.911-7.741Zm44.705-8.892c0,14.565,11.966,28.757,29.836,28.757,17.636,0,30.061-13.662,30.061-29.45s-12.5-29.421-29.987-29.421c-15.644,0-29.91,11.493-29.91,30.035Zm14.5-.837c0-7.972,5.448-16.557,15.493-16.557,10.429,0,15.411,9.426,15.411,16.781,0,7.281-4.983,16.627-15.258,16.627-9.741,0-15.646-8.126-15.646-16.781Zm53.22,28.5H570.8V413.418h15.876V400.7H570.8v-9.654h16.492V378.319H556.306Zm45.625,0h14.491V391.043h11.125V378.319H590.734v12.724h11.2Z" transform="translate(-251.232 -0.991)" fill="#e82629" fill-rule="evenodd"/>
    <path id="Path_3" data-name="Path 3" d="M42.511,585.092H40.2V563.863H35.488v-2.31H47.217v2.31H42.511ZM61.28,572.109h9.884v2.325H61.28v8.378h9.884v2.28H58.951V561.554H71.164v2.31H61.28Zm42.393-4.465a10.406,10.406,0,0,0-3.544-3.231,9.276,9.276,0,0,0-4.456-1.034,9,9,0,0,0-6.726,2.907,9.669,9.669,0,0,0-2.78,6.93,10.08,10.08,0,0,0,2.77,7.193,8.952,8.952,0,0,0,6.736,2.922,9.511,9.511,0,0,0,4.412-1.017,9.73,9.73,0,0,0,3.428-3.045h2.745a11.79,11.79,0,0,1-4.333,4.649,11.483,11.483,0,0,1-6.093,1.65,11.61,11.61,0,0,1-8.655-3.553,12.09,12.09,0,0,1-3.469-8.832,11.959,11.959,0,0,1,.937-4.687,12.317,12.317,0,0,1,2.748-4,11.471,11.471,0,0,1,3.771-2.535,11.684,11.684,0,0,1,4.54-.876,11.879,11.879,0,0,1,6.321,1.712,12.172,12.172,0,0,1,4.427,4.852Zm17.8,17.447h-2.334V561.554h2.334v10.555h11.18V561.554h2.315v23.538h-2.315V574.355h-11.18Zm42.863-2.809-.279-20.729h2.3v23.538h-2.79l-12.913-20.757.26,20.757h-2.278V561.554h2.779Zm17.021-9.066a10,10,0,0,0,2.792,7.206,9.182,9.182,0,0,0,6.9,2.909,8.941,8.941,0,0,0,6.776-2.943,10.188,10.188,0,0,0,2.755-7.246,9.527,9.527,0,0,0-2.839-6.909,9.221,9.221,0,0,0-6.855-2.9,9.03,9.03,0,0,0-3.14.558,9.443,9.443,0,0,0-2.795,1.642,10.043,10.043,0,0,0-2.641,3.477,9.848,9.848,0,0,0-.955,4.207m-2.428-.034a11.806,11.806,0,0,1,.95-4.687,12.181,12.181,0,0,1,2.735-4,11.983,11.983,0,0,1,3.808-2.549,12.289,12.289,0,0,1,9.081.014,12.384,12.384,0,0,1,6.561,6.513,12.24,12.24,0,0,1,.907,4.713,13.129,13.129,0,0,1-.784,4.6,11.643,11.643,0,0,1-2.322,3.8,11.775,11.775,0,0,1-8.969,3.986,11.327,11.327,0,0,1-8.514-3.57,12.177,12.177,0,0,1-3.452-8.815m47.2,11.91h-10.6V561.554h2.329v21.258h8.269Zm13.608-11.876a10,10,0,0,0,2.8,7.206,9.19,9.19,0,0,0,6.9,2.909,8.925,8.925,0,0,0,6.769-2.943,10.187,10.187,0,0,0,2.766-7.246,9.511,9.511,0,0,0-2.853-6.909,9.207,9.207,0,0,0-6.845-2.9,8.983,8.983,0,0,0-3.141.558,9.251,9.251,0,0,0-2.792,1.642,9.929,9.929,0,0,0-2.644,3.477,9.751,9.751,0,0,0-.962,4.207m-2.423-.034a11.881,11.881,0,0,1,.945-4.687,12.36,12.36,0,0,1,2.739-4,11.95,11.95,0,0,1,3.806-2.549,11.7,11.7,0,0,1,4.5-.863,12.131,12.131,0,0,1,11.138,7.389,12.286,12.286,0,0,1,.91,4.713,13.36,13.36,0,0,1-.776,4.6,11.686,11.686,0,0,1-2.325,3.8,12.207,12.207,0,0,1-4.063,2.975,11.965,11.965,0,0,1-4.909,1.011,11.355,11.355,0,0,1-8.522-3.57,12.221,12.221,0,0,1-3.445-8.815m44.806.628h14.628a12.263,12.263,0,0,1-3.7,8.442,11.541,11.541,0,0,1-8.368,3.315A11.362,11.362,0,0,1,276.154,582a12.212,12.212,0,0,1-3.435-8.82,11.92,11.92,0,0,1,.939-4.687,12.419,12.419,0,0,1,2.75-4,11.558,11.558,0,0,1,3.858-2.571,12.736,12.736,0,0,1,4.7-.841,11.612,11.612,0,0,1,6.158,1.661,12.15,12.15,0,0,1,4.367,4.733h-2.848a11.483,11.483,0,0,0-3.566-3.135,8.857,8.857,0,0,0-4.241-1.008,9.165,9.165,0,0,0-6.865,2.9,9.7,9.7,0,0,0-2.8,6.983,9.952,9.952,0,0,0,2.8,7.216,9.2,9.2,0,0,0,6.9,2.9,9.029,9.029,0,0,0,5.8-2.066,9.508,9.508,0,0,0,3.335-5.373H282.125ZM311.6,585.092h-2.312V561.554H311.6Zm16.044-12.983h9.9v2.325h-9.9v8.378h9.9v2.28H325.322V561.554h12.222v2.31h-9.9Zm22.372,6.257h2.226a5.265,5.265,0,0,0,1.239,3.477,3.968,3.968,0,0,0,3.078,1.3,4.267,4.267,0,0,0,3.265-1.3,4.907,4.907,0,0,0,1.206-3.481c0-2.132-1.662-3.748-4.95-4.832l-.584-.192a8.294,8.294,0,0,1-3.725-2.257,5.411,5.411,0,0,1-1.145-3.565,6.34,6.34,0,0,1,1.764-4.61,6.034,6.034,0,0,1,4.525-1.791,5.534,5.534,0,0,1,4.209,1.634,7.031,7.031,0,0,1,1.726,4.593h-2.184a4.877,4.877,0,0,0-1.147-2.97,3.355,3.355,0,0,0-2.6-1.044,3.8,3.8,0,0,0-2.848,1.139,4,4,0,0,0-1.113,2.9,3.288,3.288,0,0,0,1.394,2.818,10.872,10.872,0,0,0,2.85,1.223c.8.261,1.42.468,1.839.633a7.16,7.16,0,0,1,3.306,2.269,6.026,6.026,0,0,1,1.012,3.636,8.045,8.045,0,0,1-1.865,5.521,6.339,6.339,0,0,1-4.956,2.1,6.018,6.018,0,0,1-4.673-1.983,7.647,7.647,0,0,1-1.845-5.219" transform="translate(0 -114.081)" fill="#fff" fill-rule="evenodd"/>
    <path id="Path_4" data-name="Path 4" d="M936.4,375.64a7.291,7.291,0,1,0,7.288,7.29,7.287,7.287,0,0,0-7.288-7.29m0,13.4a6.107,6.107,0,1,1,6.108-6.108,6.109,6.109,0,0,1-6.108,6.108" transform="translate(-549.749 0)" fill="#fff" fill-rule="evenodd"/>
    <path id="Path_5" data-name="Path 5" d="M942.752,385.372a9.888,9.888,0,0,1,1.769-.143,3.054,3.054,0,0,1,1.973.508,1.652,1.652,0,0,1,.556,1.3,1.68,1.68,0,0,1-1.17,1.6v.03a1.592,1.592,0,0,1,.889,1.236,18.13,18.13,0,0,0,.509,1.79h-1.2a7.462,7.462,0,0,1-.43-1.513c-.193-.836-.484-1.107-1.152-1.122h-.586v2.636h-1.158Zm1.158,2.834h.69c.8,0,1.28-.426,1.28-1.064,0-.7-.484-1.028-1.248-1.028a3.829,3.829,0,0,0-.722.055Z" transform="translate(-558.142 -5.899)" fill="#fff"/>
  </g>
</svg>
