<?xml version="1.0" encoding="utf-8"?>
<!-- Generator: Adobe Illustrator 23.0.4, SVG Export Plug-In . SVG Version: 6.00 Build 0)  -->
<svg version="1.1" id="Layer_1" xmlns="http://www.w3.org/2000/svg" xmlns:xlink="http://www.w3.org/1999/xlink" x="0px" y="0px"
	 viewBox="0 0 125.388 29.742" enable-background="new 0 0 125.388 29.742" xml:space="preserve">
<g>
	<polygon fill="#636363" points="105.563,18.979 105.563,10.315 107.196,10.315 107.196,13.9 110.808,10.315 112.807,10.315 
		108.822,14.167 113.28,18.979 111.171,18.979 107.196,14.552 107.196,18.979 	"/>
	<path fill="#636363" d="M95.381,18.979V9.971l6.384,5.297c0.176,0.149,0.352,0.309,0.529,0.478
		c0.178,0.169,0.366,0.361,0.562,0.576v-6.008h1.512v9.002l-6.516-5.392c-0.173-0.145-0.342-0.299-0.503-0.461
		c-0.164-0.164-0.319-0.332-0.464-0.509v6.024H95.381L95.381,18.979z"/>
	<path fill="#636363" d="M92.839,18.979l-1.141-2.233h-3.98l-1.168,2.233h-1.718l4.868-9.008l4.861,9.008H92.839L92.839,18.979z
		 M88.32,15.575h2.801l-1.029-1.976c-0.059-0.127-0.122-0.273-0.185-0.437c-0.063-0.164-0.129-0.345-0.192-0.547
		c-0.056,0.19-0.113,0.368-0.176,0.531c-0.061,0.164-0.124,0.313-0.187,0.453L88.32,15.575L88.32,15.575z"/>
	<path fill="#636363" d="M78.437,18.979v-8.664h2.534c0.725,0,1.259,0.035,1.603,0.101c0.345,0.066,0.64,0.178,0.881,0.332
		c0.311,0.198,0.554,0.457,0.725,0.775c0.171,0.32,0.258,0.673,0.258,1.059c0,0.462-0.124,0.849-0.37,1.158
		c-0.249,0.309-0.607,0.525-1.078,0.649c0.586,0.079,1.047,0.309,1.385,0.689c0.335,0.382,0.504,0.861,0.504,1.44
		c0,0.352-0.07,0.685-0.213,1c-0.14,0.317-0.342,0.586-0.605,0.806c-0.274,0.24-0.614,0.41-1.022,0.509
		c-0.407,0.099-1.093,0.148-2.053,0.148L78.437,18.979L78.437,18.979z M80.038,17.801H80.6c0.572,0,1.001-0.02,1.285-0.059
		c0.284-0.04,0.506-0.109,0.673-0.208c0.202-0.113,0.357-0.269,0.466-0.461c0.11-0.194,0.164-0.406,0.164-0.641
		c0-0.274-0.065-0.517-0.199-0.721c-0.133-0.206-0.324-0.366-0.57-0.478c-0.155-0.069-0.333-0.117-0.532-0.149
		c-0.199-0.031-0.464-0.047-0.792-0.047H80.6h-0.562V17.801L80.038,17.801z M80.038,13.973h0.624c0.778,0,1.329-0.091,1.652-0.274
		c0.321-0.184,0.483-0.493,0.483-0.927c0-0.473-0.148-0.806-0.445-0.998c-0.298-0.192-0.86-0.287-1.69-0.287h-0.624L80.038,13.973
		L80.038,13.973z"/>
	<path fill="#636363" d="M66.116,17.243l1.25-0.52c0.119,0.386,0.337,0.681,0.652,0.883c0.317,0.204,0.721,0.305,1.212,0.305
		c0.466,0,0.836-0.117,1.11-0.349c0.274-0.232,0.412-0.543,0.412-0.934c0-0.509-0.47-0.963-1.41-1.362
		c-0.132-0.059-0.232-0.103-0.303-0.129c-1.061-0.466-1.769-0.887-2.122-1.264c-0.353-0.376-0.531-0.838-0.531-1.382
		c0-0.707,0.268-1.279,0.8-1.717c0.533-0.438,1.232-0.657,2.097-0.657c0.71,0,1.306,0.123,1.785,0.37
		c0.478,0.247,0.809,0.602,0.993,1.063l-1.225,0.567c-0.194-0.273-0.405-0.47-0.637-0.596c-0.229-0.127-0.495-0.19-0.793-0.19
		c-0.42,0-0.755,0.099-1.003,0.295c-0.249,0.198-0.374,0.462-0.374,0.794c0,0.521,0.544,1.006,1.634,1.455
		c0.083,0.036,0.148,0.065,0.195,0.083c0.953,0.396,1.607,0.782,1.965,1.158c0.355,0.378,0.533,0.848,0.533,1.412
		c0,0.821-0.288,1.473-0.863,1.956c-0.575,0.483-1.351,0.725-2.331,0.725c-0.821,0-1.493-0.169-2.019-0.509
		C66.622,18.361,66.278,17.876,66.116,17.243L66.116,17.243z"/>
	<polygon fill="#636363" points="63.243,18.979 63.243,10.315 64.81,10.315 64.81,18.979 	"/>
	<path fill="#636363" d="M53.847,18.979l3.127-4.533l-2.765-4.131h1.645l1.389,2.119c0.077,0.109,0.214,0.34,0.416,0.687
		l0.099,0.172c0.069-0.123,0.148-0.253,0.234-0.392c0.086-0.137,0.182-0.289,0.292-0.454l1.468-2.132h1.607l-2.819,4.107
		l3.037,4.557h-1.733l-1.612-2.456l-0.027-0.04c-0.175-0.297-0.337-0.574-0.488-0.834c-0.074,0.133-0.155,0.273-0.243,0.416
		c-0.088,0.144-0.182,0.291-0.283,0.441l-1.686,2.475H53.847L53.847,18.979z"/>
	<path fill="#636363" d="M51.84,18.979l-1.095-2.233h-3.817l-1.119,2.233h-1.648l4.669-9.008l4.662,9.008H51.84L51.84,18.979z
		 M47.506,15.575h2.686l-0.987-1.976c-0.056-0.127-0.117-0.273-0.178-0.437c-0.061-0.164-0.123-0.345-0.184-0.547
		c-0.054,0.19-0.108,0.368-0.169,0.531c-0.058,0.164-0.119,0.313-0.18,0.453L47.506,15.575L47.506,15.575z"/>
	<polygon fill-rule="evenodd" clip-rule="evenodd" fill="#636363" points="12.108,26.87 26.155,2.872 30.487,10.13 21.121,26.752 	
		"/>
	<polygon fill-rule="evenodd" clip-rule="evenodd" fill="#636363" points="26.272,17.739 34.935,17.622 40.202,26.752 
		31.306,26.752 	"/>
</g>
</svg>
