<svg xmlns="http://www.w3.org/2000/svg" width="99.498" height="40.238" viewBox="0 0 99.498 40.238">
  <g id="bcg" transform="translate(-28.414 -1.002)" opacity="0.93">
    <g id="Group_2" data-name="Group 2" transform="translate(28.414 1.002)">
      <path id="Path_11" data-name="Path 11" d="M28.414,40.369V3.009c0-1.117,0-1.117,1.133-1.117,5.8,0,11.6-.046,17.394.017A11.789,11.789,0,0,1,55.775,5.6a19.211,19.211,0,0,1,1.851,2.686A10.4,10.4,0,0,1,58.15,9.35a20.411,20.411,0,0,1,17.3-8.282c5.7.14,9.237,2.018,10.935,3.411-1.351,2.135-2.712,4.282-4.037,6.374C81.1,10.29,79.976,9.67,78.779,9.26a12.761,12.761,0,0,0-16.542,9.7,12.482,12.482,0,0,0,8.949,14.15c7.168,2.053,14.017-2.127,15.732-9.469a77.5,77.5,0,0,1,2.316-9.057C91.607,8.1,96.121,3.614,102.875,1.822a20.826,20.826,0,0,1,16.739,2.227c.567.345.653.614.284,1.181-1.231,1.9-2.415,3.827-3.668,5.824-.353-.2-.651-.356-.936-.533a12.531,12.531,0,1,0-8.83,23c5.837,1.027,10.764-2.173,12.739-7.589.286-.784-.2-.789-.728-.789q-4.929,0-9.859,0c-.306,0-.613-.033-1.1-.061.653-1.043,1.208-1.939,1.771-2.831.785-1.241,1.587-2.471,2.357-3.721a1.2,1.2,0,0,1,1.157-.66c4.675.024,9.351.019,14.026.009.507,0,.834.044.918.683a20.108,20.108,0,0,1-12.218,21.3c-8.138,3.247-18.343.693-23.631-6.579-.135-.187-.3-.351-.514-.593-.675.777-1.275,1.515-1.925,2.2a19.923,19.923,0,0,1-16.554,6.3,19.5,19.5,0,0,1-12.944-5.968c-.494-.5-.734-.557-1.186.088a11.129,11.129,0,0,1-8.832,4.962c-4.333.222-8.684.118-13.026.142-2.558.014-5.116,0-7.673,0C29,40.406,28.765,40.387,28.414,40.369Zm14.577-7.034v0c1.813,0,3.627.011,5.439,0a4.518,4.518,0,0,0,4.387-4.091c.209-2.712-1.813-4.779-4.795-4.812-3.5-.038-7,0-10.5-.019-.576,0-.821.177-.817.777.02,2.484.026,4.969,0,7.453-.006.589.231.711.765.7C39.311,33.319,41.152,33.336,42.991,33.336ZM41.954,17.489h4.4a4.257,4.257,0,0,0,4.32-3.973,4.1,4.1,0,0,0-4.021-4.546c-3.069-.088-6.143-.02-9.215-.031-.5,0-.724.18-.721.7.014,2.377.019,4.754,0,7.13,0,.573.228.735.768.725C38.97,17.475,40.462,17.49,41.954,17.489Z" transform="translate(-28.414 -1.002)" fill="#636363"/>
    </g>
  </g>
</svg>
