<?xml version="1.0" encoding="utf-8"?>
<!-- Generator: Adobe Illustrator 23.0.4, SVG Export Plug-In . SVG Version: 6.00 Build 0)  -->
<svg version="1.1" id="Layer_1" xmlns="http://www.w3.org/2000/svg" xmlns:xlink="http://www.w3.org/1999/xlink" x="0px" y="0px"
	 viewBox="0 0 125.388 29.742" enable-background="new 0 0 125.388 29.742" xml:space="preserve">
<g id="ZYl5NQ.tif">
	<g>
		<path fill="#636363" d="M37.322,1c0.047,0.007,0.095,0.016,0.142,0.019c0.871,0.065,1.746,0.097,2.613,0.2
			c1.458,0.174,2.889,0.485,4.212,1.152c1.112,0.56,2.097,1.311,2.994,2.171c2.121,2.034,3.481,4.493,4.067,7.375
			c0.004,0.021,0.004,0.042-0.009,0.069c-0.021-0.051-0.042-0.102-0.063-0.153c-0.611-1.453-1.6-2.581-2.933-3.415
			c-0.055-0.034-0.109-0.09-0.134-0.149c-1.231-2.9-3.376-4.81-6.325-5.851c-1.108-0.391-2.252-0.631-3.418-0.768
			c-1.629-0.192-3.264-0.176-4.899-0.124c-0.459,0.015-0.911,0.097-1.346,0.259c-0.514,0.191-0.812,0.568-0.965,1.08
			c-0.162,0.541-0.208,1.097-0.216,1.658c-0.002,0.122-0.003,0.245-0.003,0.367c0,6.074,0,12.147,0,18.221
			c0,0.77,0.006,1.541,0.146,2.3c0.061,0.333,0.156,0.662,0.268,0.982c0.131,0.375,0.415,0.617,0.778,0.769
			c0.432,0.181,0.885,0.272,1.348,0.312c1.445,0.125,2.893,0.097,4.338,0.019c1.618-0.087,3.198-0.391,4.708-1.001
			c2.727-1.102,4.628-3.022,5.707-5.759c0.029-0.073,0.095-0.145,0.162-0.187c1.125-0.693,1.956-1.652,2.554-2.822
			c0.06-0.117,0.113-0.236,0.167-0.356c0.053-0.119,0.102-0.24,0.183-0.351c-0.1,0.403-0.185,0.811-0.304,1.209
			c-0.774,2.596-2.134,4.828-4.152,6.65c-1.506,1.36-3.266,2.209-5.237,2.648c-1.056,0.235-2.123,0.389-3.202,0.444
			c-0.886,0.045-1.774,0.076-2.661,0.078c-3.979,0.008-7.958,0.004-11.938,0.004c-0.06,0-0.12,0-0.188,0c0-0.164,0-0.316,0-0.491
			c0.054,0,0.109,0.001,0.163,0c0.915-0.016,1.825-0.077,2.718-0.292c0.153-0.037,0.302-0.085,0.453-0.129
			c0.856-0.251,1.387-0.819,1.646-1.665c0.207-0.675,0.282-1.367,0.31-2.067c0.007-0.175,0.006-0.35,0.006-0.525
			c0-5.562,0-11.124,0.001-16.686c0-0.78-0.046-1.555-0.242-2.314c-0.038-0.148-0.087-0.293-0.137-0.437
			c-0.263-0.759-0.794-1.232-1.551-1.476c-0.615-0.199-1.246-0.309-1.886-0.364c-0.487-0.042-0.977-0.065-1.491-0.098
			c0-0.16,0-0.333,0-0.505C28.244,1,32.783,1,37.322,1z"/>
		<path fill="#636363" d="M99.429,17.222c0.092,0,0.166,0,0.246,0c0.006,0.032,0.016,0.061,0.017,0.09
			c0.044,0.855,0.021,1.707-0.219,2.535c-0.092,0.315-0.223,0.629-0.393,0.908c-0.433,0.711-1.103,0.962-1.908,0.877
			c-0.919-0.096-1.443-0.672-1.756-1.487c-0.245-0.64-0.325-1.311-0.369-1.989c-0.039-0.606-0.081-1.212-0.125-1.817
			c-0.055-0.754-0.735-1.714-1.792-1.928c-0.426-0.086-0.864-0.123-1.298-0.153c-0.361-0.025-0.726-0.004-1.088-0.008
			c-0.092-0.001-0.132,0.019-0.131,0.122c0.004,1.487-0.001,2.973,0.007,4.46c0.002,0.424,0.045,0.846,0.197,1.249
			c0.131,0.35,0.365,0.586,0.721,0.708c0.38,0.13,0.773,0.18,1.17,0.205c0.239,0.015,0.479,0.022,0.728,0.033
			c0,0.087,0,0.172,0,0.265c-2.415,0-4.826,0-7.249,0c0-0.085,0-0.169,0-0.26c0.224-0.013,0.448-0.008,0.666-0.041
			c0.357-0.055,0.715-0.115,1.063-0.21c0.377-0.102,0.608-0.375,0.733-0.743c0.132-0.386,0.176-0.785,0.177-1.188
			c0.004-2.882,0.008-5.763-0.004-8.645c-0.002-0.367-0.073-0.738-0.153-1.099c-0.1-0.45-0.398-0.751-0.847-0.858
			c-0.372-0.089-0.754-0.137-1.134-0.192c-0.163-0.024-0.33-0.02-0.504-0.03c0-0.084,0-0.161,0-0.254
			c0.038-0.003,0.08-0.008,0.121-0.008c2.204,0.002,4.408-0.009,6.611,0.013c1.1,0.011,2.188,0.154,3.228,0.545
			c0.428,0.161,0.824,0.377,1.185,0.662c1.211,0.957,1.185,2.858,0.032,3.817c-0.574,0.477-1.242,0.755-1.953,0.947
			c-0.609,0.165-1.23,0.257-1.857,0.318c-0.044,0.004-0.084,0.048-0.126,0.074c0.04,0.029,0.076,0.076,0.12,0.086
			c0.719,0.164,1.396,0.423,1.98,0.887c0.698,0.555,1.125,1.291,1.406,2.122c0.195,0.576,0.265,1.174,0.316,1.775
			c0.025,0.3,0.048,0.602,0.102,0.898c0.033,0.181,0.11,0.358,0.19,0.525c0.227,0.472,0.863,0.47,1.127,0.229
			c0.145-0.132,0.274-0.297,0.365-0.47c0.223-0.429,0.306-0.901,0.341-1.377c0.035-0.479,0.039-0.96,0.056-1.441
			C99.431,17.329,99.429,17.281,99.429,17.222z M90.621,13.979c0.037,0.004,0.062,0.01,0.087,0.009
			c0.655-0.009,1.311-0.001,1.966-0.032c0.603-0.029,1.197-0.138,1.763-0.36c0.728-0.285,1.305-0.736,1.608-1.482
			c0.181-0.446,0.225-0.912,0.212-1.388c-0.032-1.196-0.62-2.003-1.75-2.388c-0.721-0.246-1.47-0.302-2.223-0.291
			c-0.37,0.006-0.74,0.048-1.108,0.091c-0.256,0.03-0.427,0.187-0.463,0.447c-0.045,0.328-0.093,0.658-0.096,0.988
			c-0.01,1.42-0.005,2.841-0.004,4.261C90.615,13.882,90.619,13.929,90.621,13.979z"/>
		<path fill="#636363" d="M62.169,7.776c0,1.685,0,3.359,0,5.044c-0.095,0-0.189,0-0.282,0c-0.071-0.314-0.133-0.63-0.215-0.942
			c-0.217-0.832-0.537-1.616-1.094-2.285c-0.593-0.711-1.372-1.107-2.254-1.325c-0.791-0.196-1.596-0.248-2.408-0.207
			c-0.126,0.006-0.251,0.035-0.375,0.059c-0.496,0.096-0.732,0.428-0.796,0.901c-0.039,0.29-0.075,0.582-0.077,0.874
			c-0.008,1.412-0.004,2.825-0.004,4.237c0,0.038,0.005,0.076,0.008,0.122c0.229,0,0.453,0.022,0.672-0.005
			c0.389-0.047,0.784-0.089,1.159-0.193c0.933-0.257,1.502-0.9,1.751-1.816c0.129-0.473,0.194-0.964,0.291-1.463
			c0.038,0,0.114,0,0.203,0c0,2.418,0,4.838,0,7.27c-0.076,0-0.155,0-0.232,0c-0.059-0.354-0.104-0.709-0.181-1.057
			c-0.059-0.267-0.141-0.532-0.24-0.788c-0.347-0.904-1.027-1.407-1.963-1.585c-0.496-0.094-1.122-0.119-1.462-0.058
			c-0.002,0.042-0.007,0.088-0.007,0.134c0,1.412-0.006,2.825,0.004,4.237c0.003,0.374,0.032,0.753,0.095,1.121
			c0.102,0.598,0.289,0.8,0.891,0.877c1.352,0.173,2.672,0.044,3.908-0.577c0.99-0.497,1.622-1.318,2.032-2.327
			c0.317-0.779,0.48-1.595,0.576-2.426c0.003-0.03,0.005-0.061,0.01-0.091c0.002-0.012,0.01-0.024,0.018-0.043
			c0.079,0,0.161,0,0.253,0c0,1.94,0,3.879,0,5.827c-4.07,0-8.139,0-12.218,0c0-0.084,0-0.165,0-0.258
			c0.22-0.013,0.442-0.013,0.661-0.041c0.302-0.039,0.605-0.086,0.902-0.153c0.527-0.118,0.849-0.46,0.951-0.984
			c0.068-0.346,0.124-0.7,0.125-1.051c0.01-2.851,0.007-5.702,0.004-8.553c0-0.385-0.041-0.767-0.152-1.14
			c-0.128-0.43-0.395-0.716-0.83-0.851c-0.43-0.133-0.871-0.182-1.317-0.205c-0.112-0.006-0.225-0.001-0.346-0.001
			c0-0.107,0-0.188,0-0.28C54.209,7.776,58.182,7.776,62.169,7.776z"/>
		<path fill="#636363" d="M37.648,21.301c0-0.097,0-0.179,0-0.268c0.225-0.013,0.448-0.014,0.667-0.04
			c0.29-0.035,0.58-0.079,0.865-0.139c0.611-0.129,0.932-0.541,1.024-1.134c0.054-0.348,0.089-0.703,0.09-1.056
			c0.007-2.755,0.007-5.51,0-8.264c-0.001-0.335-0.023-0.674-0.083-1.003c-0.142-0.785-0.449-1.09-1.238-1.231
			c-0.39-0.07-0.789-0.089-1.184-0.13c-0.043-0.005-0.086-0.005-0.139-0.007c0-0.085,0-0.165,0-0.254
			c0.041-0.003,0.079-0.009,0.117-0.009c2.318,0.002,4.635-0.007,6.952,0.012c0.991,0.008,1.97,0.156,2.9,0.522
			c0.796,0.313,1.453,0.837,2.038,1.447c1.067,1.113,1.721,2.436,1.901,3.971c0.244,2.085-0.398,3.899-1.763,5.466
			c-0.951,1.092-2.165,1.713-3.59,1.941c-0.71,0.114-1.424,0.171-2.141,0.173c-2.099,0.006-4.198,0.002-6.297,0.003
			C37.733,21.301,37.699,21.301,37.648,21.301z M42.094,14.347c-0.001,0-0.002,0-0.003,0c0,1.539-0.007,3.078,0.005,4.617
			c0.003,0.4,0.054,0.801,0.111,1.198c0.061,0.424,0.327,0.672,0.746,0.754c0.047,0.009,0.094,0.022,0.141,0.029
			c1.129,0.156,2.242,0.086,3.326-0.277c1.09-0.365,1.851-1.092,2.296-2.153c0.345-0.823,0.497-1.689,0.573-2.572
			c0.067-0.781,0.072-1.563,0.027-2.345c-0.049-0.848-0.164-1.685-0.419-2.5c-0.41-1.31-1.216-2.242-2.537-2.691
			c-0.988-0.335-2.007-0.416-3.039-0.367c-0.202,0.01-0.405,0.064-0.601,0.119c-0.253,0.071-0.431,0.243-0.494,0.498
			c-0.061,0.244-0.122,0.496-0.124,0.745C42.089,11.05,42.094,12.699,42.094,14.347z"/>
		<path fill="#636363" d="M87.583,14.808c-0.049,1.981-0.919,3.874-2.533,5.435c-0.756,0.731-1.64,1.229-2.679,1.428
			c-1.423,0.273-2.74-0.012-3.903-0.862c-1.743-1.275-2.793-3.004-3.12-5.137c-0.374-2.44,0.392-4.551,1.984-6.39
			c0.542-0.625,1.16-1.163,1.918-1.52c1.681-0.792,3.978-0.607,5.519,0.785c1.313,1.186,2.213,2.61,2.624,4.336
			C87.522,13.424,87.578,13.976,87.583,14.808z M85.303,14.529c-0.005-0.962-0.039-1.923-0.174-2.877
			c-0.1-0.702-0.245-1.393-0.523-2.05C84.196,8.635,83.522,7.96,82.484,7.7c-0.694-0.173-1.394-0.174-2.091-0.012
			c-0.775,0.18-1.387,0.601-1.829,1.265c-0.232,0.348-0.396,0.728-0.523,1.125c-0.333,1.046-0.442,2.128-0.493,3.216
			c-0.061,1.321-0.04,2.64,0.126,3.954c0.094,0.743,0.239,1.474,0.525,2.171c0.386,0.941,1.025,1.618,2.021,1.909
			c0.596,0.174,1.204,0.198,1.818,0.117c1.103-0.144,1.921-0.698,2.431-1.692c0.302-0.589,0.465-1.222,0.582-1.869
			C85.253,16.775,85.296,15.653,85.303,14.529z"/>
		<path fill="#636363" d="M74.461,7.295c0,2.021,0,4.021,0,6.029c-0.097,0-0.187,0-0.278,0c-0.086-0.362-0.162-0.724-0.259-1.081
			c-0.29-1.063-0.717-2.062-1.414-2.928c-0.643-0.798-1.43-1.383-2.446-1.615c-0.565-0.129-1.134-0.157-1.703-0.028
			c-0.769,0.174-1.331,0.632-1.733,1.298c-0.351,0.579-0.546,1.217-0.681,1.874c-0.29,1.423-0.319,2.863-0.276,4.308
			c0.023,0.787,0.087,1.571,0.222,2.347c0.128,0.734,0.308,1.452,0.651,2.12c0.569,1.108,1.474,1.723,2.717,1.825
			c1.19,0.098,2.288-0.145,3.227-0.922c0.766-0.634,1.238-1.458,1.517-2.402c0.174-0.589,0.257-1.194,0.294-1.815
			c0.093,0,0.182,0,0.293,0c-0.013,0.157-0.023,0.317-0.04,0.475c-0.09,0.817-0.268,1.612-0.633,2.353
			c-0.75,1.524-1.958,2.412-3.661,2.597c-1.487,0.161-2.826-0.186-3.989-1.149c-0.58-0.48-1.08-1.033-1.501-1.656
			c-0.723-1.072-1.184-2.246-1.33-3.533c-0.189-1.67,0.159-3.233,0.985-4.69c0.602-1.062,1.395-1.955,2.417-2.632
			c0.839-0.555,1.764-0.816,2.771-0.742c0.668,0.049,1.279,0.289,1.833,0.651c0.353,0.23,0.672,0.514,1.006,0.773
			c0.165,0.128,0.321,0.272,0.498,0.382c0.246,0.152,0.44,0.103,0.615-0.13c0.194-0.257,0.279-0.562,0.359-0.866
			c0.063-0.24,0.113-0.485,0.16-0.729c0.016-0.083,0.041-0.125,0.132-0.117C74.292,7.301,74.371,7.295,74.461,7.295z"/>
		<path fill="#636363" d="M36.962,7.445c-0.05,0.386-0.1,0.776-0.151,1.165c-0.11,0.84-0.22,1.68-0.33,2.52
			c-0.062,0.472-0.126,0.944-0.182,1.416c-0.013,0.112-0.083,0.092-0.15,0.091c-0.069-0.001-0.148,0.027-0.163-0.093
			c-0.12-0.953-0.244-1.906-0.369-2.859c-0.092-0.701-0.187-1.402-0.28-2.104c-0.044-0.331,0.052-0.609,0.324-0.807
			c0.267-0.194,0.561-0.218,0.854-0.067C36.809,6.859,36.955,7.11,36.962,7.445z"/>
		<path fill="#636363" d="M76.351,24.365c0.231,0,0.456,0,0.699,0c0,0.431,0,0.855,0,1.306c0.039-0.034,0.057-0.045,0.069-0.061
			c0.364-0.511,1.318-0.449,1.682,0.164c0.331,0.559,0.283,1.482-0.11,2.001c-0.387,0.51-1.3,0.49-1.574,0.046
			c-0.013-0.022-0.022-0.046-0.033-0.069c-0.012,0.008-0.024,0.016-0.036,0.024c0,0.094,0,0.188,0,0.292c-0.236,0-0.461,0-0.696,0
			C76.351,26.84,76.351,25.61,76.351,24.365z M77.013,26.734c0.036,0.152,0.056,0.319,0.114,0.47
			c0.098,0.256,0.292,0.367,0.564,0.361c0.262-0.005,0.422-0.151,0.509-0.382c0.117-0.31,0.108-0.627-0.006-0.935
			c-0.09-0.243-0.275-0.358-0.539-0.357c-0.269,0.001-0.461,0.119-0.545,0.367C77.061,26.405,77.046,26.564,77.013,26.734z"/>
		<path fill="#636363" d="M74.34,26.9c-0.674,0-1.329,0-1.982,0c-0.056,0.247,0.093,0.52,0.34,0.633
			c0.253,0.115,0.672,0.097,0.846-0.195c0.015-0.025,0.053-0.049,0.082-0.05c0.218-0.004,0.435-0.002,0.695-0.002
			c-0.055,0.121-0.086,0.223-0.143,0.309c-0.309,0.465-0.768,0.606-1.297,0.573c-0.129-0.008-0.261-0.036-0.384-0.077
			c-0.541-0.179-0.845-0.568-0.872-1.15c-0.011-0.246,0.001-0.502,0.058-0.74c0.152-0.632,0.741-0.999,1.416-0.946
			c0.832,0.066,1.221,0.65,1.241,1.342C74.343,26.692,74.34,26.787,74.34,26.9z M72.358,26.424c0.416,0,0.823,0,1.231,0
			c-0.002-0.326-0.224-0.56-0.541-0.58C72.651,25.819,72.411,26.017,72.358,26.424z"/>
		<path fill="#636363" d="M80.151,26.898c-0.018,0.307,0.137,0.554,0.392,0.651c0.299,0.114,0.616,0.036,0.793-0.193
			c0.022-0.029,0.056-0.067,0.086-0.068c0.226-0.006,0.452-0.003,0.689-0.003c-0.05,0.252-0.189,0.428-0.362,0.579
			c-0.546,0.474-1.567,0.394-2.037-0.156c-0.156-0.182-0.249-0.399-0.262-0.631c-0.015-0.277-0.025-0.563,0.031-0.832
			c0.138-0.66,0.729-1.055,1.418-0.989c0.767,0.075,1.19,0.51,1.241,1.28c0.008,0.116,0.001,0.233,0.001,0.361
			C81.475,26.898,80.817,26.898,80.151,26.898z M81.399,26.427c-0.001-0.367-0.268-0.597-0.662-0.584
			c-0.323,0.011-0.579,0.275-0.558,0.584C80.582,26.427,80.985,26.427,81.399,26.427z"/>
		<path fill="#636363" d="M85.035,28.077c-0.257,0-0.493,0.003-0.728-0.004c-0.029-0.001-0.07-0.045-0.081-0.077
			c-0.023-0.068-0.031-0.142-0.047-0.228c-0.049,0.043-0.088,0.076-0.127,0.11c-0.295,0.257-0.635,0.343-1.013,0.253
			c-0.35-0.083-0.556-0.323-0.589-0.667c-0.04-0.419,0.106-0.747,0.452-0.872c0.275-0.099,0.576-0.129,0.865-0.191
			c0.077-0.016,0.155-0.029,0.229-0.054c0.103-0.035,0.169-0.103,0.169-0.222c-0.001-0.124-0.052-0.228-0.172-0.246
			c-0.165-0.025-0.338-0.034-0.503-0.014c-0.176,0.021-0.232,0.18-0.274,0.338c-0.224,0-0.445,0-0.681,0
			c0.025-0.318,0.128-0.588,0.408-0.763c0.407-0.256,1.265-0.231,1.659,0.047c0.178,0.125,0.26,0.307,0.265,0.517
			c0.008,0.424,0.004,0.848,0.007,1.272c0.001,0.14,0.006,0.28,0.01,0.42c0.003,0.102,0.015,0.199,0.11,0.267
			C85.015,27.981,85.017,28.028,85.035,28.077z M84.148,26.773c-0.209,0.048-0.421,0.093-0.631,0.146
			c-0.075,0.019-0.152,0.046-0.217,0.087c-0.141,0.088-0.162,0.23-0.139,0.381c0.02,0.13,0.103,0.209,0.227,0.244
			c0.329,0.096,0.7-0.122,0.756-0.457C84.167,27.041,84.148,26.9,84.148,26.773z"/>
		<path fill="#636363" d="M94.083,25.33c0.245,0,0.475,0,0.725,0c0,0.05,0,0.097,0,0.143c0,0.481,0,0.962,0,1.442
			c0,0.052-0.001,0.105,0.002,0.157c0.012,0.291,0.126,0.446,0.351,0.479c0.298,0.044,0.542-0.09,0.621-0.356
			c0.034-0.115,0.05-0.24,0.051-0.361c0.006-0.45,0.002-0.9,0.002-1.351c0-0.047,0-0.095,0-0.15c0.244,0,0.477,0,0.717,0
			c0,0.913,0,1.82,0,2.735c-0.227,0-0.448,0-0.683,0c0-0.111,0-0.222,0-0.371c-0.058,0.068-0.091,0.11-0.128,0.149
			c-0.301,0.315-0.901,0.39-1.272,0.161c-0.222-0.138-0.318-0.353-0.359-0.598c-0.017-0.103-0.029-0.208-0.029-0.313
			c-0.003-0.559-0.002-1.119-0.002-1.678C94.078,25.393,94.081,25.368,94.083,25.33z"/>
		<path fill="#636363" d="M87.355,25.331c0.245,0,0.471,0,0.707,0c0,0.911,0,1.817,0,2.735c-0.218,0-0.438,0-0.672,0
			c0-0.108,0-0.219,0-0.34c-0.027,0.01-0.043,0.011-0.048,0.019c-0.309,0.447-0.859,0.457-1.236,0.321
			c-0.239-0.086-0.382-0.273-0.444-0.514c-0.032-0.126-0.055-0.258-0.056-0.387c-0.007-0.585-0.004-1.171-0.005-1.756
			c0-0.021,0.004-0.043,0.006-0.073c0.237,0,0.47,0,0.723,0c0,0.045,0,0.091,0,0.137c0,0.476,0,0.952,0,1.429
			c0,0.057,0,0.114,0.002,0.17c0.008,0.292,0.119,0.447,0.345,0.481c0.292,0.044,0.539-0.084,0.619-0.341
			c0.04-0.131,0.055-0.274,0.058-0.412c0.007-0.437,0.003-0.874,0.003-1.311C87.355,25.44,87.355,25.392,87.355,25.331z"/>
		<path fill="#636363" d="M66.707,27.42c0,0.224,0,0.431,0,0.648c-0.872,0-1.739,0-2.614,0c0-1.235,0-2.466,0-3.705
			c0.25,0,0.496,0,0.758,0c0,0.057,0,0.108,0,0.159c0,0.914,0.003,1.828-0.003,2.742c-0.001,0.129,0.038,0.16,0.163,0.159
			c0.516-0.007,1.032-0.003,1.548-0.003C66.605,27.42,66.652,27.42,66.707,27.42z"/>
		<path fill="#636363" d="M69.964,27.326c0.192-0.665,0.385-1.33,0.578-1.996c0.253,0,0.497,0,0.759,0
			c-0.014,0.046-0.025,0.085-0.039,0.124c-0.302,0.837-0.606,1.673-0.906,2.511c-0.029,0.08-0.06,0.12-0.154,0.116
			c-0.183-0.009-0.367,0.001-0.55-0.006c-0.04-0.002-0.103-0.034-0.115-0.068c-0.32-0.881-0.635-1.765-0.951-2.648
			c-0.003-0.007,0.001-0.017,0.002-0.029c0.257,0,0.513,0,0.784,0c0.188,0.664,0.376,1.33,0.564,1.995
			C69.946,27.326,69.955,27.326,69.964,27.326z"/>
		<path fill="#636363" d="M93.101,25.846c0,0.751,0,1.48,0,2.22c-0.238,0-0.466,0-0.709,0c0-0.055,0-0.107,0-0.158
			c0-0.638-0.003-1.276,0.003-1.915c0.001-0.116-0.032-0.158-0.148-0.146c-0.081,0.009-0.165,0.002-0.256,0.002
			c0-0.167,0-0.322,0-0.493c0.122,0,0.246,0,0.376,0c0.009-0.145,0.013-0.275,0.027-0.404c0.044-0.395,0.21-0.572,0.603-0.617
			c0.176-0.02,0.356-0.003,0.544-0.003c0,0.186,0,0.368,0,0.556c-0.129,0.047-0.317-0.06-0.4,0.105
			c-0.049,0.097-0.039,0.225-0.058,0.359c0.099,0,0.172,0,0.245,0c0.074,0,0.148,0,0.234,0c0,0.163,0,0.321,0,0.494
			C93.414,25.846,93.267,25.846,93.101,25.846z"/>
		<path fill="#636363" d="M100.481,8.354c-1.067,0.001-1.938-0.865-1.94-1.931c-0.002-1.073,0.868-1.94,1.944-1.939
			c1.07,0.001,1.932,0.865,1.931,1.936C102.416,7.49,101.552,8.353,100.481,8.354z M100.481,8.073
			c0.914-0.002,1.651-0.739,1.652-1.651c0-0.92-0.742-1.659-1.661-1.654c-0.912,0.005-1.649,0.746-1.648,1.657
			C98.826,7.334,99.57,8.074,100.481,8.073z"/>
		<path fill="#636363" d="M88.609,25.355c0.134,0,0.246,0,0.374,0c0-0.254,0-0.5,0-0.757c0.239,0,0.464,0,0.705,0
			c0,0.242,0,0.488,0,0.752c0.157,0,0.298,0,0.446,0c0,0.173,0,0.328,0,0.505c-0.143,0-0.283,0-0.44,0c0,0.098,0,0.176,0,0.253
			c0,0.389,0,0.777,0,1.166c0,0.281,0.025,0.305,0.306,0.308c0.039,0,0.078,0,0.13,0c0,0.172,0,0.338,0,0.541
			c-0.243-0.011-0.488-0.001-0.725-0.039c-0.294-0.047-0.411-0.21-0.413-0.515c-0.004-0.515-0.001-1.031-0.001-1.546
			c0-0.048,0-0.095,0-0.165c-0.104,0-0.199,0.007-0.291-0.004c-0.033-0.004-0.084-0.049-0.086-0.078
			C88.604,25.641,88.609,25.506,88.609,25.355z"/>
		<path fill="#636363" d="M98.086,28.073c-0.235,0-0.457,0-0.69,0c0-1.236,0-2.469,0-3.711c0.227,0,0.452,0,0.69,0
			C98.086,25.595,98.086,26.828,98.086,28.073z"/>
		<path fill="#636363" d="M67.315,28.068c0-0.915,0-1.818,0-2.731c0.234,0,0.466,0,0.706,0c0,0.91,0,1.816,0,2.731
			C67.786,28.068,67.558,28.068,67.315,28.068z"/>
		<path fill="#636363" d="M90.744,25.333c0.234,0,0.463,0,0.7,0c0,0.912,0,1.818,0,2.734c-0.23,0-0.459,0-0.7,0
			C90.744,27.158,90.744,26.249,90.744,25.333z"/>
		<path fill="#636363" d="M90.734,24.338c0.244,0,0.473,0,0.71,0c0,0.212,0,0.419,0,0.647c-0.217,0-0.433,0.002-0.649-0.003
			c-0.021,0-0.058-0.042-0.058-0.065C90.732,24.727,90.734,24.536,90.734,24.338z"/>
		<path fill="#636363" d="M68.027,24.339c0,0.197,0.003,0.384-0.004,0.571c-0.001,0.026-0.049,0.072-0.076,0.073
			c-0.204,0.006-0.409,0.003-0.626,0.003c0-0.217,0-0.428,0-0.647C67.55,24.339,67.778,24.339,68.027,24.339z"/>
		<path fill="#636363" d="M100.778,6.57c0.339,0.228,0.476,0.588,0.697,0.894c-0.272,0.055-0.298,0.043-0.43-0.161
			c-0.102-0.158-0.207-0.314-0.31-0.471c-0.115-0.175-0.27-0.267-0.486-0.247c-0.082,0.008-0.166,0.001-0.265,0.001
			c0,0.296,0,0.586,0,0.886c-0.092,0-0.168,0-0.255,0c0-0.659,0-1.321,0-1.996c0.041-0.002,0.083-0.007,0.126-0.006
			c0.323,0.004,0.647,0.001,0.97,0.017c0.289,0.015,0.465,0.187,0.494,0.449c0.031,0.293-0.105,0.503-0.383,0.59
			C100.889,6.543,100.842,6.554,100.778,6.57z M99.983,6.353c0.264,0,0.517,0.012,0.769-0.004c0.191-0.012,0.307-0.155,0.306-0.33
			c0-0.166-0.107-0.304-0.288-0.316c-0.259-0.017-0.52-0.004-0.787-0.004C99.983,5.919,99.983,6.131,99.983,6.353z"/>
	</g>
</g>
</svg>
