<svg xmlns="http://www.w3.org/2000/svg" width="139.227" height="25.977" viewBox="0 0 139.227 25.977">
  <g id="delloit" transform="translate(-3.279 -4.439)">
    <g id="Group_1" data-name="Group 1" transform="translate(3.279 4.439)">
      <path id="Path_1" data-name="Path 1" d="M3.279,4.5c3.11,0,6.22-.031,9.328.014a13.317,13.317,0,0,1,6.746,1.735,9.694,9.694,0,0,1,4.589,6.272,17.236,17.236,0,0,1-.372,9.867,10.712,10.712,0,0,1-8.14,7.2,17.926,17.926,0,0,1-4.232.443q-3.959,0-7.918,0Q3.279,17.269,3.279,4.5Zm6.76,5.509v14.3a25.225,25.225,0,0,0,2.574-.014,4.62,4.62,0,0,0,4.256-3.368,13.706,13.706,0,0,0,.539-2.826,11.4,11.4,0,0,0-.456-4.75,4.311,4.311,0,0,0-3.6-3.151C12.274,10.046,11.17,10.072,10.039,10.012Z" transform="translate(-3.279 -4.429)" fill="#636363"/>
      <path id="Path_2" data-name="Path 2" d="M46.489,4.44c0,.144.007.288.007.434V30.018H40.091v-.426q0-12.379,0-24.759c0-.131.02-.262.031-.394Z" transform="translate(3.421 -4.439)" fill="#636363"/>
      <path id="Path_3" data-name="Path 3" d="M71.88,4.44V8.674H65.515V4.44Z" transform="translate(8.048 -4.439)" fill="#636363"/>
      <path id="Path_4" data-name="Path 4" d="M57.211,29.425a9.206,9.206,0,0,1-6.659-2.268,8.852,8.852,0,0,1-2.7-5.189,13.2,13.2,0,0,1,.466-6.74,7.9,7.9,0,0,1,6.631-5.369,10.991,10.991,0,0,1,5.217.322,8.044,8.044,0,0,1,5.385,5.331,12.55,12.55,0,0,1-.086,8.441A7.9,7.9,0,0,1,58.654,29.3C58.083,29.381,57.5,29.4,57.211,29.425Zm-3.042-9.9c0,.3-.017.6,0,.9a7.664,7.664,0,0,0,.574,2.741,2.164,2.164,0,0,0,1.5,1.3,2.318,2.318,0,0,0,2.977-1.639,11.6,11.6,0,0,0,.395-4.506,6.69,6.69,0,0,0-.531-2.384,2.107,2.107,0,0,0-1.444-1.256,2.377,2.377,0,0,0-3.057,1.636A9,9,0,0,0,54.168,19.524Z" transform="translate(4.791 -3.483)" fill="#636363"/>
      <path id="Path_5" data-name="Path 5" d="M116.324,21.334H104.912a3.085,3.085,0,0,0,1.8,2.974,6.364,6.364,0,0,0,3.223.413,12.278,12.278,0,0,0,3.961-.895,1.814,1.814,0,0,1,.206-.056c.327,1.423.65,2.826,1,4.323a20.735,20.735,0,0,1-2.184.792,16.345,16.345,0,0,1-8.258.084,7.927,7.927,0,0,1-6.038-6.626,13.591,13.591,0,0,1,.479-7.271,7.657,7.657,0,0,1,6.443-5.214,12.078,12.078,0,0,1,5.055.213,7.144,7.144,0,0,1,5.5,5.909A30.123,30.123,0,0,1,116.324,21.334Zm-11.3-4.145h5.425a2.7,2.7,0,0,0-2.373-3A2.758,2.758,0,0,0,105.022,17.189Z" transform="translate(14.023 -3.484)" fill="#636363"/>
      <path id="Path_6" data-name="Path 6" d="M40.685,21.34H29.336a3.108,3.108,0,0,0,1.8,2.96,6.383,6.383,0,0,0,3.259.418,12.385,12.385,0,0,0,3.962-.9,1.485,1.485,0,0,1,.188-.041c.327,1.418.652,2.829.981,4.254a10.113,10.113,0,0,1-3.108,1.082,18.13,18.13,0,0,1-6.862-.018,8.149,8.149,0,0,1-6.516-6.818,13.739,13.739,0,0,1,.612-7.5,7.634,7.634,0,0,1,6.326-4.916,12.158,12.158,0,0,1,4.917.176,7.049,7.049,0,0,1,5.664,6.234,44.077,44.077,0,0,1,.182,4.975C40.737,21.263,40.716,21.284,40.685,21.34Zm-5.762-4.152a2.924,2.924,0,0,0-1.241-2.6,2.663,2.663,0,0,0-2.877-.05,3.008,3.008,0,0,0-1.378,2.647Z" transform="translate(0.271 -3.484)" fill="#636363"/>
      <path id="Path_7" data-name="Path 7" d="M94.344,4.923v.44c0,1.723.007,3.447-.006,5.17,0,.3.078.391.382.387,1.1-.018,2.194-.007,3.29-.007h.414v4.918h-4.06c-.007.156-.019.282-.019.41q0,3.417,0,6.833v.037c.009,1.528.709,2.149,2.236,1.96a12.674,12.674,0,0,0,1.313-.234c.42-.1.831-.234,1.292-.366v4.45c0,.169.013.313-.2.4a11.91,11.91,0,0,1-7.182.725,4.552,4.552,0,0,1-3.684-4.008,12.944,12.944,0,0,1-.219-2.26c-.026-2.531-.009-5.061-.011-7.592,0-.105-.011-.212-.018-.346h-2.2V10.921h2.206V5.975Z" transform="translate(11.716 -4.351)" fill="#636363"/>
      <path id="Path_8" data-name="Path 8" d="M81.781,4.922v5.989h4.081v4.917H81.8c-.007.161-.018.278-.018.395q0,3.436,0,6.871c0,1.554.7,2.167,2.252,1.973a13,13,0,0,0,1.313-.236c.42-.1.829-.235,1.262-.361.006.11.015.2.015.3q0,2.08,0,4.158c0,.169.009.307-.2.4a11.982,11.982,0,0,1-7.114.746,4.5,4.5,0,0,1-3.723-3.885,14.888,14.888,0,0,1-.246-2.655c-.032-2.41-.011-4.821-.011-7.233v-.46H73.1V10.911c.561,0,1.123,0,1.684,0,.613,0,.537.064.539-.541,0-1.3,0-2.6,0-3.905v-.42C77.486,5.67,79.616,5.3,81.781,4.922Z" transform="translate(9.43 -4.351)" fill="#636363"/>
      <path id="Path_9" data-name="Path 9" d="M71.871,29.018h-6.35v-19h6.35Z" transform="translate(8.049 -3.424)" fill="#636363"/>
      <path id="Path_10" data-name="Path 10" d="M122.186,23.891a3.577,3.577,0,0,1-3.629,3.611,3.624,3.624,0,1,1,.059-7.248A3.594,3.594,0,0,1,122.186,23.891Z" transform="translate(17.042 -1.561)" fill="#636363"/>
    </g>
  </g>
</svg>
