<svg xmlns="http://www.w3.org/2000/svg" width="110" height="18.779" viewBox="0 0 110 18.779">
  <g id="jRtjMt.tif" transform="translate(-6.679 -4.911)">
    <g id="Group_1" data-name="Group 1" transform="translate(6.679 4.911)">
      <path id="Path_1" data-name="Path 1" d="M54.076,16.032c0-1.451-.011-2.653.007-3.853.005-.327-.1-.432-.434-.414-.441.024-.884,0-1.326.009-.243.007-.331-.086-.328-.318.009-.658.01-1.316,0-1.975-.005-.257.1-.348.36-.342.459.014.918-.008,1.377.007.271.009.353-.1.349-.347-.012-.724.012-1.448-.011-2.172-.01-.3.1-.434.4-.524,1.181-.363,2.36-.734,3.527-1.136.415-.143.446.007.441.341-.015,1.037-.01,2.073,0,3.11,0,.823-.1.714.772.723.357,0,.714.011,1.071,0,.271-.011.409.065.4.358q-.022.963,0,1.925c.007.3-.139.359-.406.352-.459-.013-.919.015-1.377-.01-.343-.018-.474.073-.472.433.016,2.172,0,4.344.011,6.516.005,1.085.438,1.417,1.54,1.221.7-.125.7-.125.7.564,0,.592-.032,1.187.01,1.776a.881.881,0,0,1-.588.928,3.992,3.992,0,0,1-5.931-3.082C54.006,18.675,54.124,17.227,54.076,16.032Z" transform="translate(-8.252 -4.911)" fill="#636363"/>
      <path id="Path_2" data-name="Path 2" d="M87.644,15.511c0,1.02,0,2.04,0,3.061,0,1.257.449,1.624,1.706,1.317.485-.118.562,0,.541.432-.034.689-.026,1.382,0,2.072a.736.736,0,0,1-.4.727,4.043,4.043,0,0,1-6.043-2.675,15.571,15.571,0,0,1-.114-2.313c0-1.958-.012-3.916.009-5.873,0-.394-.113-.525-.514-.493s-.782-.01-1.172.012c-.316.017-.463-.056-.448-.4.027-.608.025-1.218,0-1.826-.014-.335.115-.429.441-.411.406.021.816-.015,1.222.009.348.02.481-.086.468-.439-.026-.69,0-1.382-.013-2.072A.461.461,0,0,1,83.7,6.1c1.181-.362,2.359-.736,3.528-1.133.376-.128.421,0,.417.315-.013,1.086.029,2.173-.02,3.257-.024.529.165.655.66.61.4-.037.816.007,1.223-.012.3-.014.382.1.375.374-.015.642-.014,1.283,0,1.925,0,.26-.1.346-.358.338-.475-.015-.953.015-1.427-.01-.351-.018-.472.089-.465.44C87.657,13.306,87.644,14.409,87.644,15.511Z" transform="translate(-9.266 -4.911)" fill="#636363"/>
      <path id="Path_3" data-name="Path 3" d="M95.712,10.921c.251-.018.351-.172.483-.269a8.589,8.589,0,0,1,5.129-1.717c.341,0,.482.077.471.449-.025.866-.019,1.734,0,2.6.007.324-.084.4-.41.348A5.4,5.4,0,0,0,96.82,13.57a3.956,3.956,0,0,0-1.408,3.15c.006,2.227-.008,4.454.011,6.681,0,.409-.13.526-.524.518-1.088-.021-2.176-.015-3.264,0-.318,0-.443-.079-.442-.43q.018-6.885,0-13.77c0-.324.076-.447.422-.442q1.836.029,3.672,0c.344-.005.447.115.428.442C95.695,10.1,95.712,10.5,95.712,10.921Z" transform="translate(-9.667 -5.533)" fill="#636363"/>
      <path id="Path_4" data-name="Path 4" d="M50.938,14.053c0,2.893-.008,5.786.009,8.678,0,.421-.1.579-.562.567-1.138-.03-2.277-.022-3.415,0-.4.007-.561-.08-.559-.515q.024-8.013,0-16.025a.514.514,0,0,1,.427-.6q1.821-.554,3.621-1.17c.387-.132.486-.064.484.338C50.931,8.235,50.938,11.145,50.938,14.053Z" transform="translate(-8.006 -4.911)" fill="#636363"/>
      <path id="Path_5" data-name="Path 5" d="M29.365,10.854a12.147,12.147,0,0,1-1.454,1.554A4.574,4.574,0,0,1,29.365,10.854Z" transform="translate(-6.679 -5.118)" fill="#636363"/>
      <path id="Path_6" data-name="Path 6" d="M25.288,13.942c0-2.879,0-5.759.006-8.638,0-.34-.035-.476-.44-.339q-1.755.594-3.533,1.122c-.347.1-.423.282-.42.607.017,1.428.007,2.858.007,4.375-.141-.1-.2-.135-.247-.175a8.741,8.741,0,0,0-9.525-1.258A7.009,7.009,0,0,0,7.5,19.411c2.394,4.446,9.035,5.565,13.014,2.2.14-.119.244-.314.506-.309,0,.5.03.976-.009,1.45-.034.412.137.493.521.485,1.071-.022,2.143-.034,3.213,0,.475.017.552-.146.549-.559C25.28,19.767,25.288,16.854,25.288,13.942Zm-5.974,5.311a5.749,5.749,0,0,1-3.466,1.119A5.443,5.443,0,0,1,12,18.823a3.572,3.572,0,0,1,.01-5.192,5.729,5.729,0,0,1,7.622-.147A3.644,3.644,0,0,1,19.314,19.253Z" transform="translate(-6.679 -4.911)" fill="#636363"/>
      <path id="Path_7" data-name="Path 7" d="M116.083,9.924a12.368,12.368,0,0,0-6.533-.915,9.086,9.086,0,0,0-5.3,2.106,7.338,7.338,0,0,0,1.916,12.1,12.393,12.393,0,0,0,9.493.163,6.932,6.932,0,0,0,3.847-3.4c.183-.349.14-.46-.274-.453-1.054.02-2.108.016-3.162,0a1.03,1.03,0,0,0-.736.267,5,5,0,0,1-2.275,1.087,9.365,9.365,0,0,1-4-.025,4.165,4.165,0,0,1-3.049-2.4c-.248-.539-.244-.551.335-.551h6.682c2.227,0,4.455-.007,6.682.007.352,0,.516-.078.559-.458A7.233,7.233,0,0,0,116.083,9.924Zm-.685,4.86q-4.635-.013-9.269-.015c-.028,0-.056-.027-.12-.06a3.83,3.83,0,0,1,1.618-1.883,7.1,7.1,0,0,1,6.983.276,2.821,2.821,0,0,1,1.031,1.3C115.729,14.626,115.719,14.785,115.4,14.784Z" transform="translate(-10.322 -5.533)" fill="#636363"/>
      <path id="Path_8" data-name="Path 8" d="M40.922,9.959a12.631,12.631,0,0,0-7.331-.853,8.206,8.206,0,0,0-4.225,1.748,15.822,15.822,0,0,0-1.454,1.554,2.1,2.1,0,0,0-.157.2A7.368,7.368,0,0,0,30.9,23.223a12.583,12.583,0,0,0,6.639.874,9.33,9.33,0,0,0,4.306-1.438,6.878,6.878,0,0,0,2.626-3.117c-1.361,0-2.647,0-3.934,0-.17,0-.271.128-.386.226a5.219,5.219,0,0,1-2.366,1.125,9.53,9.53,0,0,1-3.446.069,4.309,4.309,0,0,1-3.546-2.493c-.251-.555-.253-.555.373-.555,4.436,0,8.872,0,13.308.009.386,0,.528-.107.571-.493A7.232,7.232,0,0,0,40.922,9.959Zm-.9,4.832c-1.476-.027-2.953-.01-4.43-.01q-2.165,0-4.328,0c-.548,0-.559-.02-.3-.48a4.406,4.406,0,0,1,3.392-2.163,7.464,7.464,0,0,1,4.189.492,3.359,3.359,0,0,1,1.809,1.636C40.522,14.613,40.513,14.8,40.024,14.791Z" transform="translate(-7.442 -5.533)" fill="#636363"/>
      <path id="Path_9" data-name="Path 9" d="M81.93,22.779a15.211,15.211,0,0,1-.009-1.886c.008-.3-.081-.411-.4-.425a1.053,1.053,0,0,1-1.032-1.1c-.007-.629,0-1.258,0-2.187a7.725,7.725,0,0,0-.5-3.592,7.074,7.074,0,0,0-4.937-3.922,19.04,19.04,0,0,0-2.985-.51,13.174,13.174,0,0,0-3-.076,21.594,21.594,0,0,0-3.84.583,13.092,13.092,0,0,0-2.447.919c-.291.152-.3.335-.119.618.422.671.81,1.363,1.195,2.056.129.232.213.311.5.16a10.362,10.362,0,0,1,4.067-1.082,20.815,20.815,0,0,1,2.883-.053,10.863,10.863,0,0,1,3.981.849,3.035,3.035,0,0,1,1.95,2.355c.024.166.139.332-.059.452-.17.1-.31,0-.468-.079a10.564,10.564,0,0,0-4.388-1.268,19.1,19.1,0,0,0-4.515.146A9.114,9.114,0,0,0,64,16.241a3.992,3.992,0,0,0-.943,5.4c.9,1.407,2.415,1.8,3.949,2.107.87.173,1.752.139,2.623.23a11.96,11.96,0,0,0,4.065-.315,9.35,9.35,0,0,0,3.054-1.307c.3-.2.54-.2.754.161a3.7,3.7,0,0,0,.67.822,3.034,3.034,0,0,0,3,.527A.879.879,0,0,0,81.93,22.779Zm-5.691-2.694A9.754,9.754,0,0,1,72.5,21.164a12.57,12.57,0,0,1-3.854-.18A3.378,3.378,0,0,1,67.6,20.6a1.569,1.569,0,0,1,.031-2.722,5.342,5.342,0,0,1,2.257-.549c.438-.035.882-.006,1.323-.006A10.124,10.124,0,0,1,76.223,18.4c.31.16.594.317.6.784A.913.913,0,0,1,76.239,20.085Z" transform="translate(-8.836 -5.533)" fill="#636363"/>
    </g>
  </g>
</svg>
