<?xml version="1.0" encoding="utf-8"?>
<!-- Generator: Adobe Illustrator 23.0.4, SVG Export Plug-In . SVG Version: 6.00 Build 0)  -->
<svg version="1.1" id="Layer_1" xmlns="http://www.w3.org/2000/svg" xmlns:xlink="http://www.w3.org/1999/xlink" x="0px" y="0px"
	 viewBox="0 0 125.388 29.742" enable-background="new 0 0 125.388 29.742" xml:space="preserve">
<path fill="#636363" d="M33.8,6.879c-4.941,0-9.057,2.096-9.057,8.42c0,5.01,2.768,8.164,9.184,8.164
	c7.553,0,8.037-4.975,8.037-4.975h-3.66c0,0-0.784,2.679-4.6,2.679c-3.108,0-5.343-2.099-5.343-5.042h13.986v-1.846
	C42.347,11.367,40.499,6.879,33.8,6.879z M33.672,9.239c2.958,0,4.975,1.812,4.975,4.529H28.442
	C28.442,10.884,31.074,9.239,33.672,9.239z"/>
<path fill="#636363" d="M42.344,0.756v19.532c0,1.108-0.079,2.666-0.079,2.666h3.491c0,0,0.125-1.118,0.125-2.14
	c0,0,1.725,2.698,6.414,2.698c4.937,0,8.291-3.428,8.291-8.34c0-4.569-3.081-8.244-8.283-8.244c-4.873,0-6.387,2.631-6.387,2.631
	V0.756H42.344z M51.402,9.342c3.352,0,5.485,2.489,5.485,5.829c0,3.582-2.462,5.924-5.461,5.924c-3.579,0-5.51-2.795-5.51-5.892
	C45.916,12.316,47.648,9.342,51.402,9.342z"/>
<path fill="#636363" d="M69.261,6.879c-7.433,0-7.91,4.07-7.91,4.72h3.7c0,0,0.194-2.377,3.955-2.377
	c2.443,0,4.336,1.119,4.336,3.269v0.765h-4.336c-5.758,0-8.802,1.685-8.802,5.103c0,3.364,2.812,5.194,6.613,5.194
	c5.18,0,6.849-2.862,6.849-2.862c0,1.138,0.087,2.26,0.087,2.26h3.289c0,0-0.128-1.39-0.128-2.28v-7.69
	C76.915,7.94,72.848,6.879,69.261,6.879L69.261,6.879z M73.342,15.554v1.02c0,1.331-0.82,4.641-5.657,4.641
	c-2.648,0-3.782-1.322-3.782-2.854C63.903,15.572,67.726,15.554,73.342,15.554z"/>
<path fill="#636363" d="M74.922,7.517h4.163l5.973,11.966l5.959-11.966h3.77L83.933,28.821h-3.955l3.132-5.939L74.922,7.517
	L74.922,7.517z"/>
<path fill="#636363" d="M96.169,5.244v0.369h0.311v0.244h-0.311v0.571c0,0.157,0.043,0.239,0.167,0.239
	c0.056,0,0.098-0.008,0.127-0.016l0.005,0.25c-0.048,0.019-0.133,0.032-0.236,0.032c-0.119,0-0.22-0.04-0.281-0.106
	c-0.069-0.074-0.101-0.191-0.101-0.361V5.857h-0.186V5.612h0.186V5.32L96.169,5.244z M96.727,5.998c0-0.149-0.003-0.274-0.011-0.385
	h0.281l0.013,0.191h0.008c0.064-0.101,0.181-0.22,0.398-0.22c0.17,0,0.303,0.096,0.358,0.239h0.005
	c0.045-0.072,0.098-0.125,0.159-0.162c0.072-0.05,0.154-0.077,0.26-0.077c0.215,0,0.433,0.146,0.433,0.56v0.762h-0.318V6.191
	c0-0.215-0.074-0.342-0.231-0.342c-0.111,0-0.194,0.08-0.228,0.173c-0.008,0.032-0.016,0.072-0.016,0.109v0.775H97.52V6.157
	c0-0.18-0.072-0.308-0.223-0.308c-0.122,0-0.204,0.096-0.234,0.186c-0.013,0.032-0.019,0.069-0.019,0.106v0.765h-0.318L96.727,5.998
	L96.727,5.998z"/>
</svg>
