<svg xmlns="http://www.w3.org/2000/svg" width="131.58" height="19.727" viewBox="0 0 131.58 19.727">
  <g id="edelweiss" transform="translate(-3.477 -5.642)">
    <g id="Group_4" data-name="Group 4" transform="translate(3.477 5.642)">
      <path id="Path_140" data-name="Path 140" d="M124.195,20.551c-.049.286-.077.578-.154.857a3.607,3.607,0,0,1-2.049,2.316,7.007,7.007,0,0,1-3.156.665,6.558,6.558,0,0,1-2.7-.512,4.343,4.343,0,0,1-2.57-3.449c-.047-.27-.07-.546-.107-.833h1.892c.035.244.055.487.108.723a2.821,2.821,0,0,0,1.96,2.176,4.756,4.756,0,0,0,3.587-.2,2.006,2.006,0,0,0,1.2-1.3,1.653,1.653,0,0,0-.642-1.851,5.238,5.238,0,0,0-1.854-.75c-.938-.238-1.887-.442-2.819-.7a6.882,6.882,0,0,1-1.314-.534,2.945,2.945,0,0,1-1.665-2.872,3.193,3.193,0,0,1,1.769-2.93,6.34,6.34,0,0,1,5.52-.333,3.885,3.885,0,0,1,2.5,3.514c.015.162.019.324.027.5h-1.885c-.023-.2-.034-.4-.07-.6a2.371,2.371,0,0,0-1.577-1.914,4.1,4.1,0,0,0-3.411.152,1.71,1.71,0,0,0-.9,1.971,1.53,1.53,0,0,0,.654.878,5.236,5.236,0,0,0,1.9.746c.932.211,1.871.387,2.8.62a4.186,4.186,0,0,1,2,1.126,3.2,3.2,0,0,1,.925,2.009,1.975,1.975,0,0,0,.035.2C124.195,20.334,124.195,20.442,124.195,20.551Z" transform="translate(7.384 -5.157)" fill="#636363"/>
      <path id="Path_141" data-name="Path 141" d="M4.958,14.989h5.8a2.171,2.171,0,0,1-.287-.1,4.76,4.76,0,0,1-.843-.471.964.964,0,0,1,.961-1.651,2.924,2.924,0,0,1,.854.527c.31.27.559.609.847.906.227.236.472.456.71.683l.082-.048c-.1-.363-.19-.725-.289-1.088-.133-.489-.3-.972-.392-1.469a1.241,1.241,0,0,1,.267-1.053.919.919,0,0,1,1.5.045,1.567,1.567,0,0,1,.176,1.386c-.137.531-.324,1.048-.477,1.575-.058.2-.085.407-.126.611l.049.031c.152-.131.313-.251.452-.394.287-.3.544-.626.844-.91a5.1,5.1,0,0,1,.9-.712,1.269,1.269,0,0,1,.7-.126.905.905,0,0,1,.756,1.313,1.367,1.367,0,0,1-.884.76c-.483.152-.984.243-1.477.369-.32.082-.636.18-.954.27l0,.066a3.312,3.312,0,0,0,.383.146c.533.13,1.073.23,1.6.379a3.622,3.622,0,0,1,.889.382,1.047,1.047,0,0,1,.53,1.012.967.967,0,0,1-1.239.817,1.873,1.873,0,0,1-.934-.549c-.289-.3-.555-.614-.842-.912-.229-.236-.472-.457-.71-.686l-.07.041c.056.253.1.51.171.758.153.541.342,1.072.469,1.617a1.865,1.865,0,0,1-.013.764,1,1,0,0,1-1.005.836,1.062,1.062,0,0,1-.944-.921,2.779,2.779,0,0,1,.147-1.26c.168-.571.323-1.146.482-1.72a.871.871,0,0,0,.009-.123,3.067,3.067,0,0,0-.316.249c-.334.347-.647.715-.994,1.047a7.513,7.513,0,0,1-.909.738,1.027,1.027,0,0,1-.767.13.921.921,0,0,1-.71-1.309,1.434,1.434,0,0,1,.8-.742c.171-.078.354-.13.568-.205H5.01A6.92,6.92,0,0,0,5.3,17.763a8.05,8.05,0,0,0,6.757,5.966A8.039,8.039,0,0,0,20.2,20.26a.337.337,0,0,1,.315-.16c.489.009.977,0,1.466.005a.506.506,0,0,1,.074.016,9.612,9.612,0,0,1-2.626,3.142,9.685,9.685,0,0,1-6.785,2.08,9.861,9.861,0,1,1,9.4-14.433h-.45c-.374,0-.747-.008-1.12,0a.294.294,0,0,1-.276-.159,8.2,8.2,0,0,0-5.422-3.469,8.331,8.331,0,0,0-9.481,6.02C5.145,13.845,5.071,14.4,4.958,14.989Z" transform="translate(-3.477 -5.642)" fill="#636363"/>
      <path id="Path_142" data-name="Path 142" d="M25.945,16.064v6.582H36.531v1.76H23.922V6.5H36.4V8.248H25.949v6.019h9.8v1.8Z" transform="translate(-1.458 -5.557)" fill="#636363"/>
      <path id="Path_143" data-name="Path 143" d="M77.155,10.909q1.495,5.228,2.986,10.446l.047,0q1.561-5.22,3.124-10.443h2.025q-2.123,6.54-4.241,13.066c-.617,0-1.227,0-1.837-.008-.051,0-.125-.1-.145-.17-.4-1.337-.79-2.677-1.184-4.015l-1.737-5.907c-.016-.057-.037-.113-.071-.214-.205.7-.4,1.361-.591,2.021q-1.183,4.058-2.365,8.115c-.037.13-.086.185-.232.182-.536-.01-1.072-.009-1.609,0a.2.2,0,0,1-.227-.166q-2.04-6.367-4.085-12.731c-.016-.051-.027-.1-.047-.18h.987c.278,0,.557.009.834,0,.151-.007.208.047.249.189q.775,2.621,1.564,5.238.732,2.443,1.462,4.886c.015.052.033.1.065.2.069-.237.127-.432.182-.627q1.373-4.839,2.742-9.678c.045-.158.107-.212.275-.209C75.931,10.916,76.534,10.909,77.155,10.909Z" transform="translate(2.792 -5.122)" fill="#636363"/>
      <path id="Path_144" data-name="Path 144" d="M47.15,13.178V6.5h1.915V24.4H47.281V22.491c-.057.06-.08.08-.1.1a5.594,5.594,0,0,1-8.4.544,6.422,6.422,0,0,1-1.6-3.217,9.241,9.241,0,0,1,.39-5.34,5.234,5.234,0,0,1,2.909-3.13,5.532,5.532,0,0,1,5.532.536A4.914,4.914,0,0,1,47.15,13.178Zm0,4.711a7.43,7.43,0,0,0-.264-2.051,3.981,3.981,0,0,0-3.616-3.18A3.47,3.47,0,0,0,39.7,14.53a7.187,7.187,0,0,0-.044,6.656,3.284,3.284,0,0,0,2.9,1.941A3.85,3.85,0,0,0,46.484,21,6.752,6.752,0,0,0,47.151,17.89Z" transform="translate(-0.17 -5.557)" fill="#636363"/>
      <path id="Path_145" data-name="Path 145" d="M94.7,19.511h1.938c-.127.423-.23.828-.37,1.221a5.066,5.066,0,0,1-3.019,3.26,7.072,7.072,0,0,1-3.147.36,5.282,5.282,0,0,1-4.716-3.806,9.14,9.14,0,0,1,.269-6.654,5.173,5.173,0,0,1,4-3.207A5.523,5.523,0,0,1,94.506,11.9a5.754,5.754,0,0,1,1.532,2.3,9.563,9.563,0,0,1,.574,3.9h-9.8c.047.353.078.679.135,1a5.267,5.267,0,0,0,.654,1.784,3.574,3.574,0,0,0,3.381,1.859A3.508,3.508,0,0,0,94.3,20.619c.137-.293.227-.608.337-.914C94.665,19.643,94.68,19.578,94.7,19.511Zm-.012-3.091a1.866,1.866,0,0,0,0-.193A4.884,4.884,0,0,0,93.578,13.5a3.6,3.6,0,0,0-5.339-.149,5.179,5.179,0,0,0-1.247,2.365c-.057.227-.1.46-.145.7Z" transform="translate(4.562 -5.155)" fill="#636363"/>
      <path id="Path_146" data-name="Path 146" d="M61.883,19.5c-.489,2.09-1.378,3.853-3.563,4.553a6.562,6.562,0,0,1-5.05-.3,5,5,0,0,1-2.513-2.9,9.067,9.067,0,0,1,.109-6.867,5.318,5.318,0,0,1,5.287-3.415,5.147,5.147,0,0,1,3.884,1.575,6.539,6.539,0,0,1,1.6,3.133,10.19,10.19,0,0,1,.235,2.808H52.051c.047.352.079.678.137,1a5.166,5.166,0,0,0,.764,1.957,3.577,3.577,0,0,0,3.48,1.674,3.642,3.642,0,0,0,3.481-3.008c.046-.168.108-.225.283-.222C60.75,19.505,61.3,19.5,61.883,19.5ZM52.051,16.42h7.911a2.365,2.365,0,0,0,0-.251,5.1,5.1,0,0,0-.81-2.276,3.637,3.637,0,0,0-5.114-1.016,4.348,4.348,0,0,0-1.6,2.177C52.283,15.491,52.184,15.948,52.051,16.42Z" transform="translate(1.13 -5.154)" fill="#636363"/>
      <path id="Path_147" data-name="Path 147" d="M112.274,15.045h-1.911c-.024-.219-.035-.435-.075-.646a2.325,2.325,0,0,0-1.492-1.843,4.123,4.123,0,0,0-3.486.122,1.7,1.7,0,0,0-.911,1.947,1.449,1.449,0,0,0,.546.811,4.591,4.591,0,0,0,1.854.794c.877.207,1.762.376,2.64.577a4.648,4.648,0,0,1,2.191,1.1,3.5,3.5,0,0,1-.368,5.358,5.77,5.77,0,0,1-2.744,1.045,7.591,7.591,0,0,1-3.205-.2,4.355,4.355,0,0,1-3.231-3.7c-.047-.266-.069-.535-.107-.833h.248c.468,0,.937.012,1.4-.005.215-.009.268.066.287.268a2.884,2.884,0,0,0,1.929,2.605,4.251,4.251,0,0,0,.9.232,4.711,4.711,0,0,0,2.8-.391,2.032,2.032,0,0,0,1.178-1.273,1.652,1.652,0,0,0-.633-1.872,5.168,5.168,0,0,0-1.833-.749c-.945-.24-1.9-.437-2.839-.705a6.838,6.838,0,0,1-1.419-.6,2.954,2.954,0,0,1-1.535-3.041,3.162,3.162,0,0,1,1.781-2.715,6.322,6.322,0,0,1,5.576-.272,3.88,3.88,0,0,1,2.4,3.329C112.245,14.6,112.255,14.814,112.274,15.045Z" transform="translate(6.25 -5.158)" fill="#636363"/>
      <path id="Path_148" data-name="Path 148" d="M63.105,6.493H65V24.4H63.105Z" transform="translate(2.411 -5.558)" fill="#636363"/>
      <path id="Path_149" data-name="Path 149" d="M97.869,10.914h1.849v13.06H97.869Z" transform="translate(5.844 -5.121)" fill="#636363"/>
      <path id="Path_150" data-name="Path 150" d="M97.868,6.492h1.854v2.8H97.868Z" transform="translate(5.844 -5.558)" fill="#636363"/>
    </g>
  </g>
</svg>
