<?xml version="1.0" encoding="utf-8"?>
<!-- Generator: Adobe Illustrator 23.0.4, SVG Export Plug-In . SVG Version: 6.00 Build 0)  -->
<svg version="1.1" id="Layer_1" xmlns="http://www.w3.org/2000/svg" xmlns:xlink="http://www.w3.org/1999/xlink" x="0px" y="0px"
	 viewBox="0 0 125.388 29.742" enable-background="new 0 0 125.388 29.742" xml:space="preserve">
<g id="V0HmoP.tif">
	<g>
		<path fill="#636363" d="M123.23,19.652c-0.045,0.26-0.07,0.526-0.14,0.78c-0.275,1.005-0.957,1.663-1.865,2.108
			c-0.904,0.443-1.871,0.608-2.872,0.605c-0.848-0.003-1.675-0.117-2.455-0.466c-1.362-0.609-2.085-1.702-2.339-3.139
			c-0.043-0.246-0.064-0.497-0.097-0.758c0.592,0,1.152,0,1.722,0c0.032,0.222,0.05,0.443,0.098,0.658
			c0.22,0.995,0.831,1.657,1.784,1.98c1.105,0.374,2.203,0.302,3.265-0.178c0.524-0.237,0.934-0.6,1.096-1.182
			c0.183-0.66-0.03-1.283-0.584-1.685c-0.505-0.367-1.095-0.533-1.687-0.683c-0.854-0.217-1.717-0.402-2.566-0.639
			c-0.412-0.115-0.816-0.288-1.196-0.486c-1.049-0.547-1.537-1.435-1.515-2.614c0.022-1.202,0.567-2.11,1.61-2.667
			c1.616-0.863,3.318-0.978,5.024-0.303c1.424,0.564,2.126,1.698,2.272,3.198c0.014,0.147,0.017,0.295,0.025,0.455
			c-0.573,0-1.138,0-1.716,0c-0.021-0.18-0.031-0.363-0.064-0.543c-0.155-0.846-0.631-1.444-1.435-1.742
			c-1.047-0.388-2.098-0.376-3.104,0.138c-0.687,0.351-1,1.082-0.819,1.794c0.088,0.347,0.31,0.599,0.595,0.799
			c0.521,0.365,1.119,0.541,1.728,0.679c0.848,0.192,1.703,0.352,2.546,0.564c0.692,0.174,1.309,0.51,1.816,1.025
			c0.499,0.508,0.777,1.119,0.842,1.828c0.005,0.06,0.021,0.119,0.032,0.178C123.23,19.454,123.23,19.553,123.23,19.652z"/>
		<path fill="#636363" d="M4.825,14.149c1.786,0,3.507,0,5.279,0c-0.117-0.04-0.194-0.055-0.261-0.091
			c-0.26-0.137-0.545-0.245-0.767-0.429c-0.355-0.295-0.422-0.791-0.213-1.141c0.207-0.347,0.662-0.526,1.088-0.362
			c0.28,0.108,0.55,0.281,0.777,0.48c0.282,0.246,0.509,0.554,0.771,0.825c0.207,0.215,0.43,0.415,0.646,0.622
			c0.025-0.015,0.05-0.029,0.075-0.044c-0.087-0.33-0.173-0.66-0.263-0.99c-0.121-0.445-0.269-0.885-0.357-1.337
			c-0.066-0.34,0.011-0.678,0.243-0.958c0.379-0.459,1.014-0.441,1.365,0.041c0.283,0.389,0.273,0.827,0.16,1.261
			c-0.125,0.483-0.295,0.954-0.434,1.433c-0.053,0.181-0.077,0.37-0.115,0.556c0.015,0.009,0.03,0.019,0.045,0.028
			c0.138-0.119,0.285-0.228,0.411-0.359c0.261-0.271,0.495-0.57,0.768-0.828c0.253-0.239,0.522-0.473,0.821-0.648
			c0.177-0.103,0.428-0.132,0.639-0.115c0.609,0.051,0.933,0.635,0.688,1.195c-0.157,0.359-0.45,0.581-0.805,0.692
			c-0.44,0.138-0.896,0.221-1.344,0.336c-0.291,0.075-0.579,0.164-0.868,0.246c-0.001,0.02-0.002,0.04-0.003,0.06
			c0.116,0.045,0.229,0.103,0.349,0.133c0.485,0.118,0.977,0.209,1.457,0.345c0.281,0.08,0.56,0.196,0.809,0.348
			c0.331,0.201,0.512,0.523,0.482,0.921c-0.041,0.535-0.563,0.872-1.128,0.744c-0.336-0.076-0.615-0.258-0.85-0.5
			c-0.263-0.27-0.505-0.559-0.766-0.83c-0.208-0.215-0.43-0.416-0.646-0.624c-0.021,0.012-0.043,0.025-0.064,0.037
			c0.051,0.23,0.092,0.464,0.156,0.69c0.139,0.492,0.311,0.976,0.427,1.472c0.051,0.22,0.033,0.47-0.012,0.695
			c-0.094,0.472-0.491,0.783-0.915,0.761c-0.422-0.022-0.781-0.375-0.859-0.838c-0.067-0.396,0.024-0.771,0.134-1.147
			c0.153-0.52,0.294-1.043,0.439-1.565c0.006-0.023,0.004-0.048,0.008-0.112c-0.113,0.088-0.211,0.147-0.288,0.227
			c-0.304,0.316-0.589,0.651-0.905,0.953c-0.256,0.245-0.536,0.47-0.827,0.672c-0.202,0.14-0.453,0.159-0.698,0.118
			c-0.578-0.099-0.872-0.648-0.646-1.191c0.14-0.337,0.413-0.532,0.729-0.675c0.156-0.071,0.322-0.118,0.517-0.187
			c-1.751,0-3.47,0-5.202,0c0.027,0.551,0.104,1.088,0.268,1.605c0.966,3.035,3.004,4.938,6.15,5.43
			c3.065,0.479,5.554-0.658,7.404-3.158c0.079-0.107,0.156-0.149,0.287-0.146c0.445,0.008,0.889,0.004,1.334,0.005
			c0.012,0,0.024,0.005,0.067,0.015c-0.599,1.129-1.389,2.085-2.39,2.86c-1.818,1.408-3.883,2.049-6.175,1.893
			c-4.392-0.301-7.945-3.768-8.309-8.204c-0.372-4.53,2.677-8.62,7.082-9.533c4.414-0.916,8.262,1.54,9.785,4.601
			c-0.145,0-0.277,0-0.41,0c-0.34,0-0.68-0.007-1.019,0.004c-0.126,0.004-0.186-0.053-0.251-0.145
			c-1.216-1.722-2.864-2.784-4.935-3.157c-3.841-0.692-7.619,1.71-8.629,5.479C4.995,13.108,4.928,13.617,4.825,14.149z"/>
		<path fill="#636363" d="M25.763,15.204c0,2.005,0,3.985,0,5.99c3.213,0,6.419,0,9.635,0c0,0.547,0,1.069,0,1.602
			c-3.826,0-7.645,0-11.476,0c0-5.429,0-10.855,0-16.296c3.78,0,7.562,0,11.358,0c0,0.52,0,1.046,0,1.591c-3.168,0-6.333,0-9.513,0
			c0,1.83,0,3.642,0,5.478c2.967,0,5.939,0,8.92,0c0,0.552,0,1.081,0,1.634C31.715,15.204,28.744,15.204,25.763,15.204z"/>
		<path fill="#636363" d="M76.239,10.909c0.907,3.172,1.813,6.34,2.718,9.507c0.014,0.001,0.029,0.002,0.043,0.004
			c0.947-3.167,1.895-6.334,2.843-9.504c0.614,0,1.217,0,1.843,0c-1.288,3.968-2.572,7.925-3.86,11.892
			c-0.562,0-1.117,0.004-1.672-0.007c-0.046-0.001-0.114-0.093-0.132-0.155c-0.363-1.217-0.719-2.436-1.078-3.654
			c-0.527-1.792-1.054-3.584-1.581-5.376c-0.015-0.052-0.034-0.103-0.065-0.195c-0.187,0.639-0.363,1.239-0.538,1.839
			c-0.718,2.462-1.437,4.924-2.152,7.386c-0.034,0.118-0.078,0.168-0.211,0.166c-0.488-0.009-0.976-0.008-1.464-0.001
			c-0.121,0.002-0.171-0.039-0.207-0.151c-1.238-3.863-2.478-7.725-3.718-11.587c-0.015-0.046-0.025-0.093-0.043-0.164
			c0.311,0,0.604,0,0.898,0c0.253,0,0.507,0.008,0.759-0.003c0.137-0.006,0.189,0.043,0.227,0.172
			c0.47,1.59,0.947,3.178,1.423,4.767c0.444,1.482,0.887,2.965,1.331,4.447c0.014,0.047,0.03,0.093,0.059,0.182
			c0.063-0.216,0.116-0.393,0.166-0.571c0.833-2.936,1.668-5.871,2.496-8.808c0.041-0.144,0.097-0.193,0.25-0.19
			C75.125,10.915,75.674,10.909,76.239,10.909z"/>
		<path fill="#636363" d="M46.235,12.578c0-2.022,0-4.043,0-6.079c0.59,0,1.16,0,1.743,0c0,5.429,0,10.854,0,16.294
			c-0.535,0-1.068,0-1.624,0c0-0.564,0-1.128,0-1.739c-0.052,0.055-0.073,0.073-0.089,0.094c-0.982,1.324-2.321,1.962-3.946,1.99
			c-1.434,0.025-2.694-0.437-3.697-1.495c-0.783-0.826-1.23-1.827-1.455-2.928c-0.337-1.651-0.267-3.281,0.355-4.86
			c0.508-1.29,1.338-2.322,2.648-2.849c1.747-0.702,3.45-0.62,5.035,0.488C45.615,11.781,45.932,12.16,46.235,12.578z
			 M46.236,16.866c0.003-0.633-0.069-1.257-0.24-1.867c-0.446-1.588-1.485-2.729-3.291-2.894c-1.378-0.126-2.615,0.448-3.251,1.703
			c-1.013,1.998-1.01,4.046-0.04,6.058c0.519,1.076,1.422,1.689,2.637,1.767c1.473,0.095,2.818-0.444,3.578-1.935
			C46.082,18.809,46.234,17.853,46.236,16.866z"/>
		<path fill="#636363" d="M93.818,18.707c0.579,0,1.151,0,1.764,0c-0.116,0.385-0.209,0.754-0.337,1.111
			c-0.495,1.376-1.339,2.437-2.748,2.967c-0.926,0.348-1.888,0.413-2.864,0.328c-0.837-0.073-1.62-0.318-2.324-0.786
			c-0.982-0.652-1.619-1.572-1.968-2.678c-0.646-2.042-0.632-4.079,0.245-6.056c0.703-1.585,1.901-2.618,3.639-2.919
			c1.625-0.282,3.138-0.023,4.417,1.107c0.647,0.572,1.085,1.29,1.394,2.09c0.439,1.136,0.572,2.317,0.522,3.546
			c-2.965,0-5.919,0-8.915,0c0.043,0.321,0.071,0.618,0.123,0.911c0.103,0.575,0.295,1.121,0.595,1.624
			c0.694,1.165,1.725,1.731,3.077,1.692c1.386-0.04,2.421-0.652,3.019-1.928c0.125-0.267,0.207-0.553,0.307-0.832
			C93.786,18.827,93.8,18.768,93.818,18.707z M93.807,15.894c0-0.067,0.005-0.122-0.001-0.176c-0.098-0.923-0.401-1.766-1.009-2.481
			c-1.255-1.476-3.521-1.538-4.859-0.136c-0.582,0.61-0.93,1.344-1.135,2.152c-0.052,0.207-0.087,0.419-0.132,0.641
			C89.068,15.894,91.436,15.894,93.807,15.894z"/>
		<path fill="#636363" d="M60.827,18.696c-0.445,1.902-1.254,3.507-3.243,4.144c-1.551,0.497-3.109,0.462-4.596-0.27
			c-1.123-0.553-1.865-1.476-2.287-2.635c-0.761-2.09-0.779-4.197,0.099-6.25c0.894-2.09,2.544-3.11,4.812-3.108
			c1.366,0.001,2.573,0.428,3.535,1.433c0.769,0.803,1.203,1.782,1.452,2.851c0.194,0.834,0.255,1.681,0.214,2.556
			c-2.967,0-5.928,0-8.934,0c0.043,0.32,0.072,0.617,0.125,0.91c0.115,0.638,0.336,1.238,0.695,1.781
			c0.752,1.137,1.829,1.629,3.167,1.524c1.68-0.132,2.698-1.027,3.168-2.738c0.042-0.153,0.098-0.205,0.258-0.202
			C59.796,18.703,60.301,18.696,60.827,18.696z M51.879,15.895c2.436,0,4.815,0,7.2,0c0-0.083,0.007-0.156-0.001-0.228
			c-0.09-0.746-0.316-1.444-0.737-2.071c-1.057-1.571-3.128-1.985-4.654-0.925c-0.71,0.493-1.167,1.181-1.455,1.981
			C52.09,15.049,52,15.465,51.879,15.895z"/>
		<path fill="#636363" d="M111.348,14.64c-0.598,0-1.164,0-1.739,0c-0.022-0.199-0.032-0.396-0.068-0.588
			c-0.15-0.802-0.602-1.38-1.358-1.677c-1.066-0.42-2.14-0.408-3.173,0.111c-0.684,0.344-0.998,1.064-0.829,1.772
			c0.073,0.308,0.253,0.545,0.497,0.738c0.497,0.393,1.085,0.581,1.687,0.723c0.798,0.188,1.604,0.342,2.403,0.525
			c0.745,0.171,1.429,0.476,1.994,1.004c1.433,1.339,1.272,3.676-0.335,4.876c-0.741,0.553-1.593,0.829-2.497,0.951
			c-0.983,0.133-1.961,0.101-2.917-0.182c-1.687-0.499-2.637-1.653-2.941-3.364c-0.043-0.242-0.063-0.487-0.097-0.758
			c0.094,0,0.16,0,0.226,0c0.426,0,0.853,0.011,1.278-0.005c0.196-0.008,0.244,0.06,0.261,0.244c0.104,1.143,0.681,1.95,1.756,2.371
			c0.262,0.102,0.543,0.169,0.821,0.211c0.881,0.134,1.737,0.031,2.546-0.356c0.506-0.242,0.909-0.593,1.072-1.159
			c0.193-0.668-0.016-1.295-0.576-1.704c-0.499-0.364-1.081-0.533-1.668-0.682c-0.86-0.218-1.731-0.398-2.584-0.642
			c-0.446-0.127-0.884-0.319-1.291-0.544c-1.084-0.599-1.482-1.573-1.397-2.768c0.08-1.12,0.639-1.961,1.621-2.471
			c1.643-0.853,3.359-0.97,5.075-0.248c1.319,0.555,2.006,1.624,2.183,3.03C111.322,14.239,111.331,14.43,111.348,14.64z"/>
		<path fill="#636363" d="M63.105,6.493c0.577,0,1.143,0,1.723,0c0,5.433,0,10.859,0,16.299c-0.568,0-1.138,0-1.723,0
			C63.105,17.368,63.105,11.943,63.105,6.493z"/>
		<path fill="#636363" d="M97.869,10.914c0.568,0,1.117,0,1.683,0c0,3.962,0,7.921,0,11.886c-0.561,0-1.115,0-1.683,0
			C97.869,18.84,97.869,14.886,97.869,10.914z"/>
		<path fill="#636363" d="M97.868,6.492c0.578,0,1.126,0,1.687,0c0,0.85,0,1.692,0,2.547c-0.558,0-1.116,0-1.687,0
			C97.868,8.195,97.868,7.348,97.868,6.492z"/>
	</g>
</g>
</svg>
