<svg xmlns="http://www.w3.org/2000/svg" width="140.54" height="52.52" viewBox="0 0 140.54 52.52">
  <g id="etisalat" transform="translate(-31.34 -3.094)">
    <path id="Path_23" data-name="Path 23" d="M85.907,10.811a24.317,24.317,0,0,1,11.686,2.851,32.648,32.648,0,0,1,6.693,4.315c3.218,2.677,6.958,7.477,3.549,11.97a22.119,22.119,0,0,1-8.867,5.771,80.988,80.988,0,0,1-8.134,2.87,22.21,22.21,0,0,1-2.922.7c-2.734.4-3.619-.742-4.485-2.667A44.448,44.448,0,0,1,81.535,31.2a45.135,45.135,0,0,1-2.306-12.369c.072-4.732,2.1-7.631,6.678-8.021ZM72.881,6.769l-.058.208a20.776,20.776,0,0,0,.633,10.84c.864,3.265,1.9,6.381,2.979,9.442,1.6,4.522,3.461,9.334,4.621,14.077.206.831.371,1.708.586,2.545.276,1.08.371,1.532,1.606,1.08,1.506-.556,2.927-1.239,4.491-1.788,3.1-1.087,6.346-2.016,9.52-2.9,5.489-1.525,13.582-3.725,18.179-6.678a12.332,12.332,0,0,0,3.122-2.719l.186-.208.119-.252a10.6,10.6,0,0,0,.174-2.243c-.321-3.773-3.732-7.605-6.468-9.991-.428-.371-.855-.712-1.3-1.1A69.036,69.036,0,0,0,94.909,7.5C89.641,5.4,81.3,2.536,75.636,4.79a7.574,7.574,0,0,0-2.743,1.976Z" transform="translate(51.754 1.207)" fill="#474747" fill-rule="evenodd"/>
    <path id="Path_24" data-name="Path 24" d="M77.545,22.184c-.31-3.812.224-6.307,2.658-7.874,4.543-2.92,12.69.946,16.077,4.472l.655.7a7.234,7.234,0,0,1,1.924,5.864,5.487,5.487,0,0,1-.742,1.892,12.23,12.23,0,0,1-4.309,3.625,25.958,25.958,0,0,1-7.492,3.153c-3.691.805-5.231.132-6.789-3.2a26.211,26.211,0,0,1-1.974-8.624ZM81.928,6.844c-4.572.388-6.6,3.287-6.678,8.023a45.132,45.132,0,0,0,2.306,12.369,44.585,44.585,0,0,0,1.892,5.422c.87,1.916,1.751,3.063,4.485,2.667a22.21,22.21,0,0,0,2.922-.7,80.777,80.777,0,0,0,8.134-2.87,22.119,22.119,0,0,0,8.867-5.771c3.408-4.493-.332-9.3-3.549-11.97A32.736,32.736,0,0,0,93.614,9.7,24.289,24.289,0,0,0,81.928,6.844Z" transform="translate(55.732 4.529)" fill="#636363" fill-rule="evenodd"/>
    <path id="Path_25" data-name="Path 25" d="M119.394,28.927l-.185.208a12.332,12.332,0,0,1-3.122,2.719C111.492,34.8,103.4,37,97.908,38.532c-3.178.881-6.422,1.812-9.52,2.9-1.564.556-2.981,1.232-4.491,1.788-1.23.453-1.33,0-1.606-1.08-.215-.837-.382-1.714-.586-2.545-1.161-4.745-3.025-9.555-4.623-14.077C76,22.455,74.968,19.34,74.1,16.073a20.748,20.748,0,0,1-.631-10.84A5.869,5.869,0,0,0,72.36,7.394a11.8,11.8,0,0,0-.453,2.868c-.226,4.943,2.165,11.6,3.678,16.138,1.716,5.131,3.563,9.51,4.936,14.866.226.887.41,1.79.627,2.7.282,1.172.3,1.823,1.669,1.324,1.571-.569,3.081-1.271,4.721-1.855S90.9,42.3,92.571,41.822c3.4-.981,6.884-1.925,10.273-2.948,6.249-1.89,14.812-4.662,16.535-9.928Z" transform="translate(51.092 2.957)" fill="#636363" fill-rule="evenodd"/>
    <path id="Path_26" data-name="Path 26" d="M72.587,7.974A7.5,7.5,0,0,1,75.33,6C81,3.747,89.335,6.607,94.6,8.711A68.988,68.988,0,0,1,110.966,18.3c.445.386.872.722,1.3,1.1,2.736,2.395,6.147,6.218,6.468,9.991a10.6,10.6,0,0,1-.174,2.243c.015-.011.033-.048.039-.035a6.121,6.121,0,0,0,1.232-3.868c-.065-3.9-3.408-7.377-5.682-9.663a54.925,54.925,0,0,0-5.7-4.515C101.5,8.735,86.894,1.59,78.285,3.374A8.737,8.737,0,0,0,74.72,4.906a6.134,6.134,0,0,0-1.247,1.337A9.646,9.646,0,0,0,72.587,7.974Z" transform="translate(52.048 0)" fill="#757575" fill-rule="evenodd"/>
    <path id="Path_27" data-name="Path 27" d="M64.678,27.251c0,2.538.276,4.751-1.6,5.823a6.381,6.381,0,0,1-5.936-.226,2.782,2.782,0,0,1-.77-2.794,2.927,2.927,0,0,1,1.875-1.814,14.74,14.74,0,0,1,3.163-.521c1.135-.124,2.15-.286,3.263-.467Zm.2,7.084c.2,1.771,1.113,1.558,2.76,1.558.039-3.413.017-6.863.017-10.271,0-2.829-.152-6.012-3.573-6.793a60.939,60.939,0,0,0-7.527-.173c-.87,0-1.59.1-1.883.718a1.484,1.484,0,0,0,.454,1.831,5.5,5.5,0,0,0,2.35.219c1.651,0,3.537-.083,5.161.026,2.877.195,1.992,2.628,1.812,2.842a2.914,2.914,0,0,1-1.807.779c-3.524.725-7.947.185-9.089,3.825a5.042,5.042,0,0,0,3.153,6.589,9.583,9.583,0,0,0,7.537-.556,4.637,4.637,0,0,0,.627-.586Z" transform="translate(28.281 19.606)" fill="#636363" fill-rule="evenodd"/>
    <path id="Path_28" data-name="Path 28" d="M34.438,26.392a4.936,4.936,0,0,1,2.914-4.684c4.452-1.879,7.822,1.716,6.9,3.153-.451.7-2.065.688-3.025.8-1.089.122-6.164.742-6.791.742ZM47.49,35.843c.019-2.274,0-2.766-2.306-2.766H40.14c-2.91,0-5.379-1.068-5.713-4.292,2.669-.326,5.418-.556,8.114-.837a8.2,8.2,0,0,0,3.682-.811,2.712,2.712,0,0,0,.927-3.259c-1.95-7.277-13.736-7.062-15.509,1.1a9.089,9.089,0,0,0,3.411,9.646,8.034,8.034,0,0,0,3.389,1.154c1.182.139,7.444.082,9.045.067Z" transform="translate(0 19.623)" fill="#636363" fill-rule="evenodd"/>
    <path id="Path_29" data-name="Path 29" d="M74.075,27.274c0,2.6.317,4.676-1.616,5.823a6.507,6.507,0,0,1-5.936-.271,2.753,2.753,0,0,1-.742-2.782c.61-2.059,3.311-2.148,5.051-2.328l3.244-.445Zm.208,7.086c.237,1.733,1.08,1.532,2.762,1.534-.024-3.415.015-6.852.015-10.271,0-2.782-.128-5.949-3.511-6.778a57.025,57.025,0,0,0-7.513-.185c-.9,0-1.582.024-1.925.671a1.452,1.452,0,0,0,.4,1.855,4.968,4.968,0,0,0,2.326.243c1.669,0,3.524-.074,5.164.024a2.261,2.261,0,0,1,1.8.709,2.456,2.456,0,0,1,.093,2.1c-.469.777-2.877,1-4.04,1.137-3.2.371-5.962.677-6.863,3.4a5.915,5.915,0,0,0,.224,4.317,5.107,5.107,0,0,0,2.831,2.343,10.453,10.453,0,0,0,4.619.462,5.268,5.268,0,0,0,3.621-1.562Z" transform="translate(40.509 19.606)" fill="#636363" fill-rule="evenodd"/>
    <path id="Path_30" data-name="Path 30" d="M46.364,35.889c2.243.017,4.491,0,6.734,0,2.5,0,6.207.228,7.539-2.486a6,6,0,0,0,.6-2.8c0-3.981-2.6-4.218-5.344-4.7a36.015,36.015,0,0,1-5.544-1.156,1.955,1.955,0,0,1-.371-2.488c.46-.905,1.349-.814,2.5-.814a48.748,48.748,0,0,0,6.548-.158,1.388,1.388,0,0,0,.371-2.217c-.616-.6-1.974-.408-2.927-.408a52.85,52.85,0,0,0-6.559.156,3.9,3.9,0,0,0-2.105,1.28c-1.339,1.733-1.872,5.595.885,7.034,1.957,1.026,6.3,1.124,8.321,1.764.981.31,1.3.848,1.252,2.081A1.84,1.84,0,0,1,56.8,32.9c-2.04.6-8.542-.072-9.664.371-.961.371-.768,1.473-.777,2.634Z" transform="translate(19.377 19.613)" fill="#636363" fill-rule="evenodd"/>
    <path id="Path_31" data-name="Path 31" d="M71.779,21.3c-1.221,0-2.393.041-2.4,1.369,0,1.4,1.169,1.415,2.411,1.415v5.535c0,1.779-.093,3.818.009,5.565a2.909,2.909,0,0,0,2.488,3.114,26.342,26.342,0,0,0,5.322.2c.109-1.955-.161-2.565-2.176-2.56-2.256,0-2.66-.278-2.66-2.2V24.08c1.838,0,4.183.432,4.231-1.352.05-1.89-2.389-1.432-4.207-1.432l-.022-4.545a10.92,10.92,0,0,0-1.831,0c-1.9.195-.927,2.411-1.174,4.543Z" transform="translate(49.261 16.972)" fill="#636363" fill-rule="evenodd"/>
    <path id="Path_32" data-name="Path 32" d="M41.021,21.287c-.7.052-2.384-.211-2.411,1.378-.019,1.621,1.684,1.358,2.411,1.43v5.52c0,1.829-.067,3.788.019,5.6a2.9,2.9,0,0,0,2.454,3.076,28.329,28.329,0,0,0,5.335.228c.208-2.016-.228-2.586-2.2-2.584-2.04,0-2.632-.143-2.628-2.2V24.088c1.536-.143,4.2.556,4.24-1.365.043-2.016-2.617-1.3-4.231-1.441L44,16.73c-1.18,0-2.643-.234-2.927.864a36.654,36.654,0,0,0-.065,3.69Z" transform="translate(10.042 16.967)" fill="#636363" fill-rule="evenodd"/>
    <path id="Path_33" data-name="Path 33" d="M60.516,38.567l2.968.032V16.71c-.775-.069-2.293-.128-2.693.351-.453.542-.275,2.005-.275,2.834V35.466c0,.985-.078,2.142,0,3.109Z" transform="translate(37.862 16.907)" fill="#636363" fill-rule="evenodd"/>
    <path id="Path_34" data-name="Path 34" d="M43.973,35.872l2.986.015V18.68c-2.8-.217-2.985.148-2.985,2.016,0,5.008.059,10.2,0,15.175Z" transform="translate(16.405 19.617)" fill="#636363" fill-rule="evenodd"/>
    <path id="Path_35" data-name="Path 35" d="M43.976,20.012c.811.076,2.317.109,2.729-.371a6.442,6.442,0,0,0,.234-2.888c-3.339-.228-2.936.326-2.968,3.268Z" transform="translate(16.4 17.643)" fill="#636363" fill-rule="evenodd"/>
  </g>
</svg>
