<svg xmlns="http://www.w3.org/2000/svg" width="135.19" height="50.519" viewBox="0 0 135.19 50.519">
  <g id="etisalat" transform="translate(-31.34 -3.094)">
    <path id="Path_23" data-name="Path 23" d="M85.392,10.55a23.391,23.391,0,0,1,11.241,2.742,31.4,31.4,0,0,1,6.438,4.151c3.1,2.575,6.693,7.192,3.414,11.514a21.277,21.277,0,0,1-8.529,5.551,77.905,77.905,0,0,1-7.824,2.761,21.364,21.364,0,0,1-2.811.673c-2.63.385-3.481-.714-4.314-2.565a42.755,42.755,0,0,1-1.82-5.215,43.416,43.416,0,0,1-2.218-11.9c.069-4.552,2.02-7.34,6.424-7.716ZM72.862,6.662l-.056.2a19.985,19.985,0,0,0,.609,10.427c.831,3.141,1.828,6.138,2.866,9.082,1.539,4.35,3.329,8.979,4.445,13.541.2.8.357,1.643.564,2.448.265,1.039.357,1.474,1.545,1.039,1.449-.535,2.816-1.192,4.32-1.72,2.982-1.046,6.1-1.939,9.157-2.79,5.28-1.467,13.065-3.583,17.487-6.424a11.862,11.862,0,0,0,3-2.615l.179-.2.114-.242a10.2,10.2,0,0,0,.167-2.158c-.309-3.629-3.59-7.311-6.222-9.611-.412-.357-.822-.685-1.25-1.058A66.407,66.407,0,0,0,94.051,7.365C88.984,5.345,80.96,2.59,75.512,4.759a7.286,7.286,0,0,0-2.639,1.9Z" transform="translate(48.22 1.128)" fill="#474747" fill-rule="evenodd"/>
    <path id="Path_24" data-name="Path 24" d="M77.458,21.6c-.3-3.667.215-6.067,2.557-7.574,4.37-2.809,12.207.91,15.465,4.3l.63.673a6.959,6.959,0,0,1,1.851,5.641,5.278,5.278,0,0,1-.714,1.82A11.764,11.764,0,0,1,93.1,29.948a24.97,24.97,0,0,1-7.207,3.033c-3.55.774-5.032.127-6.53-3.078a25.212,25.212,0,0,1-1.9-8.3ZM81.674,6.844c-4.4.373-6.349,3.162-6.424,7.717a43.413,43.413,0,0,0,2.218,11.9,42.889,42.889,0,0,0,1.82,5.216c.837,1.843,1.684,2.946,4.314,2.565a21.364,21.364,0,0,0,2.811-.673,77.7,77.7,0,0,0,7.824-2.761,21.277,21.277,0,0,0,8.529-5.551c3.278-4.322-.319-8.946-3.414-11.514a31.489,31.489,0,0,0-6.438-4.15A23.364,23.364,0,0,0,81.674,6.844Z" transform="translate(51.937 4.214)" fill="#636363" fill-rule="evenodd"/>
    <path id="Path_25" data-name="Path 25" d="M117.585,28.025l-.178.2a11.862,11.862,0,0,1-3,2.615c-4.42,2.834-12.2,4.95-17.487,6.424-3.057.847-6.177,1.743-9.157,2.79-1.5.535-2.867,1.185-4.32,1.72-1.183.436-1.279,0-1.545-1.039-.207-.805-.367-1.649-.564-2.448-1.117-4.564-2.91-9.191-4.447-13.541C75.844,21.8,74.851,18.8,74.016,15.66a19.958,19.958,0,0,1-.607-10.427,5.645,5.645,0,0,0-1.067,2.079,11.351,11.351,0,0,0-.436,2.759c-.217,4.755,2.083,11.158,3.538,15.523,1.651,4.936,3.427,9.148,4.748,14.3.217.853.394,1.722.6,2.6.271,1.127.289,1.754,1.605,1.274,1.511-.547,2.964-1.223,4.541-1.784s3.234-1.092,4.841-1.552c3.271-.944,6.622-1.852,9.882-2.836,6.011-1.818,14.248-4.484,15.905-9.55Z" transform="translate(47.602 2.763)" fill="#636363" fill-rule="evenodd"/>
    <path id="Path_26" data-name="Path 26" d="M72.587,7.788a7.214,7.214,0,0,1,2.639-1.9C80.68,3.722,88.692,6.473,93.762,8.5A66.361,66.361,0,0,1,109.5,17.721c.428.371.839.694,1.25,1.058,2.632,2.309,5.913,5.981,6.222,9.611a10.2,10.2,0,0,1-.167,2.158c.014-.011.032-.046.038-.034a5.888,5.888,0,0,0,1.185-3.721c-.063-3.751-3.278-7.1-5.466-9.3a52.834,52.834,0,0,0-5.483-4.343C100.4,8.52,86.349,1.647,78.068,3.363a8.4,8.4,0,0,0-3.429,1.474,5.9,5.9,0,0,0-1.2,1.286,9.279,9.279,0,0,0-.852,1.665Z" transform="translate(48.495 0)" fill="#757575" fill-rule="evenodd"/>
    <path id="Path_27" data-name="Path 27" d="M64.242,26.922c0,2.441.265,4.57-1.539,5.6a6.138,6.138,0,0,1-5.71-.217,2.676,2.676,0,0,1-.741-2.688,2.816,2.816,0,0,1,1.8-1.745,14.179,14.179,0,0,1,3.043-.5c1.092-.119,2.068-.275,3.139-.449Zm.192,6.814c.192,1.7,1.071,1.5,2.655,1.5.038-3.283.016-6.6.016-9.88,0-2.721-.146-5.783-3.437-6.534a58.616,58.616,0,0,0-7.24-.166c-.837,0-1.529.1-1.811.691a1.427,1.427,0,0,0,.437,1.761,5.291,5.291,0,0,0,2.261.211c1.588,0,3.4-.08,4.964.025,2.767.188,1.916,2.528,1.743,2.734a2.8,2.8,0,0,1-1.738.749c-3.39.7-7.644.178-8.743,3.679a4.85,4.85,0,0,0,3.033,6.338,9.218,9.218,0,0,0,7.25-.535,4.461,4.461,0,0,0,.6-.564Z" transform="translate(26.371 18.269)" fill="#636363" fill-rule="evenodd"/>
    <path id="Path_28" data-name="Path 28" d="M34.32,26.1a4.748,4.748,0,0,1,2.8-4.506c4.282-1.807,7.524,1.651,6.637,3.033-.434.673-1.986.662-2.91.77-1.048.117-5.929.714-6.532.714Zm12.555,9.091c.018-2.187,0-2.661-2.218-2.661H39.8c-2.8,0-5.174-1.027-5.5-4.129,2.567-.314,5.212-.535,7.805-.805a7.888,7.888,0,0,0,3.542-.78,2.609,2.609,0,0,0,.892-3.135c-1.876-7-13.213-6.793-14.918,1.058a8.743,8.743,0,0,0,3.281,9.279,7.728,7.728,0,0,0,3.26,1.11c1.137.134,7.161.079,8.7.064Z" transform="translate(0 18.284)" fill="#636363" fill-rule="evenodd"/>
    <path id="Path_29" data-name="Path 29" d="M73.641,26.944c0,2.5.3,4.5-1.554,5.6a6.259,6.259,0,0,1-5.71-.261,2.648,2.648,0,0,1-.714-2.676c.587-1.981,3.185-2.066,4.859-2.239l3.12-.428Zm.2,6.816c.228,1.667,1.039,1.474,2.657,1.476-.023-3.285.014-6.591.014-9.88,0-2.676-.123-5.722-3.377-6.52a54.854,54.854,0,0,0-7.227-.178c-.866,0-1.522.023-1.852.645a1.4,1.4,0,0,0,.385,1.784,4.779,4.779,0,0,0,2.237.234c1.605,0,3.39-.071,4.967.023a2.175,2.175,0,0,1,1.731.682,2.362,2.362,0,0,1,.089,2.02c-.451.747-2.767.962-3.886,1.094-3.078.357-5.735.651-6.6,3.271a5.69,5.69,0,0,0,.215,4.153,4.913,4.913,0,0,0,2.723,2.254,10.055,10.055,0,0,0,4.443.444,5.067,5.067,0,0,0,3.483-1.5Z" transform="translate(37.773 18.268)" fill="#636363" fill-rule="evenodd"/>
    <path id="Path_30" data-name="Path 30" d="M46.363,35.231c2.158.016,4.32,0,6.478,0,2.4,0,5.971.219,7.252-2.391a5.771,5.771,0,0,0,.577-2.693c0-3.829-2.5-4.057-5.14-4.521A34.644,34.644,0,0,1,50.2,24.514a1.881,1.881,0,0,1-.357-2.393c.442-.871,1.3-.783,2.4-.783a46.892,46.892,0,0,0,6.3-.152,1.335,1.335,0,0,0,.36-2.133c-.593-.577-1.9-.392-2.816-.392a50.84,50.84,0,0,0-6.309.15,3.751,3.751,0,0,0-2.025,1.231c-1.288,1.667-1.8,5.387.851,6.766,1.882.987,6.06,1.081,8,1.7.944.3,1.25.816,1.2,2a1.77,1.77,0,0,1-1.411,1.85c-1.962.577-8.217-.069-9.3.357-.924.357-.739,1.417-.747,2.534Z" transform="translate(18.068 18.275)" fill="#636363" fill-rule="evenodd"/>
    <path id="Path_31" data-name="Path 31" d="M71.688,21.125c-1.175,0-2.3.039-2.309,1.317,0,1.347,1.124,1.361,2.319,1.361v5.324c0,1.711-.089,3.673.009,5.353a2.8,2.8,0,0,0,2.393,3,25.339,25.339,0,0,0,5.119.192c.1-1.881-.155-2.467-2.093-2.463-2.17,0-2.559-.267-2.559-2.116V23.8c1.768,0,4.024.416,4.07-1.3.048-1.818-2.3-1.377-4.047-1.377L74.57,16.75a10.5,10.5,0,0,0-1.761,0c-1.828.188-.892,2.319-1.129,4.37Z" transform="translate(45.936 15.807)" fill="#636363" fill-rule="evenodd"/>
    <path id="Path_32" data-name="Path 32" d="M40.929,21.113c-.673.05-2.293-.2-2.319,1.326-.018,1.559,1.62,1.306,2.319,1.376v5.31c0,1.759-.064,3.644.018,5.387a2.79,2.79,0,0,0,2.361,2.959,27.25,27.25,0,0,0,5.132.219c.2-1.939-.219-2.488-2.116-2.486-1.962,0-2.532-.138-2.528-2.116v-9.28c1.478-.138,4.04.535,4.079-1.313.041-1.939-2.517-1.25-4.07-1.386l-.01-4.379c-1.135,0-2.542-.225-2.816.831a35.262,35.262,0,0,0-.063,3.549Z" transform="translate(9.383 15.802)" fill="#636363" fill-rule="evenodd"/>
    <path id="Path_33" data-name="Path 33" d="M60.515,37.733l2.855.031V16.708c-.745-.066-2.206-.123-2.59.338-.436.521-.265,1.924-.265,2.726V34.75c0,.947-.075,2.06,0,2.991Z" transform="translate(35.31 15.746)" fill="#636363" fill-rule="evenodd"/>
    <path id="Path_34" data-name="Path 34" d="M43.973,35.215l2.872.014V18.678c-2.693-.209-2.871.142-2.871,1.939,0,4.817.057,9.812,0,14.6Z" transform="translate(15.299 18.279)" fill="#636363" fill-rule="evenodd"/>
    <path id="Path_35" data-name="Path 35" d="M43.976,19.886c.78.073,2.229.1,2.625-.357a6.2,6.2,0,0,0,.225-2.778c-3.212-.219-2.824.314-2.855,3.144Z" transform="translate(15.294 16.453)" fill="#636363" fill-rule="evenodd"/>
  </g>
</svg>
