<?xml version="1.0" encoding="utf-8"?>
<!-- Generator: Adobe Illustrator 15.1.0, SVG Export Plug-In . SVG Version: 6.00 Build 0)  -->
<!DOCTYPE svg PUBLIC "-//W3C//DTD SVG 1.1//EN" "http://www.w3.org/Graphics/SVG/1.1/DTD/svg11.dtd" [
	<!ENTITY ns_extend "http://ns.adobe.com/Extensibility/1.0/">
	<!ENTITY ns_ai "http://ns.adobe.com/AdobeIllustrator/10.0/">
	<!ENTITY ns_graphs "http://ns.adobe.com/Graphs/1.0/">
	<!ENTITY ns_vars "http://ns.adobe.com/Variables/1.0/">
	<!ENTITY ns_imrep "http://ns.adobe.com/ImageReplacement/1.0/">
	<!ENTITY ns_sfw "http://ns.adobe.com/SaveForWeb/1.0/">
	<!ENTITY ns_custom "http://ns.adobe.com/GenericCustomNamespace/1.0/">
	<!ENTITY ns_adobe_xpath "http://ns.adobe.com/XPath/1.0/">
]>
<svg version="1.1" id="Layer_1" xmlns:x="&ns_extend;" xmlns:i="&ns_ai;" xmlns:graph="&ns_graphs;"
	 xmlns="http://www.w3.org/2000/svg" xmlns:xlink="http://www.w3.org/1999/xlink" x="0px" y="0px" width="118.25px" height="56.5px"
	 viewBox="0 0 118.25 56.5" enable-background="new 0 0 118.25 56.5" xml:space="preserve">
<metadata>
	<sfw  xmlns="&ns_sfw;">
		<slices></slices>
		<sliceSourceBounds  width="114.389" height="60.496" x="2.253" y="-61.939" bottomLeftOrigin="true"></sliceSourceBounds>
	</sfw>
</metadata>
<path fill="#585A5B" d="M49.251,38.611h1.63l0.22-0.043l0.175-0.045l0.176-0.087l0.088-0.089l0.087-0.089l0.046-0.134l0.042-0.261
	l-0.042-0.176l-0.046-0.134l-0.041-0.134l-0.088-0.085l-0.135-0.087l-0.174-0.046l-0.396-0.041h-1.544V38.611z M49.251,41.646h1.63
	h0.22l0.218-0.044l0.18-0.088l0.129-0.132l0.132-0.132l0.088-0.174l0.046-0.179l0.042-0.22l-0.042-0.22l-0.046-0.222l-0.088-0.174
	l-0.085-0.132l-0.175-0.088l-0.18-0.089l-0.175-0.043h-0.264h-1.63V41.646z M48.019,42.79v-6.816h2.902l0.443,0.042l0.438,0.088
	l0.357,0.136l0.309,0.216l0.262,0.269l0.173,0.306l0.09,0.352l0.043,0.395l-0.043,0.175l-0.042,0.22l-0.048,0.178l-0.085,0.221
	l-0.134,0.134l-0.128,0.174l-0.133,0.132l-0.177,0.088l0.31,0.177l0.175,0.134l0.173,0.174l0.133,0.175l0.134,0.266l0.044,0.264
	l0.047,0.349l-0.047,0.484l-0.133,0.441l-0.178,0.354l-0.263,0.306l-0.349,0.266l-0.397,0.175l-0.487,0.092l-0.527,0.04H48.019z"/>
<path fill="#585A5B" d="M50.878,38.611h-1.622v-1.449h1.537l0.396,0.041l0.176,0.046l0.132,0.087l0.088,0.087l0.049,0.132
	l0.038,0.134l0.046,0.176l-0.046,0.267l-0.038,0.128l-0.093,0.089l-0.088,0.089l-0.176,0.087l-0.178,0.045L50.878,38.611z
	 M50.878,41.646h-1.622v-1.935h1.622h0.267l0.178,0.045l0.174,0.088l0.174,0.087l0.089,0.132l0.088,0.174l0.045,0.222l0.043,0.222
	l-0.043,0.218l-0.045,0.179l-0.088,0.174l-0.126,0.132l-0.137,0.132l-0.174,0.088l-0.224,0.044H50.878z M53.257,40.633
	L53.257,40.633l-0.044-0.351l-0.046-0.262l-0.132-0.264l-0.13-0.177l-0.177-0.172l-0.178-0.136l-0.306-0.179l0.179-0.085
	l0.127-0.135l0.132-0.175l0.134-0.131l0.088-0.221l0.043-0.175l0.046-0.223l0.041-0.175l-0.041-0.397l-0.089-0.349l-0.177-0.311
	l-0.263-0.264l-0.309-0.221l-0.352-0.131l-0.441-0.088l-0.438-0.042h-2.907v6.816h2.859l0.53-0.043l0.486-0.089l0.395-0.175
	l0.352-0.266l0.266-0.306l0.175-0.355l0.133-0.439L53.257,40.633z"/>
<polygon fill="#585A5B" points="55.721,42.877 55.459,42.836 55.237,42.79 55.015,42.658 54.84,42.571 54.708,42.395 54.445,42.087 
	54.268,41.734 54.182,41.338 54.137,40.987 54.137,40.633 54.137,37.819 55.37,37.819 55.37,40.547 55.37,40.855 55.415,41.117 
	55.503,41.295 55.591,41.47 55.721,41.603 55.855,41.69 56.074,41.78 56.295,41.78 56.47,41.78 56.69,41.69 56.822,41.603 
	56.954,41.47 57.087,41.295 57.133,41.117 57.174,40.855 57.217,40.591 57.217,37.819 58.407,37.819 58.407,42.79 57.217,42.79 
	57.217,42.395 56.954,42.612 56.69,42.79 56.339,42.877 55.987,42.922 "/>
<polygon fill="#585A5B" points="55.984,42.922 55.984,42.922 56.339,42.882 56.693,42.792 56.954,42.616 57.216,42.395 
	57.216,42.792 58.406,42.792 58.406,37.819 57.216,37.819 57.216,40.588 57.174,40.855 57.13,41.119 57.089,41.297 56.954,41.468 
	56.822,41.603 56.693,41.694 56.467,41.777 56.292,41.777 56.074,41.777 55.855,41.694 55.721,41.603 55.591,41.468 55.501,41.297 
	55.416,41.119 55.369,40.855 55.369,40.549 55.369,37.819 54.134,37.819 54.134,40.633 54.134,40.986 54.182,41.338 54.27,41.734 
	54.445,42.089 54.708,42.395 54.842,42.569 55.018,42.657 55.238,42.792 55.458,42.835 55.721,42.882 "/>
<polygon fill="#585A5B" points="74.735,42.79 74.735,40.063 74.735,39.752 74.694,39.533 74.606,39.314 74.517,39.139 
	74.384,39.008 74.252,38.92 74.031,38.874 73.856,38.832 73.636,38.874 73.414,38.92 73.281,39.008 73.149,39.139 73.021,39.314 
	72.931,39.533 72.885,39.752 72.885,40.063 72.885,42.79 71.654,42.79 71.654,37.821 72.885,37.821 72.885,38.259 73.149,37.994 
	73.459,37.864 73.769,37.732 74.118,37.732 74.561,37.732 74.912,37.864 75.219,38.041 75.483,38.305 75.704,38.611 75.836,39.008 
	75.925,39.446 75.967,39.976 75.967,42.79 "/>
<polygon fill="#585A5B" points="72.887,40.061 72.887,40.061 72.887,39.755 72.931,39.533 73.019,39.313 73.152,39.139 
	73.281,39.008 73.416,38.92 73.636,38.874 73.854,38.835 74.031,38.874 74.252,38.92 74.386,39.008 74.515,39.139 74.604,39.313 
	74.691,39.533 74.737,39.755 74.737,40.061 74.737,42.79 75.971,42.79 75.971,39.975 75.925,39.446 75.838,39.008 75.702,38.608 
	75.484,38.303 75.221,38.039 74.912,37.864 74.561,37.729 74.118,37.729 73.766,37.729 73.459,37.864 73.152,37.994 72.887,38.259 
	72.887,37.819 71.658,37.819 71.658,42.79 72.887,42.79 "/>
<rect x="59.551" y="37.819" fill="#585A5B" width="1.229" height="4.97"/>
<rect x="59.554" y="37.819" fill="#585A5B" width="1.229" height="4.97"/>
<polygon fill="#585A5B" points="61.839,42.79 61.839,36.368 63.071,35.753 63.071,42.79 "/>
<polygon fill="#585A5B" points="61.839,42.79 63.071,42.79 63.071,35.753 61.839,36.368 "/>
<path fill="#585A5B" d="M65.979,38.874l-0.177,0.046l-0.177,0.04l-0.131,0.134L65.36,39.27l-0.086,0.264l-0.042,0.311l-0.046,0.394
	l0.046,0.441l0.042,0.352l0.086,0.265l0.134,0.175l0.177,0.133l0.131,0.088l0.177,0.087h0.177l0.259-0.043l0.262-0.132l0.181-0.133
	l0.133-0.175v-1.98l-0.133-0.133l-0.181-0.176l-0.262-0.132l-0.307-0.042L65.979,38.874z M65.447,42.877l-0.396-0.13l-0.308-0.221
	l-0.306-0.309l-0.218-0.396l-0.136-0.439l-0.085-0.527l-0.045-0.573l0.045-0.57l0.085-0.53l0.178-0.394l0.22-0.396l0.262-0.268
	l0.354-0.215l0.35-0.135l0.442-0.043h0.308l0.309,0.087l0.263,0.131l0.222,0.22v-1.802l1.234-0.615v7.037h-1.234v-0.353
	l-0.265,0.175l-0.264,0.178l-0.266,0.087l-0.308,0.045L65.447,42.877z"/>
<path fill="#585A5B" d="M66.156,41.78L66.156,41.78h-0.179l-0.175-0.088l-0.131-0.09l-0.177-0.135l-0.129-0.171l-0.09-0.265
	l-0.046-0.354l-0.043-0.441l0.043-0.394l0.046-0.307l0.09-0.268l0.129-0.178l0.131-0.132l0.177-0.04l0.175-0.044l0.131-0.044
	l0.307,0.044l0.266,0.13l0.177,0.176l0.131,0.133v1.982l-0.131,0.171l-0.177,0.135l-0.266,0.132L66.156,41.78z M66.989,38.17
	L66.989,38.17l-0.22-0.22l-0.263-0.132l-0.309-0.086h-0.308l-0.439,0.041l-0.353,0.132l-0.354,0.222l-0.259,0.263l-0.223,0.398
	l-0.174,0.394l-0.089,0.532l-0.045,0.568l0.045,0.573l0.089,0.525l0.128,0.441l0.222,0.396l0.306,0.311l0.311,0.215l0.396,0.139
	l0.439,0.04l0.308-0.04l0.263-0.092l0.267-0.174l0.263-0.177v0.351h1.231v-7.04l-1.231,0.618V38.17z"/>
<path fill="#585A5B" d="M93.355,38.874l-0.265,0.086l-0.177,0.179l-0.176,0.221v1.936l0.133,0.13l0.176,0.178l0.265,0.132
	l0.129,0.043h0.179l0.216-0.043l0.178-0.044l0.175-0.132l0.136-0.176l0.085-0.219l0.05-0.266l0.041-0.308l0.046-0.354l-0.046-0.349
	l-0.041-0.309l-0.093-0.221l-0.13-0.221l-0.135-0.133l-0.174-0.086l-0.176-0.046l-0.132-0.042L93.355,38.874z M93.529,42.877
	l-0.306-0.088l-0.267-0.177l-0.219-0.175v0.352h-1.231v-6.29l1.231-0.617v2.288l0.219-0.173l0.311-0.178l0.262-0.087h0.306
	l0.442,0.041l0.354,0.134l0.353,0.218l0.263,0.268l0.223,0.396l0.172,0.394l0.091,0.53l0.041,0.57l-0.041,0.573l-0.091,0.527
	l-0.131,0.439l-0.218,0.396l-0.309,0.309l-0.312,0.221l-0.396,0.13l-0.442,0.043L93.529,42.877z"/>
<path fill="#585A5B" d="M93.619,38.83L93.619,38.83l0.13,0.044l0.18,0.046l0.174,0.088l0.13,0.131l0.135,0.219l0.091,0.223
	l0.041,0.309l0.042,0.347l-0.042,0.355l-0.041,0.308l-0.05,0.266l-0.087,0.219l-0.132,0.176l-0.174,0.132l-0.179,0.046l-0.218,0.041
	h-0.177l-0.134-0.041l-0.262-0.134l-0.179-0.18l-0.133-0.128v-1.938l0.179-0.219l0.178-0.18l0.264-0.085L93.619,38.83z
	 M93.837,37.732L93.837,37.732h-0.308l-0.265,0.087l-0.308,0.178l-0.222,0.173v-2.288L91.507,36.5v6.289h1.229v-0.352l0.222,0.175
	l0.266,0.177l0.307,0.088l0.308,0.045l0.444-0.045l0.392-0.13l0.31-0.221l0.311-0.309l0.218-0.396l0.131-0.439l0.086-0.527
	l0.048-0.573l-0.048-0.57l-0.086-0.526l-0.176-0.399l-0.217-0.394l-0.267-0.268l-0.355-0.218l-0.346-0.135L93.837,37.732z"/>
<path fill="#585A5B" d="M78.654,38.876l-0.175,0.086l-0.133,0.132l-0.134,0.179l-0.088,0.261l-0.043,0.311l-0.045,0.394l0.045,0.441
	l0.043,0.308l0.088,0.309l0.134,0.175l0.133,0.133l0.175,0.088l0.177,0.087h0.13l0.308-0.043l0.221-0.132l0.222-0.133l0.129-0.175
	v-1.981l-0.129-0.175l-0.177-0.131l-0.266-0.132l-0.308-0.046h-0.178L78.654,38.876z M78.213,43.845h0.043l0.527-0.043l0.399-0.086
	l0.26-0.137l0.224-0.172l0.089-0.22l0.085-0.222v-0.438v-0.091l-0.26,0.181l-0.263,0.171l-0.269,0.088l-0.353,0.045l-0.395-0.045
	l-0.395-0.176l-0.313-0.218l-0.308-0.261l-0.216-0.4l-0.137-0.439l-0.128-0.527v-0.618v-0.525l0.128-0.526l0.137-0.443l0.262-0.346
	l0.262-0.314l0.355-0.177l0.352-0.13l0.443-0.046h0.304l0.308,0.089l0.267,0.176l0.217,0.179v-0.354h1.238v4.533l-0.049,0.57
	l-0.088,0.485l-0.22,0.438l-0.089,0.177l-0.177,0.178l-0.13,0.132l-0.174,0.131l-0.441,0.175l-0.483,0.133l-0.573,0.044
	L78.213,43.845z"/>
<path fill="#585A5B" d="M79.842,39.314v1.982l-0.131,0.171l-0.222,0.135l-0.221,0.128l-0.308,0.05H78.83l-0.177-0.088l-0.177-0.09
	l-0.13-0.135l-0.13-0.171l-0.092-0.313l-0.043-0.306l-0.045-0.441l0.045-0.394l0.043-0.307l0.092-0.268l0.13-0.178l0.13-0.132
	l0.177-0.084l0.132-0.046h0.176l0.308,0.046l0.266,0.13l0.177,0.133L79.842,39.314z M79.842,38.17L79.842,38.17l-0.219-0.176
	l-0.267-0.176l-0.308-0.086h-0.308l-0.439,0.041l-0.354,0.132l-0.353,0.177l-0.26,0.308l-0.267,0.353l-0.128,0.439l-0.137,0.53
	v0.525v0.618l0.137,0.525l0.128,0.441l0.219,0.396l0.308,0.266l0.313,0.22l0.395,0.179l0.396,0.04l0.351-0.04l0.267-0.092
	l0.265-0.174l0.262-0.177v0.089v0.438l-0.089,0.224l-0.088,0.216l-0.219,0.177l-0.263,0.134l-0.398,0.085l-0.529,0.044h-0.039
	l0.437,0.966l0.571-0.039l0.486-0.137l0.439-0.173l0.176-0.131l0.132-0.132l0.175-0.178l0.089-0.177l0.222-0.439l0.086-0.483
	l0.044-0.57v-4.533h-1.231V38.17z"/>
<path fill="#585A5B" d="M85.74,40.503l-0.133,0.042l-0.13,0.088l-0.087,0.089L85.3,40.855l-0.042,0.131v0.178v0.131L85.3,41.47
	l0.091,0.131l0.087,0.09l0.13,0.087l0.133,0.045l0.175,0.043l0.174,0.043l0.31-0.043l0.31-0.131l0.177-0.176l0.179-0.176v-0.704
	l-0.224-0.088l-0.219-0.088l-0.267-0.044h-0.266h-0.174L85.74,40.503z M85.518,42.877l-0.306-0.042l-0.309-0.134l-0.264-0.175
	l-0.263-0.266L84.2,41.953l-0.133-0.353l-0.043-0.437l0.043-0.442l0.133-0.349l0.219-0.266l0.267-0.219l0.304-0.179l0.311-0.089
	l0.352-0.088h0.351h0.266l0.309,0.047l0.264,0.089l0.224,0.083v-0.348V39.27l-0.047-0.176l-0.09-0.134l-0.087-0.086l-0.132-0.086
	l-0.175-0.046l-0.354-0.04l-0.354,0.04l-0.348,0.046l-0.312,0.132l-0.263,0.132l-0.484-0.838l0.441-0.217l0.439-0.178l0.483-0.087
	h0.484h0.44l0.398,0.087l0.35,0.178l0.306,0.173l0.222,0.264l0.177,0.269l0.088,0.35l0.05,0.395v3.343h-1.234v-0.396l-0.267,0.22
	l-0.351,0.177l-0.309,0.088l-0.265,0.043L85.518,42.877z"/>
<path fill="#585A5B" d="M85.258,41.164L85.258,41.164v-0.178l0.04-0.134l0.091-0.131l0.087-0.09l0.134-0.087l0.128-0.042l0.18-0.047
	h0.172h0.267l0.264,0.047l0.221,0.09l0.223,0.082v0.708l-0.179,0.174l-0.176,0.178l-0.31,0.131l-0.31,0.047l-0.172-0.047
	l-0.18-0.043l-0.128-0.045l-0.134-0.087l-0.087-0.09l-0.091-0.131l-0.04-0.175V41.164z M84.903,39.052L84.903,39.052l0.263-0.132
	l0.31-0.134l0.352-0.044l0.352-0.043l0.351,0.043l0.179,0.044l0.132,0.088l0.087,0.086l0.088,0.132l0.048,0.178v0.135v0.351
	l-0.223-0.086l-0.264-0.091l-0.309-0.045h-0.266h-0.351l-0.354,0.088l-0.309,0.089l-0.307,0.174l-0.264,0.224l-0.221,0.262
	l-0.129,0.353l-0.045,0.442l0.045,0.437l0.129,0.352l0.178,0.309l0.264,0.266l0.264,0.175l0.308,0.134l0.307,0.042l0.354,0.043
	l0.263-0.043l0.311-0.088l0.349-0.177l0.27-0.218v0.395h1.228v-3.343l-0.042-0.395l-0.088-0.353l-0.174-0.266l-0.22-0.261
	l-0.313-0.179l-0.348-0.175l-0.398-0.087h-0.44h-0.484l-0.485,0.087l-0.438,0.175l-0.441,0.224L84.903,39.052z"/>
<path fill="#585A5B" d="M98.416,38.788l-0.178,0.042l-0.176,0.09l-0.13,0.132l-0.09,0.13l-0.086,0.176l-0.086,0.223v0.218h1.845
	l-0.046-0.394l-0.086-0.177l-0.086-0.134l-0.134-0.134l-0.176-0.13l-0.178-0.042l-0.22-0.046L98.416,38.788z M98.238,42.877
	l-0.481-0.176l-0.396-0.218l-0.312-0.266l-0.307-0.396l-0.177-0.439l-0.133-0.484l-0.044-0.572l0.044-0.574l0.133-0.482l0.177-0.439
	l0.27-0.396l0.349-0.309l0.35-0.218l0.439-0.134l0.484-0.041l0.439,0.041l0.396,0.134l0.354,0.218l0.311,0.309l0.263,0.354
	l0.176,0.439l0.087,0.524l0.043,0.574v0.353h-3.077l0.086,0.352l0.09,0.265l0.176,0.175l0.134,0.131l0.219,0.09l0.134,0.04
	l0.307,0.047l0.305-0.047l0.267-0.084l0.221-0.132l0.175-0.179l0.794,0.792l-0.223,0.177l-0.174,0.179l-0.223,0.129l-0.219,0.089
	l-0.44,0.176L98.77,42.92L98.238,42.877z"/>
<path fill="#585A5B" d="M97.667,39.797L97.667,39.797v-0.219l0.09-0.219l0.088-0.178l0.088-0.13l0.13-0.134l0.176-0.088l0.178-0.042
	l0.176-0.046l0.219,0.046l0.178,0.042l0.178,0.132l0.132,0.13l0.086,0.134l0.088,0.174l0.046,0.397H97.667z M99.735,41.338
	L99.735,41.338l-0.174,0.179l-0.221,0.128l-0.263,0.086l-0.309,0.05l-0.31-0.05l-0.131-0.038l-0.218-0.09l-0.138-0.135l-0.173-0.171
	l-0.088-0.265l-0.088-0.354h3.077v-0.353l-0.04-0.574l-0.09-0.526l-0.176-0.438l-0.263-0.354l-0.311-0.307l-0.352-0.222
	l-0.394-0.132l-0.443-0.044l-0.484,0.044l-0.438,0.132l-0.354,0.222l-0.353,0.307l-0.264,0.396l-0.177,0.439l-0.128,0.482
	l-0.049,0.574l0.049,0.572l0.128,0.482l0.177,0.441l0.307,0.396l0.31,0.266l0.397,0.22l0.481,0.179l0.531,0.04l0.482-0.04
	l0.44-0.179l0.219-0.087l0.223-0.133l0.174-0.179l0.22-0.177L99.735,41.338z"/>
<path fill="#585A5B" d="M110.256,38.788l-0.176,0.042l-0.135,0.088l-0.127,0.134l-0.133,0.13l-0.091,0.176l-0.04,0.223v0.218h1.847
	l-0.09-0.394l-0.044-0.177l-0.09-0.134l-0.127-0.134l-0.181-0.13l-0.174-0.042l-0.221-0.046L110.256,38.788z M110.125,42.877
	l-0.486-0.176l-0.393-0.218l-0.351-0.266l-0.269-0.396l-0.217-0.439l-0.089-0.484l-0.048-0.572l0.048-0.574l0.089-0.482l0.217-0.439
	l0.269-0.396l0.304-0.309l0.396-0.218l0.439-0.134l0.441-0.041l0.483,0.041l0.395,0.134l0.354,0.218l0.312,0.309l0.218,0.354
	l0.176,0.439l0.132,0.524l0.041,0.574v0.353h-3.081l0.05,0.352l0.131,0.263l0.133,0.177l0.175,0.131l0.175,0.09l0.178,0.04
	l0.261,0.047l0.313-0.047l0.259-0.084l0.224-0.132l0.219-0.179l0.749,0.792l-0.178,0.177l-0.22,0.179l-0.175,0.129l-0.219,0.089
	l-0.487,0.176l-0.484,0.043L110.125,42.877z"/>
<path fill="#585A5B" d="M109.552,39.797L109.552,39.797v-0.219l0.045-0.219l0.089-0.178l0.133-0.134l0.128-0.13l0.132-0.088
	l0.174-0.042l0.227-0.046l0.218,0.046l0.176,0.042l0.174,0.132l0.135,0.13l0.087,0.134l0.044,0.174l0.09,0.397H109.552z
	 M111.62,41.338L111.62,41.338l-0.219,0.179l-0.221,0.128l-0.265,0.086l-0.31,0.05l-0.263-0.05l-0.178-0.038l-0.171-0.09
	l-0.177-0.135l-0.133-0.173l-0.134-0.263l-0.044-0.354h3.078v-0.353l-0.039-0.574l-0.138-0.526l-0.17-0.438l-0.224-0.354
	l-0.306-0.307l-0.352-0.222l-0.396-0.132l-0.483-0.044l-0.441,0.044l-0.44,0.132l-0.396,0.222l-0.31,0.307l-0.264,0.396
	l-0.216,0.439l-0.09,0.482l-0.049,0.574l0.049,0.572l0.09,0.482l0.216,0.441l0.264,0.396l0.354,0.266l0.393,0.22l0.486,0.179
	l0.481,0.04l0.484-0.04l0.487-0.179l0.219-0.087l0.175-0.133l0.22-0.179l0.178-0.177L111.62,41.338z"/>
<polygon fill="#585A5B" points="106.336,42.877 106.03,42.747 105.811,42.612 105.635,42.393 105.505,42.174 105.414,41.908 
	105.369,41.646 105.326,41.383 105.326,38.96 104.576,38.96 104.576,37.819 105.326,37.819 105.326,36.543 106.557,35.925 
	106.557,37.819 107.703,37.819 107.703,38.96 106.557,38.96 106.557,41.072 106.603,41.383 106.69,41.559 106.777,41.646 
	106.868,41.69 107.087,41.73 107.309,41.73 107.483,41.69 107.832,41.515 107.703,42.657 107.483,42.789 107.218,42.835 
	106.957,42.877 106.646,42.92 "/>
<polygon fill="#585A5B" points="106.557,38.96 107.703,38.96 107.703,37.818 106.557,37.818 106.557,35.925 105.328,36.543 
	105.328,37.818 104.578,37.818 104.578,38.96 105.328,38.96 105.328,41.383 105.369,41.646 105.416,41.912 105.507,42.172 
	105.635,42.395 105.813,42.612 106.03,42.743 106.338,42.877 106.646,42.92 106.954,42.877 107.218,42.835 107.484,42.789 
	107.703,42.657 107.835,41.515 107.484,41.69 107.309,41.734 107.089,41.734 106.862,41.69 106.777,41.646 106.69,41.559 
	106.603,41.383 106.557,41.07 "/>
<polygon fill="#585A5B" points="102.818,42.877 102.513,42.747 102.288,42.612 102.112,42.393 101.982,42.174 101.893,41.908 
	101.849,41.646 101.804,41.383 101.804,38.96 101.054,38.96 101.054,37.819 101.804,37.819 101.804,36.543 103.037,35.925 
	103.037,37.819 104.094,37.819 104.094,38.96 103.037,38.96 103.037,41.072 103.082,41.383 103.171,41.559 103.259,41.646 
	103.348,41.69 103.565,41.73 103.785,41.73 103.961,41.69 104.316,41.515 104.184,42.657 103.961,42.789 103.696,42.835 
	103.437,42.877 103.122,42.92 "/>
<polygon fill="#585A5B" points="104.313,41.515 104.313,41.515 103.961,41.69 103.785,41.73 103.565,41.73 103.345,41.69 
	103.257,41.645 103.173,41.557 103.084,41.385 103.033,41.07 103.033,38.96 104.094,38.96 104.094,37.819 103.033,37.819 
	103.033,35.925 101.809,36.543 101.809,37.819 101.054,37.819 101.054,38.96 101.809,38.96 101.809,41.385 101.849,41.645 
	101.896,41.908 101.98,42.174 102.112,42.393 102.289,42.612 102.513,42.741 102.818,42.877 103.124,42.92 103.435,42.877 
	103.696,42.832 103.961,42.79 104.184,42.657 "/>
<polygon fill="#585A5B" points="113.381,42.789 113.381,37.819 114.61,37.819 114.61,38.257 114.835,37.994 115.098,37.86 
	115.406,37.729 115.714,37.729 115.933,37.729 116.195,37.773 116.421,37.907 116.642,37.994 116.284,39.226 116.109,39.094 
	115.933,39.008 115.714,38.96 115.493,38.96 115.271,38.96 115.098,39.008 114.965,39.094 114.835,39.226 114.748,39.399 
	114.656,39.578 114.61,39.844 114.61,40.104 114.61,42.789 "/>
<polygon fill="#585A5B" points="116.638,37.994 116.638,37.994 116.421,37.905 116.198,37.775 115.933,37.727 115.712,37.727 
	115.408,37.727 115.094,37.864 114.835,37.994 114.614,38.259 114.614,37.818 113.379,37.818 113.379,42.789 114.614,42.789 
	114.614,40.107 114.614,39.845 114.656,39.578 114.746,39.399 114.835,39.224 114.965,39.094 115.094,39.008 115.271,38.96 
	115.495,38.96 115.712,38.96 115.933,39.008 116.109,39.094 116.284,39.224 "/>
<rect x="59.551" y="35.882" fill="#585A5B" width="1.229" height="1.231"/>
<rect x="59.554" y="35.882" fill="#585A5B" width="1.229" height="1.231"/>
<rect x="69.321" y="37.818" fill="#585A5B" width="1.23" height="4.969"/>
<rect x="69.321" y="37.821" fill="#585A5B" width="1.23" height="4.971"/>
<rect x="69.321" y="35.882" fill="#585A5B" width="1.23" height="1.231"/>
<rect x="69.323" y="35.882" fill="#585A5B" width="1.231" height="1.231"/>
<path fill="#585A5B" d="M103.124,47.583l-0.129,0.089l-0.135,0.131l-0.131,0.176l-0.086,0.225l-0.091,0.348v0.354v0.438l0.091,0.354
	l0.086,0.265l0.131,0.219l0.135,0.132l0.176,0.088l0.132,0.044h0.176h0.307l0.218-0.132l0.177-0.179l0.178-0.172v-1.935l-0.13-0.178
	l-0.225-0.134l-0.218-0.132l-0.307-0.042h-0.176L103.124,47.583z M103.214,51.588l-0.44-0.043l-0.353-0.134l-0.35-0.219
	l-0.265-0.311l-0.218-0.353l-0.18-0.483l-0.087-0.483l-0.045-0.616l0.045-0.568l0.087-0.489l0.18-0.436l0.218-0.353l0.265-0.307
	l0.35-0.223l0.397-0.129l0.438-0.049l0.263,0.049l0.314,0.088l0.258,0.129l0.266,0.218v-1.802l1.23-0.613v7.036h-1.23v-0.396
	l-0.266,0.222l-0.307,0.174l-0.266,0.09H103.214z"/>
<path fill="#585A5B" d="M103.479,50.443L103.479,50.443h-0.176l-0.132-0.044l-0.179-0.088l-0.132-0.134l-0.127-0.219l-0.09-0.266
	l-0.091-0.351v-0.441v-0.351l0.091-0.35l0.09-0.221l0.127-0.178l0.132-0.131l0.134-0.089l0.177-0.042h0.176l0.307,0.042l0.221,0.132
	l0.22,0.134l0.132,0.178v1.933l-0.174,0.174l-0.178,0.179l-0.221,0.132H103.479z M104.357,46.88L104.357,46.88l-0.264-0.218
	l-0.264-0.134l-0.306-0.088l-0.268-0.044l-0.438,0.044l-0.397,0.131l-0.352,0.219l-0.263,0.31l-0.223,0.354l-0.176,0.436
	l-0.089,0.486l-0.043,0.571l0.043,0.616l0.089,0.483l0.176,0.483l0.223,0.354l0.263,0.309l0.352,0.219l0.352,0.134l0.441,0.043
	h0.311l0.261-0.087l0.309-0.177l0.264-0.222v0.398h1.23v-7.039l-1.23,0.616V46.88z"/>
<polygon fill="#585A5B" points="59.639,51.498 59.639,46.53 60.87,46.53 60.87,46.968 61.093,46.702 61.355,46.53 61.618,46.44 
	61.972,46.396 62.19,46.44 62.453,46.483 62.676,46.571 62.897,46.702 62.542,47.889 62.368,47.803 62.147,47.715 61.972,47.672 
	61.752,47.626 61.53,47.672 61.355,47.715 61.181,47.803 61.093,47.936 60.96,48.067 60.916,48.288 60.87,48.507 60.87,48.818 
	60.87,51.498 "/>
<polygon fill="#585A5B" points="62.895,46.702 62.895,46.702 62.676,46.573 62.456,46.486 62.19,46.438 61.97,46.396 61.618,46.438 
	61.355,46.528 61.093,46.702 60.875,46.968 60.875,46.528 59.639,46.528 59.639,51.498 60.875,51.498 60.875,48.815 60.875,48.505 
	60.916,48.286 60.96,48.069 61.093,47.935 61.181,47.807 61.355,47.715 61.53,47.672 61.753,47.628 61.97,47.672 62.15,47.715 
	62.368,47.807 62.542,47.893 "/>
<polygon fill="#585A5B" points="51.628,51.498 51.099,49.431 50.795,48.333 50.526,49.477 50.001,51.498 48.942,51.498 
	48.902,51.455 47.583,46.7 47.583,46.53 48.765,46.53 49.251,48.375 49.472,49.608 49.649,48.946 49.778,48.333 50.307,46.53 
	51.364,46.53 51.846,48.333 52.16,49.608 52.42,48.333 52.86,46.53 54.093,46.53 52.684,51.498 "/>
<g opacity="0">
	<g>
		<defs>
			<rect id="SVGID_1_" x="47.535" y="46.528" width="6.561" height="4.97"/>
		</defs>
		<clipPath id="SVGID_2_">
			<use xlink:href="#SVGID_1_"  overflow="visible"/>
		</clipPath>
		<g clip-path="url(#SVGID_2_)">
			<defs>
				<rect id="SVGID_3_" x="47.532" y="46.528" width="6.561" height="4.97"/>
			</defs>
			<clipPath id="SVGID_4_">
				<use xlink:href="#SVGID_3_"  overflow="visible"/>
			</clipPath>
			<polygon clip-path="url(#SVGID_4_)" fill="#585A5B" points="52.42,48.333 52.42,48.333 52.157,49.608 51.851,48.333 
				51.365,46.53 50.31,46.53 49.78,48.333 49.646,48.946 49.469,49.608 49.251,48.373 48.768,46.53 47.538,46.53 48.896,51.455 
				48.945,51.498 50.001,51.498 50.528,49.477 50.798,48.333 51.101,49.431 51.631,51.498 52.684,51.498 54.093,46.53 52.861,46.53 
							"/>
		</g>
	</g>
</g>
<path fill="#585A5B" d="M56.205,47.672l-0.175,0.131l-0.175,0.132l-0.086,0.222l-0.091,0.262l-0.046,0.264l-0.043,0.311l0.043,0.306
	l0.046,0.31l0.091,0.223l0.086,0.216l0.175,0.178l0.175,0.132l0.177,0.044l0.222,0.044l0.218-0.044l0.175-0.044l0.177-0.132
	l0.174-0.178l0.092-0.216l0.088-0.223l0.085-0.31v-0.306v-0.311l-0.085-0.264l-0.088-0.262l-0.092-0.222l-0.174-0.132l-0.177-0.131
	l-0.175-0.087h-0.218h-0.222L56.205,47.672z M56.118,51.541l-0.44-0.128l-0.352-0.224l-0.352-0.306l-0.266-0.395l-0.215-0.443
	l-0.092-0.48l-0.045-0.573l0.045-0.529l0.092-0.482l0.215-0.483l0.266-0.354l0.352-0.306l0.352-0.222l0.44-0.177l0.486-0.042
	l0.48,0.042l0.444,0.177l0.35,0.222l0.352,0.306l0.263,0.354l0.223,0.483l0.091,0.482l0.041,0.529l-0.041,0.573l-0.091,0.48
	l-0.223,0.443l-0.263,0.395l-0.352,0.306l-0.35,0.224l-0.444,0.128l-0.48,0.043L56.118,51.541z"/>
<path fill="#585A5B" d="M56.604,50.443L56.604,50.443l-0.222-0.046l-0.177-0.042l-0.175-0.132l-0.175-0.178l-0.085-0.219
	l-0.092-0.22l-0.046-0.312l-0.041-0.306l0.041-0.306l0.046-0.266l0.092-0.265l0.085-0.217l0.175-0.135l0.175-0.131l0.177-0.089
	h0.222h0.215l0.18,0.089l0.175,0.131l0.177,0.135l0.088,0.217l0.089,0.265l0.085,0.266v0.306v0.306l-0.085,0.312l-0.089,0.22
	l-0.088,0.219l-0.177,0.178l-0.175,0.132l-0.18,0.042L56.604,50.443z M56.604,46.396L56.604,46.396l-0.486,0.042l-0.44,0.177
	l-0.354,0.219l-0.349,0.311l-0.266,0.35l-0.218,0.486l-0.091,0.482l-0.042,0.527l0.042,0.572l0.091,0.483l0.218,0.439l0.266,0.396
	l0.349,0.311l0.354,0.219l0.44,0.128l0.486,0.049l0.483-0.049l0.441-0.128l0.35-0.219l0.351-0.311l0.269-0.396l0.218-0.439
	l0.091-0.483l0.041-0.572l-0.041-0.527l-0.091-0.482l-0.218-0.486l-0.269-0.35l-0.351-0.311l-0.35-0.219l-0.441-0.177L56.604,46.396
	z"/>
<polygon fill="#585A5B" points="95.336,51.498 95.336,46.528 96.566,46.528 96.566,46.968 96.832,46.702 97.097,46.528 
	97.359,46.44 97.671,46.396 97.933,46.44 98.197,46.483 98.417,46.571 98.591,46.702 98.284,47.889 98.106,47.803 97.885,47.715 
	97.671,47.672 97.448,47.626 97.272,47.672 97.097,47.715 96.921,47.803 96.789,47.936 96.698,48.067 96.658,48.288 96.611,48.507 
	96.566,48.815 96.566,51.498 "/>
<polygon fill="#585A5B" points="98.591,46.702 98.591,46.702 98.416,46.573 98.197,46.486 97.933,46.438 97.671,46.396 
	97.363,46.438 97.097,46.525 96.83,46.702 96.569,46.968 96.569,46.525 95.336,46.525 95.336,51.498 96.569,51.498 96.569,48.815 
	96.611,48.505 96.658,48.286 96.698,48.069 96.789,47.935 96.921,47.807 97.097,47.715 97.272,47.672 97.448,47.628 97.671,47.672 
	97.885,47.715 98.106,47.807 98.284,47.893 "/>
<polygon fill="#585A5B" points="87.368,51.498 86.793,49.43 86.533,48.333 86.268,49.477 85.694,51.498 84.638,51.498 
	84.638,51.455 83.23,46.528 84.506,46.528 84.951,48.373 85.211,49.608 85.346,48.946 85.518,48.333 86.049,46.528 87.063,46.528 
	87.59,48.333 87.898,49.608 88.16,48.333 88.598,46.528 89.833,46.528 88.426,51.498 "/>
<polygon fill="#585A5B" points="88.16,48.333 88.16,48.333 87.894,49.607 87.588,48.333 87.063,46.528 86.05,46.528 85.518,48.333 
	85.346,48.946 85.211,49.607 84.948,48.373 84.506,46.528 83.23,46.528 84.638,51.455 84.638,51.498 85.696,51.498 86.268,49.477 
	86.533,48.333 86.793,49.43 87.368,51.498 88.426,51.498 89.833,46.528 88.604,46.528 "/>
<path fill="#585A5B" d="M91.901,47.675l-0.176,0.128l-0.132,0.132l-0.13,0.222l-0.091,0.263l-0.046,0.263v0.311v0.306l0.046,0.307
	l0.091,0.223l0.13,0.219l0.132,0.178l0.176,0.132l0.223,0.042l0.216,0.046l0.222-0.046l0.174-0.042l0.179-0.132l0.133-0.178
	l0.13-0.219l0.091-0.223l0.044-0.307v-0.306v-0.311l-0.044-0.263l-0.091-0.263l-0.13-0.222l-0.133-0.132l-0.179-0.128l-0.174-0.092
	H92.34h-0.216L91.901,47.675z M91.856,51.541l-0.438-0.128l-0.395-0.224l-0.309-0.308l-0.264-0.393l-0.22-0.443l-0.135-0.483
	l-0.043-0.57l0.043-0.532l0.135-0.479l0.22-0.442l0.264-0.396l0.309-0.306l0.395-0.222l0.438-0.177l0.483-0.042l0.445,0.042
	l0.438,0.177l0.396,0.222l0.308,0.306l0.306,0.396l0.176,0.442l0.137,0.479l0.042,0.532l-0.042,0.57l-0.137,0.483l-0.176,0.443
	l-0.306,0.393l-0.308,0.308l-0.396,0.224l-0.438,0.128l-0.445,0.043L91.856,51.541z"/>
<path fill="#585A5B" d="M92.343,50.443L92.343,50.443l-0.219-0.046l-0.222-0.042l-0.179-0.132l-0.13-0.178l-0.13-0.219l-0.091-0.22
	l-0.046-0.312V48.99v-0.306l0.046-0.266l0.091-0.265l0.13-0.217l0.13-0.135l0.179-0.131l0.222-0.089h0.219h0.219l0.174,0.089
	l0.179,0.131l0.135,0.135l0.128,0.217l0.091,0.265l0.041,0.266v0.306v0.306l-0.041,0.312l-0.091,0.22l-0.128,0.219l-0.135,0.178
	l-0.179,0.132l-0.174,0.042L92.343,50.443z M92.343,46.396L92.343,46.396l-0.486,0.042l-0.438,0.177l-0.397,0.219l-0.304,0.311
	l-0.266,0.396L90.23,47.98l-0.132,0.479l-0.046,0.53l0.046,0.572l0.132,0.483l0.221,0.439l0.266,0.396l0.304,0.312l0.397,0.219
	l0.438,0.128l0.486,0.049l0.442-0.049l0.438-0.128l0.396-0.219l0.31-0.312l0.306-0.396l0.174-0.439l0.137-0.483l0.042-0.572
	l-0.042-0.53l-0.137-0.479l-0.174-0.439l-0.306-0.396l-0.31-0.311l-0.396-0.219l-0.438-0.177L92.343,46.396z"/>
<polygon fill="#585A5B" points="66.372,51.498 65.319,49.167 64.699,50.003 64.699,51.498 63.472,51.498 63.472,45.075 
	64.699,44.462 64.699,48.419 65.144,47.803 66.11,46.528 67.562,46.528 66.244,48.154 67.739,51.498 "/>
<polygon fill="#585A5B" points="67.562,46.528 66.105,46.528 65.144,47.807 64.699,48.418 64.699,44.462 63.469,45.074 
	63.469,51.498 64.699,51.498 64.699,50.003 65.316,49.164 66.372,51.498 67.739,51.498 66.244,48.15 "/>
<polygon fill="#585A5B" points="73.899,51.498 73.899,48.727 73.899,48.46 73.856,48.201 73.769,47.98 73.682,47.847 73.55,47.715 
	73.414,47.626 73.241,47.541 73.019,47.541 72.799,47.541 72.579,47.626 72.447,47.715 72.314,47.847 72.184,48.022 72.141,48.201 
	72.095,48.46 72.05,48.727 72.05,51.498 70.819,51.498 70.819,46.528 72.05,46.528 72.05,46.923 72.314,46.702 72.622,46.528 
	72.931,46.44 73.327,46.394 73.723,46.44 74.118,46.571 74.429,46.746 74.691,46.968 74.869,47.319 75.002,47.715 75.087,48.154 
	75.131,48.685 75.131,51.498 "/>
<polygon fill="#585A5B" points="72.05,48.727 72.05,48.727 72.095,48.46 72.141,48.198 72.184,48.021 72.316,47.847 72.447,47.715 
	72.581,47.628 72.799,47.541 73.019,47.541 73.239,47.541 73.414,47.628 73.548,47.715 73.679,47.847 73.769,47.98 73.856,48.198 
	73.899,48.46 73.899,48.727 73.899,51.498 75.133,51.498 75.133,48.685 75.087,48.154 75,47.715 74.866,47.319 74.691,46.968 
	74.427,46.746 74.118,46.571 73.723,46.438 73.327,46.394 72.931,46.438 72.622,46.525 72.316,46.702 72.05,46.923 72.05,46.525 
	70.82,46.525 70.82,51.498 72.05,51.498 "/>
<path fill="#585A5B" d="M77.818,47.583l-0.177,0.089l-0.132,0.131l-0.132,0.178l-0.091,0.216l-0.041,0.354l-0.044,0.351l0.044,0.443
	l0.041,0.349l0.091,0.266l0.132,0.221l0.174,0.132l0.135,0.086l0.175,0.047h0.132h0.309l0.22-0.133l0.219-0.174l0.132-0.179v-1.938
	l-0.132-0.176l-0.174-0.13l-0.265-0.132l-0.309-0.045h-0.132L77.818,47.583z M77.378,52.555h0.043l0.526-0.044l0.399-0.088
	l0.261-0.176l0.223-0.178l0.087-0.175l0.087-0.222v-0.438v-0.135l-0.219,0.226l-0.309,0.129l-0.264,0.132h-0.306l-0.443-0.046
	l-0.396-0.133l-0.309-0.219l-0.308-0.308l-0.219-0.353L76.1,50.046l-0.087-0.529l-0.044-0.572l0.044-0.571l0.087-0.48l0.178-0.444
	l0.219-0.348l0.264-0.311l0.354-0.219l0.35-0.133l0.443-0.042l0.306,0.042l0.309,0.087l0.264,0.134l0.219,0.218v-0.352h1.233v4.488
	l-0.045,0.573l-0.086,0.529l-0.178,0.438l-0.134,0.174l-0.129,0.134l-0.177,0.176l-0.174,0.131l-0.443,0.175l-0.481,0.134
	l-0.572,0.044L77.378,52.555z"/>
<g opacity="0">
	<g>
		<defs>
			<rect id="SVGID_5_" x="75.969" y="46.394" width="4.267" height="7.13"/>
		</defs>
		<clipPath id="SVGID_6_">
			<use xlink:href="#SVGID_5_"  overflow="visible"/>
		</clipPath>
		<g clip-path="url(#SVGID_6_)">
			<defs>
				<rect id="SVGID_7_" x="75.967" y="46.394" width="4.271" height="7.128"/>
			</defs>
			<clipPath id="SVGID_8_">
				<use xlink:href="#SVGID_7_"  overflow="visible"/>
			</clipPath>
			<path clip-path="url(#SVGID_8_)" fill="#585A5B" d="M79.005,48.022v1.935l-0.128,0.176l-0.223,0.179l-0.221,0.132h-0.309h-0.133
				l-0.176-0.046l-0.131-0.086l-0.176-0.134l-0.129-0.221l-0.092-0.266l-0.045-0.349l-0.042-0.441l0.042-0.351l0.045-0.354
				l0.092-0.218L77.51,47.8l0.13-0.131l0.177-0.086l0.176-0.042h0.133l0.309,0.042l0.265,0.13l0.179,0.134L79.005,48.022z
				 M79.005,46.877L79.005,46.877l-0.22-0.218l-0.264-0.134l-0.306-0.085l-0.313-0.047l-0.439,0.047l-0.35,0.131L76.76,46.79
				l-0.263,0.31l-0.22,0.351l-0.173,0.438l-0.092,0.484l-0.046,0.573l0.046,0.57l0.092,0.527l0.126,0.485l0.222,0.353l0.308,0.308
				l0.309,0.222l0.396,0.13l0.439,0.047h0.313l0.261-0.135l0.309-0.129l0.22-0.224v0.135v0.438l-0.088,0.222l-0.086,0.176
				l-0.22,0.177l-0.263,0.175l-0.401,0.086l-0.526,0.047h-0.04l0.436,0.967l0.571-0.041l0.489-0.139l0.434-0.173l0.178-0.131
				l0.177-0.176l0.13-0.134l0.137-0.174l0.175-0.44l0.088-0.526l0.041-0.574v-4.488h-1.23V46.877z"/>
		</g>
	</g>
</g>
<rect x="68.488" y="46.528" fill="#585A5B" width="1.228" height="4.965"/>
<rect x="68.488" y="46.53" fill="#585A5B" width="1.228" height="4.966"/>
<rect x="68.488" y="44.592" fill="#585A5B" width="1.228" height="1.227"/>
<rect x="68.488" y="44.592" fill="#585A5B" width="1.228" height="1.227"/>
<polygon fill="#585A5B" points="99.209,51.496 99.209,45.075 100.439,44.462 100.439,51.496 "/>
<polygon fill="#585A5B" points="99.209,51.496 100.439,51.496 100.439,44.462 99.209,45.075 "/>
<polygon fill="#585A5B" points="2.298,20.393 52.825,1.955 52.83,1.955 52.83,11.48 2.298,20.398 "/>
<g opacity="0">
	<g>
		<defs>
			<rect id="SVGID_9_" x="2.253" y="-6.056" width="72.512" height="26.464"/>
		</defs>
		<clipPath id="SVGID_10_">
			<use xlink:href="#SVGID_9_"  overflow="visible"/>
		</clipPath>
		<g clip-path="url(#SVGID_10_)">
			<defs>
				<rect id="SVGID_11_" x="2.253" y="-6.056" width="72.507" height="26.46"/>
			</defs>
			<clipPath id="SVGID_12_">
				<use xlink:href="#SVGID_11_"  overflow="visible"/>
			</clipPath>
			<polygon clip-path="url(#SVGID_12_)" fill="#585A5B" points="2.253,20.405 74.765,-6.053 74.765,7.608 			"/>
		</g>
	</g>
</g>
<polygon fill="#585A5B" points="2.708,54.439 2.708,28.267 17.57,28.267 21.032,34.273 10.533,34.273 10.533,38.595 20.04,38.595 
	20.04,44.109 10.533,44.109 10.533,48.431 23.665,48.431 23.665,54.439 "/>
<polygon fill="#585A5B" points="10.528,44.11 20.04,44.11 20.04,38.595 10.528,38.595 10.528,34.273 21.03,34.273 17.57,28.267 
	2.705,28.267 2.705,54.439 23.665,54.439 23.665,48.433 10.528,48.433 "/>
<polygon fill="#585A5B" points="29.181,54.439 29.181,44.109 20.042,28.267 28.729,28.267 33.135,36.826 37.583,28.267 
	46.187,28.267 37.009,44.109 37.009,54.439 "/>
<polygon fill="#585A5B" points="37.582,28.265 33.135,36.827 28.729,28.265 20.04,28.265 29.181,44.109 29.181,54.439 
	37.006,54.439 37.006,44.109 46.187,28.265 "/>
</svg>
