<?xml version="1.0" encoding="utf-8"?>
<!-- Generator: Adobe Illustrator 15.1.0, SVG Export Plug-In . SVG Version: 6.00 Build 0)  -->
<!DOCTYPE svg PUBLIC "-//W3C//DTD SVG 1.1//EN" "http://www.w3.org/Graphics/SVG/1.1/DTD/svg11.dtd" [
	<!ENTITY ns_extend "http://ns.adobe.com/Extensibility/1.0/">
	<!ENTITY ns_ai "http://ns.adobe.com/AdobeIllustrator/10.0/">
	<!ENTITY ns_graphs "http://ns.adobe.com/Graphs/1.0/">
	<!ENTITY ns_vars "http://ns.adobe.com/Variables/1.0/">
	<!ENTITY ns_imrep "http://ns.adobe.com/ImageReplacement/1.0/">
	<!ENTITY ns_sfw "http://ns.adobe.com/SaveForWeb/1.0/">
	<!ENTITY ns_custom "http://ns.adobe.com/GenericCustomNamespace/1.0/">
	<!ENTITY ns_adobe_xpath "http://ns.adobe.com/XPath/1.0/">
]>
<svg version="1.1" id="Layer_1" xmlns:x="&ns_extend;" xmlns:i="&ns_ai;" xmlns:graph="&ns_graphs;"
	 xmlns="http://www.w3.org/2000/svg" xmlns:xlink="http://www.w3.org/1999/xlink" x="0px" y="0px" width="74.125px"
	 height="61.625px" viewBox="0 0 74.125 61.625" enable-background="new 0 0 74.125 61.625" xml:space="preserve">
<metadata>
	<sfw  xmlns="&ns_sfw;">
		<slices></slices>
		<sliceSourceBounds  width="70.745" height="58.619" x="20.613" y="-53.456" bottomLeftOrigin="true"></sliceSourceBounds>
	</sfw>
</metadata>
<path fill="#E3A792" d="M72.483,43.769c-0.021-0.003-0.042-0.004-0.068-0.009c-0.101-0.12-0.084-0.271-0.084-0.409
	c-0.006-0.972-0.006-1.946,0-2.919c0-0.143-0.014-0.289,0.09-0.409c0.022-0.002,0.042-0.002,0.063-0.005V43.769z"/>
<path fill="#585A5B" d="M72.421,40.022c0,1.246-0.002,2.492-0.006,3.737c-0.109,0.004-0.219,0.006-0.331,0.006
	c-23.305,0-46.618,0-69.926,0.01c-0.315,0-0.387-0.082-0.387-0.398c0.011-6.038,0.011-12.074,0-18.108
	c0-0.285,0.089-0.377,0.344-0.442c1.108-0.275,2.208-0.577,3.313-0.863c0.178-0.044,0.193-0.1,0.101-0.257
	c-0.285-0.503-0.456-1.047-0.503-1.626c-0.097-1.222,0.515-2.144,1.736-2.639c0.365-0.146,0.771-0.138,1.137-0.249
	c0.343-0.103,0.504-0.548,0.85-0.737c0.838-0.459,1.695-0.4,2.56-0.116c0.752,0.25,1.414,0.667,2.021,1.179
	c0.104,0.09,0.213,0.183,0.331,0.285c0.492-0.806,0.973-1.595,1.455-2.382c0.064-0.1,0.04-0.157-0.042-0.229
	c-0.162-0.151-0.332-0.298-0.472-0.472c-0.488-0.596-0.351-1.332,0.31-1.714c0.416-0.243,0.877-0.267,1.333-0.321
	c0.5-0.059,1.001-0.075,1.488-0.194c0.357-0.084,0.682-0.236,0.947-0.504c0.17-0.171,0.281-0.372,0.29-0.622
	c0.015-0.434-0.372-0.705-0.751-0.512c-0.468,0.234-0.885,0.559-1.331,0.833c-0.496,0.302-1.016,0.522-1.611,0.511
	c-1.246-0.024-2.141-1.208-1.59-2.393c0.053-0.117,0.017-0.18-0.05-0.269c-0.556-0.774-0.564-1.505,0.048-2.24
	c0.803-0.957,1.379-2.052,1.918-3.172c0.132-0.27,0.293-0.513,0.521-0.704c0.141-0.117,0.189-0.286,0.27-0.437
	c0.564-1.036,1.194-2.011,2.165-2.711c1.701-1.23,3.557-1.446,5.521-0.911c2.583,0.705,4.442,2.269,5.421,4.854
	c0.02,0.047,0.044,0.092,0.083,0.176c0.19-0.558,0.4-1.069,0.706-1.533c1.043-1.593,2.493-2.465,4.379-2.468
	c11.736-0.009,23.472-0.005,35.206-0.005h0.182c-0.888,2.527-2.402,4.529-5.433,4.874c-0.33,0.038-0.664,0.068-0.993,0.043
	C63.39,7.287,63.28,7.38,63.175,7.589c-0.869,1.713-2.196,2.837-4.063,3.25c-0.432,0.095-0.867,0.163-1.308,0.158
	c-0.168-0.003-0.27,0.046-0.354,0.209c-1.183,2.295-3.076,3.403-5.583,3.416c-3.396,0.018-6.796,0.008-10.194,0
	c-0.266,0-0.427,0.004-0.337,0.358c0.084,0.341,0.066,0.696-0.007,1.039c-0.04,0.209,0.043,0.239,0.209,0.251
	c1.319,0.104,2.641,0.221,3.957,0.316c2.12,0.154,4.241,0.265,6.356,0.447c1.914,0.162,3.778,0.549,5.481,1.541
	c1.52,0.889,2.694,2.137,3.688,3.592c1.473,2.167,2.477,4.571,3.407,7.013c0.477,1.248,0.947,2.494,1.513,3.704
	c0.083,0.176,0.144,0.224,0.35,0.148c1.01-0.361,1.992-0.288,2.91,0.299c0.302,0.191,0.545,0.449,0.735,0.759
	c0.351,0.569,0.64,1.183,1.027,1.73c0.383,0.54,0.854,1.004,1.312,1.554c-0.414,0.098-0.794,0.188-1.174,0.277
	c-1.841,0.431-3.456,0.073-4.757-1.401c-0.434-0.489-0.8-1.025-1.125-1.591c-0.647-1.134-1.147-2.338-1.629-3.547
	c-0.04-0.101-0.052-0.219-0.17-0.308c0,0.577-0.004,1.137,0,1.694c0.008,1.464,0.008,2.928,0.028,4.396
	c0.007,0.796-0.293,1.398-0.958,1.823c-0.762,0.484-1.602,0.78-2.431,1.108c-0.111,0.045-0.217,0.089-0.328,0.185h0.304
	c4.021,0,8.037,0,12.057,0.002C72.2,40.014,72.31,40.021,72.421,40.022"/>
<path fill="#585A5B" d="M47.501,53.451c0.039,0.092,0.11,0.08,0.162,0.092c1.286,0.268,1.811,0.885,1.916,2.222
	c0.069,0.897,0.022,1.802,0.04,2.699c0.004,0.169-0.051,0.374,0.146,0.465c0.217,0.098,0.436,0.082,0.63-0.062
	c0.33-0.247,0.497-0.607,0.625-0.99c0.362-1.069,0.724-2.142,1.085-3.212c0.812-2.406,1.623-4.813,2.432-7.217
	c0.056-0.159,0.07-0.334,0.321-0.306c0.229,0.029,0.43-0.028,0.547,0.305c1.373,3.773,2.767,7.538,4.144,11.305
	c0.077,0.214,0.176,0.289,0.387,0.268c0.168-0.02,0.342-0.022,0.511,0c0.3,0.039,0.4-0.051,0.396-0.387
	c-0.021-1.751-0.009-3.503-0.009-5.253c0-1.671-0.006-3.341,0.008-5.013c0-0.233-0.055-0.319-0.296-0.301
	c-0.339,0.021-0.683-0.008-1.021,0.009c-0.244,0.012-0.19-0.156-0.186-0.286c0.008-0.132-0.08-0.321,0.189-0.318
	c1.51,0.006,3.021,0.006,4.538,0c0.296-0.003,0.167,0.209,0.186,0.342c0.021,0.152,0.023,0.276-0.2,0.264
	c-0.352-0.021-0.702,0.002-1.055-0.009c-0.175-0.007-0.242,0.03-0.242,0.23c0.006,3.495,0.006,6.988,0,10.482
	c0,0.192,0.055,0.246,0.238,0.239c0.433-0.014,0.858-0.04,1.285-0.113c0.831-0.148,1.389-0.637,1.707-1.427
	c0.27-0.668,0.401-1.368,0.496-2.081c0.018-0.134,0.008-0.281,0.225-0.28c0.193,0.007,0.253,0.052,0.252,0.257
	c-0.008,1.323-0.008,2.645,0,3.965c0,0.197-0.048,0.258-0.248,0.256c-3.409-0.006-6.812-0.008-10.221,0.004
	c-0.275,0-0.232-0.145-0.249-0.318c-0.017-0.215,0.051-0.283,0.262-0.271c0.29,0.021,0.582,0.002,0.869,0.009
	c0.16,0.003,0.248,0.002,0.163-0.21c-0.373-0.947-0.733-1.9-1.092-2.855c-0.048-0.129-0.112-0.17-0.241-0.17
	c-1.191,0.003-2.386,0.003-3.574,0c-0.13,0-0.196,0.041-0.24,0.172c-0.227,0.666-0.477,1.324-0.604,2.02
	c-0.091,0.507,0.086,0.812,0.564,0.954c0.125,0.036,0.253,0.059,0.382,0.076c0.296,0.035,0.379,0.169,0.313,0.471
	c-0.019,0.092-0.066,0.117-0.145,0.116c-1.163-0.027-2.33,0.094-3.48-0.064c-1.069-0.149-1.577-0.799-1.645-1.936
	c-0.05-0.756,0.034-1.515-0.051-2.271c-0.111-1.023-0.616-1.528-1.623-1.568c-0.58-0.021-1.161,0.002-1.743-0.009
	c-0.161-0.001-0.199,0.058-0.199,0.214c0.004,1.622,0.004,3.238,0,4.858c0,0.162,0.041,0.21,0.199,0.204
	c0.362-0.012,0.722,0.015,1.083-0.011c0.226-0.014,0.243,0.096,0.228,0.27c-0.012,0.147,0.066,0.322-0.215,0.317
	c-1.471-0.012-2.943-0.011-4.417,0c-0.243,0.002-0.224-0.133-0.219-0.293c0.003-0.146-0.048-0.313,0.212-0.294
	c0.319,0.025,0.64-0.019,0.957,0.016c0.308,0.029,0.354-0.091,0.352-0.375c-0.011-3.063-0.009-6.125-0.009-9.19
	c0-0.39-0.006-0.776,0.007-1.168c0.004-0.174-0.044-0.232-0.22-0.224c-0.349,0.013-0.7-0.013-1.051,0.009
	c-0.233,0.016-0.26-0.088-0.252-0.285c0.007-0.184-0.012-0.325,0.254-0.322c1.813,0.012,3.629,0.006,5.441,0.008
	c0.491,0.002,0.981,0.045,1.458,0.175c0.991,0.271,1.762,0.812,1.997,1.896c0.248,1.124,0.013,2.133-0.814,2.956
	C48.683,52.967,48.118,53.259,47.501,53.451"/>
<path fill="#585A5B" d="M23.545,50.088v0.386c-0.004,2.405,0.007,4.813-0.019,7.224c-0.005,0.615,0.253,0.98,0.773,1.214
	c0.268,0.117,0.545,0.218,0.835,0.227c0.202,0.007,0.214,0.1,0.221,0.267c0.009,0.215-0.12,0.188-0.25,0.188
	c-1.232,0-2.463,0-3.698,0.001c-0.125,0-0.238,0.013-0.227-0.184c0.01-0.151-0.001-0.26,0.212-0.272
	c0.412-0.026,0.804-0.159,1.151-0.401c0.301-0.207,0.458-0.491,0.457-0.876c-0.006-2.912-0.002-5.821-0.004-8.731
	c0-0.611-0.239-0.891-0.826-1.013c-0.319-0.065-0.639-0.053-0.961-0.04c-0.206,0.009-0.24-0.086-0.212-0.254
	c0.02-0.134-0.102-0.344,0.19-0.342c0.912,0.009,1.826,0.009,2.736,0c0.187-0.002,0.233,0.132,0.308,0.245
	c1.757,2.641,3.514,5.28,5.271,7.92c0.058,0.091,0.123,0.176,0.229,0.334v-0.375v-6.271c0-0.827-0.266-1.138-1.078-1.246
	c-0.128-0.018-0.259-0.02-0.387-0.013c-0.213,0.006-0.365,0.023-0.36-0.305c0.003-0.338,0.176-0.287,0.379-0.287
	c2.533,0.002,5.068,0.002,7.604,0.002c1.283,0,2.568,0.005,3.848-0.006c0.222-0.002,0.29,0.045,0.289,0.284
	c-0.016,1.241-0.007,2.479-0.011,3.72c-0.004,0.1,0.079,0.257-0.134,0.269c-0.2,0.012-0.205-0.118-0.224-0.251
	c-0.095-0.638-0.225-1.27-0.458-1.87c-0.342-0.886-0.981-1.364-1.896-1.486c-0.708-0.096-1.421-0.065-2.129-0.076
	c-0.158-0.001-0.178,0.068-0.178,0.201c0.004,1.525,0.006,3.055,0,4.584c-0.002,0.16,0.054,0.193,0.205,0.203
	c1.438,0.102,2.053-0.684,2.271-2.083c0.026-0.178,0.046-0.271,0.255-0.26c0.235,0.012,0.156,0.171,0.157,0.281
	c0.004,1.641,0.004,3.278,0.003,4.919c0,0.126,0.072,0.289-0.173,0.306c-0.225,0.013-0.234-0.114-0.259-0.27
	c-0.063-0.438-0.154-0.869-0.339-1.271c-0.353-0.765-1.232-1.183-2.016-0.974c-0.115,0.03-0.102,0.107-0.102,0.182
	c-0.003,1.65,0,3.302,0,4.951c0,0.093-0.015,0.186,0.127,0.185c0.85-0.02,1.704,0.059,2.54-0.16c0.743-0.19,1.214-0.682,1.499-1.385
	c0.267-0.669,0.401-1.372,0.491-2.082c0.018-0.141,0.018-0.276,0.231-0.276c0.2,0,0.247,0.063,0.247,0.26
	c-0.01,1.322-0.01,2.645,0,3.967c0.001,0.204-0.061,0.251-0.253,0.251c-2.686-0.006-5.372-0.008-8.057,0.004
	c-0.269,0-0.239-0.135-0.252-0.318c-0.017-0.22,0.056-0.275,0.266-0.263c0.35,0.014,0.701-0.019,1.05,0.008
	c0.242,0.015,0.274-0.075,0.271-0.293c-0.008-1.803-0.004-3.606-0.004-5.408c0-1.651-0.007-3.301,0.007-4.949
	c0.003-0.269-0.073-0.325-0.314-0.31c-0.569,0.039-1.143-0.051-1.71,0.062c-0.613,0.121-0.868,0.439-0.868,1.085
	c-0.003,3.349,0,6.7-0.006,10.054c0,0.104,0.085,0.263-0.073,0.317c-0.163,0.053-0.223-0.104-0.294-0.209
	c-2.043-2.985-4.083-5.973-6.125-8.96C23.718,50.33,23.66,50.249,23.545,50.088"/>
<path fill="#585A5B" d="M16.046,59.593c-1.332,0-2.665-0.006-3.998,0.005c-0.223,0.002-0.292-0.052-0.288-0.289
	c0.006-0.218,0.039-0.311,0.277-0.296c0.369,0.024,0.744-0.003,1.111,0.01c0.176,0.006,0.22-0.053,0.219-0.225
	c-0.01-0.646-0.004-1.291-0.004-1.938c0-2.827-0.004-5.655,0.004-8.483c0.001-0.229-0.038-0.332-0.289-0.309
	c-0.271,0.023-0.54,0-0.812,0.008c-0.21,0.005-0.369,0.024-0.354-0.304c0.011-0.293,0.131-0.293,0.344-0.292
	c0.833,0.01,1.664,0.003,2.498,0.003c1.721,0,3.446,0.007,5.171-0.004c0.253-0.002,0.312,0.073,0.308,0.322
	c-0.012,1.221-0.003,2.44-0.009,3.66c0,0.109,0.087,0.279-0.146,0.29c-0.2,0.009-0.192-0.118-0.214-0.256
	c-0.098-0.612-0.219-1.226-0.438-1.813c-0.351-0.937-1.018-1.434-1.983-1.545c-0.676-0.077-1.358-0.062-2.042-0.068
	c-0.153-0.002-0.205,0.042-0.205,0.206c0.003,1.526,0.003,3.054-0.008,4.581c0,0.177,0.073,0.189,0.214,0.198
	c1.283,0.087,1.963-0.488,2.246-1.9c0.015-0.081,0.038-0.161,0.036-0.241c-0.008-0.195,0.104-0.195,0.248-0.198
	c0.19-0.006,0.145,0.122,0.145,0.227c0.004,0.991,0.004,1.986,0.004,2.98c0,0.676,0.001,1.354,0,2.03
	c0,0.121,0.049,0.263-0.17,0.271c-0.2,0.008-0.236-0.102-0.252-0.254c-0.03-0.307-0.097-0.606-0.189-0.9
	c-0.303-0.978-0.809-1.36-1.812-1.365c-0.556,0-0.46-0.069-0.463,0.464c-0.003,1.527,0.002,3.056-0.005,4.581
	c-0.002,0.211,0.042,0.283,0.263,0.277c0.736-0.028,1.48,0.024,2.214-0.115c0.846-0.163,1.399-0.661,1.713-1.462
	c0.265-0.67,0.397-1.371,0.483-2.084c0.026-0.209,0.109-0.239,0.287-0.242c0.207-0.006,0.187,0.122,0.187,0.26
	c0,1.309-0.007,2.621,0.005,3.934c0.002,0.246-0.083,0.281-0.293,0.279C18.713,59.588,17.379,59.593,16.046,59.593"/>
<path fill="#585A5B" d="M10.536,59.588c-0.464-0.377-0.896-0.717-1.322-1.066c-0.109-0.089-0.173-0.126-0.282,0.019
	c-0.762,1.025-1.81,1.278-2.994,1.124c-1.377-0.18-2.444-0.896-3.101-2.125c-1.427-2.665-1.508-5.38,0.016-8.03
	c1.196-2.078,3.355-2.455,5.054-1.929c0.388,0.117,0.741,0.31,1.019,0.618c0.122,0.138,0.198,0.107,0.318,0.016
	c0.376-0.282,0.758-0.561,1.136-0.837c0.096,0.057,0.058,0.14,0.058,0.201c0.001,1.3,0.001,2.603-0.006,3.904
	c0,0.1,0.081,0.257-0.134,0.269c-0.184,0.012-0.201-0.101-0.24-0.238c-0.292-1.077-0.699-2.095-1.514-2.881
	c-0.708-0.687-1.549-0.956-2.511-0.752c-0.665,0.146-1.113,0.578-1.446,1.16c-0.442,0.777-0.624,1.639-0.697,2.519
	c-0.123,1.5-0.153,3.008,0.05,4.506c0.09,0.663,0.258,1.305,0.599,1.888c1.038,1.792,3.032,1.315,3.925,0.288
	c0.185-0.213,0.272-0.465,0.27-0.761c-0.009-1.117-0.011-2.233,0.002-3.349c0.002-0.248-0.045-0.347-0.309-0.329
	c-0.368,0.023-0.742-0.01-1.113,0.011c-0.241,0.013-0.189-0.14-0.189-0.272c-0.001-0.139-0.047-0.284,0.189-0.281
	c1.432,0.009,2.868,0.009,4.298,0c0.232-0.003,0.197,0.138,0.197,0.282c0,0.136,0.037,0.289-0.198,0.271
	c-0.25-0.02-0.501,0.019-0.751-0.01c-0.283-0.033-0.321,0.089-0.32,0.341c0.013,1.771,0.005,3.546,0.005,5.318
	C10.544,59.48,10.543,59.503,10.536,59.588"/>
<path fill="#585A5B" d="M70.812,53.553c0,1.721,0.003,3.441-0.006,5.164c-0.001,0.243,0.061,0.315,0.299,0.302
	c0.348-0.021,0.701,0.003,1.049-0.009c0.256-0.01,0.169,0.172,0.172,0.294c0.006,0.124,0.07,0.292-0.177,0.292
	c-1.491-0.008-2.985-0.006-4.479-0.002c-0.274,0-0.148-0.206-0.166-0.329c-0.021-0.13-0.035-0.267,0.179-0.256
	c0.349,0.014,0.702-0.013,1.052,0.01c0.243,0.018,0.294-0.072,0.292-0.307c-0.01-2.243-0.01-4.488-0.011-6.731
	c0-1.218-0.004-2.439,0.001-3.657c0.003-0.195-0.041-0.267-0.243-0.26c-0.352,0.021-0.703-0.008-1.053,0.013
	c-0.238,0.015-0.237-0.114-0.221-0.278c0.013-0.141-0.082-0.331,0.207-0.33c1.471,0.011,2.942,0.011,4.415,0
	c0.256-0.001,0.212,0.159,0.206,0.302c-0.003,0.138,0.067,0.319-0.197,0.306c-0.349-0.019-0.702,0.013-1.051-0.012
	c-0.235-0.016-0.275,0.074-0.274,0.295C70.814,50.089,70.812,51.82,70.812,53.553"/>
<path fill="#FFFFFF" d="M35.354,17.742c0.837,0.329,1.58,0.769,2.438,0.891c0.961,0.135,1.804-0.128,2.533-0.773
	c0.142-0.126,0.271-0.173,0.456-0.161c2.164,0.181,4.332,0.363,6.5,0.526c1.018,0.078,2.04,0.121,3.063,0.168
	c0.231,0.011,0.371,0.102,0.494,0.307c0.646,1.074,1.342,2.113,2.184,3.04c1.241,1.363,2.811,2.054,4.557,2.413
	c1.002,0.205,2.015,0.349,3.026,0.478c0.157,0.021,0.249,0.071,0.322,0.215c0.346,0.668,0.668,1.347,0.978,2.038
	c0.049,0.104,0.059,0.211,0.059,0.326c0.003,3.258,0.006,6.518,0.016,9.775c0.002,0.228-0.097,0.36-0.267,0.471
	c-0.418,0.267-0.866,0.467-1.325,0.645c-1.468,0.568-2.938,1.127-4.399,1.704c-0.206,0.08-0.298,0.04-0.406-0.138
	c-0.325-0.55-0.585-1.117-0.547-1.784c0.036-0.64,0.347-1.027,0.955-1.171c1.187-0.273,2.377-0.549,3.571-0.808
	c0.223-0.049,0.283-0.112,0.254-0.354c-0.122-1.079-0.21-2.16-0.322-3.24c-0.123-1.199-0.909-2.011-2.083-2.134
	c-1.715-0.181-3.43-0.341-5.123-0.664c-1.897-0.361-3.688-0.981-5.299-2.102c-1.387-0.961-2.925-1.416-4.603-1.278
	c-1.484,0.125-2.916,0.5-4.333,0.94c-1.483,0.461-2.944,1-4.459,1.336c-1.473,0.324-2.958,0.404-4.456,0.348
	c-0.248-0.009-0.333,0.062-0.398,0.31c-0.371,1.474-0.609,2.964-0.565,4.491c0.015,0.646,0.09,1.287,0.297,1.903
	c0.05,0.146,0.024,0.23-0.089,0.334c-0.423,0.395-0.627,0.883-0.621,1.474c0.009,0.813-0.149,1.002-0.92,1.17
	c-0.664,0.145-1.336,0.123-2.008,0.133c-0.186,0.003-0.313,0.046-0.419,0.215c-0.637,0.99-2.015,1.166-2.794,0.997
	c-0.085-0.02-0.149-0.045-0.175-0.138c-0.188-0.66-0.346-1.326-0.205-2.021c0.106-0.518,0.416-0.853,0.884-1.042
	c0.359-0.145,0.735-0.193,1.121-0.193c1.171,0,1.854-0.714,1.856-1.919c0-1.998,0-3.994-0.004-5.993c0-0.17,0.035-0.317,0.123-0.461
	c0.208-0.34,0.372-0.704,0.493-1.082c0.055-0.175,0.15-0.251,0.327-0.296c1.397-0.353,2.32-1.445,2.461-2.899
	c0.057-0.598-0.063-1.171-0.351-1.687c-0.131-0.235-0.05-0.292,0.128-0.399c1.266-0.742,2.135-1.797,2.325-3.314
	c0.186-1.504-0.243-2.775-1.522-3.657c-0.127-0.089-0.236-0.149-0.168-0.357c0.786-2.405,1.328-4.884,2.028-7.313
	c0.428-1.471,1.272-2.533,2.748-2.99c0.349-0.106,0.709-0.14,1.07-0.14h21.252h0.182c0.003,0.146-0.096,0.214-0.161,0.295
	c-0.948,1.184-2.223,1.637-3.666,1.645c-3.416,0.015-6.835,0.005-10.251,0.007c-0.903,0-1.805,0.004-2.704-0.005
	c-0.176-0.001-0.272,0.05-0.339,0.218c-0.176,0.413-0.369,0.814-0.566,1.251h11.625c0.059,0.123-0.025,0.173-0.065,0.233
	c-0.92,1.379-2.244,1.973-3.827,1.986c-2.794,0.024-5.592,0.014-8.386,0.001c-0.252,0-0.373,0.082-0.465,0.308
	c-0.154,0.386-0.335,0.759-0.525,1.175h7.493c0.04,0.136-0.051,0.196-0.098,0.266c-0.935,1.321-2.255,1.851-3.796,1.872
	c-1.502,0.021-3.006,0.009-4.51,0.001c-0.204,0-0.321,0.045-0.399,0.258c-0.131,0.333-0.283,0.655-0.448,0.971
	c-0.13,0.246-0.047,0.272,0.182,0.271c1.427-0.007,2.849,0.005,4.27-0.014c0.285-0.003,0.364,0.117,0.408,0.36
	c0.277,1.569-0.921,2.646-2.411,2.161c-0.294-0.097-0.577-0.223-0.86-0.353c-0.145-0.066-0.247-0.066-0.368,0.057
	C36.019,17.141,35.699,17.423,35.354,17.742"/>
<path fill="#FFFFFF" d="M26.191,4.018c0.906,0.737,1.497,1.645,1.921,2.679c0.575,1.408,0.589,2.837,0.23,4.302
	c-0.334,1.35-0.724,2.677-1.223,3.973c-0.068,0.174-0.026,0.251,0.126,0.333c0.273,0.147,0.542,0.308,0.803,0.477
	c1.141,0.74,1.474,2.032,0.814,3.249c-0.538,0.999-1.403,1.537-2.486,1.74c-0.501,0.092-1,0.188-1.511,0.286
	c0.02,0.115,0.104,0.137,0.163,0.176c0.421,0.293,0.851,0.574,1.269,0.875c0.589,0.426,0.86,1.11,0.709,1.768
	c-0.161,0.698-0.73,1.229-1.449,1.332c-0.194,0.028-0.399,0.049-0.594,0.033c-0.208-0.018-0.282,0.074-0.332,0.255
	c-0.156,0.571-0.339,1.132-0.609,1.66c-0.492,0.952-1.306,1.372-2.308,1.489c-0.107,0.013-0.217,0.051-0.185-0.154
	c0.223-1.368,0.081-2.739,0.016-4.112c-0.103-0.034-0.133,0.067-0.181,0.116c-0.293,0.294-0.588,0.59-0.865,0.896
	c-0.488,0.533-1.112,0.787-1.775,0.971c-0.162,0.044-0.237,0.013-0.23-0.184c0.015-0.348-0.003-0.696,0.008-1.045
	c0.005-0.165-0.05-0.222-0.205-0.264c-2.662-0.702-5.321-1.411-7.979-2.12c-0.146-0.04-0.277-0.018-0.416,0.019
	c-0.83,0.222-1.667,0.431-2.49,0.668c-0.212,0.06-0.311,0.002-0.426-0.154c-0.311-0.434-0.473-0.919-0.513-1.451
	c-0.023-0.229,0.05-0.422,0.211-0.582c0.467-0.466,1.021-0.617,1.656-0.498c0.582,0.107,0.582,0.104,0.769-0.455
	c0.155-0.464,0.407-0.662,0.892-0.678c0.461-0.019,0.888,0.123,1.297,0.326c1.026,0.512,1.808,1.305,2.429,2.274
	c0.304,0.477,0.597,0.965,0.917,1.489c0.293-0.423,0.574-0.826,0.855-1.232c0.077-0.111-0.013-0.196-0.063-0.276
	c-0.209-0.36-0.42-0.719-0.643-1.07c-0.083-0.129-0.081-0.223,0-0.354c0.569-0.917,1.131-1.837,1.686-2.761
	c0.087-0.14,0.161-0.176,0.334-0.152c1.901,0.244,3.648-0.147,5.13-1.441c1.015-0.888,1.388-2.043,1.201-3.393
	c-0.084-0.62-0.192-1.233-0.315-1.844c-0.12-0.603,0.06-0.882,0.74-0.99c0.274-0.042,0.56-0.026,0.84-0.018
	c0.171,0.002,0.23-0.035,0.189-0.224c-0.118-0.612-0.215-1.229-0.326-1.845c-0.023-0.145-0.026-0.256,0.111-0.374
	C25.513,6.787,26.132,5.572,26.191,4.018"/>
<path fill="#FFFFFF" d="M17.042,32.397c0,1.998-0.004,3.994,0.002,5.994c0.002,0.246-0.031,0.307-0.289,0.236
	c-2.127-0.578-4.259-1.136-6.386-1.707c-0.151-0.04-0.288-0.043-0.438-0.002c-2.139,0.572-4.28,1.135-6.414,1.711
	c-0.232,0.063-0.27,0.009-0.27-0.211c0.005-4.029,0.005-8.056-0.001-12.084c0-0.208,0.071-0.279,0.255-0.326
	c2.146-0.565,4.294-1.137,6.444-1.707c0.141-0.036,0.271-0.035,0.411,0.002c2.137,0.571,4.279,1.139,6.418,1.698
	c0.21,0.054,0.275,0.143,0.273,0.368C17.038,28.378,17.042,30.387,17.042,32.397"/>
<path fill="#FFFFFF" d="M26.839,39.975c0.127-0.027,0.253-0.054,0.377-0.083c1.315-0.29,1.996-1.094,2.013-2.469
	c0.003-0.403,0.165-0.607,0.477-0.758c0.219-0.106,0.43-0.223,0.654-0.307c0.196-0.075,0.188-0.16,0.075-0.304
	c-0.734-0.918-0.843-2.008-0.803-3.132c0.03-0.809,0.135-1.611,0.281-2.406c0.026-0.137,0.042-0.253,0.23-0.249
	c2.624,0.045,5.105-0.674,7.56-1.512c0.77-0.263,1.546-0.496,2.331-0.699c0.169-0.044,0.25-0.003,0.334,0.142
	c0.964,1.63,1.929,3.255,2.897,4.88c0.221,0.364,0.149,0.694-0.095,0.988c-0.425,0.504-0.886,0.978-1.3,1.49
	c-0.232,0.286-0.46,0.374-0.817,0.285c-0.683-0.162-1.376-0.289-2.067-0.389c-1.684-0.241-3.324,1.017-3.602,2.74
	c-0.087,0.534-0.083,1.063,0.004,1.591c0.027,0.158,0.026,0.233-0.175,0.233c-2.792-0.007-5.591-0.006-8.386-0.006
	C26.832,40.002,26.836,39.987,26.839,39.975"/>
<path fill="#FFFFFF" d="M44.588,39.996c0.307-0.331,0.578-0.63,0.852-0.925c1.055-1.138,2.101-2.282,3.167-3.411
	c0.956-1.021,1.191-2.164,0.604-3.461c-0.354-0.787-0.713-1.572-1.087-2.396c0.523,0.205,1.018,0.414,1.525,0.577
	c1.701,0.545,3.447,0.82,5.208,1.029c0.795,0.096,1.597,0.163,2.39,0.248c0.493,0.049,0.728,0.301,0.794,0.874
	c0.076,0.632,0.12,1.267,0.195,1.896c0.026,0.201-0.054,0.262-0.227,0.3c-0.793,0.174-1.582,0.356-2.372,0.542
	c-1.403,0.333-2.246,1.602-2.067,3.075c0.069,0.573,0.238,1.114,0.502,1.652H44.588z"/>
<path fill="#FFFFFF" d="M39.729,40.012c-0.838,0-1.681-0.007-2.521,0.009c-0.23,0.003-0.31-0.068-0.344-0.298
	c-0.068-0.448-0.117-0.894-0.02-1.34c0.218-1.017,1.159-1.621,2.189-1.419c0.866,0.166,1.733,0.322,2.595,0.494
	c0.299,0.06,0.521,0.009,0.737-0.243c0.535-0.626,1.1-1.222,1.647-1.831c0.383-0.429,0.7-0.894,0.815-1.478
	c0.115-0.597-0.035-1.133-0.336-1.64c-0.857-1.441-1.708-2.888-2.57-4.326c-0.108-0.181-0.111-0.243,0.117-0.275
	c1.252-0.179,2.431,0.037,3.548,0.625c0.156,0.083,0.264,0.193,0.34,0.362c0.638,1.376,1.31,2.73,1.934,4.114
	c0.337,0.746,0.193,1.322-0.337,1.89c-1.611,1.714-3.206,3.443-4.796,5.174c-0.131,0.142-0.261,0.188-0.443,0.186
	C41.432,40.007,40.581,40.012,39.729,40.012"/>
<path fill="#FFFFFF" d="M16.586,15.761c0.804,0.067,1.579-0.04,2.312-0.397c0.716-0.349,1.232-0.89,1.355-1.716
	c0.12-0.802-0.18-1.471-0.781-1.984c-0.546-0.466-1.162-0.481-1.802-0.19c-0.504,0.226-0.952,0.558-1.418,0.854
	c-0.25,0.163-0.495,0.342-0.796,0.416c-0.171,0.042-0.327,0.015-0.432-0.133c-0.104-0.149,0.048-0.243,0.117-0.344
	c0.174-0.25,0.349-0.5,0.542-0.736c0.098-0.128,0.088-0.192-0.046-0.279c-0.267-0.177-0.529-0.371-0.784-0.566
	c-0.178-0.136-0.185-0.287-0.029-0.465c0.367-0.419,0.69-0.877,0.999-1.343c0.18-0.274,0.413-0.417,0.736-0.345
	c0.316,0.071,0.448,0.299,0.493,0.615c0.05,0.341,0.514,0.517,0.819,0.302c0.307-0.217,0.562-0.497,0.731-0.841
	c0.148-0.307,0.03-0.518-0.311-0.562c-0.227-0.029-0.458-0.03-0.688-0.044c-0.313-0.02-0.642-0.025-0.783-0.388
	c-0.132-0.344,0.037-0.888,0.351-1.136c0.502-0.4,1.102-0.558,1.723-0.651c0.631-0.094,1.259-0.055,1.885,0.02
	c0.165,0.021,0.288-0.015,0.422-0.097c1.063-0.676,2.127-1.341,3.187-2.02c0.217-0.138,0.302-0.147,0.313,0.148
	c0.06,1.245-0.474,2.204-1.464,2.839c-0.501,0.323-0.687,0.612-0.482,1.169c0.21,0.573,0.121,0.937-0.504,1.267
	c-0.877,0.465-1.055,1.347-0.854,2.312c0.121,0.6,0.216,1.206,0.308,1.813c0.121,0.846-0.167,1.519-0.779,2.045
	c-1.111,0.948-2.417,1.278-3.836,1.177c-0.38-0.026-0.758-0.077-1.122-0.201c-0.084-0.028-0.173-0.056-0.251-0.098
	c-0.102-0.06-0.167-0.147-0.135-0.28c0.035-0.134,0.139-0.163,0.259-0.163C16.087,15.761,16.336,15.761,16.586,15.761"/>
<path fill="#FFFFFF" d="M20.007,40.012c-0.469,0-0.905-0.001-1.348,0.002c-0.112,0.002-0.169-0.038-0.16-0.158
	c0.004-0.05,0-0.103,0-0.152c0-3.822,0.004-7.644-0.006-11.467c-0.001-0.243,0.06-0.339,0.296-0.372
	c0.466-0.069,0.907-0.233,1.374-0.425c-0.009,0.547-0.121,1.052-0.199,1.56c-0.051,0.335-0.099,0.669-0.167,1
	c-0.038,0.17,0.011,0.21,0.171,0.21c1.223,0.006,2.444-0.003,3.587-0.558c0.013-0.008,0.035,0.005,0.079,0.009v0.263
	c0,1.498,0.002,2.992,0,4.488c0,0.442-0.035,0.479-0.455,0.481c-0.413,0.003-0.821,0.045-1.217,0.162
	c-1.504,0.437-2.351,1.697-2.242,3.31C19.758,38.918,19.87,39.455,20.007,40.012"/>
<path fill="#FFFFFF" d="M50.298,9.509c0.658-0.622,1.145-1.312,1.515-2.089c0.074-0.154,0.2-0.106,0.312-0.106
	c1.631-0.002,3.262-0.002,4.895-0.002h4.294h0.335c-0.565,0.92-1.29,1.552-2.251,1.903c-0.53,0.191-1.08,0.295-1.645,0.297
	c-2.433,0.009-4.866,0.007-7.299,0.008C50.418,9.52,50.38,9.514,50.298,9.509"/>
<path fill="#FFFFFE" d="M55.86,11.023c-0.527,0.832-1.198,1.413-2.063,1.757c-0.604,0.243-1.236,0.35-1.879,0.353
	c-2.391,0.01-4.785,0.006-7.18,0.006c-0.036,0-0.069-0.004-0.166-0.007c0.53-0.521,0.986-1.044,1.279-1.667
	c0.176-0.372,0.397-0.466,0.78-0.464c3.035,0.018,6.07,0.012,9.104,0.012C55.755,11.013,55.776,11.016,55.86,11.023"/>
<path fill="#FFFFFE" d="M56.514,5.819c0.591-0.564,1.036-1.162,1.39-1.83c0.051-0.1,0.131-0.112,0.224-0.112
	c3.163,0.003,6.328,0.003,9.486,0.006c0.009,0,0.017,0.009,0.046,0.03c-0.191,0.335-0.455,0.604-0.745,0.853
	c-0.84,0.725-1.841,1.032-2.913,1.044C61.529,5.835,59.06,5.819,56.514,5.819"/>
<path fill="#FFFFFF" d="M52.524,18.633c3.077,0.303,5.508,1.667,7.258,4.372c-1.377-0.164-2.676-0.364-3.891-0.943
	C54.373,21.337,53.436,20.016,52.524,18.633"/>
<path fill="#FFFFFE" d="M4.308,39.965c0.887-0.233,1.771-0.471,2.657-0.706c0.996-0.263,1.996-0.529,2.989-0.798
	c0.11-0.028,0.209-0.051,0.323-0.019c1.845,0.494,3.696,0.985,5.542,1.479c0.046,0.013,0.09,0.035,0.191,0.074H4.314
	C4.312,39.983,4.309,39.975,4.308,39.965"/>
<path fill="#FFFFFE" d="M18.531,4.369c0.982-1.378,3.102-2.123,4.676-1.653c-0.274,0.178-0.526,0.333-0.775,0.491
	c-0.527,0.333-1.052,0.667-1.581,0.999c-0.09,0.06-0.179,0.118-0.302,0.108C19.891,4.269,19.23,4.257,18.531,4.369"/>
<path fill="#FFFEFE" d="M69.502,36.309c-0.699-0.04-1.265-0.31-1.763-0.747c-0.311-0.275-0.573-0.598-0.817-0.937
	c-0.105-0.146-0.114-0.219,0.083-0.258c0.62-0.125,1.446-0.062,1.86,0.797C69.05,35.546,69.276,35.909,69.502,36.309"/>
<path fill="#FFFFFF" d="M44.161,50.599c0-0.746,0.014-1.493-0.004-2.24c-0.009-0.255,0.077-0.298,0.3-0.292
	c0.64,0.014,1.28,0.012,1.924,0.003c0.676-0.012,1.174,0.304,1.435,0.915c0.444,1.044,0.442,2.111-0.044,3.146
	c-0.296,0.63-0.828,0.965-1.515,0.992c-0.63,0.019-1.261,0.001-1.893,0.016c-0.185,0.005-0.205-0.075-0.204-0.234
	C44.166,52.137,44.161,51.369,44.161,50.599"/>
<path fill="#FFFFFF" d="M54.423,50c0.244,0.705,0.471,1.359,0.698,2.011c0.342,0.979,0.678,1.963,1.024,2.938
	c0.073,0.199,0.087,0.284-0.167,0.28c-1.003-0.012-2.001-0.005-3.004-0.005c-0.135,0-0.283,0.022-0.194-0.2
	c0.021-0.048,0.033-0.098,0.046-0.146C53.354,53.272,53.877,51.666,54.423,50"/>
<path fill="#585A5B" d="M10.907,33.006c1.136,0.299,2.242,0.596,3.351,0.889c0.36,0.096,0.715,0.194,1.074,0.283
	c0.12,0.03,0.189,0.078,0.186,0.224c-0.007,0.397-0.006,0.797,0,1.195c0.001,0.144-0.033,0.174-0.174,0.135
	c-1.427-0.384-2.859-0.759-4.29-1.136c-0.097-0.027-0.151-0.069-0.149-0.189C10.91,33.949,10.907,33.489,10.907,33.006"/>
<path fill="#585A5B" d="M4.776,29.564c0-0.48,0.004-0.938-0.002-1.396c-0.002-0.135,0.065-0.171,0.173-0.199
	c1.415-0.37,2.827-0.739,4.238-1.121c0.191-0.053,0.21,0.005,0.208,0.177c-0.01,0.368-0.01,0.739,0,1.105
	c0.003,0.146-0.031,0.225-0.18,0.262C7.743,28.776,6.274,29.169,4.776,29.564"/>
<path fill="#585A5B" d="M10.907,27.519c0.035-0.204-0.116-0.546,0.059-0.675c0.129-0.092,0.446,0.082,0.678,0.143
	c1.204,0.322,2.412,0.652,3.619,0.961c0.189,0.049,0.266,0.117,0.257,0.323c-0.016,0.358-0.008,0.717-0.001,1.073
	c0,0.145,0.003,0.227-0.192,0.174c-1.417-0.386-2.838-0.756-4.261-1.131c-0.112-0.028-0.167-0.081-0.162-0.211
	C10.915,27.973,10.907,27.768,10.907,27.519"/>
<path fill="#585A5B" d="M15.516,31.94c-0.022,0.201,0.108,0.533-0.048,0.659c-0.156,0.125-0.448-0.068-0.674-0.129
	c-1.209-0.313-2.417-0.638-3.627-0.947c-0.2-0.052-0.279-0.123-0.265-0.343c0.024-0.327,0.02-0.656,0.002-0.982
	c-0.013-0.231,0.028-0.299,0.274-0.231c1.359,0.371,2.727,0.728,4.089,1.081c0.177,0.048,0.282,0.115,0.253,0.327
	C15.499,31.547,15.516,31.723,15.516,31.94"/>
<path fill="#585A5B" d="M4.776,35.775c0-0.479,0.004-0.94-0.002-1.398c-0.003-0.139,0.07-0.169,0.178-0.196
	c1.412-0.37,2.824-0.74,4.234-1.123c0.196-0.055,0.209,0.013,0.206,0.178c-0.01,0.368-0.01,0.741,0,1.105
	c0.003,0.146-0.031,0.226-0.18,0.263C7.741,34.986,6.274,35.381,4.776,35.775"/>
<path fill="#585A5B" d="M4.776,32.635c0-0.458,0.003-0.917-0.002-1.378c-0.002-0.123,0.059-0.146,0.156-0.173
	c1.423-0.375,2.846-0.757,4.265-1.137c0.142-0.04,0.2-0.011,0.197,0.152c-0.01,0.39-0.006,0.78-0.002,1.167
	c0.002,0.115-0.02,0.187-0.148,0.222c-1.46,0.381-2.923,0.77-4.383,1.154C4.839,32.646,4.817,32.639,4.776,32.635"/>
</svg>
