<?xml version="1.0" encoding="utf-8"?>
<!-- Generator: Adobe Illustrator 23.0.4, SVG Export Plug-In . SVG Version: 6.00 Build 0)  -->
<svg version="1.1" id="Layer_1" xmlns="http://www.w3.org/2000/svg" xmlns:xlink="http://www.w3.org/1999/xlink" x="0px" y="0px"
	 viewBox="0 0 125.388 29.742" enable-background="new 0 0 125.388 29.742" xml:space="preserve">
<g id="Layer_x0020_1">
	<g id="_706154032">
		<path fill="#636363" d="M54.277,12.913v-2.677h7.474c0.037,0.521,0.223,5.504-4.778,7.474c-0.799,0.316-3.588,1.413-7.065-0.911
			c-0.279-0.186-3.031-1.952-3.105-6.08c-0.074-3.942,3.347-7.456,7.456-7.456c2.789,0,5.113,1.394,6.563,3.793
			c-1.264,0.651-1.32,0.707-2.733,1.413c-0.818-1.376-2.194-2.12-3.812-2.12c-2.417,0-4.369,1.934-4.369,4.369
			c0,2.454,1.952,4.425,4.369,4.425c1.618,0,3.105-0.874,3.867-2.25h-3.867V12.913z"/>
		<polygon fill="#636363" points="66.772,12.262 66.772,15.423 75.157,15.423 75.157,18.175 63.611,18.175 63.611,3.263 
			74.451,3.263 74.451,6.015 66.772,6.015 66.772,9.362 73.558,9.362 73.558,12.262 		"/>
		<path fill-rule="evenodd" clip-rule="evenodd" fill="#636363" d="M31.984,15.944c1.116,0.576,2.38,1.004,4.072,0.967
			c6.489-0.074,8.032-7.883,4.295-10.189c-0.762-0.483-1.692-0.614-2.584-0.316c-1.134,0.372-1.283,1.952-0.037,2.417
			c-0.688-0.037-1.06-0.502-1.227-1.004c-0.205-0.707-0.019-1.562,0.502-2.12c1.116-1.246,3.254-1.32,4.927-0.428
			c3.365,1.804,3.756,6.898,1.636,9.743c-2.064,3.031-7.103,4.946-11.583,0.948V15.944z"/>
		<path fill-rule="evenodd" clip-rule="evenodd" fill="#636363" d="M32.17,5.402c-1.078,2.008-1.078,4.035,0.576,5.727
			c1.636,1.673,4.202,1.618,5.745,0.521c1.171-0.818,1.618-2.361,0.911-3.644c-1.023-1.487-2.715-0.632-1.859,0.502
			c-0.205-0.074-0.335-0.242-0.409-0.465c-0.26-0.874,0.93-1.822,2.324-0.855c3.105,2.157,1.246,7.716-2.938,8.385
			C30.329,16.353,27.708,10.124,32.17,5.402z"/>
		<path fill-rule="evenodd" clip-rule="evenodd" fill="#636363" d="M41.002,4.193c-4.035-1.041-5.652,1.413-5.541,3.384
			c0.037,1.357,1.32,2.38,2.343,1.915c0.428-0.186,0.744-0.595,0.744-1.06c0.019-0.688-0.781-0.911-1.041-0.39
			c0.26-1.097,2.045-0.242,1.562,1.376c-0.911,3.105-7.344,2.045-6.619-2.789c0.576-3.849,6.191-4.035,8.553-2.417V4.193z"/>
		<path fill="#636363" d="M91.426,3.245c0.353,0,0.651,0.149,0.874,0.372c0.223,0.223,0.372,0.539,0.372,0.874
			c0,0.353-0.149,0.651-0.372,0.874c-0.223,0.223-0.539,0.372-0.874,0.372c-0.353,0-0.651-0.149-0.874-0.372
			c-0.223-0.223-0.372-0.539-0.372-0.874c0-0.353,0.149-0.651,0.372-0.874C90.775,3.394,91.091,3.245,91.426,3.245z M92.133,3.803
			c-0.186-0.186-0.428-0.297-0.707-0.297c-0.279,0-0.521,0.112-0.707,0.297c-0.186,0.186-0.297,0.428-0.297,0.707
			s0.112,0.521,0.297,0.707c0.186,0.186,0.428,0.297,0.707,0.297c0.279,0,0.521-0.112,0.707-0.297
			c0.186-0.186,0.297-0.428,0.297-0.707S92.319,3.989,92.133,3.803z"/>
		<path fill-rule="evenodd" clip-rule="evenodd" fill="#636363" d="M91.184,4.379h0.167c0.112,0,0.167,0,0.205-0.019
			c0.019,0,0.056-0.019,0.056-0.056c0.019-0.019,0.019-0.056,0.019-0.093s-0.019-0.074-0.037-0.093S91.538,4.082,91.5,4.082
			c-0.019,0-0.074,0-0.167,0h-0.186V4.36L91.184,4.379z M90.961,5.03V3.914h0.483c0.112,0,0.205,0.019,0.26,0.037
			s0.093,0.056,0.13,0.112c0.037,0.056,0.056,0.112,0.056,0.186c0,0.093-0.019,0.149-0.074,0.205
			c-0.056,0.056-0.13,0.093-0.223,0.112c0.056,0.037,0.093,0.056,0.112,0.093c0.037,0.037,0.074,0.093,0.13,0.186l0.13,0.223h-0.279
			l-0.167-0.242c-0.056-0.093-0.093-0.149-0.112-0.167c-0.019-0.019-0.037-0.037-0.074-0.056c-0.019,0-0.056-0.019-0.112-0.019
			h-0.037v0.465h-0.223V5.03z"/>
		<polygon fill="#636363" points="30.497,25.147 29.939,25.147 29.939,21.187 30.497,21.187 		"/>
		<path fill="#636363" d="M31.91,22.489c0,0.074,0.019,0.149,0.019,0.223c0,0.093,0,0.149,0,0.205h0.019
			c0.037-0.074,0.074-0.13,0.13-0.205c0.056-0.056,0.13-0.112,0.205-0.167c0.074-0.056,0.149-0.074,0.242-0.112
			c0.093-0.019,0.186-0.037,0.279-0.037c0.167,0,0.316,0.037,0.446,0.093c0.13,0.056,0.223,0.13,0.316,0.223
			c0.074,0.093,0.149,0.205,0.186,0.335s0.056,0.279,0.056,0.428v1.636h-0.521v-1.469c0-0.112,0-0.205-0.019-0.316
			c-0.019-0.093-0.056-0.186-0.093-0.26c-0.037-0.074-0.112-0.13-0.186-0.186c-0.074-0.037-0.186-0.074-0.297-0.074
			c-0.205,0-0.372,0.074-0.521,0.242c-0.13,0.167-0.205,0.372-0.205,0.632v1.413h-0.521v-2.082c0-0.074,0-0.167,0-0.279
			s-0.019-0.205-0.019-0.297h0.502L31.91,22.489z"/>
		<path fill="#636363" d="M36.112,23.158c-0.056-0.093-0.149-0.167-0.26-0.242c-0.112-0.056-0.223-0.093-0.372-0.093
			c-0.056,0-0.112,0-0.186,0.019c-0.056,0.019-0.112,0.037-0.167,0.056c-0.056,0.037-0.093,0.056-0.112,0.112
			c-0.037,0.037-0.037,0.093-0.037,0.167c0,0.112,0.056,0.186,0.149,0.242s0.26,0.112,0.446,0.149
			c0.13,0.037,0.242,0.074,0.353,0.112c0.112,0.037,0.205,0.093,0.279,0.149c0.074,0.056,0.149,0.13,0.186,0.223
			c0.037,0.093,0.074,0.186,0.074,0.297c0,0.149-0.037,0.297-0.093,0.39c-0.056,0.112-0.13,0.205-0.242,0.26
			c-0.093,0.074-0.205,0.112-0.335,0.149c-0.13,0.037-0.26,0.037-0.39,0.037c-0.205,0-0.39-0.037-0.595-0.112
			c-0.186-0.074-0.353-0.205-0.483-0.353l0.372-0.316c0.074,0.112,0.167,0.186,0.297,0.26c0.13,0.074,0.26,0.112,0.409,0.112
			c0.074,0,0.13,0,0.186-0.019c0.056-0.019,0.112-0.037,0.167-0.056c0.056-0.037,0.093-0.074,0.112-0.112
			c0.037-0.056,0.037-0.112,0.037-0.186c0-0.13-0.056-0.223-0.167-0.279c-0.112-0.056-0.297-0.112-0.521-0.167
			c-0.093-0.019-0.186-0.056-0.279-0.074c-0.093-0.037-0.167-0.074-0.242-0.13c-0.074-0.056-0.13-0.13-0.186-0.205
			c-0.056-0.093-0.074-0.186-0.074-0.316c0-0.149,0.037-0.26,0.093-0.372c0.056-0.112,0.13-0.186,0.223-0.26
			c0.093-0.074,0.205-0.112,0.316-0.149s0.242-0.056,0.372-0.056c0.186,0,0.372,0.037,0.558,0.112
			c0.186,0.074,0.316,0.186,0.409,0.316l-0.372,0.316L36.112,23.158z"/>
		<path fill="#636363" d="M37.711,25.147H37.19v-2.659h0.521V25.147z M37.804,21.54c0,0.093-0.037,0.186-0.112,0.242
			s-0.149,0.093-0.242,0.093c-0.093,0-0.186-0.037-0.242-0.093c-0.074-0.074-0.093-0.149-0.093-0.242
			c0-0.093,0.037-0.186,0.093-0.242c0.074-0.074,0.149-0.093,0.242-0.093c0.093,0,0.186,0.037,0.242,0.093
			C37.767,21.373,37.804,21.447,37.804,21.54z"/>
		<path fill="#636363" d="M38.975,23.79c0,0.13,0.019,0.242,0.056,0.353c0.037,0.112,0.093,0.205,0.167,0.297
			c0.074,0.093,0.167,0.149,0.279,0.205c0.112,0.056,0.223,0.074,0.372,0.074c0.13,0,0.26-0.019,0.372-0.074
			c0.112-0.056,0.205-0.112,0.279-0.205c0.074-0.093,0.13-0.186,0.186-0.297c0.037-0.112,0.056-0.242,0.056-0.372
			c0-0.13-0.019-0.242-0.056-0.353s-0.112-0.205-0.186-0.297c-0.074-0.093-0.167-0.149-0.279-0.205s-0.242-0.074-0.372-0.074
			c-0.13,0-0.26,0.019-0.372,0.074c-0.112,0.056-0.205,0.112-0.279,0.205c-0.074,0.093-0.13,0.186-0.167,0.297
			s-0.056,0.242-0.056,0.353V23.79z M38.826,25.594c0.112,0.13,0.26,0.242,0.428,0.316c0.167,0.074,0.353,0.112,0.539,0.112
			c0.167,0,0.316-0.019,0.446-0.074c0.112-0.056,0.223-0.112,0.279-0.205c0.074-0.093,0.13-0.186,0.149-0.316
			c0.037-0.112,0.056-0.242,0.056-0.39v-0.335h-0.019c-0.093,0.149-0.223,0.26-0.39,0.335c-0.167,0.074-0.353,0.112-0.539,0.112
			c-0.205,0-0.39-0.037-0.558-0.112c-0.167-0.074-0.297-0.167-0.428-0.297c-0.112-0.13-0.205-0.26-0.26-0.428
			c-0.056-0.167-0.093-0.335-0.093-0.539c0-0.186,0.037-0.372,0.093-0.539c0.056-0.167,0.149-0.316,0.26-0.446
			c0.112-0.13,0.26-0.223,0.428-0.297c0.167-0.074,0.353-0.112,0.539-0.112c0.186,0,0.372,0.037,0.539,0.13
			c0.167,0.074,0.316,0.205,0.409,0.372h0.019v-0.428h0.502v2.51c0,0.186-0.019,0.372-0.074,0.558s-0.13,0.335-0.242,0.465
			s-0.26,0.242-0.446,0.335c-0.186,0.074-0.409,0.13-0.688,0.13c-0.223,0-0.465-0.037-0.688-0.13
			c-0.242-0.093-0.428-0.205-0.595-0.353l0.335-0.409V25.594z"/>
		<path fill="#636363" d="M42.694,22.898c0.056-0.13,0.167-0.242,0.316-0.335c0.149-0.093,0.316-0.149,0.521-0.149
			c0.167,0,0.316,0.037,0.446,0.093c0.13,0.056,0.223,0.13,0.316,0.223c0.074,0.093,0.149,0.205,0.186,0.335
			s0.056,0.279,0.056,0.428v1.636h-0.521V23.66c0-0.112,0-0.205-0.019-0.316c-0.019-0.093-0.056-0.186-0.093-0.26
			c-0.037-0.074-0.112-0.13-0.186-0.186c-0.074-0.037-0.167-0.074-0.297-0.074c-0.205,0-0.372,0.074-0.521,0.242
			c-0.13,0.167-0.205,0.372-0.205,0.632v1.413h-0.521V20.89h0.521v1.971h0.019L42.694,22.898z"/>
		<path fill="#636363" d="M46.71,22.935h-0.707v1.376c0,0.167,0.037,0.279,0.093,0.335c0.056,0.074,0.149,0.112,0.279,0.112
			c0.056,0,0.093,0,0.149-0.019c0.056-0.019,0.112-0.019,0.149-0.037l0.019,0.428c-0.056,0.019-0.13,0.037-0.205,0.056
			c-0.074,0.019-0.149,0.019-0.242,0.019c-0.242,0-0.446-0.074-0.576-0.205s-0.205-0.353-0.205-0.614v-1.432h-0.502v-0.428h0.502
			v-0.762h0.521v0.762h0.707v0.428L46.71,22.935z"/>
		<path fill="#636363" d="M49.238,24.664h0.688c0.242,0,0.465-0.037,0.669-0.093c0.205-0.074,0.372-0.167,0.521-0.297
			c0.149-0.13,0.26-0.279,0.335-0.465c0.074-0.186,0.13-0.39,0.13-0.632c0-0.242-0.037-0.465-0.13-0.651
			c-0.074-0.186-0.205-0.335-0.335-0.465c-0.149-0.13-0.316-0.223-0.521-0.279c-0.205-0.074-0.428-0.093-0.669-0.093h-0.688v2.993
			V24.664z M48.681,21.187h1.357c0.26,0,0.502,0.037,0.762,0.112c0.26,0.074,0.483,0.186,0.688,0.353s0.372,0.372,0.502,0.614
			c0.13,0.242,0.186,0.558,0.186,0.892c0,0.335-0.056,0.632-0.186,0.874c-0.13,0.242-0.297,0.446-0.502,0.614
			s-0.428,0.279-0.688,0.372c-0.26,0.074-0.502,0.112-0.762,0.112h-1.357v-3.96V21.187z"/>
		<path fill="#636363" d="M52.901,22.786c0-0.112-0.019-0.205-0.019-0.297h0.502c0,0.074,0.019,0.149,0.019,0.223
			c0,0.093,0,0.167,0,0.223h0.019c0.074-0.149,0.186-0.279,0.335-0.372c0.149-0.093,0.297-0.149,0.483-0.149
			c0.074,0,0.149,0,0.205,0.019l-0.019,0.483c-0.074-0.019-0.149-0.037-0.242-0.037c-0.13,0-0.242,0.019-0.335,0.074
			c-0.093,0.056-0.167,0.112-0.223,0.186c-0.056,0.074-0.112,0.167-0.13,0.279c-0.037,0.112-0.037,0.205-0.037,0.316v1.394h-0.521
			v-2.082c0-0.074,0-0.167,0-0.279L52.901,22.786z"/>
		<path fill="#636363" d="M55.467,25.147h-0.521v-2.659h0.521V25.147z M55.56,21.54c0,0.093-0.037,0.186-0.112,0.242
			c-0.074,0.056-0.149,0.093-0.242,0.093c-0.093,0-0.186-0.037-0.242-0.093c-0.074-0.074-0.093-0.149-0.093-0.242
			c0-0.093,0.037-0.186,0.093-0.242c0.074-0.074,0.149-0.093,0.242-0.093c0.093,0,0.186,0.037,0.242,0.093
			C55.523,21.373,55.56,21.447,55.56,21.54z"/>
		<polygon fill="#636363" points="57.624,25.147 57.066,25.147 55.988,22.489 56.564,22.489 57.345,24.59 57.345,24.59 
			58.126,22.489 58.702,22.489 		"/>
		<path fill="#636363" d="M61.138,23.586c0-0.112-0.019-0.205-0.056-0.297c-0.037-0.093-0.074-0.167-0.149-0.242
			c-0.056-0.074-0.13-0.112-0.223-0.167c-0.093-0.037-0.205-0.056-0.316-0.056c-0.112,0-0.223,0.019-0.316,0.056
			s-0.186,0.093-0.26,0.167c-0.074,0.074-0.13,0.149-0.186,0.242c-0.056,0.093-0.074,0.186-0.074,0.297H61.138z M61.677,23.79v0.093
			c0,0.037,0,0.056,0,0.093h-2.101c0,0.112,0.037,0.223,0.074,0.316c0.056,0.093,0.112,0.186,0.186,0.26
			c0.074,0.074,0.167,0.13,0.279,0.167s0.205,0.056,0.335,0.056c0.186,0,0.335-0.037,0.465-0.112
			c0.13-0.074,0.242-0.167,0.316-0.279l0.372,0.297c-0.149,0.186-0.316,0.335-0.502,0.409c-0.186,0.093-0.409,0.13-0.632,0.13
			c-0.205,0-0.39-0.037-0.558-0.093c-0.167-0.074-0.316-0.167-0.446-0.279c-0.13-0.13-0.223-0.26-0.297-0.446
			c-0.074-0.167-0.112-0.353-0.112-0.576c0-0.205,0.037-0.39,0.112-0.576c0.074-0.167,0.167-0.316,0.297-0.446
			c0.13-0.13,0.26-0.223,0.446-0.279c0.167-0.074,0.353-0.112,0.539-0.112s0.372,0.037,0.521,0.093
			c0.167,0.056,0.297,0.149,0.409,0.279c0.112,0.112,0.186,0.26,0.26,0.428c0.056,0.167,0.093,0.353,0.093,0.576H61.677z"/>
		<path fill="#636363" d="M63.834,23.158c-0.056-0.093-0.149-0.167-0.26-0.242c-0.112-0.056-0.223-0.093-0.372-0.093
			c-0.056,0-0.112,0-0.186,0.019c-0.056,0.019-0.112,0.037-0.167,0.056c-0.056,0.037-0.093,0.056-0.112,0.112
			C62.7,23.046,62.7,23.102,62.7,23.177c0,0.112,0.056,0.186,0.149,0.242c0.093,0.056,0.26,0.112,0.446,0.149
			c0.13,0.037,0.242,0.074,0.353,0.112s0.205,0.093,0.279,0.149c0.074,0.056,0.149,0.13,0.186,0.223
			c0.037,0.093,0.074,0.186,0.074,0.297c0,0.149-0.037,0.297-0.093,0.39c-0.056,0.112-0.13,0.205-0.242,0.26
			c-0.093,0.074-0.205,0.112-0.335,0.149c-0.13,0.037-0.26,0.037-0.39,0.037c-0.205,0-0.39-0.037-0.595-0.112
			c-0.186-0.074-0.353-0.205-0.483-0.353l0.372-0.316c0.074,0.112,0.167,0.186,0.297,0.26c0.13,0.074,0.26,0.112,0.409,0.112
			c0.074,0,0.13,0,0.186-0.019c0.056-0.019,0.112-0.037,0.167-0.056c0.056-0.037,0.093-0.074,0.112-0.112
			c0.037-0.056,0.037-0.112,0.037-0.186c0-0.13-0.056-0.223-0.167-0.279c-0.112-0.056-0.297-0.112-0.521-0.167
			c-0.093-0.019-0.186-0.056-0.279-0.074c-0.093-0.037-0.167-0.074-0.242-0.13c-0.074-0.056-0.13-0.13-0.186-0.205
			c-0.056-0.093-0.074-0.186-0.074-0.316c0-0.149,0.037-0.26,0.093-0.372c0.056-0.112,0.13-0.186,0.223-0.26
			c0.093-0.074,0.205-0.112,0.316-0.149c0.112-0.037,0.242-0.056,0.372-0.056c0.186,0,0.372,0.037,0.558,0.112
			c0.186,0.074,0.316,0.186,0.409,0.316l-0.372,0.316L63.834,23.158z"/>
		<polygon fill="#636363" points="66.865,25.147 66.307,25.147 66.307,21.187 66.865,21.187 		"/>
		<path fill="#636363" d="M68.278,22.489c0,0.074,0.019,0.149,0.019,0.223c0,0.093,0,0.149,0,0.205h0.019
			c0.037-0.074,0.074-0.13,0.13-0.205c0.056-0.056,0.13-0.112,0.205-0.167c0.074-0.056,0.149-0.074,0.242-0.112
			c0.093-0.019,0.186-0.037,0.279-0.037c0.167,0,0.316,0.037,0.446,0.093c0.13,0.056,0.223,0.13,0.316,0.223
			c0.074,0.093,0.149,0.205,0.186,0.335s0.056,0.279,0.056,0.428v1.636h-0.521v-1.469c0-0.112,0-0.205-0.019-0.316
			c-0.019-0.093-0.056-0.186-0.093-0.26c-0.037-0.074-0.112-0.13-0.186-0.186c-0.074-0.037-0.186-0.074-0.297-0.074
			c-0.205,0-0.372,0.074-0.521,0.242c-0.13,0.167-0.205,0.372-0.205,0.632v1.413h-0.521v-2.082c0-0.074,0-0.167,0-0.279
			s-0.019-0.205-0.019-0.297h0.502L68.278,22.489z"/>
		<path fill="#636363" d="M71.532,22.489c0,0.074,0.019,0.149,0.019,0.223c0,0.093,0,0.149,0,0.205h0.019
			c0.037-0.074,0.074-0.13,0.13-0.205c0.056-0.056,0.13-0.112,0.205-0.167c0.074-0.056,0.149-0.074,0.242-0.112
			c0.093-0.019,0.186-0.037,0.279-0.037c0.167,0,0.316,0.037,0.446,0.093c0.13,0.056,0.223,0.13,0.316,0.223
			c0.074,0.093,0.149,0.205,0.186,0.335s0.056,0.279,0.056,0.428v1.636h-0.521v-1.469c0-0.112,0-0.205-0.019-0.316
			c-0.019-0.093-0.056-0.186-0.093-0.26c-0.037-0.074-0.112-0.13-0.186-0.186c-0.074-0.037-0.186-0.074-0.297-0.074
			c-0.205,0-0.372,0.074-0.521,0.242c-0.13,0.167-0.205,0.372-0.205,0.632v1.413h-0.521v-2.082c0-0.074,0-0.167,0-0.279
			s-0.019-0.205-0.019-0.297h0.502L71.532,22.489z"/>
		<path fill="#636363" d="M76.44,23.827c0-0.13-0.019-0.242-0.056-0.353c-0.037-0.112-0.093-0.223-0.167-0.297
			c-0.074-0.093-0.167-0.149-0.279-0.205c-0.112-0.056-0.242-0.074-0.372-0.074c-0.149,0-0.26,0.019-0.372,0.074
			c-0.112,0.056-0.205,0.13-0.279,0.205c-0.074,0.093-0.13,0.186-0.167,0.297c-0.037,0.112-0.056,0.242-0.056,0.353
			c0,0.13,0.019,0.242,0.056,0.353s0.093,0.223,0.167,0.297c0.074,0.093,0.167,0.167,0.279,0.205
			c0.112,0.056,0.242,0.074,0.372,0.074c0.149,0,0.26-0.019,0.372-0.074c0.112-0.056,0.205-0.13,0.279-0.205
			c0.074-0.093,0.13-0.186,0.167-0.297S76.44,23.939,76.44,23.827z M76.979,23.827c0,0.205-0.037,0.39-0.112,0.558
			s-0.167,0.316-0.297,0.446c-0.13,0.13-0.279,0.223-0.465,0.297c-0.167,0.074-0.372,0.112-0.558,0.112
			c-0.205,0-0.39-0.037-0.558-0.112c-0.167-0.074-0.335-0.167-0.446-0.297c-0.13-0.13-0.223-0.279-0.297-0.446
			s-0.112-0.353-0.112-0.558c0-0.205,0.037-0.39,0.112-0.558s0.167-0.316,0.297-0.446c0.13-0.13,0.279-0.223,0.446-0.279
			c0.167-0.074,0.372-0.112,0.558-0.112c0.205,0,0.39,0.037,0.558,0.112c0.167,0.074,0.335,0.167,0.465,0.279
			c0.13,0.13,0.223,0.26,0.297,0.446C76.942,23.437,76.979,23.623,76.979,23.827z"/>
		<polygon fill="#636363" points="78.969,25.147 78.392,25.147 77.314,22.489 77.909,22.489 78.671,24.59 78.69,24.59 
			79.471,22.489 80.029,22.489 		"/>
		<path fill="#636363" d="M82.055,23.883c-0.13,0-0.26,0-0.409,0.019c-0.149,0.019-0.26,0.037-0.372,0.074
			c-0.112,0.037-0.205,0.093-0.279,0.149c-0.074,0.074-0.112,0.149-0.112,0.26c0,0.074,0.019,0.149,0.056,0.205
			c0.037,0.056,0.074,0.093,0.13,0.13s0.112,0.056,0.167,0.074s0.13,0.019,0.205,0.019c0.242,0,0.428-0.074,0.576-0.223
			c0.13-0.149,0.205-0.335,0.205-0.558v-0.149h-0.13H82.055z M82.185,23.437c0-0.205-0.056-0.335-0.186-0.446
			c-0.112-0.093-0.279-0.149-0.483-0.149c-0.149,0-0.297,0.037-0.428,0.093c-0.13,0.056-0.242,0.13-0.335,0.223l-0.279-0.335
			c0.13-0.13,0.297-0.223,0.483-0.297c0.186-0.074,0.39-0.112,0.614-0.112c0.186,0,0.353,0.019,0.502,0.074
			c0.149,0.056,0.26,0.13,0.335,0.223c0.093,0.093,0.149,0.205,0.205,0.335c0.037,0.13,0.074,0.26,0.074,0.409v1.153
			c0,0.093,0,0.186,0,0.279c0,0.093,0.019,0.186,0.037,0.242h-0.483c-0.037-0.13-0.037-0.26-0.037-0.372h-0.019
			c-0.093,0.149-0.223,0.26-0.372,0.335c-0.149,0.074-0.316,0.112-0.521,0.112c-0.112,0-0.205-0.019-0.335-0.037
			c-0.112-0.037-0.223-0.074-0.316-0.13c-0.093-0.056-0.167-0.149-0.223-0.26c-0.056-0.112-0.093-0.242-0.093-0.39
			c0-0.205,0.056-0.353,0.167-0.483c0.112-0.112,0.242-0.205,0.428-0.26c0.167-0.056,0.372-0.093,0.595-0.112
			c0.223-0.019,0.446-0.037,0.669-0.037v-0.074V23.437z"/>
		<path fill="#636363" d="M84.807,22.935H84.1v1.376c0,0.167,0.037,0.279,0.093,0.335c0.056,0.074,0.149,0.112,0.279,0.112
			c0.056,0,0.093,0,0.149-0.019s0.112-0.019,0.149-0.037l0.019,0.428c-0.056,0.019-0.13,0.037-0.205,0.056s-0.149,0.019-0.242,0.019
			c-0.242,0-0.446-0.074-0.576-0.205s-0.205-0.353-0.205-0.614v-1.432h-0.502v-0.428h0.502v-0.762h0.521v0.762h0.707v0.428
			L84.807,22.935z"/>
		<path fill="#636363" d="M85.885,25.147h-0.521v-2.659h0.521V25.147z M85.978,21.54c0,0.093-0.037,0.186-0.112,0.242
			s-0.149,0.093-0.242,0.093s-0.186-0.037-0.242-0.093c-0.074-0.074-0.093-0.149-0.093-0.242c0-0.093,0.037-0.186,0.093-0.242
			c0.074-0.074,0.149-0.093,0.242-0.093s0.186,0.037,0.242,0.093C85.941,21.373,85.978,21.447,85.978,21.54z"/>
		<path fill="#636363" d="M88.935,23.827c0-0.13-0.019-0.242-0.056-0.353c-0.037-0.112-0.093-0.223-0.167-0.297
			c-0.074-0.093-0.167-0.149-0.279-0.205c-0.112-0.056-0.242-0.074-0.372-0.074c-0.149,0-0.26,0.019-0.372,0.074
			c-0.112,0.056-0.205,0.13-0.279,0.205c-0.074,0.093-0.13,0.186-0.167,0.297c-0.037,0.112-0.056,0.242-0.056,0.353
			c0,0.13,0.019,0.242,0.056,0.353s0.093,0.223,0.167,0.297c0.074,0.093,0.167,0.167,0.279,0.205
			c0.112,0.056,0.242,0.074,0.372,0.074c0.149,0,0.26-0.019,0.372-0.074s0.205-0.13,0.279-0.205c0.074-0.093,0.13-0.186,0.167-0.297
			S88.935,23.939,88.935,23.827z M89.474,23.827c0,0.205-0.037,0.39-0.112,0.558c-0.074,0.167-0.167,0.316-0.297,0.446
			s-0.279,0.223-0.465,0.297c-0.167,0.074-0.372,0.112-0.558,0.112c-0.205,0-0.39-0.037-0.558-0.112
			c-0.167-0.074-0.335-0.167-0.446-0.297c-0.13-0.13-0.223-0.279-0.297-0.446c-0.074-0.167-0.112-0.353-0.112-0.558
			c0-0.205,0.037-0.39,0.112-0.558c0.074-0.167,0.167-0.316,0.297-0.446c0.13-0.13,0.279-0.223,0.446-0.279
			c0.167-0.074,0.372-0.112,0.558-0.112c0.205,0,0.39,0.037,0.558,0.112c0.167,0.074,0.335,0.167,0.465,0.279
			c0.13,0.13,0.223,0.26,0.297,0.446C89.437,23.437,89.474,23.623,89.474,23.827z"/>
		<path fill="#636363" d="M90.682,22.489c0,0.074,0.019,0.149,0.019,0.223c0,0.093,0,0.149,0,0.205h0.019
			c0.037-0.074,0.074-0.13,0.13-0.205c0.056-0.056,0.13-0.112,0.205-0.167c0.074-0.056,0.149-0.074,0.242-0.112
			c0.093-0.019,0.186-0.037,0.279-0.037c0.167,0,0.316,0.037,0.446,0.093c0.13,0.056,0.223,0.13,0.316,0.223
			c0.074,0.093,0.149,0.205,0.186,0.335c0.037,0.13,0.056,0.279,0.056,0.428v1.636h-0.521v-1.469c0-0.112,0-0.205-0.019-0.316
			c-0.019-0.093-0.056-0.186-0.093-0.26c-0.037-0.074-0.112-0.13-0.186-0.186c-0.074-0.037-0.186-0.074-0.297-0.074
			c-0.205,0-0.372,0.074-0.521,0.242c-0.13,0.167-0.205,0.372-0.205,0.632v1.413h-0.521v-2.082c0-0.074,0-0.167,0-0.279
			s-0.019-0.205-0.019-0.297h0.502L90.682,22.489z"/>
		<path fill="#636363" d="M80.4,10.273h2.547c1.506,0,2.882-0.335,2.882-2.231s-1.376-2.231-2.882-2.231H80.4v4.481V10.273z
			 M77.109,3.245h6.731c3.737,0,5.169,2.361,5.169,4.797s-1.432,4.797-5.169,4.797h-3.458v5.355h-3.291V3.245H77.109z"/>
	</g>
</g>
</svg>
