<svg xmlns="http://www.w3.org/2000/svg" width="107.751" height="56.864" viewBox="0 0 107.751 56.864">
  <path id="Path_2" data-name="Path 2" d="M120.812,20.218l-5.532,5.532q-7.358,4.4-7.008.83c5.736-2.693,9.313-5.81,10.7-9.314.257-2.36-.793-3.282-3.135-2.766a21.073,21.073,0,0,0-9.774,6.824c-1.015,1.627-1.771,1.969-2.306,1.015-.351-1.272.074-2.859,1.291-4.794a3.7,3.7,0,0,0,.406-1.568c0-.771-.514-1.217-1.512-1.291-1.807-.11-3.393,1.272-4.794,4.149-.428-2.858-1.9-4.187-4.426-3.965l-5.44.74Q85.736,5.948,78.49,3.526c-5.366-.995-8,.683-7.934,5.076.351,3.522,3.522,6.306,9.5,8.39l-3.043,2.86a6.358,6.358,0,0,1-3.6,1.752c.793-3.246.646-5.127-.461-5.623-1.549-1.327-3.725-1.125-6.546.646a30.59,30.59,0,0,0-7.559,7.13,14.15,14.15,0,0,0-1.2,1.991l-1.455.592-2.231.888.942-1.31,1.844-2.582,3.758-5.229c1.069-1.254,1.069-2.029,0-2.306-2.1-.646-5,1.365-8.668,5.993l-.332.387c-.592.646-1.2,1.31-1.844,1.969a76.776,76.776,0,0,1-5.845,5.385c-2.029,1.235-3.522,1.531-4.519.923q-1.775-2.3,2.638-9.184c.2-.351.444-.7.685-1.051.092-.128.2-.24.3-.37q11.37-13.3,23.215-10.877l4.241-6.832Q59.614,1.2,45,11.881a59.822,59.822,0,0,0-7.432,6.31c-.313.332-.628.646-.9.961-4.131,4.463-6.141,8.8-6.031,12.965q.5,6.39,12.817,1.015L42.157,35.8Q23.348,47.668,21.5,55.433c-.148,3.246,1.642,4.241,5.348,2.95Q37.967,53.76,49.438,34.132l5.906-3.87q-.555,5.5,3.781,5.163a16.123,16.123,0,0,0,9.515-5.6,29.663,29.663,0,0,0,3.168-4.366c.074-.129.148-.24.222-.351h1.937c-.092.148-.166.3-.241.444a9.5,9.5,0,0,0-1.235,5.163,4.613,4.613,0,0,0,2.03,3.339q4.069,1.849,8.224-1.586A21.618,21.618,0,0,0,86.052,28.9c.037-.037.056-.074.092-.11a20.368,20.368,0,0,0,2.213-4.26c.166-.479.313-.978.461-1.455.056-.257.128-.5.185-.74a19.636,19.636,0,0,0,.461-3.781c2.9-.277,4.15.535,3.781,2.4-.406.888-.83,1.789-1.272,2.674a88.509,88.509,0,0,1-5.308,9.258c-.277.37-.535.756-.793,1.162h6.916l.514-.866,4.463-7.525a6.946,6.946,0,0,0,.444.74,3.607,3.607,0,0,0,4.075,1.383c-.461,2.158-.387,3.8.24,4.869a3.013,3.013,0,0,0,1.884,1.406q2.794.913,9.663-4.281c.771-.571,1.568-1.217,2.416-1.9-.185.332-.388.74-.627,1.162q-3.1,5.34-14.035,19.311c-3.246,3.006-4.463,5.308-3.688,6.916.814,2.213,2.637,2.471,5.44.74q2.019-1.272,7.472-10.05L119.8,30.091l3.633-5.5,3.652-5.479c2.122-1.862,2.675-3.282,1.659-4.241C127.416,13.67,124.76,15.459,120.812,20.218Zm-7.192-1.659c1.125-.406,1.6-.2,1.475.646q-1.383,2.462-5.253,3.872a10.493,10.493,0,0,1,3.778-4.52ZM67.885,25.468a10.228,10.228,0,0,1-2.729,3.485c-.461.387-.978.756-1.512,1.125-1.143.257-1.53-.313-1.2-1.752l.037-.11A17.113,17.113,0,0,1,64.547,24.7a17.7,17.7,0,0,1,4.538-4.2q1.825-1.051,1.384.553c-2.785,1.18-3.725,2.526-2.859,4.039.11,0,.2.018.313.018ZM75.539,9.332c-.428-1.531.313-2.231,2.213-2.122a12.835,12.835,0,0,1,7.93,8.022q-8.437-1.794-10.143-5.9Zm5.719,18.722c-1.346.461-1.991.129-1.937-1.015a7.238,7.238,0,0,1,.534-1.494,14.146,14.146,0,0,1,5-5.514L84.39,18.1l2.213.461a17.7,17.7,0,0,1-2.693,6.678,13.742,13.742,0,0,1-2.654,2.825Z" transform="translate(-21.49 -2.067)" fill="#818181"/>
</svg>
