<svg xmlns="http://www.w3.org/2000/svg" width="74.874" height="48.593" viewBox="0 0 74.874 48.593">
  <g id="hdfc" transform="translate(-42.733 -3.029)">
    <path id="Path_1" data-name="Path 1" d="M51.568,11.938h13.38l0,13.376,8.8,8.825c.025-.043.016-.006.029-.088L73.779,3.1c-2.558-.06-5.192,0-7.757,0-7.586,0-15.218.029-22.8,0l-.474.041,8.823,8.8Z" transform="translate(0.011 0.045)" fill="#636363" fill-rule="evenodd"/>
    <path id="Path_2" data-name="Path 2" d="M73.754,34.106l-8.8-8.825-13.369-.01-.01-13.367-8.821-8.8c-.051,7.707,0,15.513,0,23.237l0,7.6c0,.012,0,.023.006.033.023.117.059.123.226.131.808.035,2.786,0,3.625,0,9.035,0,18.114.035,27.139,0Z" transform="translate(0 0.077)" fill="#636363" fill-rule="evenodd"/>
    <path id="Path_3" data-name="Path 3" d="M75.605,16.671a4.906,4.906,0,0,0-1.3.057c-.634.273-.537,1.042-.529,1.654l1.787,0,0,5.014c-.724.636-3.128,2.548-4.093,1.309a1.485,1.485,0,0,1-.324-.911c0-.673.045-5.59-.023-5.865-.3-1.221-2.3-1.537-3.358-1.535a.746.746,0,0,0-.8.755v7.6a3.035,3.035,0,0,0,1.391,2.628c1.758.9,4.667-.458,6.081-1.4.4-.269,1.075-.825,1.2-.9.027.71-.039,3.387.064,3.875.156.734.837.618,1.411.618a4,4,0,0,0,1-.193,2.2,2.2,0,0,0,1.666-2.035c0-2.917-.037-6.1,0-8.99.644-.014,1.305-.006,1.949,0a1.141,1.141,0,0,0,.78-.215c.433-.328.338-.917.332-1.535l-3.059,0c-.137-1.374-.1-3.356,1.311-4.06,1.134-.568,1.881-.074,2.214-.172.521-.154.267-2.177-2.968-2.175a4.784,4.784,0,0,0-3.373,1.124,3.975,3.975,0,0,0-.919,1.309c-.63,1.545-.41,2.429-.451,4.052Z" transform="translate(23.054 6.807)" fill="#636363" fill-rule="evenodd"/>
    <path id="Path_4" data-name="Path 4" d="M74.683,19.334c0,2.685,1.139,4.041,3.775,4.819a12.437,12.437,0,0,0,3.506.353,7.1,7.1,0,0,0,3.613-1.042,5.687,5.687,0,0,0,1.112-.917,2.373,2.373,0,0,0,.408-.587.72.72,0,0,0,0-.794c-.359-.008-.488.2-1.048.462-1.625.753-3.424,1.407-5.205.814a2.555,2.555,0,0,1-.979-.572,3.881,3.881,0,0,1,.7-5.609c.816-.492,2.511-.615,2.866.533a1.8,1.8,0,0,1-1.05,2,5.624,5.624,0,0,1-2.562.661,2.029,2.029,0,0,0,.86,1.007,2.871,2.871,0,0,0,.689.267,5.014,5.014,0,0,0,3-.265,3.775,3.775,0,0,0,2.73-3.6,4.423,4.423,0,0,0-.215-1.137,3.1,3.1,0,0,0-.5-.857c-1.37-1.692-4.526-1.5-6.456-1.112a7.59,7.59,0,0,0-3.912,2.175,4.824,4.824,0,0,0-1.169,2.213,6.37,6.37,0,0,0-.166,1.184Z" transform="translate(30.386 9.956)" fill="#636363" fill-rule="evenodd"/>
    <path id="Path_5" data-name="Path 5" d="M60.977,11.82V25.747a1.137,1.137,0,0,0,1.034,1.034c3.206,0,6.606.035,9.787,0,.023-1.383.265-2.663-1.311-2.663H65.632a2.089,2.089,0,0,1-.474.037l0-1.709c0-.193.039-.226.041-.437.031-2.318-.033-4.764,0-7.086,0-.2.041-.281.041-.476V12.932c0-1.413-2.175-1.91-3.3-1.91-.574,0-.956.23-.956.8Z" transform="translate(17.351 7.602)" fill="#636363" fill-rule="evenodd"/>
    <path id="Path_6" data-name="Path 6" d="M60.977,13.774l3.34,0,0-4.255,3.34,0,0,4.257,3.379,0,0-10.624-3.379,0,0,3.978-3.34,0,0-3.978-3.34,0Z" transform="translate(17.351 0.115)" fill="#636363" fill-rule="evenodd"/>
    <path id="Path_7" data-name="Path 7" d="M70.217,11.659l0-6.243c.976-.02,2.017-.07,2.429.513a4.725,4.725,0,0,1,.4,2.587c0,2.905-.242,3.194-2.823,3.143ZM66.955,3.226v10.62c.494.012,1.046.127,1.549.123.306,0,.474.041.8.039l2.029.039a6,6,0,0,0,3.752-1.182,5.178,5.178,0,0,0,1.3-3.631V7.8a2.274,2.274,0,0,1-.039-.478A5.055,5.055,0,0,0,75.5,4.7a4.623,4.623,0,0,0-3.541-1.631l-3.375.035c-.552,0-1.112.107-1.633.119Z" transform="translate(23.036 0.041)" fill="#636363" fill-rule="evenodd"/>
    <path id="Path_8" data-name="Path 8" d="M72.44,13.774l3.379,0,0-4.335,4.056,0,0-2.107-4.056,0,0-1.867c.215-.006,4.126.021,4.281-.02.078-.02.076-.041.088-.109a.932.932,0,0,0,.012-.148L80.2,3.156,72.442,3.15l0,10.624Z" transform="translate(28.253 0.115)" fill="#636363" fill-rule="evenodd"/>
    <path id="Path_9" data-name="Path 9" d="M76.705,7.643a12.03,12.03,0,0,0,.343,3.916,3.327,3.327,0,0,0,.919,1.506,4.4,4.4,0,0,0,2.558,1.022l1.153.08c.191,0,.2-.035.4-.041.144,0,.3.006.441,0a19.786,19.786,0,0,0,2.168-.259c.113-.037.14.027.139-.179l0-2.107a12.073,12.073,0,0,1-3.775-.047,1.3,1.3,0,0,1-.505-.41,2.865,2.865,0,0,1-.414-1.416,14.723,14.723,0,0,1,.135-3.089,2.073,2.073,0,0,1,.332-.663,1.241,1.241,0,0,1,.581-.375,5.091,5.091,0,0,1,1.855-.092c.7,0,1.286.084,1.789.078V3.306l-1.391-.2c-.535-.045-.962-.08-1.549-.08-1.859,0-3.715.217-4.577,1.947a4.778,4.778,0,0,0-.419,1.21c-.049.25-.072.435-.1.693-.02.16-.072.6-.072.765Z" transform="translate(32.303 0)" fill="#636363" fill-rule="evenodd"/>
    <path id="Path_10" data-name="Path 10" d="M66.831,12.645a1.832,1.832,0,0,0,.829,1.8,2.733,2.733,0,0,0,1.666.5c1.18-.139,2.322-.685,2.322-2.06a1.984,1.984,0,0,0-1.37-1.894,2.955,2.955,0,0,0-.923-.2,2.787,2.787,0,0,0-1.67.472,1.957,1.957,0,0,0-.855,1.379Z" transform="translate(22.918 7.374)" fill="#636363" fill-rule="evenodd"/>
    <path id="Path_11" data-name="Path 11" d="M72.48,27.05c-.259.519-1.321,1.92-2.066,1.867-1.245-.088.043-3.172,1.51-2.585.219.088.7.418.556.718Zm-5.691-.919a.5.5,0,0,0-.373-.581c-.345-.062-.923.585-1.108.775-.162.162-.353.33-.5.5L63.49,28.359a31.292,31.292,0,0,1,.8-4.363c.092-.466.31-1.165-.129-1.165s-.478.148-.777.242a8.92,8.92,0,0,1-.228,2.493,13.3,13.3,0,0,1-.455,2.053,4.176,4.176,0,0,1-2.2,1.3c-.38,0-.716-.14-.716-.558a9.306,9.306,0,0,1,.556-2.345c.328-.006.866-.033,1.161-.074.613-.084.5-.316.386-.679a5.89,5.89,0,0,1-1.387.193c.1-.46.462-1.352-.121-1.352a1.571,1.571,0,0,0-.755.279,3.629,3.629,0,0,1,0,1.153l-.872,0c-.14.261-.23.515.08.515l.714-.037a8.928,8.928,0,0,1-.265,1.161c-.041.164-.025.14-.129.23A4.941,4.941,0,0,1,56.524,28.8c-.814,0-.593-1.095-.47-1.545.3-1.093.769-1.44.23-1.44-.183,0-.6-.041-.706.129a13.055,13.055,0,0,1-.6,1.51c-.269.431-.782,1.145-1.44,1.145-1.145,0-.552-1.348-.256-1.887.33-.6.777-.938.336-.938-.248,0-.714-.02-.851.222a6.92,6.92,0,0,0-.62,2.086c0,.476.01,1.313.8,1.313h.2a3.4,3.4,0,0,0,1.992-1.229c.131.209,0,2.121,2.743.751a5.662,5.662,0,0,0,.613-.341c.113-.074.174-.115.287-.191a1.021,1.021,0,0,1,.293-.181c-.127.587-.154,1.352.718,1.352a3.869,3.869,0,0,0,1.764-.464c.64-.322,1-.638,1.256-.765l-.035.911a1.6,1.6,0,0,0,.952.158s1.2-2.505,2.119-2.7a3.5,3.5,0,0,0,.285,2.289c.564.814,1.99.392,2.6-.152l.365-.343c.125.888.406,1.069,1.038,1.069a3.662,3.662,0,0,0,1.881-.944l.466-.447c.08.125.055.24.158.476a1.037,1.037,0,0,0,.248.388,1.159,1.159,0,0,0,1.026.408c.6,0,1.918-.626,2.029-1.034a1.117,1.117,0,0,0-.318-.277c-.119.043-.1.068-.269.207a1.672,1.672,0,0,1-1.243.429c-.513,0-.835-.6-.835-1.114,0-1.294.252-.96-.228-1.442a1.724,1.724,0,0,0-.831-.443,2.586,2.586,0,0,0-2.609,1.163c-.287.388-.96,1.84-2.023,1.838h-.039a.743.743,0,0,1-.665-.371,3.877,3.877,0,0,1-.09-2.263Z" transform="translate(8.954 18.834)" fill="#636363" fill-rule="evenodd"/>
    <path id="Path_12" data-name="Path 12" d="M46.371,27.53a2.346,2.346,0,0,1,.97-1.656c.983-.656,1.645.215,1.584.47a6,6,0,0,1-1.11,1.516c-.661.636-1.442.644-1.444-.33ZM56.638,24.5a3.661,3.661,0,0,0,.271-.806c.025-.453-2.029-.324-3.637,2.415a7.44,7.44,0,0,1-.371.654c-.006-.394.457-1.2.314-1.506-.244-.113-.646.06-.872.123-.006.23.043.4.039.675-.018,1.042-.092.816-.669,1.362-.4.382-1.21,1.056-1.77.634-.665-.5-.152-2-.217-2.17a1.827,1.827,0,0,0-1.887-.745c-2.862.706-3.092,4.788-.476,3.623a5.1,5.1,0,0,0,1.512-1.192l.187.568c.609,1.416,2.025.4,2.757-.17.164-.127.2-.217.394-.314-.039.2-.1.5-.113.714-.033.408,0,.455.158.669.211-.1.466-.162.673-.273a4.551,4.551,0,0,1,1.081-2.94,4.626,4.626,0,0,1,1.054-.977,2.011,2.011,0,0,1,1.571-.343Z" transform="translate(2.669 19.468)" fill="#636363" fill-rule="evenodd"/>
    <path id="Path_13" data-name="Path 13" d="M76.678,24.46c-.1.039-.094.041-.144.174-.031.078-.043.129-.068.211l-.4,1.356c-.275.806-3.449,2.332-2.056-.821a8.205,8.205,0,0,0,.355-.8c-.238-.06-.687-.349-.892-.1a2.887,2.887,0,0,0-.336.858c-.353,1.2-.689,3.149,1.42,2.573a4.588,4.588,0,0,0,1.475-.864.973.973,0,0,0,1.163,1,3,3,0,0,0,1.137-.535,1.936,1.936,0,0,1,.326-.224c-.059.3-.172.572-.261.886a13.184,13.184,0,0,0-.414,1.894,7.1,7.1,0,0,0-.115,1.036.785.785,0,0,0,.544.111c.644-.092.3-.654.431-1.522.031-.2.02-.455.045-.632a7.873,7.873,0,0,1,.691-2.532c.217-.351.958-1.2.991-1.639.027-.347-.507-.474-.794-.468A15.761,15.761,0,0,0,79.126,26a1.61,1.61,0,0,1-.181.377,2.227,2.227,0,0,1-.9.769c-.611.3-1.356.174-1.239-.681a4.431,4.431,0,0,1,.217-.9,6.592,6.592,0,0,0,.291-.784.749.749,0,0,0-.634-.318Z" transform="translate(28.67 20.31)" fill="#636363" fill-rule="evenodd"/>
    <path id="Path_14" data-name="Path 14" d="M44.731,24.151a1.1,1.1,0,0,1,1.4-.956c.767.148,1.11.929,1.311,1.075.419-.094.933-.741.271-1.186a2.484,2.484,0,0,0-.726-.31c-1.294-.373-3.167.154-3.167,1.576,0,1.772,2.679,2.47,2.786,3.74.1,1.143-1.147,1.18-1.986.909-.394-.127-.734-.322-1.157-.435-.537-.144-.712.336-.712.8a2.225,2.225,0,0,0,.8.269,4.417,4.417,0,0,0,3.254-.347,1.5,1.5,0,0,0,.716-1.393c0-1.288-2.786-2.431-2.786-3.422v-.318Z" transform="translate(0.013 18.668)" fill="#636363" fill-rule="evenodd"/>
    <path id="Path_15" data-name="Path 15" d="M69.724,26.066c.006,0,.023,0,.029-.012s.02-.006.029-.012c0-.78-.392-.73-.933-.336l-.888.743c-.287.289-.517.537-.8.835a10.378,10.378,0,0,1-.724.9l.4-2.425c.068-.4.137-.845.193-1.241a8.5,8.5,0,0,0,.164-1.664c-.355-.172-.675.092-.952.238a13.029,13.029,0,0,1-.2,3.3c-.045.408-.107.816-.166,1.227-.029.2-.053.412-.08.636a5.805,5.805,0,0,0-.088,1.095c.066.109.217.066.375.066.316,0,.32-.027.406-.271a2.83,2.83,0,0,1,.749-1.2l.747.646a8.165,8.165,0,0,0,1.555,1.194c.345.113.71-.242.839-.445-.283-.209-.938-.406-1.514-.831a10.056,10.056,0,0,1-1.223-1.079c.343-.254.638-.548.991-.8a2.668,2.668,0,0,1,1.091-.574Z" transform="translate(21.837 18.806)" fill="#636363" fill-rule="evenodd"/>
    <path id="Path_16" data-name="Path 16" d="M80.551,26.048a1.627,1.627,0,0,1-.429.966c-.817.929-2.6.9-2.337-.585a2,2,0,0,1,1.307-1.479c.9-.353,1.631.2,1.459,1.1Zm.835.08a1.375,1.375,0,0,0-.54-1.53,2.025,2.025,0,0,0-1.7-.2c-2,.552-2.942,2.655-1.7,3.557,1.026.741,3.487-.029,3.941-1.832Z" transform="translate(32.478 20.234)" fill="#636363" fill-rule="evenodd"/>
    <path id="Path_17" data-name="Path 17" d="M70.717,30.042c-.314.2-.89,1.535,1.233,1.387.8-.057,1.385-.909,1.619-1.6s.474-3.627.794-4.9c.057-.228.131-.423.174-.62-.281-.146-.533.006-.909.123-.3.094-.261.123-.287.429-.01.121-.027.152-.035.283l-.086,1.147c-.094.88-.154,1.984-.271,2.794-.094.656-.222,1.5-.7,1.766a.911.911,0,0,1-.942-.166,7.342,7.342,0,0,1-.587-.644Z" transform="translate(26.314 20.182)" fill="#636363" fill-rule="evenodd"/>
    <path id="Path_18" data-name="Path 18" d="M68.915,26.192a1.609,1.609,0,0,1,1.007-1.375c.95-.2.909.757.236,1.071a4.222,4.222,0,0,1-1.243.3Zm-.041.4a6.4,6.4,0,0,0,1.723-.505c.429-.217,1.077-.525.927-1.233-.193-.909-2.568-.888-3.284,1.065-.9,2.454,2.113,2.653,3.5,1.713.316-.215.316-.457.033-.642a2.522,2.522,0,0,1-1.666.63c-.765-.086-1.091-.353-1.235-1.028Z" transform="translate(24.101 20.207)" fill="#636363" fill-rule="evenodd"/>
    <path id="Path_19" data-name="Path 19" d="M81.421,28.308a1.057,1.057,0,0,1-.3-.732c-.158-1.114.821-4.119.739-4.8-.049-.412-.884-.012-1.034.117a7.213,7.213,0,0,1,.033.989c-.07.669-.33,1.711-.451,2.534-.437,3.022.878,2.476,1.015,1.889Z" transform="translate(35.745 18.61)" fill="#636363" fill-rule="evenodd"/>
    <path id="Path_20" data-name="Path 20" d="M80.1,26.81c.051.246.494.425.833.4a.512.512,0,0,0,.457-.695c-.174-.578-1.481-.622-1.29.3Z" transform="translate(35.518 21.938)" fill="#636363" fill-rule="evenodd"/>
    <path id="Path_21" data-name="Path 21" d="M73.784,24.243a.974.974,0,0,0,.835-.478c.357-.661-.743-.985-1.163-.2-.168.314-.107.683.328.683Z" transform="translate(29.137 19.093)" fill="#636363" fill-rule="evenodd"/>
    <path id="Path_22" data-name="Path 22" d="M72.406,24.144a1,1,0,0,0,.8-.429.427.427,0,0,0-.3-.71c-.73-.1-1.311,1.139-.5,1.139Z" transform="translate(27.848 18.993)" fill="#636363" fill-rule="evenodd"/>
  </g>
</svg>
