<svg xmlns="http://www.w3.org/2000/svg" width="137" height="27.56" viewBox="0 0 137 27.56">
  <g id="icici" transform="translate(-0.692 -2.872)">
    <path id="Path_1" data-name="Path 1" d="M23.352,29.278h4.867l3.816-14.239H27.168L23.352,29.278" transform="translate(2.165 0.885)" fill="#636363" fill-rule="evenodd"/>
    <path id="Path_2" data-name="Path 2" d="M44.953,29.278h4.866l3.816-14.239H48.769L44.953,29.278" transform="translate(4.229 0.885)" fill="#636363" fill-rule="evenodd"/>
    <path id="Path_3" data-name="Path 3" d="M66.554,29.278h4.865l3.814-14.239H70.37L66.554,29.278" transform="translate(6.292 0.885)" fill="#636363" fill-rule="evenodd"/>
    <path id="Path_4" data-name="Path 4" d="M42.689,19.914h4.868c.645-3.2-1.423-4.849-6.2-4.849-5.521,0-9.274,2.7-10.533,7.4-1.139,4.255,1.118,6.848,6.311,6.848,5.256,0,8.358-1.633,9.68-5.293H41.932a3.763,3.763,0,0,1-3.685,2.45c-2.358,0-3.28-1.5-2.556-4.2.756-2.818,2.532-4.37,4.911-4.37,1.5,0,2.2.671,2.089,2.012" transform="translate(2.73 0.89)" fill="#636363" fill-rule="evenodd"/>
    <g id="Group_1" data-name="Group 1" transform="translate(0.692 2.872)">
      <path id="Path_5" data-name="Path 5" d="M8.117,8.832C14.634,2.6,22.514,1,25.657,5.251s.391,12.8-6.126,19.028S5.132,32.113,1.991,27.86,1.6,15.057,8.118,8.832" transform="translate(-0.692 -2.872)" fill="#636363" fill-rule="evenodd"/>
      <path id="Path_6" data-name="Path 6" d="M12,5.606A19.953,19.953,0,0,0,9.85,7.45C4.14,13.073,1.767,20.807,4.58,24.673c2.9,3.865,9.929,2.46,15.728-3.253a22.3,22.3,0,0,0,6.106-9.885,9.163,9.163,0,0,0-1.187-6.194c-2.5-3.427-7.864-3.163-13.224.264" transform="translate(-0.266 -2.867)" fill="#444" fill-rule="evenodd"/>
      <path id="Path_7" data-name="Path 7" d="M14.886,27.065c-3.051,2.2-6.2,3.293-9.278,2.838C6.9,29.968,7.94,28.591,8.8,26.742a30.123,30.123,0,0,0,1.8-5.292c.6-2.6.652-4.461.345-4.86-.522-.662-1.709-.492-3.051.248-.641.341-1.5.114-.487-1.061a24.669,24.669,0,0,1,6.542-4.485c1.6-.445,3.432.16,2.814,1.848-.439,1.232-6.056,15.393-1.876,13.923M19.479,5.1c.762.729.3,2.328-1,3.583s-3,1.688-3.74.97c-.783-.72-.32-2.339.986-3.606S18.744,4.392,19.48,5.1Z" transform="translate(0.081 -2.577)" fill="#fff" fill-rule="evenodd"/>
    </g>
    <path id="Path_8" data-name="Path 8" d="M64.288,19.914h4.869c.645-3.2-1.423-4.849-6.194-4.849-5.521,0-9.274,2.7-10.533,7.4-1.14,4.255,1.118,6.848,6.31,6.848,5.256,0,8.358-1.633,9.68-5.293H63.535a3.764,3.764,0,0,1-3.686,2.45c-2.358,0-3.28-1.5-2.556-4.2.756-2.818,2.532-4.37,4.911-4.37,1.494,0,2.2.671,2.086,2.012" transform="translate(4.705 0.89)" fill="#636363" fill-rule="evenodd"/>
    <path id="Path_9" data-name="Path 9" d="M80.87,27.025l1.113-4.152h3.188c2.453,0,3.541.436,3.092,2.116-.413,1.542-1.614,2.036-3.83,2.036H80.87m2.619-9.788h3.027c2.274,0,3.328.277,2.946,1.7s-1.6,1.779-3.957,1.779H82.558ZM77.192,29.3h7.3c2.077,0,3.619-.159,5.1-1.186a5.041,5.041,0,0,0,2.024-2.828c.526-1.958-.371-3.263-2.6-3.58a4.47,4.47,0,0,0,3.877-3.183,2.356,2.356,0,0,0-.874-2.868c-.775-.517-2.036-.594-3.757-.594H81.012Z" transform="translate(7.045 0.889)" fill="#636363" fill-rule="evenodd"/>
    <path id="Path_10" data-name="Path 10" d="M98.745,24.159l-.047.179a3.821,3.821,0,0,1-3.791,2.947c-1.326,0-1.88-.517-1.626-1.465.35-1.306,1.494-1.663,3.61-1.663h1.859m-1.135,4.591h2.93A16.108,16.108,0,0,1,101,26.533l1.066-3.976c.7-2.63-.6-3.975-3.9-3.975-3.183,0-5.256,1.107-5.9,2.967h2.808c.368-.929,1.177-1.364,2.521-1.364,1.5,0,2.035.672,1.649,2.115l-.048.178H97.658c-4.351,0-6.7.79-7.371,3.3-.517,1.938.7,3.206,3.294,3.206a6.337,6.337,0,0,0,4.323-1.6Z" transform="translate(8.404 1.442)" fill="#636363" fill-rule="evenodd"/>
    <path id="Path_11" data-name="Path 11" d="M101.311,28.744h2.947l1.361-5.084a4.2,4.2,0,0,1,3.942-3.125c1.723,0,2.321,1.009,1.781,3.027l-1.388,5.181h2.886l1.633-6.092c.689-2.569-.615-4.054-3.483-4.054a6.059,6.059,0,0,0-4.643,1.977l.353-1.759h-2.908q-.45,2.343-.6,2.908l-1.879,7.02" transform="translate(8.596 1.445)" fill="#636363" fill-rule="evenodd"/>
    <path id="Path_12" data-name="Path 12" d="M113.522,29.3h2.868l1.435-5.359,3.863,5.359h3.936l-4.351-5.676,5.906-4.252h-3.7l-5.5,3.994,2.226-8.306h-2.868L113.523,29.3" transform="translate(10.513 0.889)" fill="#636363" fill-rule="evenodd"/>
  </g>
</svg>
