<svg xmlns="http://www.w3.org/2000/svg" width="167.364" height="33.172" viewBox="0 0 167.364 33.172">
  <g id="icici" transform="translate(-0.689 -2.873)">
    <path id="Path_1" data-name="Path 1" d="M23.352,31.565H29l4.429-16.526H27.781L23.352,31.565" transform="translate(7.769 4.171)" fill="#636363" fill-rule="evenodd"/>
    <path id="Path_2" data-name="Path 2" d="M44.953,31.565H50.6l4.429-16.526H49.382L44.953,31.565" transform="translate(15.175 4.171)" fill="#636363" fill-rule="evenodd"/>
    <path id="Path_3" data-name="Path 3" d="M66.554,31.565H72.2l4.427-16.526H70.983L66.554,31.565" transform="translate(22.58 4.171)" fill="#636363" fill-rule="evenodd"/>
    <path id="Path_4" data-name="Path 4" d="M44.64,20.693H50.29c.749-3.716-1.652-5.628-7.191-5.628-6.407,0-10.763,3.137-12.224,8.587C29.553,28.59,32.173,31.6,38.2,31.6c6.1,0,9.7-1.895,11.234-6.143H43.761A4.367,4.367,0,0,1,39.484,28.3c-2.737,0-3.807-1.736-2.966-4.872.877-3.27,2.939-5.072,5.7-5.072,1.736,0,2.551.779,2.424,2.335" transform="translate(10.234 4.18)" fill="#636363" fill-rule="evenodd"/>
    <g id="Group_1" data-name="Group 1" transform="translate(0.689 2.873)">
      <path id="Path_5" data-name="Path 5" d="M9.309,10.048c7.564-7.5,16.709-9.433,20.357-4.312s.454,15.414-7.11,22.911S5.845,38.08,2.2,32.959s-.454-15.416,7.11-22.911" transform="translate(-0.689 -2.873)" fill="#636363" fill-rule="evenodd"/>
      <path id="Path_6" data-name="Path 6" d="M13.387,6.041a23.158,23.158,0,0,0-2.5,2.14C4.26,14.707,1.505,23.683,4.77,28.17c3.365,4.486,11.523,2.855,18.254-3.775a25.878,25.878,0,0,0,7.087-11.472,10.634,10.634,0,0,0-1.378-7.189c-2.906-3.977-9.127-3.671-15.347.306" transform="translate(0.239 -2.863)" fill="#444" fill-rule="evenodd"/>
      <path id="Path_7" data-name="Path 7" d="M16.376,31.7c-3.541,2.66-7.2,3.977-10.768,3.427,1.5.078,2.707-1.585,3.7-3.818A37.4,37.4,0,0,0,11.4,24.918c.7-3.142.757-5.387.4-5.869-.606-.8-1.983-.594-3.541.3-.744.412-1.736.138-.565-1.281s5.9-4.878,7.592-5.416c1.861-.538,3.983.193,3.266,2.232-.51,1.488-7.028,18.59-2.177,16.815m5.332-26.53c.884.881.345,2.811-1.158,4.327s-3.486,2.038-4.341,1.171c-.909-.869-.371-2.825,1.144-4.355C18.884,4.787,20.854,4.318,21.708,5.172Z" transform="translate(0.998 -2.229)" fill="#fff" fill-rule="evenodd"/>
    </g>
    <path id="Path_8" data-name="Path 8" d="M66.239,20.693H71.89c.749-3.716-1.652-5.628-7.189-5.628-6.407,0-10.763,3.137-12.224,8.587C51.154,28.59,53.774,31.6,59.8,31.6c6.1,0,9.7-1.895,11.234-6.143H65.365A4.369,4.369,0,0,1,61.087,28.3c-2.737,0-3.807-1.736-2.966-4.872.877-3.27,2.939-5.072,5.7-5.072,1.734,0,2.549.779,2.421,2.335" transform="translate(17.639 4.18)" fill="#636363" fill-rule="evenodd"/>
    <path id="Path_9" data-name="Path 9" d="M81.461,28.946l1.292-4.819h3.7c2.847,0,4.11.506,3.588,2.456-.479,1.79-1.873,2.363-4.445,2.363H81.461M84.5,17.586h3.513c2.639,0,3.862.321,3.419,1.974s-1.861,2.065-4.592,2.065h-3.42Zm-7.308,14h8.469c2.41,0,4.2-.184,5.923-1.376a5.851,5.851,0,0,0,2.349-3.282c.61-2.272-.431-3.787-3.017-4.155,2.441-.458,3.98-1.743,4.5-3.694a2.734,2.734,0,0,0-1.014-3.328c-.9-.6-2.363-.689-4.36-.689H81.625Z" transform="translate(26.228 4.179)" fill="#636363" fill-rule="evenodd"/>
    <path id="Path_10" data-name="Path 10" d="M100.122,25.054l-.055.208a4.435,4.435,0,0,1-4.4,3.42c-1.539,0-2.182-.6-1.887-1.7.406-1.516,1.734-1.93,4.19-1.93h2.157M98.81,30.38h3.4a18.694,18.694,0,0,1,.528-2.57l1.237-4.614c.818-3.052-.692-4.613-4.525-4.613-3.694,0-6.1,1.285-6.843,3.443h3.259c.427-1.078,1.366-1.583,2.926-1.583,1.744,0,2.362.78,1.914,2.455l-.056.207h-1.79c-5.05,0-7.774.917-8.555,3.834-.6,2.249.816,3.721,3.823,3.721A7.355,7.355,0,0,0,99.145,28.8Z" transform="translate(30.674 5.386)" fill="#636363" fill-rule="evenodd"/>
    <path id="Path_11" data-name="Path 11" d="M101.311,30.374h3.42l1.579-5.9a4.877,4.877,0,0,1,4.575-3.627c2,0,2.694,1.171,2.067,3.513l-1.611,6.013h3.35l1.895-7.07c.8-2.982-.714-4.705-4.042-4.705a7.032,7.032,0,0,0-5.389,2.295l.41-2.042H104.19q-.522,2.719-.7,3.375l-2.181,8.147" transform="translate(34.495 5.392)" fill="#636363" fill-rule="evenodd"/>
    <path id="Path_12" data-name="Path 12" d="M113.522,31.587h3.329l1.666-6.22L123,31.587h4.568L122.518,25l6.854-4.935h-4.293L118.695,24.7l2.584-9.64h-3.329l-4.427,16.526" transform="translate(38.681 4.178)" fill="#636363" fill-rule="evenodd"/>
  </g>
</svg>
