<?xml version="1.0" encoding="utf-8"?>
<!-- Generator: Adobe Illustrator 15.1.0, SVG Export Plug-In . SVG Version: 6.00 Build 0)  -->
<!DOCTYPE svg PUBLIC "-//W3C//DTD SVG 1.1//EN" "http://www.w3.org/Graphics/SVG/1.1/DTD/svg11.dtd" [
	<!ENTITY ns_extend "http://ns.adobe.com/Extensibility/1.0/">
	<!ENTITY ns_ai "http://ns.adobe.com/AdobeIllustrator/10.0/">
	<!ENTITY ns_graphs "http://ns.adobe.com/Graphs/1.0/">
	<!ENTITY ns_vars "http://ns.adobe.com/Variables/1.0/">
	<!ENTITY ns_imrep "http://ns.adobe.com/ImageReplacement/1.0/">
	<!ENTITY ns_sfw "http://ns.adobe.com/SaveForWeb/1.0/">
	<!ENTITY ns_custom "http://ns.adobe.com/GenericCustomNamespace/1.0/">
	<!ENTITY ns_adobe_xpath "http://ns.adobe.com/XPath/1.0/">
]>
<svg version="1.1" id="Layer_1" xmlns:x="&ns_extend;" xmlns:i="&ns_ai;" xmlns:graph="&ns_graphs;"
	 xmlns="http://www.w3.org/2000/svg" xmlns:xlink="http://www.w3.org/1999/xlink" x="0px" y="0px" width="68.5px" height="50px"
	 viewBox="31.75 0 68.5 50" enable-background="new 31.75 0 68.5 50" xml:space="preserve">
<metadata>
	<sfw  xmlns="&ns_sfw;">
		<slices></slices>
		<sliceSourceBounds  y="-3.499" x="20.331" height="47.559" width="63.864" bottomLeftOrigin="true"></sliceSourceBounds>
	</sfw>
</metadata>
<path fill="#636565" d="M87.325,1.505c0.668-0.083,1.346-0.07,2.021-0.048c2.266,0.008,4.527-0.007,6.793,0
	c0.516,0.103,1.052,0.351,1.292,0.836c0.296,0.407,0.289,0.914,0.234,1.388c-0.104,0.315-0.277,0.618-0.537,0.837
	c-0.282,0.323-0.686,0.565-1.127,0.55c-2.715,0-5.442-0.008-8.167,0c-0.475,0.006-0.982-0.151-1.312-0.509
	c-0.205-0.227-0.397-0.481-0.487-0.783c-0.055-0.535-0.075-1.133,0.261-1.585C86.519,1.813,86.902,1.581,87.325,1.505"/>
<path fill="#636565" d="M60.067,7.395c8.113,0.007,16.222,0,24.334,0.007c0.18,0,0.358,0.041,0.529,0.062
	c-0.006,1.208,0,2.409,0,3.617c-2.39,0.048-4.776-0.014-7.167,0.027c-0.426,0.075-0.788,0.372-1.063,0.693
	c-0.256,0.296-0.151,0.701-0.178,1.052v20.455c0.013,0.461-0.049,0.914-0.035,1.372c-0.008,0.303,0.048,0.612-0.07,0.901
	c-0.103,0.287-0.17,0.61-0.392,0.837c-0.203,0.227-0.431,0.432-0.692,0.604c-0.583,0.384-1.131,0.837-1.75,1.174
	c-0.445,0.323-0.96,0.542-1.394,0.886c-0.344,0.273-0.761,0.42-1.099,0.687c-0.384,0.302-0.845,0.467-1.222,0.776
	c-0.443,0.343-0.96,0.589-1.405,0.933c-0.323,0.179-0.632,0.397-0.983,0.508c-0.391,0.021-0.852,0.083-1.166-0.199
	c-0.35-0.309-0.673-0.713-0.68-1.194V13.195c0.007-0.507,0.027-1.057-0.282-1.489c-0.35-0.426-0.933-0.631-1.477-0.612
	c-1.167,0.008-2.333,0-3.506,0c-0.33,0.014-0.702,0.083-0.927,0.351c-0.35,0.391-0.391,0.974-0.769,1.352
	c-0.398,0.433-1.016,0.598-1.593,0.571c-0.479,0.02-1.002-0.097-1.448,0.144c-0.376,0.206-0.63,0.625-0.637,1.051v22.453
	c0,0.165,0.007,0.337-0.05,0.494c-0.178,0.633-0.219,1.304-0.533,1.896c-0.406,0.959-1.107,1.804-2.014,2.326
	c-0.858,0.652-1.812,1.16-2.674,1.799c-0.36,0.268-0.765,0.467-1.115,0.733c-0.321,0.249-0.659,0.488-1.021,0.659
	c-0.248,0.117-0.462,0.296-0.673,0.459c-0.282,0.228-0.616,0.379-0.906,0.606c-0.362,0.288-0.776,0.493-1.146,0.774
	c-0.528,0.363-1.1,0.674-1.628,1.057c-1.13,0.721-2.457,1.101-3.795,1.175c-0.536,0.027-1.062-0.041-1.6-0.104
	c-0.521-0.061-1.002-0.286-1.497-0.458c-0.583-0.214-1.092-0.591-1.544-1.009c-0.261-0.254-0.433-0.585-0.632-0.888
	c-0.384-0.65-0.349-1.44-0.322-2.174c0.095-0.873,0.699-1.607,1.421-2.061c0.418-0.254,0.864-0.487,1.361-0.527
	c0.676-0.172,1.385-0.049,2.036,0.157c0.372,0.109,0.675,0.35,0.968,0.591c0.302,0.232,0.481,0.583,0.687,0.891
	c0.242,0.351,0.343,0.777,0.548,1.153c0.247,0.475,0.468,1.037,0.997,1.271c0.439,0.17,1.03,0.068,1.296-0.351
	c0.193-0.337,0.379-0.687,0.46-1.072c0.144-0.691,0.098-1.406,0.104-2.113c0-9.149,0-18.308,0.008-27.457
	c0.025-0.351-0.044-0.72-0.261-1.009c-0.215-0.268-0.551-0.412-0.881-0.46c-0.616-0.027-1.228,0.008-1.839-0.013
	c-0.625-0.082-1.235-0.48-1.468-1.084c-0.159-0.392-0.234-0.872-0.029-1.263c0.147-0.329,0.276-0.701,0.605-0.893
	c0.316-0.172,0.665-0.296,1.023-0.33h15.582c0.418-0.028,0.893-0.021,1.228-0.315c0.385-0.248,0.447-0.735,0.667-1.1
	C58.745,7.82,59.376,7.402,60.067,7.395"/>
<path fill="#636565" d="M86.435,7.628c-0.033-0.138,0.084-0.24,0.214-0.234c3.383,0.008,6.769,0,10.151,0.008
	c0.144,0,0.282,0.026,0.426,0.047c0.033,0.268,0.041,0.535,0.033,0.804v20.043c0,0.253,0.014,0.508-0.006,0.762
	c-0.09,0.659-0.474,1.277-1.043,1.619c-0.358,0.207-0.701,0.426-1.056,0.634c-0.448,0.239-0.831,0.575-1.272,0.829
	c-0.631,0.377-1.241,0.775-1.853,1.181c-0.281,0.199-0.563,0.398-0.87,0.568c-0.47,0.257-0.867,0.619-1.346,0.86
	c-0.468,0.227-0.813,0.651-1.307,0.815c-0.363,0.138-0.767,0.138-1.146,0.076c-0.592-0.22-0.934-0.864-0.927-1.477V7.628z"/>
</svg>
