<?xml version="1.0" encoding="utf-8"?>
<!-- Generator: Adobe Illustrator 15.1.0, SVG Export Plug-In . SVG Version: 6.00 Build 0)  -->
<!DOCTYPE svg PUBLIC "-//W3C//DTD SVG 1.1//EN" "http://www.w3.org/Graphics/SVG/1.1/DTD/svg11.dtd" [
	<!ENTITY ns_extend "http://ns.adobe.com/Extensibility/1.0/">
	<!ENTITY ns_ai "http://ns.adobe.com/AdobeIllustrator/10.0/">
	<!ENTITY ns_graphs "http://ns.adobe.com/Graphs/1.0/">
	<!ENTITY ns_vars "http://ns.adobe.com/Variables/1.0/">
	<!ENTITY ns_imrep "http://ns.adobe.com/ImageReplacement/1.0/">
	<!ENTITY ns_sfw "http://ns.adobe.com/SaveForWeb/1.0/">
	<!ENTITY ns_custom "http://ns.adobe.com/GenericCustomNamespace/1.0/">
	<!ENTITY ns_adobe_xpath "http://ns.adobe.com/XPath/1.0/">
]>
<svg version="1.1" id="Layer_1" xmlns:x="&ns_extend;" xmlns:i="&ns_ai;" xmlns:graph="&ns_graphs;"
	 xmlns="http://www.w3.org/2000/svg" xmlns:xlink="http://www.w3.org/1999/xlink" x="0px" y="0px" width="127.25px" height="29.5px"
	 viewBox="0 0 127.25 29.5" enable-background="new 0 0 127.25 29.5" xml:space="preserve">
<metadata>
	<sfw  xmlns="&ns_sfw;">
		<slices></slices>
		<sliceSourceBounds  width="123.415" height="26.864" x="1.195" y="-28.288" bottomLeftOrigin="true"></sliceSourceBounds>
	</sfw>
</metadata>
<path fill="#636666" d="M72.083,13.479c-1.096-0.008-2.42-0.702-2.44-3.901c-0.016-2.236,0.582-4.164,2.435-4.164
	c1.389,0,2.212,1.358,2.229,2.896c0.714,0.005,4.944-0.008,4.944-0.008c-0.012-4.896-3.553-6.728-7.23-6.871
	c-4.269-0.17-7.626,3.191-7.606,8.093c0.015,5.118,3.283,8.005,7.708,8.018c3.808,0.009,7.117-2.326,7.113-7.017L74.308,10.5
	C74.294,12.124,73.47,13.489,72.083,13.479"/>
<path fill="#636666" d="M43.147,1.846h-5.382l-4.801,12.955c-0.572-0.877-4.202-6.473-4.202-6.473l3.878-6.482h-5.959l-2.25,4.93
	v-4.93h-5.592v15.301h5.537v-6.27l3.834,6.27h9.499l0.659-2.183h4.179l0.665,2.183h5.611L43.147,1.846z M39.3,11.917l1.155-4.272
	l1.164,4.273L39.3,11.917z"/>
<path fill="#636666" d="M15.107,17.2H1.195V1.792h13.912V17.2z M1.688,16.707h12.927V2.285H1.688V16.707z"/>
<rect x="1.199" y="20.898" fill="#636666" width="123.287" height="7.39"/>
<polygon fill="#636666" points="80.351,17.146 85.677,17.146 85.677,11.417 88.755,11.417 88.755,17.146 94.072,17.146 
	94.072,1.846 88.751,1.846 88.751,7.552 85.677,7.552 85.677,1.846 80.351,1.846 "/>
<polyline fill="#636666" points="108.849,1.795 108.848,5.479 101.35,5.479 101.35,7.553 107.47,7.553 107.467,11.417 
	101.35,11.417 101.35,13.318 108.848,13.318 108.849,17.147 95.872,17.146 95.869,1.795 "/>
<path fill="#636666" d="M63.475,15.218c0,0,0.024-0.782-0.015-2.138c-0.081-2.715-2.289-2.917-2.289-2.917
	c0.572-0.123,2.614-1.093,2.492-3.64c-0.241-5.015-5.485-4.676-5.485-4.676h-8.432v15.301l5.331,0.004l0.002-5.339h1.466
	c1.331,0,1.415,1.437,1.415,1.437s0.128,1.482,0.138,2.359c0.012,1.267,0.363,1.539,0.363,1.539s5.5-0.002,5.5,0
	C63.541,16.754,63.475,15.218,63.475,15.218 M57.317,8.268h-2.24V5.48h2.238c0,0,1.174,0.119,1.174,1.466
	C58.489,8.294,57.372,8.268,57.317,8.268"/>
<path fill="#636666" d="M10.717,7.79l1.409-2.308H9.825l1.245-2.336H5.178l1.251,2.336H4.121L5.528,7.79h-2.45l5.056,8.301
	L13.17,7.79H10.717z M5.701,3.423h4.851L8.157,6.406L5.701,3.423z M6.576,5.754l1.558,2.91l1.545-2.91h1.899L8.122,9.643
	L4.674,5.754H6.576z M3.638,8.076H5.7l2.418,3.971l2.426-3.971h2.082l-4.48,5.2L3.638,8.076z"/>
<path fill="#636666" d="M124.12,15.218c0,0,0.026-0.782-0.014-2.138c-0.083-2.714-2.289-2.917-2.289-2.917
	c0.571-0.122,2.613-1.093,2.492-3.64c-0.24-5.015-5.484-4.676-5.484-4.676h-8.433v15.301l5.331,0.004l0.002-5.339h1.466
	c1.329,0,1.417,1.437,1.417,1.437s0.125,1.483,0.135,2.359c0.013,1.267,0.365,1.539,0.365,1.539s5.501-0.002,5.501,0
	C124.187,16.754,124.12,15.218,124.12,15.218 M117.964,8.268h-2.24V5.48h2.239c0,0,1.17,0.119,1.17,1.466
	C119.133,8.294,118.018,8.268,117.964,8.268"/>
</svg>
