<?xml version="1.0" encoding="utf-8"?>
<!-- Generator: Adobe Illustrator 23.0.4, SVG Export Plug-In . SVG Version: 6.00 Build 0)  -->
<svg version="1.1" id="Layer_1" xmlns="http://www.w3.org/2000/svg" xmlns:xlink="http://www.w3.org/1999/xlink" x="0px" y="0px"
	 viewBox="0 0 125.388 29.742" enable-background="new 0 0 125.388 29.742" xml:space="preserve">
<path fill="#636363" d="M83.676,0.481c5.342,0,10.684,0,16.026,0c0.002,0.031,0.006,0.061,0.006,0.092
	c0.001,7.362,0.001,14.724,0,22.087c0,0.088-0.016,0.176-0.026,0.282c-0.151,0-0.273,0-0.396,0c-1.227,0-2.454,0.009-3.681-0.007
	c-0.269-0.003-0.37,0.085-0.432,0.339c-0.392,1.61-0.803,3.214-1.196,4.824c-0.051,0.21-0.14,0.304-0.354,0.349
	c-1.877,0.4-3.769,0.692-5.687,0.782c-1.412,0.066-2.822,0.055-4.21-0.287c-2.502-0.616-3.871-2.125-4.204-4.68
	c-0.055-0.424-0.05-0.857-0.074-1.32c-0.65,0-1.287,0.014-1.923-0.007c-0.26-0.009-0.357,0.077-0.407,0.325
	c-0.242,1.2-0.501,2.398-0.756,3.596c-0.147,0.69-0.299,1.38-0.445,2.055c-1.309,0-2.58,0-3.874,0
	c0.431-1.992,0.856-3.958,1.291-5.969c-0.769,0-1.479,0.01-2.188-0.006c-0.245-0.005-0.388,0.071-0.521,0.281
	c-1.157,1.829-2.328,3.648-3.488,5.475c-0.111,0.175-0.229,0.25-0.443,0.247c-0.794-0.014-1.588-0.006-2.382-0.006
	c-0.202,0-0.405,0-0.638,0c0-0.165,0.001-0.287,0-0.41c-0.013-1.753-0.032-3.506-0.035-5.259c0-0.258-0.075-0.342-0.332-0.329
	c-0.391,0.02-0.784,0.019-1.175,0c-0.238-0.012-0.341,0.067-0.405,0.301c-0.349,1.281-0.715,2.557-1.076,3.834
	c-0.175,0.62-0.352,1.24-0.525,1.849c-1.325,0-2.611,0-3.935,0c0.578-1.991,1.15-3.962,1.728-5.956
	c-0.135-0.01-0.216-0.022-0.296-0.022c-3.031,0.006-6.062,0.015-9.094,0.014c-0.225,0-0.3,0.093-0.357,0.285
	c-0.353,1.194-0.714,2.386-1.073,3.578c-0.213,0.705-0.427,1.41-0.635,2.099c-1.312,0-2.585,0-3.897,0
	c0.606-1.999,1.203-3.967,1.807-5.957c-2.228,0-4.388,0-6.608,0c0.969,2.005,1.919,3.972,2.889,5.978c-0.145,0-0.236,0-0.328,0
	c-1.227,0-2.454-0.009-3.681,0.007c-0.25,0.003-0.36-0.089-0.463-0.298c-0.893-1.809-1.802-3.611-2.691-5.422
	c-0.116-0.236-0.26-0.296-0.503-0.29c-0.251,0.006-0.236,0.197-0.28,0.339c-0.53,1.743-1.053,3.487-1.579,5.231
	c-0.043,0.144-0.095,0.286-0.137,0.413c-1.2,0-2.368,0-3.553,0c0.028-0.112,0.047-0.202,0.074-0.289
	c1.224-4.038,2.445-8.076,3.675-12.112c0.202-0.662,0.372-1.315,0.341-2.023c-0.041-0.937-0.01-1.876-0.01-2.815
	c-0.002-3.733-0.004-7.465-0.006-11.198c5.342,0,10.684,0,16.026,0c0,4.226,0,8.451,0.001,12.677c0,0.093-0.016,0.19,0.008,0.277
	c0.017,0.062,0.087,0.155,0.136,0.156c0.397,0.013,0.795,0.007,1.2,0.007c0.01-0.104,0.021-0.164,0.021-0.224
	c-0.001-4.298-0.003-8.595-0.005-12.893c5.342,0,10.684,0,16.026,0c0,4.349,0,8.698,0,13.073c0.467,0,0.903,0,1.346,0
	c0.008-0.084,0.02-0.144,0.02-0.205C66.292,9.059,66.29,4.77,66.289,0.481c5.342,0,10.684,0,16.026,0c0,5.188,0,10.377,0,15.565
	c0.038,0.025,0.076,0.051,0.114,0.076c0.053-0.084,0.093-0.18,0.161-0.248c0.277-0.276,0.549-0.56,0.851-0.808
	c0.188-0.154,0.249-0.314,0.249-0.55c-0.006-4.153-0.004-8.306-0.005-12.459C83.684,1.532,83.679,1.006,83.676,0.481z M99.156,1.055
	c-4.983,0-9.945,0-14.916,0c0,4.464,0,8.904,0,13.381c0.332-0.18,0.632-0.354,0.941-0.509c1.481-0.739,3.066-1.079,4.704-1.17
	c1.362-0.076,2.722-0.044,4.047,0.343c0.899,0.263,1.709,0.675,2.271,1.459c0.687,0.96,0.676,2.022,0.403,3.108
	c-0.018,0.071-0.199,0.144-0.305,0.145c-1.279,0.01-2.557,0.007-3.836,0.006c-0.099,0-0.199-0.012-0.301-0.019
	c-0.007-0.081-0.015-0.132-0.016-0.182c-0.035-1.071-0.467-1.627-1.525-1.819c-1.372-0.249-2.627,0.083-3.711,0.957
	c-1.441,1.16-2.165,2.744-2.558,4.505c-0.081,0.364-0.109,0.74-0.163,1.117c0.11,0.019,0.15,0.031,0.189,0.031
	c1.103,0.002,2.207-0.001,3.31,0.006c0.177,0.001,0.227-0.086,0.262-0.232c0.156-0.64,0.332-1.275,0.473-1.918
	c0.052-0.236,0.144-0.317,0.388-0.316c2.289,0.009,4.579,0.005,6.868,0.006c0.097,0,0.194,0.015,0.315,0.025
	c-0.203,0.822-0.396,1.605-0.594,2.41c1.279,0,2.51,0,3.753,0C99.156,15.266,99.156,8.167,99.156,1.055z M44.39,13.601
	c0.033,0.043,0.065,0.086,0.098,0.129c-0.112,0.073-0.243,0.127-0.335,0.22c-2.336,2.36-4.666,4.725-7.004,7.084
	c-0.153,0.154-0.202,0.276-0.087,0.472c0.12,0.203,0.222,0.42,0.303,0.642c0.076,0.21,0.202,0.267,0.417,0.266
	c2.145-0.008,4.29-0.009,6.435,0.001c0.25,0.001,0.357-0.07,0.43-0.314c0.751-2.504,1.516-5.003,2.271-7.506
	c0.05-0.164,0.07-0.343,0.07-0.515c0.004-4.228,0.003-8.456,0.003-12.684c0-0.11,0-0.221,0-0.348c-4.989,0-9.942,0-14.906,0
	c0,4.187,0,8.356,0,12.549c1.186,0,2.349,0,3.556,0c-0.631,2.087-1.251,4.138-1.871,6.19c0.15-0.053,0.227-0.133,0.303-0.215
	c1.685-1.799,3.386-3.583,5.043-5.407c0.391-0.43,0.776-0.597,1.348-0.579C41.773,13.63,43.082,13.601,44.39,13.601z M66.859,1.045
	c0,7.137,0,14.242,0,21.334c0.303,0.103,0.453-0.03,0.599-0.258c1.752-2.756,3.515-5.505,5.269-8.26
	c0.117-0.184,0.234-0.269,0.463-0.268c1.887,0.011,3.773,0.007,5.66,0.008c0.098,0,0.196,0,0.336,0
	c-0.626,2.956-1.241,5.86-1.861,8.79c0.76,0,1.475,0,2.195,0c0.022-0.107,0.044-0.196,0.058-0.286
	c0.278-1.814,0.986-3.453,1.997-4.975c0.11-0.166,0.183-0.393,0.184-0.592c0.011-5.041,0.01-10.082,0.011-15.124
	c0-0.119,0-0.238,0-0.369C76.773,1.045,71.828,1.045,66.859,1.045z M49.465,1.048c0,4.18,0,8.332,0,12.514
	c0.13,0.006,0.251,0.015,0.372,0.016c1.268,0.001,2.537-0.015,3.805,0.008c0.616,0.011,1.238,0.053,1.844,0.156
	c1.377,0.235,2.222,1.076,2.352,2.408c0.062,0.636-0.008,1.298-0.107,1.934c-0.267,1.722-1.151,3.042-2.696,3.888
	c-0.247,0.136-0.508,0.247-0.763,0.369c0.105,0.058,0.201,0.067,0.298,0.067c1.062,0.001,2.124-0.01,3.186,0.008
	c0.273,0.005,0.366-0.096,0.437-0.341c0.779-2.72,1.574-5.437,2.352-8.157c0.076-0.266,0.191-0.352,0.468-0.347
	c0.99,0.018,1.98,0.007,2.97,0.007c0.121,0,0.243,0,0.378,0c0-4.197,0-8.356,0-12.53C59.393,1.048,54.447,1.048,49.465,1.048z
	 M84.166,22.955c0,0.13-0.004,0.231,0.001,0.331c0.075,1.505,1.052,2.603,2.536,2.885c1.178,0.224,2.338,0.063,3.497-0.132
	c0.085-0.014,0.191-0.144,0.215-0.239c0.23-0.875,0.445-1.754,0.662-2.632c0.016-0.064,0.01-0.132,0.015-0.213
	C88.784,22.955,86.499,22.955,84.166,22.955z M49.132,20.406c0.988-0.072,1.894-0.093,2.785-0.216
	c0.877-0.12,1.511-0.639,1.835-1.475c0.177-0.458,0.335-0.931,0.43-1.411c0.148-0.745-0.182-1.162-0.999-1.224
	c-0.871-0.066-1.749-0.05-2.623-0.082c-0.209-0.008-0.278,0.074-0.327,0.267c-0.23,0.907-0.477,1.81-0.718,2.714
	C49.399,19.413,49.282,19.848,49.132,20.406z M74.548,17.288c-0.029-0.009-0.059-0.018-0.088-0.027
	c-1.086,1.698-2.171,3.395-3.292,5.148c0.759,0,1.437,0.007,2.114-0.011c0.07-0.002,0.178-0.145,0.199-0.238
	c0.253-1.112,0.494-2.227,0.737-3.342C74.329,18.308,74.438,17.798,74.548,17.288z M63.581,22.392c0-1.799,0-3.578,0-5.358
	c-0.029-0.003-0.057-0.007-0.086-0.01c-0.504,1.78-1.008,3.559-1.52,5.368C62.55,22.392,63.069,22.392,63.581,22.392z"/>
</svg>
