<svg xmlns="http://www.w3.org/2000/svg" width="105.684" height="48.309" viewBox="0 0 105.684 48.309">
  <g id="mahindra" transform="translate(-35.5 -2.64)">
    <g id="_x23_db3f28ff" transform="translate(58.172 2.64)">
      <path id="Path_1" data-name="Path 1" d="M67.066,3.677a60.23,60.23,0,0,1,14.2-.957A65.665,65.665,0,0,1,92.837,4.164a27.313,27.313,0,0,1,11.21,5.651,8.756,8.756,0,0,1,2.6,3.426,7.685,7.685,0,0,1-1.252,7.667,16.179,16.179,0,0,1-4.546,3.894,39.2,39.2,0,0,1-10.261,3.562,68.572,68.572,0,0,1-17.176,1.718,12.53,12.53,0,0,1,1.551-2.9c1.573-2.614,3.364-5.095,5-7.667,3.315-4.824,7.1-9.29,10.654-13.94a60.318,60.318,0,0,0-7.711,6.977c-2.124,2.29-4.392,4.455-6.338,6.907-2.635,3.416-5.27,6.829-7.786,10.33a38.285,38.285,0,0,1-6.369-1.054,39.177,39.177,0,0,1,5.422-6.279c1.63-1.675,3.37-3.245,5.052-4.869A143,143,0,0,1,85.123,8.153c1.223-.878,2.534-1.64,3.673-2.625a111.875,111.875,0,0,0-10.054,5.263,76.809,76.809,0,0,0-12.3,8.749c-3,2.408-5.8,5.052-8.55,7.73-.366.382-.915.069-1.337-.024a17.49,17.49,0,0,1-8.333-6.138,6.884,6.884,0,0,1-.654-6.613,15.835,15.835,0,0,1,7.2-6.93,49.44,49.44,0,0,1,12.3-3.886m4.577.615a65.176,65.176,0,0,0-12.882,3.1c-2.9,1.083-5.735,2.979-6.995,5.912a5,5,0,0,0,.289,4.568A3.162,3.162,0,0,0,55.1,19.8a14.041,14.041,0,0,0,3.9-1.646c2.055-1.209,4.243-2.165,6.355-3.27A225.693,225.693,0,0,1,86.143,5.591a7.1,7.1,0,0,0,2.095-.921A75.075,75.075,0,0,0,71.643,4.3M85.991,15.945c-1.018,2.083-2.228,4.068-3.132,6.2-.274.849-.723,1.872-.148,2.695a2.688,2.688,0,0,0,2.173.323,40.794,40.794,0,0,0,8.087-2.222,20.61,20.61,0,0,0,7.062-4.392,6.963,6.963,0,0,0,2.079-4.316,5.9,5.9,0,0,0-2.547-4.76,21.614,21.614,0,0,0-7.73-3.825,117.4,117.4,0,0,0-5.845,10.294Z" transform="translate(-47.008 -2.64)" fill="#636363"/>
    </g>
    <g id="_x23_6f6f71ff" transform="translate(35.5 36.923)">
      <path id="Path_2" data-name="Path 2" d="M35.5,22.616c.148-1.037.563-2.536,1.874-2.488,1.213.041,2.591-.3,3.689.331.358.776.1,1.713.235,2.547.677-.878.774-2.272,1.851-2.774a13.885,13.885,0,0,1,4.128.006c1.26.313,1.629,1.673,1.968,2.75.431-.674.719-1.423,1.1-2.124.439-.864,1.573-.712,2.382-.752,1.126.1,2.485-.189,3.372.687.947.833.979,2.2.99,3.37-.041,2.9.041,5.808-.041,8.712,0,1.333-1.646.858-2.506,1.006-.791-.088-2.152.3-2.414-.74-.252-2.744.088-5.521-.154-8.265-.274-1.209-1.853-.78-2.763-.933-.033,2.785.011,5.572-.016,8.36-.022.487-.016,1.116-.49,1.405a9.055,9.055,0,0,1-4.041.069,1.417,1.417,0,0,1-.49-1.185c-.061-2.244.079-4.495-.051-6.737-.088-.6-.041-1.405-.666-1.743a10.043,10.043,0,0,0-2.148-.165c-.214,2.972-.006,5.957-.1,8.934-.022.351-.033.914-.541.87a18.17,18.17,0,0,1-4.085-.073c-.411-3.25-.088-6.55-.132-9.818C36.45,23.275,35.841,23,35.5,22.616Z" transform="translate(-35.5 -20.07)" fill="#636363"/>
      <path id="Path_3" data-name="Path 3" d="M53.794,22.627c.4-.86.565-2.217,1.694-2.4a11.3,11.3,0,0,1,4.06.124,44.817,44.817,0,0,1,.2,5.587c.415-.638.654-1.475,1.337-1.884a11.6,11.6,0,0,1,3.355-.126,2.108,2.108,0,0,1,1.851,2.284c-.022,2.5.079,5.007-.079,7.5a24.281,24.281,0,0,1-4.022-.011c-.13-2.077.106-4.164-.126-6.227-.088-.909-1.348-.972-1.971-.563a2.635,2.635,0,0,0-.425,1.7c-.03,1.7.079,3.4-.069,5.088a11.553,11.553,0,0,1-4.366.024c-.48-.3-.335-.98-.392-1.459.047-2.723.154-5.44.075-8.16C55.015,23.366,54.267,23.03,53.794,22.627Z" transform="translate(-17.776 -20.036)" fill="#636363"/>
      <path id="Path_4" data-name="Path 4" d="M61.516,20.319a11.658,11.658,0,0,1,4.128-.035,6.162,6.162,0,0,1-.03,2.587,14.832,14.832,0,0,1-4.186-.018,5.139,5.139,0,0,1,.087-2.534Z" transform="translate(-10.499 -20.024)" fill="#636363"/>
      <path id="Path_5" data-name="Path 5" d="M77.621,22.577c.319-.9.615-2.25,1.757-2.352a13.852,13.852,0,0,1,3.5.067c.951.313.632,1.526.7,2.29-.138,3.7-.075,7.4-.114,11.11-1.565.016-3.132.057-4.7.008-.088-.8-.112-1.594-.12-2.394a11.742,11.742,0,0,1-.951,1.949c-.439.636-1.3.439-1.955.527-1.172-.024-2.614.2-3.442-.837-1.343-1.52-.8-3.7-.917-5.546a3.088,3.088,0,0,1,1.986-3.274c1.757-.545,3.634-.088,5.44-.313a10.993,10.993,0,0,1-1.191-1.23m.154,3.839c-.609.227-1.516.271-1.7,1.029a3.28,3.28,0,0,0,.249,2.7c.541.74,1.565.376,2.343.463.01-2.2.035-4.392-.008-6.588a19.77,19.77,0,0,0-.874,2.391Z" transform="translate(-0.75 -19.995)" fill="#636363"/>
      <path id="Path_6" data-name="Path 6" d="M47.465,24.59c.246-.921.5-2.214,1.526-2.53,2.495-.181,5,.03,7.5.033a2.114,2.114,0,0,1,2.29,2.02c.027,2.539.018,5.095-.1,7.625-1.223.506-2.687.17-4,.144a21.906,21.906,0,0,1-.126-3.786,2.466,2.466,0,0,0-1.629-.315.846.846,0,0,0-.569,1.311,7.343,7.343,0,0,0,2.108.439,5.58,5.58,0,0,1-1.412,2.308,9.19,9.19,0,0,1-4.238-.072c-2.179-1.4-1.6-5.637,1.071-6.1,1.488-.136,2.994.016,4.487-.126.018-.2.051-.6.069-.791C52.117,24.68,49.788,24.759,47.465,24.59Z" transform="translate(-23.907 -18.214)" fill="#636363"/>
      <path id="Path_7" data-name="Path 7" d="M61.879,22.126a8.331,8.331,0,0,1,3.5.149c1.318.7.8,2.4.9,3.611-.155,2.006.336,4.106-.292,6.044a23.155,23.155,0,0,1-3.526-.081c-.433-.171-.222-.78-.317-1.142-.059-1.7.13-3.41-.088-5.095-.063-.582-.687-.774-1.1-1.069C61.139,23.717,61.142,22.686,61.879,22.126Z" transform="translate(-10.838 -18.184)" fill="#636363"/>
      <path id="Path_8" data-name="Path 8" d="M64.941,22.38c.3-.465.917-.3,1.384-.358a5.23,5.23,0,0,1,2.6.36c.668.427.655,1.3.842,1.986a6.46,6.46,0,0,1,1.38-2.091,9.93,9.93,0,0,1,3.6-.181c1.177-.035,1.724,1.282,1.715,2.284q.059,3.736-.011,7.473c-1.345.046-2.69.041-4.034.01-.193-2.067.054-4.15-.13-6.214-.376-1.11-1.815-.758-2.711-.791-.055,1.947,0,3.894-.01,5.84-.088.365.114.974-.323,1.15-1.054.081-2.114.046-3.167.027-.545.1-.6-.512-.632-.888-.112-1.789.092-3.593-.079-5.381-.04-.577-.679-.756-1.069-1.054a5.358,5.358,0,0,1,.639-2.172Z" transform="translate(-7.593 -18.17)" fill="#636363"/>
      <path id="Path_9" data-name="Path 9" d="M83.482,24.671c.176-.99.419-2.557,1.708-2.573,2.363-.061,4.729-.051,7.091,0a2.635,2.635,0,0,1,2.477,1.736v8.338H90.787c-.552-1.331-.285-2.79-.4-4.186-.74-.165-1.656-.325-2.214.336-.365,1.305,1.372.928,2.038,1.486a4.275,4.275,0,0,1-1.483,2.363H85.217c-2.569-1.1-2.335-5.7.415-6.39,1.556-.222,3.138-.008,4.7-.176-.027-.211-.081-.634-.108-.849C87.978,24.758,85.724,24.882,83.482,24.671Z" transform="translate(10.926 -18.148)" fill="#636363"/>
      <path id="Path_10" data-name="Path 10" d="M78.068,24.073c.112-.671.235-1.5.878-1.87a8.89,8.89,0,0,1,3.211.008c.746.12.986.933,1.356,1.477.4-.545.666-1.366,1.419-1.493a12.209,12.209,0,0,1,3.367.055c-.307.842-.5,1.924-1.345,2.4a14.787,14.787,0,0,1-3.565.067c-.112,1.886-.12,3.777-.1,5.668a4.128,4.128,0,0,1-.406,1.788H81.759a21.892,21.892,0,0,1-2.488-.3c-.285-2.152-.069-4.323-.211-6.483C78.71,24.979,77.95,24.713,78.068,24.073Z" transform="translate(5.727 -18.142)" fill="#636363"/>
    </g>
  </g>
</svg>
