<svg xmlns="http://www.w3.org/2000/svg" width="120.318" height="54.963" viewBox="0 0 120.318 54.963">
  <g id="mahindra" transform="translate(-35.498 -2.67)">
    <g id="_x23_db3f28ff" transform="translate(61.323 2.67)">
      <path id="Path_1" data-name="Path 1" d="M69.843,3.82A68.569,68.569,0,0,1,86.012,2.73a74.756,74.756,0,0,1,13.17,1.645,31.094,31.094,0,0,1,12.762,6.433,9.968,9.968,0,0,1,2.961,3.9,8.749,8.749,0,0,1-1.425,8.728,18.419,18.419,0,0,1-5.175,4.433,44.626,44.626,0,0,1-11.682,4.055A78.066,78.066,0,0,1,77.069,33.88a14.265,14.265,0,0,1,1.766-3.3c1.791-2.976,3.83-5.8,5.691-8.728C88.3,16.36,92.612,11.276,96.655,5.982c-3.268,2.241-5.96,5.189-8.779,7.943-2.418,2.607-5,5.072-7.215,7.863-3,3.889-6,7.775-8.864,11.76a43.586,43.586,0,0,1-7.251-1.2c1.643-2.71,4.012-4.861,6.173-7.148,1.856-1.907,3.837-3.694,5.751-5.543A162.793,162.793,0,0,1,90.4,8.916c1.392-1,2.885-1.867,4.182-2.988A127.364,127.364,0,0,0,83.136,11.92,87.444,87.444,0,0,0,69.13,21.88c-3.416,2.741-6.6,5.751-9.734,8.8-.417.435-1.042.078-1.522-.027a19.912,19.912,0,0,1-9.487-6.988,7.837,7.837,0,0,1-.744-7.529c1.647-3.528,4.817-6.1,8.2-7.889a56.284,56.284,0,0,1,14-4.424m5.211.7A74.2,74.2,0,0,0,60.389,8.049c-3.3,1.233-6.529,3.391-7.963,6.731a5.689,5.689,0,0,0,.329,5.2,3.6,3.6,0,0,0,3.47,2.192,15.985,15.985,0,0,0,4.442-1.874c2.34-1.376,4.83-2.465,7.235-3.723A256.934,256.934,0,0,1,91.561,6a8.084,8.084,0,0,0,2.385-1.049,85.469,85.469,0,0,0-18.892-.424M91.388,17.787c-1.159,2.371-2.537,4.631-3.566,7.062-.312.966-.823,2.131-.168,3.068a3.06,3.06,0,0,0,2.474.368,46.442,46.442,0,0,0,9.207-2.53,23.463,23.463,0,0,0,8.04-5,7.927,7.927,0,0,0,2.367-4.913,6.717,6.717,0,0,0-2.9-5.419,24.606,24.606,0,0,0-8.8-4.355A133.664,133.664,0,0,0,91.388,17.787Z" transform="translate(-47.02 -2.67)" fill="#636363"/>
    </g>
    <g id="_x23_6f6f71ff" transform="translate(35.498 41.669)">
      <path id="Path_2" data-name="Path 2" d="M35.5,22.968c.168-1.181.641-2.887,2.134-2.833,1.381.047,2.95-.345,4.2.377.408.883.112,1.95.267,2.9.771-1,.881-2.586,2.107-3.158a15.807,15.807,0,0,1,4.7.007c1.434.356,1.854,1.905,2.241,3.131.491-.767.818-1.62,1.251-2.418.5-.984,1.791-.811,2.712-.856,1.282.112,2.829-.215,3.839.782,1.078.948,1.114,2.508,1.127,3.837-.047,3.306.047,6.612-.047,9.918,0,1.517-1.874.977-2.853,1.145-.9-.1-2.45.338-2.748-.843-.287-3.124.1-6.285-.175-9.409-.312-1.376-2.109-.888-3.145-1.062-.038,3.171.013,6.343-.018,9.517-.025.554-.018,1.271-.558,1.6a10.309,10.309,0,0,1-4.6.078,1.613,1.613,0,0,1-.558-1.349c-.069-2.555.09-5.117-.058-7.67-.1-.688-.047-1.6-.758-1.984a11.433,11.433,0,0,0-2.445-.188c-.244,3.384-.007,6.782-.117,10.171-.025.4-.038,1.04-.616.991a20.686,20.686,0,0,1-4.651-.083c-.468-3.7-.1-7.457-.15-11.177C36.581,23.719,35.888,23.4,35.5,22.968Z" transform="translate(-35.498 -20.07)" fill="#636363"/>
      <path id="Path_3" data-name="Path 3" d="M53.794,22.976c.459-.979.643-2.524,1.928-2.728a12.866,12.866,0,0,1,4.622.141,51.021,51.021,0,0,1,.233,6.361c.473-.726.744-1.679,1.522-2.145a13.208,13.208,0,0,1,3.819-.143,2.4,2.4,0,0,1,2.107,2.6c-.025,2.846.09,5.7-.09,8.544a27.643,27.643,0,0,1-4.579-.013c-.148-2.365.121-4.74-.143-7.089-.1-1.035-1.535-1.107-2.244-.641a3,3,0,0,0-.484,1.939c-.034,1.932.09,3.866-.078,5.792a13.153,13.153,0,0,1-4.971.027c-.547-.343-.381-1.116-.446-1.661.054-3.1.175-6.193.085-9.29C55.184,23.818,54.332,23.435,53.794,22.976Z" transform="translate(-12.787 -20.026)" fill="#636363"/>
      <path id="Path_4" data-name="Path 4" d="M61.544,20.347a13.272,13.272,0,0,1,4.7-.04,7.015,7.015,0,0,1-.034,2.945,16.885,16.885,0,0,1-4.765-.02A5.85,5.85,0,0,1,61.544,20.347Z" transform="translate(-3.462 -20.011)" fill="#636363"/>
      <path id="Path_5" data-name="Path 5" d="M78.488,22.914c.363-1.024.7-2.562,2-2.678a15.77,15.77,0,0,1,3.981.076c1.083.356.719,1.737.8,2.607-.157,4.214-.085,8.43-.13,12.648-1.782.018-3.566.065-5.348.009-.1-.908-.128-1.815-.137-2.725a13.367,13.367,0,0,1-1.083,2.219c-.5.724-1.479.5-2.226.6-1.334-.027-2.976.226-3.918-.953-1.529-1.73-.906-4.216-1.044-6.314a3.516,3.516,0,0,1,2.261-3.727c2-.621,4.137-.1,6.193-.356a12.516,12.516,0,0,1-1.356-1.4m.175,4.371c-.693.258-1.726.309-1.939,1.172A3.734,3.734,0,0,0,77,31.536c.616.843,1.782.428,2.667.527.011-2.5.04-5-.009-7.5A22.507,22.507,0,0,0,78.663,27.285Z" transform="translate(9.028 -19.974)" fill="#636363"/>
      <path id="Path_6" data-name="Path 6" d="M47.465,24.95c.28-1.049.565-2.521,1.737-2.88,2.84-.206,5.693.034,8.537.038a2.407,2.407,0,0,1,2.607,2.3c.031,2.891.02,5.8-.117,8.681-1.392.576-3.059.193-4.552.164a24.939,24.939,0,0,1-.143-4.31,2.808,2.808,0,0,0-1.854-.359.963.963,0,0,0-.648,1.493,8.36,8.36,0,0,0,2.4.5,6.353,6.353,0,0,1-1.607,2.627A10.462,10.462,0,0,1,49,33.122c-2.481-1.594-1.827-6.417,1.219-6.946,1.694-.155,3.409.018,5.108-.143.02-.226.058-.679.078-.9C52.761,25.053,50.11,25.143,47.465,24.95Z" transform="translate(-20.643 -17.691)" fill="#636363"/>
      <path id="Path_7" data-name="Path 7" d="M62.007,22.143a9.484,9.484,0,0,1,3.987.17c1.5.8.914,2.737,1.022,4.111-.177,2.284.383,4.675-.332,6.881a26.361,26.361,0,0,1-4.014-.092c-.493-.195-.253-.888-.361-1.3-.067-1.932.148-3.882-.1-5.8-.072-.663-.782-.881-1.251-1.217C61.164,23.954,61.167,22.78,62.007,22.143Z" transform="translate(-3.897 -17.654)" fill="#636363"/>
      <path id="Path_8" data-name="Path 8" d="M65.029,22.435c.343-.529,1.044-.338,1.576-.408a5.954,5.954,0,0,1,2.965.41c.76.486.746,1.479.959,2.261a7.354,7.354,0,0,1,1.571-2.38,11.305,11.305,0,0,1,4.1-.206c1.34-.04,1.963,1.459,1.952,2.6q.067,4.253-.013,8.508c-1.531.052-3.062.047-4.592.011-.22-2.353.061-4.725-.148-7.074-.428-1.264-2.066-.863-3.086-.9-.063,2.217,0,4.433-.011,6.648-.1.415.13,1.109-.368,1.309-1.2.092-2.407.052-3.606.031-.621.117-.681-.583-.719-1.011-.128-2.037.105-4.09-.09-6.126-.045-.657-.773-.861-1.217-1.2A6.1,6.1,0,0,1,65.029,22.435Z" transform="translate(0.26 -17.641)" fill="#636363"/>
      <path id="Path_9" data-name="Path 9" d="M83.49,25.033c.2-1.127.477-2.911,1.945-2.929,2.69-.069,5.384-.058,8.073,0a3,3,0,0,1,2.82,1.977v9.492H91.807c-.628-1.515-.325-3.176-.453-4.765-.843-.188-1.885-.37-2.521.383-.415,1.486,1.562,1.056,2.32,1.692a4.867,4.867,0,0,1-1.688,2.69h-4c-2.925-1.257-2.658-6.489.473-7.275,1.771-.253,3.573-.009,5.354-.2-.031-.24-.092-.722-.123-.966C88.609,25.132,86.043,25.273,83.49,25.033Z" transform="translate(23.99 -17.606)" fill="#636363"/>
      <path id="Path_10" data-name="Path 10" d="M78.07,24.352c.128-.764.267-1.71,1-2.129a10.121,10.121,0,0,1,3.656.009c.849.137,1.123,1.062,1.544,1.681.455-.621.758-1.555,1.616-1.7a13.9,13.9,0,0,1,3.833.063c-.35.959-.569,2.19-1.531,2.728a16.834,16.834,0,0,1-4.059.076c-.128,2.147-.137,4.3-.117,6.453a4.7,4.7,0,0,1-.462,2.035H82.272a24.923,24.923,0,0,1-2.833-.336c-.325-2.45-.078-4.922-.24-7.381C78.8,25.383,77.935,25.08,78.07,24.352Z" transform="translate(17.329 -17.599)" fill="#636363"/>
    </g>
  </g>
</svg>
