<?xml version="1.0" encoding="utf-8"?>
<!-- Generator: Adobe Illustrator 23.0.4, SVG Export Plug-In . SVG Version: 6.00 Build 0)  -->
<svg version="1.1" id="Layer_1" xmlns="http://www.w3.org/2000/svg" xmlns:xlink="http://www.w3.org/1999/xlink" x="0px" y="0px"
	 viewBox="0 0 125.388 29.742" enable-background="new 0 0 125.388 29.742" xml:space="preserve">
<g>
	<g>
		<g>
			<g>
				<defs>
					<path id="SVGID_1_" d="M32.79,26.292c-0.132,0-0.433,0.056-0.677,0.226c-0.113,0.075-0.188,0.188-0.169,0.339
						c0.019,0.169,0.151,0.226,0.32,0.226c0.226,0.019,0.508-0.038,0.715-0.188c0.113-0.075,0.207-0.226,0.188-0.357
						C33.128,26.368,32.978,26.292,32.79,26.292L32.79,26.292 M36.985,26.311c-0.169,0.113-0.282,0.301-0.245,0.433
						c0.038,0.188,0.207,0.263,0.433,0.263c0.282,0,0.64-0.113,0.847-0.263c0.151-0.113,0.263-0.263,0.207-0.433
						c-0.056-0.188-0.245-0.245-0.395-0.263c-0.019,0-0.019,0-0.038,0C37.587,26.048,37.249,26.142,36.985,26.311 M34.464,25.728
						c-0.132,0.113-0.188,0.282-0.151,0.395c0.056,0.169,0.207,0.188,0.339,0.188c0.282,0,0.922-0.188,1.223-0.489
						c0.094-0.094,0.151-0.245,0.113-0.357c-0.038-0.151-0.207-0.207-0.339-0.207C35.386,25.239,34.746,25.465,34.464,25.728
						 M28.933,25.352c-0.132,0.075-0.226,0.188-0.207,0.339c0.019,0.169,0.151,0.245,0.32,0.263c0.245,0.019,0.546-0.019,0.79-0.151
						c0.132-0.075,0.245-0.226,0.226-0.376c-0.019-0.188-0.188-0.263-0.376-0.263c0,0,0,0-0.019,0
						C29.497,25.145,29.196,25.201,28.933,25.352 M31.097,24.656c-0.151,0.132-0.226,0.301-0.188,0.433
						c0.056,0.188,0.207,0.226,0.376,0.226c0.301,0.019,1.035-0.151,1.392-0.489c0.113-0.094,0.188-0.263,0.151-0.395
						c-0.038-0.169-0.207-0.245-0.357-0.263c-0.019,0-0.019,0-0.038,0C32.112,24.185,31.416,24.411,31.097,24.656 M38.321,23.715
						c-0.32,0.038-0.997,0.395-1.261,0.715c-0.132,0.151-0.169,0.339-0.094,0.47c0.094,0.188,0.245,0.169,0.395,0.151
						c0.301-0.038,0.978-0.339,1.279-0.734c0.094-0.113,0.132-0.282,0.075-0.414c-0.056-0.132-0.207-0.188-0.339-0.188
						C38.359,23.715,38.34,23.715,38.321,23.715 M31.416,21.852c-0.151,0.151-0.226,0.32-0.169,0.47
						c0.075,0.207,0.245,0.226,0.395,0.226c0.32,0,1.072-0.226,1.43-0.583c0.113-0.113,0.188-0.282,0.132-0.433
						c-0.056-0.169-0.245-0.245-0.395-0.245C32.489,21.288,31.736,21.57,31.416,21.852 M39.205,13.612
						c-0.188,0.094-0.395,0.226-0.564,0.414c-0.169,0.169-0.32,0.376-0.376,0.583c-0.038,0.151-0.019,0.32,0.056,0.414
						c0.094,0.113,0.263,0.132,0.395,0.113c0.226-0.038,0.47-0.188,0.677-0.414c0.207-0.207,0.376-0.489,0.414-0.734
						c0.038-0.188-0.019-0.32-0.094-0.376c-0.056-0.056-0.132-0.075-0.207-0.075C39.431,13.537,39.318,13.556,39.205,13.612
						 M40.033,12.765c0,0.188,0.132,0.339,0.32,0.339c0.376,0,0.734-0.452,0.734-0.79c0-0.188-0.113-0.339-0.32-0.339
						C40.39,11.956,40.033,12.408,40.033,12.765 M32.376,12.389c0,0.226,0.207,0.32,0.414,0.32c0.489,0,1.505-0.64,1.505-1.166
						c0-0.245-0.226-0.32-0.433-0.32C33.392,11.204,32.376,11.862,32.376,12.389 M35.179,10.338L35.179,10.338
						c-0.226,0.094-0.508,0.339-0.508,0.583c0,0.169,0.151,0.245,0.301,0.245c0.32,0,0.828-0.301,0.828-0.658
						c0-0.169-0.151-0.245-0.301-0.245C35.386,10.263,35.273,10.301,35.179,10.338 M38.829,9.774
						c-0.094,0.113-0.188,0.245-0.263,0.357c-0.075,0.132-0.113,0.245-0.113,0.357c-0.019,0.188,0.094,0.339,0.282,0.339
						c0.113,0,0.245-0.038,0.357-0.113c0.132-0.075,0.245-0.188,0.357-0.301c0.113-0.113,0.207-0.245,0.263-0.376
						c0.075-0.132,0.113-0.263,0.113-0.376c0-0.188-0.113-0.282-0.301-0.282C39.299,9.379,39.036,9.548,38.829,9.774 M39.751,8.664
						c0,0.151,0.094,0.282,0.245,0.282c0.339,0,0.677-0.508,0.677-0.828c0-0.151-0.094-0.282-0.245-0.282
						C40.089,7.836,39.751,8.363,39.751,8.664 M33.505,8.589c0,0.207,0.169,0.301,0.357,0.301c0.527,0.019,1.599-0.602,1.618-1.185
						c0-0.207-0.169-0.301-0.357-0.32h-0.019C34.577,7.422,33.524,8.024,33.505,8.589 M35.932,7.159
						c-0.019,0.188,0.151,0.282,0.32,0.301c0.433,0.038,1.336-0.357,1.373-0.847c0.019-0.188-0.151-0.282-0.32-0.301
						c-0.019,0-0.038,0-0.056,0C36.797,6.312,35.969,6.689,35.932,7.159 M38.321,6.068c-0.019,0.169,0.151,0.245,0.282,0.263
						c0.32,0.038,0.941-0.226,0.978-0.602c0.019-0.169-0.151-0.263-0.282-0.263c-0.019,0-0.038,0-0.056,0
						C38.904,5.485,38.359,5.729,38.321,6.068 M41.482,4.619c-0.019,0.019-0.038,0.056,0,0.094c2.973,3.311,1.75,8.127-0.395,10.611
						c-1.9,2.201-4.346,3.744-6.566,4.948c-0.169,0.094-0.414,0.207-0.546,0.339c-0.207,0.207-0.263,0.395-0.169,0.602
						c0.094,0.188,0.263,0.263,0.564,0.226c0.169-0.019,0.546-0.151,0.79-0.263c2.069-1.054,4.233-2.521,5.907-4.384
						c2.051-2.295,3.349-5.193,2.822-8.692c0.038,0.056,0.075,0.094,0.094,0.132c1.11,2.766,0.188,6.265-2.295,9.35
						c-1.75,2.182-4.271,4.158-7.394,5.55c-0.245,0.113-0.602,0.282-0.734,0.564c-0.056,0.132-0.056,0.301,0,0.414
						c0.056,0.094,0.151,0.169,0.282,0.188c0.395,0.019,0.79-0.188,1.129-0.357c4.986-2.465,10.423-6.961,10.122-13.621
						c0.019,0.075,0.056,0.132,0.075,0.188c0.546,2.728-0.075,5.155-1.223,7.187c-0.978,1.731-2.333,3.198-3.687,4.308
						c-0.734,0.602-1.016,0.941-0.847,1.261c0.169,0.301,0.64,0.151,0.922,0c0.546-0.32,1.035-0.809,1.411-1.185
						c2.239-2.258,3.894-4.685,4.271-8.748c0.019,0.188,0.056,0.414,0.056,0.546c0.075,2.069-0.32,3.932-1.091,5.55
						c-1.148,2.446-3.085,4.384-5.381,5.606c-0.47,0.263-0.658,0.546-0.546,0.828c0.056,0.151,0.207,0.245,0.376,0.263
						c0.207,0.019,0.395-0.038,0.583-0.151c4.195-2.258,6.773-6.472,6.773-11.288c0-3.518-1.543-7.262-4.948-9.952
						c-0.094-0.075-0.207-0.151-0.301-0.169h-0.019C41.519,4.582,41.5,4.6,41.482,4.619 M31.586,3.942
						c-2.916,1.524-5.305,3.687-6.848,6.378c-1.279,2.239-1.975,4.816-1.863,7.676c0-0.019-0.038-0.113-0.056-0.188
						c-0.245-0.941-0.376-1.919-0.376-2.897c0-1.336,0.263-2.634,0.715-3.857c0.583-1.562,1.524-3.01,2.653-4.252
						c0.376-0.414,1.148-1.054,1.355-1.279c0.151-0.169,0.245-0.395,0.169-0.564c-0.075-0.132-0.188-0.169-0.339-0.169
						c-0.64,0-1.599,0.978-2.013,1.43c-2.145,2.314-3.386,5.343-3.386,8.504c0,3.706,1.58,7.62,5.193,10.291
						c0.151,0.113,0.433,0.282,0.658,0.376c0.038,0.019,0.094,0,0.113-0.038c0.019-0.019,0.019-0.075-0.019-0.113
						c-0.169-0.188-0.282-0.339-0.32-0.489c-0.038-0.132,0-0.32,0-0.395c0.301-1.411,1.712-2.371,3.179-3.405
						c0.922-0.64,4.873-2.784,6.66-4.233c0.583-0.47,0.828-0.734,0.847-0.997c0.019-0.132-0.038-0.263-0.113-0.339
						c-0.056-0.056-0.132-0.094-0.226-0.094c-0.301-0.038-0.64,0.075-1.054,0.395c-2.069,1.656-5.174,3.292-7.356,5.004
						c-1.279,0.997-2.239,2.032-2.483,3.142c-0.019-0.019-0.056-0.038-0.075-0.056c0.32-4.064,5.719-6.735,8.504-9.049
						c0.677-0.564,2.803-2.22,3.123-2.954c0.113-0.245,0.056-0.489-0.094-0.583c-0.113-0.075-0.263-0.113-0.414-0.075
						c-0.32,0.075-0.715,0.395-1.129,0.79c-3.443,3.255-6.303,4.703-8.259,6.792c-1.091,1.166-1.9,2.521-2.371,4.478
						c-0.019-0.019-0.056-0.056-0.075-0.075c0.169-2.973,2.088-5.889,4.365-7.921c0.809-0.715,1.336-1.148,1.674-1.449
						c0.188-0.188,0.339-0.452,0.188-0.715c-0.113-0.188-0.339-0.226-0.527-0.188c-0.339,0.038-0.564,0.226-0.79,0.414
						c-1.599,1.261-2.954,2.822-3.932,4.609c-0.771,1.411-1.336,2.935-1.58,4.553c-0.019-0.019-0.056-0.056-0.056-0.075
						c0.169-4.534,2.258-7.845,5.155-10.479c0.696-0.64,1.317-1.054,2.051-1.618c0.564-0.452,0.677-0.828,0.527-1.072
						c-0.132-0.226-0.395-0.226-0.696-0.132c-0.602,0.188-1.223,0.734-2.032,1.467c-1.825,1.637-3.292,3.368-4.271,5.456
						c-0.753,1.599-1.223,3.424-1.355,5.569c-0.019-0.019-0.056-0.075-0.056-0.094c-0.056-0.546-0.038-1.279,0-1.787
						c0.151-2.126,0.47-6.528,6.528-11.457c1.072-0.884,2.86-1.919,4.139-2.559c0.395-0.188,0.771-0.376,1.129-0.621
						c0.207-0.151,0.339-0.357,0.263-0.564c-0.075-0.226-0.263-0.263-0.452-0.263c-0.414,0-0.753,0.188-1.091,0.357
						c-2.803,1.392-6.02,3.462-8.297,6.585c-1.768,2.427-2.954,5.399-2.991,9.143c-0.019-0.056-0.019-0.056-0.056-0.113
						c-0.151-0.903-0.188-1.844-0.169-2.483c0.113-5.87,3.575-9.952,8.353-12.756c0.395-0.245,0.809-0.489,0.809-0.847
						c0-0.226-0.169-0.357-0.395-0.357S31.906,3.773,31.586,3.942 M28.688,3.566c-0.47,0.056-0.959,0.357-1.072,0.696
						c-0.019,0.075-0.038,0.188,0.019,0.301c0.056,0.094,0.151,0.113,0.245,0.113c0.376,0.038,0.978-0.263,1.166-0.621
						c0.056-0.094,0.094-0.226,0.019-0.339c-0.038-0.075-0.151-0.151-0.32-0.151C28.726,3.547,28.707,3.547,28.688,3.566
						 M38.114,3.942c-0.019,0.226,0.263,0.301,0.433,0.301c0.32,0.019,1.054-0.169,1.091-0.564c0.019-0.226-0.263-0.301-0.433-0.301
						c-0.019,0-0.038,0-0.056,0C38.791,3.359,38.152,3.566,38.114,3.942 M30.419,2.832c-0.339,0-0.715,0.169-0.828,0.414
						c-0.019,0.056-0.056,0.132-0.019,0.207c0.038,0.075,0.094,0.094,0.169,0.113c0.263,0.056,0.715-0.113,0.865-0.357
						c0.038-0.075,0.075-0.151,0.038-0.245C30.664,2.907,30.57,2.832,30.419,2.832L30.419,2.832 M33.937,3.171
						c0.019,0.188,0.188,0.263,0.339,0.282c0.395,0.038,1.392-0.188,1.373-0.658c0-0.207-0.188-0.263-0.339-0.282
						c-0.038,0-0.075,0-0.113,0C34.709,2.531,33.9,2.813,33.937,3.171"/>
				</defs>
				<use xlink:href="#SVGID_1_"  overflow="visible" fill="#636363"/>
				<clipPath id="SVGID_2_">
					<use xlink:href="#SVGID_1_"  overflow="visible"/>
				</clipPath>
				<polygon clip-path="url(#SVGID_2_)" fill="#636363" points="59.11,14.816 34.201,39.725 9.292,14.816 34.201,-10.093 				"/>
			</g>
		</g>
	</g>
</g>
<g id="HfMcOx.tif">
	<g>
		<path fill="#636363" d="M56.132,17.104c0.279-0.578,0.507-1.041,0.729-1.508c0.789-1.654,1.583-3.306,2.36-4.965
			c0.174-0.373,0.414-0.573,0.826-0.465c0.387,0.101,0.392,0.423,0.391,0.746c-0.003,2.937-0.002,5.874-0.002,8.811
			c0,0.113,0.04,0.259-0.016,0.332c-0.134,0.176-0.3,0.421-0.477,0.443c-0.172,0.021-0.411-0.169-0.55-0.328
			c-0.091-0.105-0.075-0.32-0.075-0.486c-0.004-2.047-0.003-4.095-0.003-6.142c0-0.152,0-0.305,0-0.457
			c-0.034-0.011-0.067-0.022-0.101-0.034c-0.069,0.123-0.145,0.242-0.205,0.369c-0.744,1.582-1.485,3.165-2.228,4.747
			c-0.139,0.296-0.268,0.599-0.684,0.587c-0.389-0.011-0.51-0.296-0.644-0.581c-0.731-1.557-1.463-3.113-2.197-4.669
			c-0.071-0.151-0.154-0.297-0.332-0.44c-0.01,0.152-0.029,0.303-0.029,0.455c-0.002,2.076-0.001,4.151-0.002,6.227
			c0,0.127,0.015,0.261-0.02,0.378c-0.081,0.272-0.284,0.475-0.561,0.387c-0.186-0.059-0.332-0.277-0.466-0.448
			c-0.049-0.062-0.016-0.192-0.016-0.29c0-2.951-0.001-5.902,0.001-8.853c0-0.307-0.049-0.647,0.364-0.756
			c0.399-0.105,0.622,0.026,0.847,0.496c0.911,1.908,1.821,3.817,2.732,5.726C55.871,16.587,55.973,16.786,56.132,17.104z"/>
		<path fill="#636363" d="M77.536,13.871c0-1.007-0.021-1.923,0.016-2.836c0.009-0.211,0.174-0.472,0.348-0.598
			c0.117-0.085,0.432-0.037,0.558,0.07c0.131,0.112,0.196,0.365,0.197,0.557c0.013,2.441,0.009,4.883,0.008,7.325
			c0,0.528-0.01,1.049,0.533,1.38c0.088,0.054,0.144,0.313,0.091,0.407c-0.085,0.149-0.301,0.356-0.416,0.331
			c-0.403-0.088-0.787-0.264-1.3-0.451c-0.46,0.291-1.112,0.504-1.843,0.482c-1.304-0.04-2.164-0.666-2.303-1.951
			c-0.114-1.056-0.092-2.147,0.033-3.203c0.253-2.154,2.297-2.313,3.591-1.748C77.187,13.695,77.32,13.766,77.536,13.871z
			 M77.536,16.997c0-0.451,0-0.902,0-1.353c0-0.736-0.093-0.874-0.78-1.154c-1.086-0.442-2.064,0.032-2.202,1.179
			c-0.107,0.888-0.055,1.801-0.007,2.7c0.028,0.52,0.325,0.926,0.857,1.097c0.7,0.224,1.34,0.064,1.911-0.36
			c0.121-0.089,0.204-0.3,0.211-0.459C77.551,18.097,77.536,17.546,77.536,16.997z"/>
		<path fill="#636363" d="M100.724,17.304c-0.551,0-1.102,0.017-1.652-0.006c-0.344-0.015-0.407,0.146-0.381,0.436
			c0.14,1.571,1.056,2.163,2.671,1.711c0.243-0.068,0.475-0.176,0.714-0.26c0.259-0.092,0.483-0.051,0.605,0.217
			c0.113,0.249,0.073,0.512-0.184,0.616c-0.452,0.184-0.919,0.354-1.395,0.448c-2.1,0.415-3.497-0.689-3.552-2.834
			c-0.02-0.783-0.001-1.592,0.173-2.349c0.33-1.432,1.489-2.084,3.133-1.894c1.247,0.144,2.093,1.154,2.126,2.543
			c0.006,0.268-0.005,0.537,0.008,0.805c0.02,0.407-0.206,0.561-0.57,0.565C101.854,17.309,101.289,17.304,100.724,17.304z
			 M100.295,16.41c0.41,0,0.82,0.013,1.228-0.009c0.112-0.006,0.305-0.105,0.315-0.18c0.101-0.762-0.127-1.667-1.067-1.892
			c-0.945-0.225-2.005,0.239-2.082,1.75c-0.012,0.238,0.113,0.331,0.335,0.33C99.448,16.409,99.872,16.41,100.295,16.41z"/>
		<path fill="#636363" d="M93.836,17.304c-0.55,0-1.101,0.017-1.65-0.006c-0.341-0.014-0.403,0.136-0.379,0.432
			c0.127,1.563,1.092,2.176,2.714,1.706c0.256-0.074,0.497-0.233,0.754-0.258c0.168-0.016,0.436,0.094,0.506,0.228
			c0.071,0.136,0.023,0.442-0.09,0.551c-1.024,0.985-3.719,0.715-4.469-0.476c-0.267-0.424-0.458-0.962-0.485-1.458
			c-0.049-0.905-0.07-1.844,0.115-2.722c0.31-1.465,1.519-2.131,3.15-1.911c1.249,0.168,2.081,1.175,2.112,2.559
			c0.006,0.254,0.004,0.508,0.001,0.762c-0.005,0.429-0.146,0.58-0.586,0.589C94.965,17.312,94.401,17.304,93.836,17.304z
			 M93.38,16.411c0.423,0,0.847,0.012,1.269-0.008c0.115-0.006,0.295-0.086,0.325-0.174c0.257-0.733-0.313-1.712-1.064-1.891
			c-1.155-0.276-2.021,0.414-2.106,1.764c-0.016,0.258,0.142,0.309,0.348,0.309C92.562,16.411,92.971,16.411,93.38,16.411z"/>
		<path fill="#636363" d="M67.065,14.169c0.719-0.687,1.567-0.841,2.487-0.794c1.067,0.055,1.794,0.709,1.901,1.784
			c0.049,0.49,0.074,0.983,0.08,1.475c0.012,1.002,0.004,2.004,0.003,3.006c0,0.113,0.013,0.229-0.011,0.338
			c-0.072,0.335-0.242,0.58-0.63,0.548c-0.365-0.03-0.503-0.264-0.503-0.607c0-1.143,0.003-2.286-0.005-3.429
			c-0.002-0.323-0.024-0.647-0.059-0.968c-0.066-0.592-0.359-0.931-0.935-1.047c-0.642-0.129-1.231,0.018-1.749,0.423
			c-0.283,0.221-0.415,0.501-0.41,0.878c0.016,1.355,0.01,2.71,0.003,4.065c-0.002,0.475-0.187,0.691-0.555,0.691
			c-0.369,0-0.582-0.26-0.59-0.72c-0.002-0.099,0-0.198,0-0.296c0-1.411-0.005-2.823,0.003-4.234c0.002-0.406-0.098-0.73-0.44-0.995
			c-0.13-0.101-0.239-0.391-0.185-0.526c0.057-0.142,0.311-0.261,0.494-0.288C66.468,13.398,66.76,13.744,67.065,14.169z"/>
		<path fill="#636363" d="M81.262,14.42c-0.242,0-0.425,0.018-0.602-0.004c-0.296-0.036-0.514-0.179-0.498-0.515
			c0.014-0.312,0.218-0.426,0.508-0.45c0.593-0.049,0.592-0.054,0.593-0.662c0-0.282-0.008-0.565,0.003-0.846
			c0.014-0.355,0.238-0.565,0.561-0.57c0.328-0.004,0.548,0.21,0.56,0.564c0.011,0.31,0.005,0.621,0.006,0.931
			c0.002,0.575,0.002,0.575,0.596,0.578c0.353,0.002,0.705,0.002,1.058,0.006c0.316,0.004,0.533,0.165,0.525,0.479
			c-0.007,0.308-0.234,0.476-0.538,0.486c-0.437,0.014-0.875-0.011-1.311,0.016c-0.112,0.007-0.31,0.143-0.31,0.22
			c0.003,1.253-0.004,2.508,0.07,3.758c0.038,0.646,0.494,0.97,1.156,0.991c0.155,0.005,0.313-0.013,0.465,0.011
			c0.296,0.046,0.499,0.202,0.486,0.532c-0.013,0.321-0.196,0.492-0.512,0.498c-0.324,0.006-0.654,0.026-0.971-0.023
			c-1.013-0.158-1.66-0.794-1.749-1.829c-0.087-1.022-0.071-2.053-0.095-3.081C81.255,15.174,81.262,14.837,81.262,14.42z"/>
		<path fill="#636363" d="M87.191,14.294c0.603-0.798,1.403-1.006,2.311-0.909c0.152,0.016,0.309,0.044,0.449,0.101
			c0.299,0.12,0.415,0.392,0.294,0.653c-0.081,0.173-0.328,0.349-0.519,0.372c-0.37,0.044-0.762-0.082-1.128-0.026
			c-0.852,0.129-1.296,0.688-1.298,1.55c-0.004,1.227,0.003,2.455-0.001,3.682c0,0.152,0.018,0.359-0.067,0.443
			c-0.162,0.16-0.386,0.327-0.598,0.348c-0.278,0.027-0.458-0.197-0.468-0.491c-0.014-0.395-0.011-0.79-0.011-1.185
			c-0.001-1.143,0.002-2.286-0.002-3.429c-0.001-0.448-0.069-0.857-0.495-1.145c-0.116-0.078-0.175-0.362-0.131-0.515
			c0.035-0.122,0.256-0.241,0.411-0.269c0.413-0.075,0.738,0.116,0.986,0.441C87.006,14.023,87.08,14.137,87.191,14.294z"/>
		<path fill="#636363" d="M62.696,16.961c0-0.958-0.002-1.917,0.001-2.875c0.001-0.506,0.175-0.717,0.568-0.708
			c0.379,0.009,0.56,0.239,0.561,0.732c0.002,1.902,0.002,3.805,0,5.707c-0.001,0.474-0.208,0.719-0.584,0.714
			c-0.369-0.005-0.543-0.221-0.544-0.695C62.693,18.877,62.696,17.919,62.696,16.961z"/>
		<path fill="#636363" d="M62.598,11.037c0.014-0.395,0.286-0.64,0.69-0.621c0.385,0.018,0.642,0.302,0.628,0.694
			c-0.014,0.377-0.303,0.632-0.7,0.619C62.821,11.717,62.583,11.449,62.598,11.037z"/>
	</g>
</g>
</svg>
