<?xml version="1.0" encoding="utf-8"?>
<!-- Generator: Adobe Illustrator 23.0.4, SVG Export Plug-In . SVG Version: 6.00 Build 0)  -->
<svg version="1.1" id="Layer_1" xmlns="http://www.w3.org/2000/svg" xmlns:xlink="http://www.w3.org/1999/xlink" x="0px" y="0px"
	 viewBox="0 0 125.388 29.742" enable-background="new 0 0 125.388 29.742" xml:space="preserve">
<g>
	<path fill-rule="evenodd" clip-rule="evenodd" fill="#636363" d="M20.935,4.957c2.157,0,3.907,1.749,3.907,3.906
		c0,2.045-1.572,3.723-3.572,3.894V9.749c0.357-0.136,0.611-0.48,0.611-0.886c0-0.523-0.423-0.947-0.947-0.947
		c-0.522,0-0.948,0.424-0.948,0.947c0,0.406,0.256,0.75,0.613,0.886v3.007c-2.001-0.171-3.571-1.848-3.571-3.894
		C17.029,6.705,18.777,4.957,20.935,4.957L20.935,4.957z"/>
	<path fill-rule="evenodd" clip-rule="evenodd" fill="#636363" d="M16.322,12.281c2.159,0,3.908,1.751,3.908,3.908
		c0,2.044-1.572,3.721-3.574,3.892v-3.007c0.358-0.134,0.614-0.48,0.614-0.885c0-0.524-0.424-0.948-0.948-0.948
		c-0.524,0-0.949,0.424-0.949,0.948c0,0.405,0.256,0.751,0.616,0.885v3.007c-2.002-0.171-3.574-1.848-3.574-3.892
		C12.415,14.031,14.164,12.281,16.322,12.281L16.322,12.281z"/>
	<path fill-rule="evenodd" clip-rule="evenodd" fill="#636363" d="M25.349,12.281c2.157,0,3.906,1.751,3.906,3.908
		c0,2.044-1.572,3.721-3.571,3.892v-3.007c0.358-0.134,0.611-0.48,0.611-0.885c0-0.524-0.424-0.948-0.946-0.948
		c-0.525,0-0.948,0.424-0.948,0.948c0,0.405,0.255,0.751,0.613,0.885v3.007c-2.001-0.171-3.573-1.848-3.573-3.892
		C21.441,14.031,23.194,12.281,25.349,12.281L25.349,12.281z"/>
	<path fill-rule="evenodd" clip-rule="evenodd" fill="#636363" d="M18.064,24.043h5.558c-1.762-1.686-2.562-3.853-2.819-6.291
		C20.517,20.306,19.531,22.349,18.064,24.043L18.064,24.043z"/>
	<path fill="#636363" d="M32.006,14.878v-1.685c0.392,0.3,0.82,0.461,1.283,0.484c0.581-0.023,0.925-0.274,1.037-0.753
		c0.069-0.315,0.016-0.578-0.159-0.795c-0.177-0.215-0.475-0.468-0.895-0.759c-0.419-0.29-0.726-0.543-0.925-0.754
		c-0.439-0.44-0.67-1.044-0.694-1.813c0.024-0.433,0.079-0.778,0.165-1.038c0.149-0.501,0.424-0.896,0.83-1.183
		c0.404-0.285,0.862-0.429,1.372-0.429c0.51,0,1.016,0.14,1.518,0.425v1.718c-0.439-0.369-0.867-0.553-1.283-0.553
		c-0.472,0-0.763,0.281-0.873,0.847c0.009,0.203,0.065,0.393,0.172,0.571c0.105,0.177,0.263,0.354,0.471,0.535
		c0.207,0.18,0.429,0.353,0.659,0.518c0.232,0.165,0.355,0.256,0.374,0.271c0.32,0.252,0.563,0.564,0.734,0.938
		c0.168,0.37,0.252,0.778,0.252,1.217c0,0.479-0.107,0.926-0.324,1.337c-0.215,0.411-0.519,0.738-0.909,0.978
		c-0.386,0.24-0.828,0.358-1.323,0.358C32.98,15.313,32.486,15.169,32.006,14.878L32.006,14.878z M37.123,6.294h2.025
		c0.652,0,1.196,0.182,1.638,0.543c0.437,0.36,0.699,0.903,0.776,1.625v0.39c0,0.783-0.307,1.364-0.919,1.741
		c0.685,0.385,1.041,1.061,1.073,2.025c0.025,0.542-0.085,1.005-0.33,1.396c-0.244,0.388-0.578,0.677-1.007,0.871
		c-0.427,0.192-0.908,0.288-1.442,0.288h-1.813V6.294L37.123,6.294z M38.89,7.765v2.168c0.226,0.014,0.454-0.064,0.682-0.237
		c0.228-0.172,0.347-0.446,0.354-0.823c0-0.346-0.081-0.617-0.241-0.813c-0.163-0.195-0.412-0.295-0.749-0.295H38.89L38.89,7.765z
		 M38.89,11.286V13.7c0.25,0.008,0.461-0.045,0.63-0.159c0.167-0.114,0.288-0.268,0.364-0.465c0.076-0.196,0.112-0.407,0.112-0.636
		c0-0.323-0.092-0.595-0.277-0.817C39.537,11.399,39.259,11.286,38.89,11.286L38.89,11.286z M42.83,6.294h1.764v8.879H42.83V6.294
		L42.83,6.294z M49.22,6.294h2.294l0.849,5.241h0.022l0.719-5.241h2.367l0.919,8.879h-1.789c-0.026-0.361-0.055-0.809-0.088-1.342
		c-0.036-0.535-0.072-1.069-0.107-1.601c-0.035-0.536-0.078-1.154-0.124-1.861c-0.046-0.706-0.086-1.235-0.118-1.59H54.14
		c-0.055,0.55-0.122,1.115-0.206,1.69c-0.081,0.578-0.176,1.15-0.283,1.719c-0.105,0.57-0.193,1.028-0.259,1.38
		c-0.067,0.347-0.163,0.883-0.287,1.606H51.75c-0.055-0.29-0.186-0.963-0.394-2.013c-0.209-1.052-0.367-1.862-0.47-2.432
		c-0.107-0.57-0.203-1.165-0.289-1.782V8.778h-0.023l-0.247,6.394H48.43L49.22,6.294L49.22,6.294z M57.315,6.294h1.742v6.227
		c0,0.802,0.291,1.202,0.872,1.202c0.377,0.01,0.618-0.101,0.722-0.322c0.108-0.226,0.161-0.554,0.161-0.985V6.294h1.765v6.488
		c0,0.785-0.181,1.398-0.546,1.837c-0.365,0.439-1.057,0.673-2.078,0.694c-0.778,0.017-1.413-0.172-1.904-0.565
		c-0.488-0.392-0.735-1.055-0.735-1.991V6.294L57.315,6.294z M63.411,6.294h4.496V7.93H66.53v7.242h-1.743V7.93h-1.376V6.294
		L63.411,6.294z M68.739,6.294h1.743v6.227c0,0.802,0.29,1.202,0.871,1.202c0.378,0.01,0.618-0.101,0.724-0.322
		c0.108-0.226,0.159-0.554,0.159-0.985V6.294h1.766v6.488c0,0.785-0.183,1.398-0.547,1.837c-0.365,0.439-1.059,0.673-2.079,0.694
		c-0.776,0.017-1.411-0.172-1.901-0.565c-0.491-0.392-0.737-1.055-0.737-1.991V6.294L68.739,6.294z M76.813,6.294h1.837l2.132,8.879
		h-1.861l-0.341-1.496h-1.767l-0.331,1.496h-1.744L76.813,6.294L76.813,6.294z M78.332,12.276l-0.646-3.709H77.66l-0.576,3.709
		H78.332L78.332,12.276z M81.542,6.294h1.767v7.217h1.813v1.661h-3.581V6.294L81.542,6.294z M88.873,6.294h3.543V7.93h-1.779v1.907
		h1.614v1.65h-1.614v3.685h-1.764V6.294L88.873,6.294z M93.543,6.294h1.743v6.227c0,0.802,0.29,1.202,0.871,1.202
		c0.375,0.01,0.618-0.101,0.724-0.322c0.105-0.226,0.159-0.554,0.159-0.985V6.294h1.764v6.488c0,0.785-0.181,1.398-0.547,1.837
		c-0.366,0.439-1.058,0.673-2.077,0.694c-0.777,0.017-1.412-0.172-1.903-0.565c-0.49-0.392-0.735-1.055-0.735-1.991V6.294
		L93.543,6.294z M100.075,6.294h1.671l2.214,5.359l0.024-0.025c-0.064-0.211-0.109-0.526-0.142-0.943V6.294h1.743v8.879h-1.651
		l-2.188-5.357l-0.023,0.022c0.062,0.551,0.101,0.971,0.117,1.26v4.074h-1.765V6.294L100.075,6.294z M106.875,6.294h1.767
		c1.239,0,2.152,0.445,2.737,1.331c0.583,0.887,0.853,2.015,0.804,3.38c-0.094,2.778-1.321,4.167-3.684,4.167h-1.624V6.294
		L106.875,6.294z M108.643,7.86v5.747c0.633,0.007,1.091-0.282,1.369-0.866c0.278-0.586,0.418-1.285,0.418-2.103
		c0-0.73-0.15-1.376-0.458-1.937C109.666,8.142,109.222,7.86,108.643,7.86L108.643,7.86z"/>
	<path fill="#636363" d="M32.826,19.34h0.469l0.952,4.429h-0.594l-0.174-0.858h-0.87l-0.172,0.858h-0.576L32.826,19.34L32.826,19.34
		z M33.401,22.447l-0.348-2.255h-0.011l-0.352,2.255H33.401L33.401,22.447z"/>
	<path fill="#636363" d="M40.691,23.769V19.34h0.836c0.382,0,0.656,0.093,0.831,0.277c0.171,0.184,0.262,0.474,0.275,0.869
		c0.003,0.496-0.1,0.84-0.309,1.034c-0.211,0.191-0.508,0.291-0.888,0.299c-0.034-0.008-0.079-0.012-0.134-0.012v1.962H40.691
		L40.691,23.769z M41.301,21.316c0.219,0.011,0.387-0.035,0.505-0.136c0.118-0.102,0.176-0.287,0.176-0.552
		c0-0.285-0.054-0.492-0.163-0.618c-0.107-0.13-0.283-0.186-0.517-0.175V21.316L41.301,21.316z M46.31,19.34h0.494l0.994,4.429
		h-0.621l-0.185-0.858h-0.909l-0.177,0.858h-0.604L46.31,19.34L46.31,19.34z M46.912,22.447l-0.362-2.255h-0.013l-0.369,2.255
		H46.912L46.912,22.447z M50.947,23.769V19.34h0.837c0.336,0,0.586,0.079,0.749,0.231c0.162,0.157,0.261,0.4,0.293,0.732
		c0.019,0.216,0.004,0.424-0.043,0.619c-0.048,0.199-0.124,0.358-0.225,0.482c-0.103,0.123-0.222,0.194-0.363,0.21l0.85,2.155
		h-0.635l-0.843-2.168h-0.012v2.168H50.947L50.947,23.769z M51.555,21.304c0.418,0.018,0.628-0.23,0.628-0.75
		c0-0.202-0.04-0.37-0.121-0.505c-0.077-0.136-0.215-0.203-0.409-0.203h-0.098V21.304L51.555,21.304z M55.744,19.34h2.04v0.506
		h-0.694v3.922h-0.626v-3.922h-0.72V19.34L55.744,19.34z M60.87,23.769V19.34h0.585l1.082,3.359l0.024-0.013
		c-0.018-0.235-0.035-0.453-0.049-0.651c-0.016-0.201-0.034-0.425-0.053-0.676c-0.018-0.249-0.03-0.5-0.04-0.742
		c-0.007-0.244-0.013-0.67-0.013-1.278h0.622v4.429H62.45l-1.076-3.417l-0.012,0.009c0.037,0.397,0.062,0.703,0.077,0.919
		c0.015,0.218,0.025,0.453,0.037,0.713c0.012,0.253,0.016,0.533,0.016,0.835c0,0.194-0.001,0.36-0.003,0.492
		c-0.001,0.133-0.007,0.283-0.011,0.448H60.87L60.87,23.769z M66.527,19.34h1.653v0.506h-1.047v1.399h0.942v0.503h-0.942v1.503
		h1.047v0.518h-1.653V19.34L66.527,19.34z M71.416,23.769V19.34h0.835c0.337,0,0.587,0.079,0.75,0.231
		c0.165,0.157,0.262,0.4,0.295,0.732c0.014,0.216,0.001,0.424-0.047,0.619c-0.048,0.199-0.122,0.358-0.225,0.482
		c-0.102,0.123-0.22,0.194-0.36,0.21l0.846,2.155h-0.635l-0.841-2.168h-0.01v2.168H71.416L71.416,23.769z M72.025,21.304
		c0.418,0.018,0.626-0.23,0.626-0.75c0-0.202-0.04-0.37-0.12-0.505c-0.078-0.136-0.217-0.203-0.409-0.203h-0.097V21.304
		L72.025,21.304z M79.243,19.34h1.664v0.506h-1.056v1.399h0.945v0.503h-0.945v2.021h-0.608V19.34L79.243,19.34z M83.97,21.855
		c0-0.139-0.005-0.246-0.013-0.322c0.008-0.382,0.038-0.725,0.086-1.03c0.051-0.305,0.145-0.567,0.287-0.786
		c0.139-0.22,0.34-0.351,0.598-0.398c0.3-0.056,0.552-0.026,0.756,0.086c0.204,0.117,0.36,0.284,0.463,0.504
		c0.105,0.225,0.168,0.468,0.189,0.73c0.031,0.487,0.048,0.844,0.048,1.074c0,0.663-0.091,1.179-0.274,1.552
		c-0.183,0.376-0.498,0.561-0.943,0.561c-0.374,0-0.663-0.158-0.87-0.475C84.093,23.035,83.981,22.533,83.97,21.855L83.97,21.855z
		 M84.627,21.725c-0.009,1.024,0.173,1.546,0.554,1.561c0.016-0.007,0.033-0.011,0.048-0.011c0.136-0.017,0.237-0.086,0.311-0.213
		c0.072-0.124,0.119-0.267,0.143-0.426c0.022-0.157,0.036-0.335,0.043-0.533c0.005-0.198,0.008-0.416,0.008-0.652
		c0.004-0.325-0.013-0.613-0.051-0.864c-0.04-0.25-0.101-0.441-0.18-0.569c-0.08-0.129-0.182-0.193-0.309-0.193h-0.025
		c-0.221,0.013-0.367,0.173-0.437,0.476c-0.069,0.304-0.108,0.699-0.114,1.185C84.623,21.547,84.627,21.627,84.627,21.725
		L84.627,21.725z M89.774,23.769V19.34h0.837c0.334,0,0.584,0.079,0.748,0.231c0.166,0.157,0.262,0.4,0.296,0.732
		c0.016,0.216,0.001,0.424-0.046,0.619c-0.047,0.199-0.123,0.358-0.224,0.482c-0.102,0.123-0.225,0.194-0.363,0.21l0.846,2.155
		h-0.633l-0.841-2.168h-0.012v2.168H89.774L89.774,23.769z M90.383,21.304c0.418,0.018,0.626-0.23,0.626-0.75
		c0-0.202-0.039-0.37-0.119-0.505c-0.083-0.136-0.217-0.203-0.409-0.203h-0.098V21.304L90.383,21.304z M97.6,19.34h0.61v3.911h1.044
		v0.518H97.6V19.34L97.6,19.34z M102.988,19.34v4.429h-0.611V19.34H102.988L102.988,19.34z M106.498,19.34h1.665v0.506h-1.058v1.399
		h0.947v0.503h-0.947v2.021h-0.607V19.34L106.498,19.34z M111.35,19.34h1.653v0.506h-1.045v1.399h0.941v0.503h-0.941v1.503h1.045
		v0.518h-1.653V19.34L111.35,19.34z"/>
	<polygon fill-rule="evenodd" clip-rule="evenodd" fill="#636363" points="31.883,16.878 112.396,16.878 112.396,17.501 
		31.883,17.501 31.883,16.878 	"/>
</g>
</svg>
