<?xml version="1.0" encoding="utf-8"?>
<!-- Generator: Adobe Illustrator 23.0.4, SVG Export Plug-In . SVG Version: 6.00 Build 0)  -->
<svg version="1.1" id="Layer_1" xmlns="http://www.w3.org/2000/svg" xmlns:xlink="http://www.w3.org/1999/xlink" x="0px" y="0px"
	 viewBox="0 0 125.388 29.742" enable-background="new 0 0 125.388 29.742" xml:space="preserve">
<path fill="#636363" d="M52.281,3.313c0.001-0.014,0.002-0.028,0.002-0.042c0.149,0,0.297,0,0.446,0
	c0,0.014,0.001,0.028,0.002,0.041C52.581,3.427,52.431,3.427,52.281,3.313z"/>
<path fill="#636363" d="M29.501,11.789c0.014,0,0.028,0,0.042-0.001c0,0.116,0,0.232,0,0.348c-0.014,0-0.028,0-0.041-0.001
	C29.501,12.02,29.501,11.905,29.501,11.789z"/>
<path fill="#636363" d="M52.281,3.313c0.15,0,0.3,0,0.45,0c0.668,0.045,1.272,0.271,1.799,0.68c0.16,0.124,0.242,0.099,0.34-0.053
	c0.063-0.096,0.148-0.177,0.218-0.269c0.049-0.065,0.117-0.068,0.178-0.049c0.081,0.026,0.035,0.099,0.025,0.147
	c-0.145,0.693-0.293,1.386-0.44,2.078c-0.019,0.091-0.038,0.172-0.167,0.166c-0.15-0.007-0.113-0.112-0.119-0.194
	c-0.037-0.498-0.128-0.981-0.395-1.413c-0.472-0.765-1.552-1.028-2.327-0.57c-0.676,0.399-0.874,1.255-0.466,2.02
	c0.237,0.444,0.592,0.789,0.956,1.126c0.472,0.437,0.964,0.853,1.373,1.354c0.61,0.748,0.898,1.59,0.692,2.555
	c-0.224,1.053-1.109,1.84-2.206,1.988c-1.143,0.154-2.151-0.153-3.032-0.892c-0.037-0.031-0.076-0.061-0.117-0.094
	c-0.128,0.162-0.253,0.315-0.371,0.474c-0.056,0.075-0.128,0.124-0.209,0.084c-0.076-0.037-0.021-0.117-0.01-0.178
	c0.134-0.754,0.27-1.508,0.401-2.263c0.019-0.11,0.037-0.176,0.175-0.178c0.16-0.003,0.139,0.097,0.15,0.192
	c0.061,0.517,0.153,1.027,0.39,1.498c0.582,1.156,2.233,1.479,3.107,0.608c0.541-0.539,0.673-1.403,0.332-2.158
	c-0.215-0.476-0.568-0.845-0.934-1.204c-0.442-0.433-0.921-0.826-1.327-1.296c-0.527-0.61-0.855-1.297-0.766-2.121
	c0.122-1.125,0.985-1.915,2.179-2.026C52.199,3.32,52.24,3.316,52.281,3.313z"/>
<path fill="#636363" d="M77.965,3.445c0.007,0.215-0.069,0.308-0.299,0.314c-0.751,0.02-0.963,0.176-1.209,0.89
	c-0.418,1.215-0.705,2.468-1.041,3.706c-0.263,0.969-0.554,1.93-0.763,2.913c-0.169,0.794,0.032,1.092,0.849,1.175
	c0.789,0.079,1.583,0.046,2.366-0.087c0.692-0.118,1.204-0.511,1.558-1.109c0.117-0.198,0.236-0.399,0.316-0.613
	c0.079-0.213,0.194-0.285,0.413-0.208c-0.197,0.737-0.398,1.474-0.589,2.214c-0.043,0.166-0.157,0.136-0.267,0.135
	c-1.592-0.015-3.184-0.029-4.776-0.046c-0.833-0.009-1.666-0.005-2.499,0.036c-0.121,0.006-0.243,0.001-0.364,0.001
	c-0.013-0.226,0.072-0.304,0.301-0.304c0.73-0.001,1.029-0.209,1.223-0.905c0.556-1.989,1.091-3.984,1.634-5.976
	c0.106-0.389,0.222-0.775,0.317-1.167c0.078-0.323-0.034-0.5-0.349-0.601C74.563,3.74,74.33,3.754,74.1,3.736
	c-0.059-0.005-0.178,0.046-0.155-0.08c0.016-0.087-0.003-0.237,0.168-0.222c0.016,0.002,0.033,0.001,0.049,0.002
	C75.4,3.5,76.636,3.485,77.873,3.434C77.904,3.433,77.935,3.441,77.965,3.445z"/>
<path fill="#636363" d="M87.663,7.174c-0.604,0-0.6,0.001-0.757,0.638c-0.445,1.806-0.883,3.613-1.343,5.415
	c-0.192,0.751-0.466,1.476-0.893,2.131c-0.376,0.577-0.849,1.033-1.559,1.161c-0.408,0.073-0.806,0.035-1.173-0.176
	c-0.219-0.126-0.366-0.309-0.38-0.571c-0.011-0.202,0.072-0.362,0.277-0.414c0.205-0.052,0.378,0.007,0.466,0.219
	c0.047,0.114,0.083,0.232,0.129,0.346c0.116,0.283,0.324,0.376,0.616,0.281c0.251-0.082,0.409-0.27,0.545-0.48
	c0.317-0.491,0.484-1.04,0.626-1.601c0.569-2.241,1.141-4.482,1.72-6.721c0.048-0.186,0.026-0.249-0.178-0.234
	c-0.238,0.017-0.478,0.008-0.717,0.001c-0.059-0.002-0.177,0.056-0.168-0.068c0.007-0.101,0.001-0.246,0.175-0.245
	c0.272,0.001,0.545-0.013,0.816,0.004c0.175,0.011,0.244-0.053,0.289-0.214c0.226-0.793,0.476-1.577,0.948-2.267
	c0.469-0.686,1.088-1.094,1.955-1.015c0.276,0.025,0.531,0.115,0.75,0.29c0.169,0.135,0.272,0.306,0.273,0.53
	c0,0.192-0.07,0.348-0.263,0.401c-0.196,0.053-0.363-0.022-0.46-0.201c-0.062-0.114-0.096-0.244-0.136-0.368
	c-0.107-0.336-0.31-0.435-0.646-0.313c-0.237,0.087-0.396,0.262-0.529,0.465C87.7,4.694,87.532,5.288,87.38,5.887
	c-0.069,0.271-0.127,0.545-0.204,0.814c-0.036,0.127-0.006,0.161,0.12,0.158c0.289-0.005,0.578-0.006,0.866,0.001
	c0.064,0.002,0.197-0.059,0.169,0.091c-0.017,0.089-0.008,0.228-0.172,0.223C87.993,7.17,87.828,7.174,87.663,7.174z"/>
<path fill="#636363" d="M66.931,3.436c0.602,0,1.204-0.002,1.806,0.003c0.065,0.001,0.191-0.068,0.184,0.075
	c-0.005,0.104-0.01,0.242-0.183,0.237c-0.099-0.003-0.198,0.009-0.297,0.013c-0.468,0.016-0.787,0.226-0.954,0.68
	c-0.241,0.658-0.427,1.332-0.62,2.003c-0.494,1.715-0.984,3.433-1.475,5.149c-0.005,0.016-0.012,0.031-0.016,0.047
	c-0.143,0.571-0.008,0.759,0.576,0.801c0.132,0.009,0.264,0.006,0.395,0.021c0.058,0.006,0.176-0.052,0.157,0.078
	c-0.014,0.091,0.001,0.231-0.16,0.231c-0.041,0-0.083-0.001-0.124-0.003c-1.154-0.057-2.309-0.059-3.463-0.004
	c-0.069,0.003-0.206,0.078-0.206-0.068c0-0.109,0.018-0.255,0.208-0.234c0.105,0.011,0.213-0.009,0.32-0.015
	c0.497-0.027,0.812-0.291,0.954-0.758c0.209-0.684,0.412-1.37,0.609-2.058c0.461-1.614,0.917-3.229,1.374-4.844
	c0.02-0.071,0.034-0.144,0.051-0.216c0.123-0.538-0.038-0.761-0.582-0.806c-0.14-0.012-0.281-0.004-0.42-0.022
	c-0.063-0.008-0.194,0.064-0.177-0.081c0.013-0.111,0.018-0.243,0.213-0.231c0.502,0.03,1.006,0.036,1.509,0.05
	c0.107,0.003,0.214,0,0.322,0C66.931,3.466,66.931,3.451,66.931,3.436z"/>
<path fill="#636363" d="M70.211,21.852c7.196,0,14.392,0,21.588,0c0.074,0,0.149-0.001,0.223,0.002
	c0.119,0.005,0.085,0.097,0.09,0.165c0.006,0.07,0.002,0.135-0.098,0.129c-0.058-0.003-0.115,0-0.173,0c-14.417,0-28.834,0-43.251,0
	c-0.058,0-0.116-0.003-0.173,0c-0.12,0.007-0.101-0.077-0.102-0.149c-0.001-0.077-0.004-0.153,0.11-0.147
	c0.066,0.004,0.132,0,0.198,0C55.819,21.852,63.015,21.852,70.211,21.852z"/>
<path fill="#636363" d="M80.767,11.848c0.024-0.37,0.163-0.757,0.322-1.138c0.398-0.957,0.837-1.897,1.123-2.897
	c0.038-0.134,0.076-0.271,0.084-0.409c0.016-0.274-0.181-0.39-0.421-0.254c-0.152,0.086-0.272,0.212-0.385,0.345
	c-0.267,0.316-0.494,0.66-0.688,1.024c-0.071,0.132-0.136,0.06-0.212,0.021c-0.079-0.04-0.14-0.07-0.072-0.179
	c0.238-0.385,0.458-0.783,0.763-1.122c0.155-0.173,0.325-0.331,0.535-0.434c0.336-0.165,0.681-0.213,1.008,0.015
	c0.323,0.225,0.42,0.559,0.39,0.934c-0.037,0.457-0.19,0.883-0.36,1.304c-0.372,0.923-0.763,1.839-1.07,2.787
	c-0.02,0.063-0.045,0.124-0.058,0.189c-0.031,0.152-0.097,0.325,0.069,0.429c0.155,0.097,0.307,0.006,0.433-0.088
	c0.494-0.371,0.8-0.893,1.096-1.417c0.073-0.129,0.127-0.13,0.243-0.07c0.097,0.05,0.11,0.094,0.061,0.186
	c-0.249,0.467-0.512,0.922-0.885,1.305c-0.156,0.16-0.327,0.301-0.527,0.405C81.476,13.166,80.76,12.727,80.767,11.848z"/>
<path fill="#636363" d="M90.658,20.457c-0.33,0-0.66,0.002-0.99-0.002c-0.05-0.001-0.125,0.037-0.144-0.046
	c-0.015-0.065,0.024-0.109,0.088-0.126c0.217-0.057,0.278-0.23,0.328-0.422c0.145-0.558,0.296-1.114,0.448-1.669
	c0.052-0.19,0.07-0.351-0.199-0.361c-0.037-0.001-0.091,0.005-0.085-0.058c0.005-0.049,0.016-0.1,0.082-0.104
	c0.033-0.002,0.066-0.002,0.099-0.002c0.578,0,1.155,0.004,1.733-0.003c0.137-0.002,0.193,0.035,0.188,0.178
	c-0.004,0.131,0.02,0.263,0.027,0.395c0.003,0.051,0.038,0.122-0.052,0.138c-0.066,0.012-0.096-0.023-0.127-0.084
	c-0.192-0.374-0.556-0.527-0.941-0.413c-0.069,0.021-0.086,0.062-0.101,0.121c-0.061,0.231-0.122,0.462-0.189,0.691
	c-0.038,0.13-0.003,0.175,0.137,0.173c0.232-0.003,0.424-0.06,0.528-0.287c0.028-0.062,0.054-0.133,0.139-0.105
	c0.104,0.035,0.032,0.116,0.021,0.165c-0.059,0.265-0.128,0.528-0.196,0.791c-0.017,0.065-0.036,0.138-0.125,0.121
	c-0.087-0.016-0.046-0.089-0.049-0.141c-0.016-0.262-0.26-0.422-0.507-0.339c-0.064,0.022-0.064,0.07-0.076,0.113
	c-0.069,0.254-0.139,0.508-0.2,0.764c-0.045,0.186,0.057,0.294,0.228,0.308c0.51,0.042,0.864-0.007,1.114-0.485
	c0.038-0.072,0.079-0.143,0.165-0.103c0.093,0.043,0.009,0.118-0.003,0.17c-0.147,0.622-0.149,0.622-0.774,0.622
	C91.037,20.457,90.848,20.457,90.658,20.457z"/>
<path fill="#636363" d="M53.549,18.268c-0.132,0.555-0.254,1.092-0.389,1.625c-0.049,0.195-0.055,0.345,0.189,0.388
	c0.059,0.01,0.114,0.029,0.091,0.113c-0.018,0.066-0.066,0.061-0.116,0.061c-0.231,0-0.462,0-0.693-0.001
	c-0.047,0-0.103,0.013-0.111-0.062c-0.006-0.06,0.023-0.095,0.078-0.106c0.236-0.047,0.295-0.229,0.347-0.43
	c0.144-0.558,0.295-1.114,0.448-1.669c0.052-0.19,0.077-0.351-0.196-0.358c-0.049-0.001-0.103-0.002-0.084-0.081
	c0.014-0.059,0.048-0.077,0.106-0.077c0.214,0.002,0.429,0.002,0.643,0c0.113-0.001,0.121,0.097,0.154,0.166
	c0.29,0.59,0.577,1.182,0.896,1.838c0.133-0.572,0.257-1.081,0.367-1.592c0.033-0.151-0.076-0.223-0.215-0.246
	c-0.057-0.009-0.12-0.006-0.107-0.094c0.009-0.066,0.058-0.072,0.108-0.072c0.231,0,0.462,0,0.693,0
	c0.053,0,0.101,0.005,0.105,0.072c0.003,0.046-0.014,0.078-0.062,0.091c-0.252,0.068-0.297,0.284-0.352,0.492
	c-0.178,0.668-0.354,1.337-0.533,2.005c-0.02,0.074-0.003,0.171-0.127,0.178c-0.115,0.007-0.132-0.082-0.166-0.152
	c-0.302-0.622-0.601-1.245-0.905-1.866C53.681,18.418,53.672,18.317,53.549,18.268z"/>
<path fill="#636363" d="M81.27,19.673c0.133-0.553,0.248-1.031,0.364-1.509c0.043-0.177-0.012-0.29-0.2-0.325
	c-0.049-0.009-0.128,0.016-0.122-0.08c0.006-0.099,0.081-0.086,0.146-0.086c0.215-0.001,0.429-0.001,0.644,0.001
	c0.046,0,0.105-0.015,0.121,0.052c0.013,0.054-0.004,0.095-0.065,0.111c-0.252,0.067-0.299,0.287-0.354,0.493
	c-0.176,0.66-0.343,1.323-0.521,1.983c-0.02,0.073,0.009,0.195-0.136,0.199c-0.129,0.003-0.139-0.102-0.176-0.176
	c-0.339-0.695-0.674-1.392-1.039-2.146c-0.103,0.421-0.193,0.788-0.282,1.155c-0.049,0.2-0.09,0.402-0.146,0.6
	c-0.049,0.175-0.015,0.29,0.178,0.332c0.057,0.012,0.144,0.01,0.122,0.114c-0.018,0.081-0.083,0.065-0.138,0.065
	c-0.223,0.001-0.446,0.001-0.668,0c-0.044,0-0.103,0.021-0.119-0.049c-0.016-0.071,0.018-0.109,0.086-0.122
	c0.226-0.043,0.288-0.218,0.338-0.409c0.147-0.557,0.298-1.113,0.447-1.67c0.05-0.189,0.091-0.374-0.205-0.375
	c-0.046,0-0.078-0.019-0.073-0.073c0.004-0.047,0.025-0.081,0.074-0.081c0.239-0.001,0.479-0.008,0.717,0.005
	c0.082,0.004,0.089,0.109,0.12,0.173C80.669,18.437,80.952,19.02,81.27,19.673z"/>
<path fill="#636363" d="M55.832,25.501c0.134-0.579,0.267-1.103,0.372-1.633c0.047-0.238,0.134-0.358,0.417-0.268
	c-0.09,0.346-0.182,0.698-0.274,1.05c-0.098,0.374-0.202,0.747-0.291,1.123c-0.031,0.131-0.071,0.192-0.222,0.197
	c-0.159,0.006-0.192-0.077-0.224-0.195c-0.156-0.566-0.315-1.131-0.521-1.7c-0.126,0.447-0.252,0.895-0.378,1.342
	c-0.033,0.119-0.073,0.236-0.097,0.357c-0.026,0.128-0.07,0.195-0.224,0.195c-0.153,0-0.193-0.067-0.225-0.193
	c-0.184-0.725-0.375-1.449-0.564-2.175c0.34-0.052,0.338-0.052,0.412,0.269c0.12,0.521,0.241,1.042,0.362,1.567
	c0.081-0.042,0.075-0.121,0.093-0.188c0.131-0.467,0.259-0.936,0.394-1.402c0.037-0.129,0.024-0.286,0.256-0.282
	c0.22,0.003,0.201,0.15,0.235,0.271c0.135,0.475,0.265,0.951,0.398,1.427C55.77,25.327,55.793,25.388,55.832,25.501z"/>
<path fill="#636363" d="M64.233,17.672c0.181,0,0.363-0.001,0.544,0.001c0.043,0.001,0.109-0.021,0.114,0.052
	c0.003,0.05-0.019,0.101-0.081,0.102c-0.302,0.009-0.367,0.237-0.427,0.464c-0.11,0.413-0.224,0.825-0.317,1.242
	c-0.071,0.32,0.007,0.509,0.215,0.623c0.255,0.139,0.603,0.101,0.807-0.09c0.104-0.097,0.178-0.215,0.235-0.344
	c0.22-0.5,0.344-1.027,0.437-1.563c0.029-0.169,0.003-0.297-0.197-0.324c-0.05-0.007-0.104-0.01-0.089-0.083
	c0.011-0.056,0.05-0.08,0.107-0.08c0.239,0.001,0.478,0,0.717,0.001c0.041,0,0.084,0.006,0.088,0.061
	c0.005,0.058-0.022,0.089-0.08,0.103c-0.209,0.049-0.267,0.216-0.321,0.397c-0.155,0.519-0.247,1.057-0.474,1.555
	c-0.284,0.623-0.773,0.853-1.433,0.675c-0.403-0.109-0.611-0.374-0.606-0.788c0.004-0.434,0.175-0.835,0.269-1.251
	c0.022-0.096,0.056-0.189,0.077-0.286c0.036-0.164,0.024-0.301-0.195-0.307c-0.047-0.001-0.103,0.005-0.102-0.071
	c0.002-0.08,0.054-0.09,0.117-0.09C63.838,17.672,64.035,17.672,64.233,17.672z"/>
<path fill="#636363" d="M86.48,20.285c-0.315,0.217-0.663,0.283-1.033,0.19c-0.57-0.143-0.847-0.618-0.772-1.307
	c0.086-0.799,0.755-1.478,1.524-1.553c0.23-0.022,0.447,0.012,0.633,0.153c0.098,0.074,0.164,0.096,0.222-0.035
	c0.028-0.061,0.087-0.081,0.146-0.056c0.082,0.035,0.024,0.099,0.015,0.148c-0.033,0.186-0.069,0.372-0.105,0.558
	c-0.012,0.06,0.004,0.139-0.098,0.14c-0.099,0-0.094-0.071-0.102-0.135c-0.034-0.259-0.124-0.484-0.402-0.564
	c-0.295-0.085-0.522,0.056-0.695,0.267c-0.391,0.478-0.584,1.036-0.511,1.652c0.06,0.505,0.516,0.699,0.958,0.441
	c0.208-0.121,0.341-0.307,0.442-0.519c0.029-0.061,0.055-0.132,0.138-0.111c0.116,0.029,0.034,0.105,0.023,0.157
	c-0.043,0.193-0.089,0.385-0.142,0.575c-0.018,0.062,0.01,0.158-0.102,0.171C86.483,20.471,86.537,20.341,86.48,20.285z"/>
<path fill="#636363" d="M59.212,20.513c-0.105,0.006-0.26-0.042-0.412-0.112c-0.119-0.055-0.25-0.252-0.344,0.03
	c-0.006,0.017-0.075,0.024-0.112,0.018c-0.06-0.009-0.038-0.06-0.033-0.098c0.026-0.221,0.051-0.442,0.08-0.662
	c0.007-0.057,0.018-0.116,0.099-0.116c0.087-0.001,0.075,0.065,0.09,0.119c0.118,0.428,0.289,0.603,0.599,0.617
	c0.184,0.008,0.348-0.037,0.44-0.212c0.092-0.175,0.08-0.351-0.037-0.512c-0.146-0.202-0.341-0.356-0.523-0.523
	c-0.166-0.152-0.31-0.32-0.34-0.556c-0.038-0.3,0.038-0.562,0.295-0.739c0.279-0.192,0.58-0.209,0.891-0.074
	c0.111,0.049,0.223,0.226,0.339-0.007c0.017-0.035,0.141-0.049,0.125,0.066c-0.029,0.204-0.071,0.405-0.106,0.608
	c-0.008,0.049-0.033,0.069-0.081,0.071c-0.064,0.003-0.083-0.032-0.092-0.088c-0.017-0.105-0.032-0.212-0.089-0.306
	c-0.128-0.215-0.44-0.287-0.649-0.15c-0.212,0.14-0.234,0.37-0.031,0.592c0.194,0.213,0.418,0.398,0.613,0.609
	c0.248,0.268,0.348,0.58,0.184,0.93C59.952,20.369,59.655,20.513,59.212,20.513z"/>
<path fill="#636363" d="M49.788,17.672c0.165,0,0.33-0.001,0.495,0.001c0.045,0,0.106-0.018,0.114,0.054
	c0.006,0.055-0.023,0.093-0.081,0.104c-0.216,0.04-0.274,0.205-0.322,0.39c-0.148,0.574-0.303,1.145-0.458,1.717
	c-0.048,0.178-0.067,0.333,0.183,0.355c0.048,0.004,0.1,0.006,0.095,0.081c-0.006,0.083-0.063,0.082-0.122,0.082
	c-0.355,0-0.709,0-1.064-0.001c-0.036,0-0.089,0.018-0.097-0.042c-0.007-0.053,0.016-0.105,0.07-0.115
	c0.278-0.055,0.308-0.286,0.366-0.501c0.141-0.524,0.285-1.048,0.424-1.573c0.05-0.19,0.107-0.393-0.208-0.395
	c-0.05,0-0.072-0.028-0.068-0.078c0.006-0.065,0.052-0.079,0.104-0.079C49.408,17.671,49.598,17.672,49.788,17.672z"/>
<path fill="#636363" d="M80.858,23.524c0.473-0.003,0.802,0.22,0.853,0.581c0.009,0.06,0.074,0.164-0.059,0.165
	c-0.084,0-0.188,0.059-0.247-0.086c-0.141-0.347-0.465-0.478-0.818-0.35c-0.167,0.06-0.252,0.188-0.257,0.357
	c-0.006,0.174,0.107,0.271,0.264,0.313c0.222,0.06,0.448,0.109,0.67,0.168c0.352,0.093,0.52,0.28,0.535,0.59
	c0.018,0.352-0.123,0.568-0.473,0.693c-0.383,0.137-0.761,0.143-1.103-0.116c-0.15-0.113-0.244-0.268-0.261-0.46
	c-0.006-0.071-0.064-0.179,0.084-0.176c0.091,0.001,0.181-0.032,0.222,0.119c0.121,0.444,0.764,0.607,1.103,0.293
	c0.189-0.175,0.143-0.496-0.103-0.59c-0.214-0.082-0.443-0.125-0.665-0.184c-0.46-0.124-0.622-0.316-0.58-0.687
	c0.042-0.373,0.335-0.616,0.76-0.631C80.809,23.523,80.833,23.524,80.858,23.524z"/>
<path fill="#636363" d="M63.777,24.44c0-0.247,0.006-0.495-0.002-0.742c-0.004-0.13,0.071-0.127,0.157-0.121
	c0.082,0.006,0.191-0.039,0.184,0.119c-0.021,0.535,0.043,1.073-0.04,1.605c-0.074,0.477-0.366,0.713-0.877,0.73
	c-0.516,0.017-0.846-0.21-0.929-0.692c-0.094-0.547-0.022-1.103-0.041-1.654c-0.005-0.141,0.093-0.101,0.168-0.108
	c0.105-0.011,0.168,0.009,0.166,0.141c-0.008,0.363-0.004,0.726-0.002,1.089c0.001,0.14,0.001,0.281,0.017,0.42
	c0.041,0.342,0.243,0.521,0.575,0.521c0.362-0.001,0.58-0.191,0.617-0.54c0.003-0.025,0.004-0.049,0.004-0.074
	c0-0.231,0-0.462,0-0.693C63.775,24.44,63.776,24.44,63.777,24.44z"/>
<path fill="#636363" d="M59.349,24.435c0.213-0.203,0.425-0.287,0.677-0.237c0.269,0.054,0.419,0.209,0.43,0.493
	c0.015,0.379,0.005,0.758,0.013,1.137c0.002,0.111-0.041,0.138-0.144,0.138c-0.113,0-0.162-0.028-0.16-0.153
	c0.007-0.321,0.001-0.643,0.001-0.964c0-0.196-0.034-0.365-0.277-0.391c-0.248-0.027-0.461,0.096-0.512,0.325
	c-0.052,0.235-0.025,0.476-0.028,0.715c-0.002,0.115-0.004,0.231,0,0.346c0.005,0.128-0.081,0.115-0.165,0.12
	c-0.096,0.006-0.128-0.031-0.128-0.127c0.003-0.709,0.004-1.418-0.001-2.127c-0.001-0.11,0.036-0.142,0.142-0.138
	c0.095,0.003,0.156,0.012,0.153,0.132C59.344,23.933,59.349,24.161,59.349,24.435z"/>
<path fill="#636363" d="M68.558,23.602c0.258-0.086,0.404,0.004,0.519,0.229c0.152,0.298,0.34,0.577,0.528,0.89
	c0.185-0.306,0.358-0.593,0.531-0.88c0.166-0.275,0.165-0.275,0.529-0.251c-0.172,0.273-0.316,0.552-0.507,0.792
	c-0.331,0.417-0.462,0.878-0.388,1.398c0.028,0.196-0.086,0.189-0.218,0.184c-0.087-0.003-0.126-0.044-0.11-0.122
	c0.164-0.804-0.335-1.366-0.719-1.97C68.667,23.785,68.614,23.694,68.558,23.602z"/>
<path fill="#636363" d="M83.168,4.767c-0.347-0.01-0.627-0.303-0.614-0.643c0.014-0.363,0.307-0.648,0.654-0.636
	c0.357,0.011,0.629,0.3,0.624,0.663C83.828,4.504,83.533,4.778,83.168,4.767z"/>
<path fill="#636363" d="M65.391,24.178c0.204,0.016,0.436,0.062,0.562,0.31c0.036,0.07,0.102,0.173,0.019,0.216
	c-0.075,0.039-0.194,0.068-0.27-0.071c-0.106-0.193-0.342-0.251-0.557-0.176c-0.096,0.033-0.163,0.09-0.172,0.189
	c-0.009,0.101,0.051,0.179,0.143,0.21c0.155,0.053,0.316,0.091,0.474,0.136c0.385,0.109,0.498,0.234,0.476,0.521
	c-0.022,0.284-0.224,0.463-0.572,0.509c-0.439,0.058-0.735-0.082-0.827-0.402c-0.017-0.06-0.114-0.167,0.029-0.196
	c0.081-0.016,0.179-0.051,0.235,0.095c0.1,0.259,0.497,0.348,0.733,0.191c0.084-0.056,0.124-0.133,0.116-0.229
	c-0.008-0.091-0.068-0.147-0.155-0.173c-0.142-0.041-0.285-0.081-0.427-0.121c-0.399-0.111-0.551-0.262-0.52-0.518
	C64.715,24.369,64.978,24.177,65.391,24.178z"/>
<path fill="#636363" d="M83.475,25.741c-0.185,0.227-0.388,0.291-0.624,0.269c-0.264-0.025-0.442-0.171-0.456-0.433
	c-0.021-0.412-0.011-0.825-0.019-1.237c-0.003-0.131,0.079-0.114,0.163-0.119c0.108-0.007,0.144,0.035,0.143,0.142
	c-0.005,0.322-0.004,0.644-0.001,0.966c0.003,0.301,0.083,0.413,0.295,0.428c0.239,0.017,0.413-0.126,0.46-0.389
	c0.056-0.311,0.023-0.626,0.031-0.939c0.003-0.101-0.035-0.213,0.147-0.212c0.181,0.001,0.147,0.111,0.147,0.213
	c0.001,0.446,0.001,0.891,0,1.337c0,0.095,0.029,0.193-0.135,0.202C83.466,25.977,83.485,25.88,83.475,25.741z"/>
<path fill="#636363" d="M73.901,25.756c-0.103,0.081-0.157,0.131-0.218,0.169c-0.419,0.259-0.883,0.017-0.895-0.472
	c-0.008-0.354-0.001-0.709-0.003-1.063c-0.001-0.096-0.009-0.173,0.134-0.171c0.133,0.001,0.167,0.044,0.164,0.171
	c-0.008,0.321-0.003,0.643-0.002,0.964c0.001,0.195,0.042,0.367,0.275,0.401c0.22,0.033,0.405-0.086,0.469-0.31
	c0.094-0.331,0.032-0.672,0.051-1.009c0.005-0.092-0.057-0.215,0.135-0.219c0.198-0.005,0.158,0.116,0.158,0.225
	c0.001,0.437,0.003,0.874-0.002,1.311c-0.001,0.081,0.063,0.212-0.114,0.213C73.933,25.965,73.829,25.962,73.901,25.756z"/>
<path fill="#636363" d="M58.38,25.999c-0.243-0.011-0.356-0.125-0.357-0.345c-0.002-0.329-0.003-0.659-0.001-0.988
	c0.001-0.111,0.017-0.223-0.155-0.198c-0.087,0.012-0.089-0.052-0.085-0.112c0.004-0.052-0.023-0.139,0.066-0.128
	c0.208,0.025,0.165-0.114,0.175-0.233c0.008-0.103-0.075-0.262,0.15-0.255c0.224,0.007,0.127,0.167,0.14,0.269
	c0.014,0.108-0.033,0.246,0.162,0.216c0.108-0.017,0.115,0.053,0.117,0.137c0.002,0.09-0.039,0.12-0.119,0.108
	c-0.138-0.021-0.163,0.047-0.16,0.169c0.007,0.296,0.002,0.593,0.002,0.889c0,0.092-0.006,0.196,0.117,0.209
	c0.101,0.011,0.181,0.019,0.157,0.152C58.563,26.036,58.443,25.979,58.38,25.999z"/>
<path fill="#636363" d="M75.896,24.477c0.143-0.127,0.218-0.243,0.358-0.268c0.08-0.014,0.191-0.086,0.206,0.07
	c0.009,0.096,0.045,0.204-0.131,0.226c-0.295,0.037-0.408,0.182-0.416,0.479c-0.007,0.271-0.004,0.543-0.001,0.814
	c0.001,0.099,0.001,0.17-0.137,0.169c-0.131-0.001-0.166-0.043-0.164-0.17c0.007-0.452,0-0.905,0.005-1.357
	c0.001-0.089-0.063-0.217,0.129-0.224C75.931,24.21,75.91,24.323,75.896,24.477z"/>
<path fill="#636363" d="M84.691,24.468c0.141-0.12,0.235-0.255,0.403-0.273c0.075-0.008,0.163-0.029,0.163,0.084
	c0,0.084,0.057,0.19-0.108,0.224c-0.371,0.076-0.441,0.175-0.446,0.555c-0.003,0.231,0.001,0.462-0.001,0.693
	c-0.001,0.099,0.04,0.215-0.142,0.219c-0.202,0.004-0.149-0.129-0.15-0.232c-0.003-0.429-0.005-0.858,0.002-1.286
	c0.001-0.086-0.072-0.218,0.121-0.233C84.724,24.202,84.675,24.34,84.691,24.468z"/>
<path fill="#636363" d="M57.346,25.091c0,0.247-0.005,0.495,0.002,0.742c0.003,0.114-0.046,0.138-0.147,0.136
	c-0.095-0.002-0.155-0.015-0.154-0.134c0.005-0.494,0.004-0.989,0.001-1.483c-0.001-0.125,0.075-0.12,0.163-0.124
	c0.091-0.004,0.137,0.023,0.136,0.122C57.344,24.597,57.346,24.844,57.346,25.091z"/>
<path fill="#636363" d="M75.011,24.033c0,0.124-0.001,0.247,0,0.371c0.001,0.077-0.023,0.124-0.112,0.124
	c-0.085,0-0.087-0.053-0.091-0.114c-0.014-0.231-0.023-0.462-0.045-0.691c-0.012-0.125,0.034-0.151,0.15-0.152
	c0.133-0.001,0.151,0.057,0.134,0.166c-0.015,0.098-0.018,0.197-0.026,0.296C75.019,24.033,75.015,24.033,75.011,24.033z"/>
<path fill="#636363" d="M66.98,25.852c-0.009,0.085-0.018,0.167-0.027,0.248c-0.01,0.086-0.027,0.177-0.144,0.147
	c-0.121-0.031,0.001-0.099-0.011-0.152c-0.011-0.046,0.012-0.109-0.053-0.119c-0.223-0.036-0.129-0.213-0.109-0.308
	c0.026-0.121,0.171-0.064,0.255-0.053C67.048,25.634,66.938,25.776,66.98,25.852z"/>
<path fill="#636363" d="M57.345,23.753c0.023,0.128-0.029,0.169-0.16,0.169c-0.162,0-0.129-0.104-0.138-0.198
	c-0.012-0.122,0.042-0.147,0.155-0.153C57.354,23.563,57.359,23.644,57.345,23.753z"/>
<path fill="#636363" d="M89.219,10.451c0.341-0.143,0.685-0.281,1.018-0.442c0.948-0.459,1.876-0.946,2.262-2.032
	c0-0.198,0-0.396,0-0.594c-0.183-0.474-0.517-0.722-1.036-0.711c-0.45,0.009-0.857,0.151-1.235,0.384
	c-0.617,0.38-1.09,0.906-1.468,1.515c-0.545,0.879-0.953,1.809-0.922,2.874c0.025,0.853,0.576,1.42,1.422,1.479
	c0.344,0.024,0.672-0.042,0.985-0.187c0.711-0.329,1.168-0.922,1.609-1.535c0.08-0.111-0.001-0.139-0.064-0.187
	c-0.067-0.051-0.125-0.099-0.201,0.005c-0.165,0.227-0.336,0.449-0.516,0.664c-0.314,0.377-0.662,0.715-1.145,0.871
	c-0.665,0.215-1.096-0.103-1.084-0.801c0.007-0.382,0.095-0.751,0.198-1.116C89.07,10.541,89.128,10.489,89.219,10.451z
	 M90.035,8.073c0.165-0.286,0.351-0.558,0.594-0.784c0.164-0.153,0.346-0.28,0.579-0.305c0.334-0.035,0.519,0.128,0.521,0.464
	c0.002,0.348-0.116,0.66-0.299,0.952c-0.415,0.662-1.45,1.458-2.231,1.708C89.418,9.39,89.669,8.707,90.035,8.073z"/>
<path fill="#636363" d="M60.343,7.752c0.039-0.011,0.08-0.016,0.121-0.023c0.481-0.08,0.954-0.193,1.392-0.412
	c0.507-0.253,0.93-0.594,1.127-1.154c0.381-1.084-0.176-2.132-1.337-2.495c-0.603-0.188-1.219-0.256-1.855-0.215
	c-0.956,0.062-1.914,0.032-2.87-0.026c-0.188-0.011-0.207,0.103-0.221,0.22c-0.019,0.165,0.123,0.088,0.193,0.099
	c0.122,0.018,0.247,0.011,0.37,0.02C57.831,3.808,58,4.033,57.857,4.575c-0.168,0.637-0.348,1.27-0.521,1.905
	c-0.463,1.691-0.873,3.396-1.378,5.076c-0.21,0.698-0.495,0.904-1.226,0.904c-0.232,0-0.309,0.085-0.305,0.309
	c0.08,0,0.161,0.004,0.242-0.001c1.279-0.064,2.557-0.048,3.836-0.001c0.52,0.019,1.04,0.016,1.553-0.088
	c0.799-0.161,1.536-0.444,2.072-1.101c0.973-1.191,0.536-2.927-0.88-3.503c-0.302-0.123-0.617-0.203-0.94-0.274
	C60.327,7.775,60.333,7.755,60.343,7.752z M61.209,9.465c0.048,0.987-0.189,1.874-1.028,2.492c-0.67,0.493-1.442,0.585-2.24,0.452
	c-0.468-0.078-0.676-0.399-0.586-0.866c0.229-1.19,0.601-2.343,0.908-3.514c0.028-0.105,0.081-0.127,0.173-0.125
	c0.181,0.003,0.363,0.001,0.545,0.001c0.338,0.015,0.675,0.026,1.007,0.106C60.792,8.205,61.169,8.636,61.209,9.465z M59.61,7.571
	c-0.393,0.027-0.79,0.004-1.225,0.004c0.316-1.139,0.58-2.276,0.917-3.395c0.083-0.274,0.265-0.402,0.54-0.424
	c0.324-0.026,0.643-0.005,0.954,0.089c0.576,0.175,0.896,0.567,0.942,1.165c0.025,0.314,0.006,0.627-0.065,0.934
	C61.45,6.917,60.73,7.493,59.61,7.571z"/>
<path fill="#636363" d="M71.309,20.122c-0.037-0.028-0.063-0.05-0.125-0.017c-0.366,0.194-0.372,0.188-0.385-0.231
	c-0.002-0.074-0.007-0.148-0.012-0.222c-0.019-0.284-0.143-0.486-0.51-0.562c0.292-0.063,0.511-0.107,0.697-0.24
	c0.231-0.166,0.311-0.397,0.277-0.671c-0.028-0.221-0.171-0.354-0.374-0.415c-0.557-0.168-1.13-0.061-1.695-0.09
	c-0.058-0.003-0.089,0.038-0.097,0.092c-0.009,0.06,0.036,0.065,0.078,0.065c0.264,0.001,0.265,0.155,0.212,0.351
	c-0.159,0.587-0.312,1.176-0.47,1.764c-0.042,0.158-0.119,0.29-0.294,0.334c-0.083,0.021-0.126,0.072-0.102,0.179
	c0.367-0.019,0.737-0.027,1.106-0.005c0.064,0.004,0.139,0.017,0.149-0.081c0.01-0.097-0.072-0.076-0.119-0.081
	c-0.194-0.02-0.223-0.132-0.179-0.295c0.067-0.246,0.137-0.491,0.195-0.739c0.023-0.097,0.076-0.11,0.159-0.108
	c0.241,0.006,0.365,0.121,0.369,0.365c0.002,0.14-0.019,0.28-0.017,0.42c0.003,0.306,0.122,0.485,0.36,0.554
	c0.274,0.08,0.645-0.039,0.782-0.243C71.345,20.196,71.361,20.16,71.309,20.122z M69.913,18.949
	c-0.142,0.024-0.171-0.039-0.126-0.183c0.069-0.22,0.13-0.442,0.179-0.667c0.042-0.194,0.153-0.25,0.338-0.233
	c0.191,0.017,0.309,0.102,0.339,0.295C70.709,18.583,70.385,18.939,69.913,18.949z"/>
<path fill="#636363" d="M76.155,20.289c-0.178-0.037-0.196-0.168-0.202-0.319c-0.013-0.346-0.034-0.691-0.052-1.037
	c-0.021-0.387-0.041-0.773-0.066-1.16c-0.004-0.066,0.02-0.158-0.093-0.172c-0.084-0.011-0.141,0.024-0.183,0.096
	c-0.025,0.043-0.056,0.081-0.084,0.122c-0.449,0.661-0.896,1.322-1.346,1.981c-0.133,0.195-0.243,0.418-0.497,0.491
	c-0.06,0.017-0.071,0.07-0.064,0.118c0.011,0.072,0.076,0.044,0.119,0.045c0.222,0.002,0.445,0.001,0.667,0.001
	c0.058,0,0.114,0.01,0.131-0.072c0.019-0.095-0.054-0.089-0.104-0.098c-0.226-0.041-0.202-0.167-0.121-0.324
	c0.14-0.27,0.309-0.481,0.665-0.398c0.102,0.024,0.214,0.002,0.321,0.005c0.045,0.001,0.115-0.02,0.121,0.048
	c0.014,0.172,0.034,0.346,0.017,0.516c-0.015,0.146-0.165,0.14-0.275,0.16c-0.069,0.013-0.106,0.042-0.096,0.112
	c0.011,0.073,0.072,0.05,0.116,0.051c0.157,0.003,0.313,0.001,0.47,0.001c0.173,0,0.346-0.001,0.519,0
	c0.052,0,0.097-0.005,0.113-0.067C76.248,20.322,76.207,20.3,76.155,20.289z M75.224,19.374c-0.172-0.01-0.346-0.002-0.539-0.002
	c0.073-0.197,0.207-0.339,0.31-0.498c0.101-0.157,0.211-0.309,0.317-0.463c0.019,0.006,0.038,0.013,0.057,0.019
	c0,0.263-0.005,0.526,0.002,0.788C75.375,19.331,75.348,19.381,75.224,19.374z"/>
<path fill="#636363" d="M86.221,24.206c-0.365,0.079-0.6,0.373-0.645,0.807c-0.045,0.431,0.141,0.81,0.47,0.954
	c0.39,0.171,0.837,0.017,1.016-0.35c0.03-0.062,0.103-0.145,0.006-0.187c-0.072-0.031-0.18-0.05-0.243,0.05
	c-0.022,0.035-0.039,0.073-0.062,0.106c-0.141,0.2-0.346,0.216-0.554,0.162c-0.201-0.052-0.268-0.224-0.3-0.413
	c-0.019-0.106,0.015-0.151,0.128-0.147c0.165,0.006,0.33,0.002,0.495,0.001c0.165,0,0.33-0.001,0.495,0
	c0.073,0.001,0.115-0.011,0.129-0.103C87.236,24.543,86.761,24.09,86.221,24.206z M86.67,24.962
	c-0.098-0.01-0.197-0.002-0.296-0.002c-0.082,0-0.165,0.005-0.247-0.001c-0.07-0.005-0.165,0.039-0.205-0.03
	c-0.049-0.085,0.005-0.179,0.054-0.253c0.112-0.172,0.267-0.256,0.482-0.225c0.196,0.029,0.299,0.141,0.361,0.321
	C86.876,24.933,86.829,24.978,86.67,24.962z"/>
<path fill="#636363" d="M77.786,24.214c-0.404-0.099-0.785,0.099-0.929,0.496c-0.098,0.271-0.103,0.552-0.005,0.823
	c0.112,0.307,0.341,0.477,0.67,0.498c0.336,0.022,0.62-0.132,0.75-0.415c0.025-0.054,0.115-0.145,0.016-0.184
	c-0.072-0.028-0.196-0.069-0.258,0.058c-0.018,0.037-0.039,0.072-0.064,0.105c-0.123,0.167-0.297,0.19-0.486,0.169
	c-0.179-0.02-0.273-0.137-0.333-0.292c-0.095-0.248-0.073-0.28,0.188-0.281c0.124,0,0.247,0,0.371,0c0.173,0,0.346-0.001,0.519,0
	c0.082,0.001,0.135-0.01,0.144-0.117C78.405,24.663,78.168,24.307,77.786,24.214z M77.883,24.964
	c-0.254-0.014-0.509-0.004-0.778-0.004c0.065-0.344,0.208-0.501,0.445-0.517c0.236-0.016,0.408,0.096,0.473,0.311
	C78.06,24.879,78.073,24.974,77.883,24.964z"/>
<path fill="#636363" d="M72.004,24.38c-0.254-0.223-0.627-0.274-0.919-0.107c-0.403,0.231-0.451,0.619-0.42,1.029
	c0.027,0.353,0.241,0.624,0.53,0.699c0.008,0.002,0.016,0.002,0.024,0.004c0.618,0.138,1.028-0.23,1.039-0.933
	C72.262,24.809,72.214,24.565,72.004,24.38z M71.875,25.507c-0.07,0.17-0.191,0.26-0.378,0.264
	c-0.194,0.004-0.357-0.042-0.449-0.236c-0.136-0.288-0.121-0.573,0.008-0.858c0.087-0.191,0.248-0.258,0.443-0.248
	c0.187,0.01,0.324,0.101,0.4,0.28c0.05,0.118,0.053,0.24,0.056,0.363C71.959,25.224,71.932,25.368,71.875,25.507z"/>
<path fill-rule="evenodd" clip-rule="evenodd" fill="#636363" d="M38.147,2.747c4.64,0,8.406,3.762,8.406,8.404
	c0,4.4-3.382,8.009-7.684,8.377v-6.47c0.768-0.292,1.315-1.033,1.315-1.907c0-1.125-0.91-2.038-2.037-2.038
	c-1.123,0-2.04,0.913-2.04,2.038c0,0.873,0.55,1.615,1.32,1.907v6.47c-4.305-0.367-7.682-3.977-7.682-8.377
	C29.745,6.509,33.503,2.747,38.147,2.747L38.147,2.747z"/>
</svg>
