<svg xmlns="http://www.w3.org/2000/svg" width="100.774" height="35.109" viewBox="0 0 100.774 35.109">
  <g id="sbi" transform="translate(-24.366 -1.378)">
    <path id="Path_12" data-name="Path 12" d="M42.6,1.38c.044.082.122.042.183.044a14.2,14.2,0,0,1,2.593.343,17.418,17.418,0,0,1,2.885.888,16.824,16.824,0,0,1,2.5,1.264,16.067,16.067,0,0,1,2.05,1.466A17.7,17.7,0,0,1,54.9,7.451a18.43,18.43,0,0,1,1.85,2.6A17.365,17.365,0,0,1,58,12.733a17.073,17.073,0,0,1,.81,3c.1.564.155,1.139.2,1.714a19.559,19.559,0,0,1,.029,2.087,15.278,15.278,0,0,1-.328,2.71,17.146,17.146,0,0,1-2.232,5.616,18.914,18.914,0,0,1-1.965,2.605A17.452,17.452,0,0,1,51.6,33.025a17.146,17.146,0,0,1-4.909,2.383,18.529,18.529,0,0,1-2.517.562c-.413.066-.831.094-1.247.142-.1.012-.161-.017-.146-.134a1.273,1.273,0,0,0,0-.159q0-6.449-.007-12.9a.345.345,0,0,1,.276-.393,3.878,3.878,0,0,0,2.475-2.492,3.719,3.719,0,0,0-.239-3.094A4.057,4.057,0,0,0,39.145,15.7a3.827,3.827,0,0,0-1.411,2.318,3.87,3.87,0,0,0,.615,2.972,3.939,3.939,0,0,0,2.046,1.584.2.2,0,0,1,.155.226q0,6.562,0,13.126c0,.154-.015.2-.2.166-.323-.057-.653-.072-.98-.109a15.075,15.075,0,0,1-2.035-.386,16.81,16.81,0,0,1-3.65-1.4,17.743,17.743,0,0,1-2.659-1.71,16.55,16.55,0,0,1-2.033-1.859,17.014,17.014,0,0,1-1.519-1.884,17.311,17.311,0,0,1-2.7-6.158c-.153-.692-.243-1.391-.355-2.089-.025-.159.053-.328-.046-.479V17.467c.05-.358.024-.724.073-1.082a17.306,17.306,0,0,1,1.446-4.966,17.489,17.489,0,0,1,5.651-6.841,17.162,17.162,0,0,1,4.388-2.286,16.447,16.447,0,0,1,3.811-.863c.345-.035.693-.012,1.038-.05Z" transform="translate(0 0)" fill="#636363"/>
    <path id="Path_13" data-name="Path 13" d="M87.963,1.38c-.081.088-.186.044-.279.044q-6.618,0-13.238,0c-.292,0-.292,0-.292.293q0,17.214-.005,34.429c0,.228.053.288.285.288q6.881-.01,13.762,0c-.062.089-.154.041-.228.041q-6.811,0-13.623.008c-.2,0-.242-.053-.242-.247q.008-17.427,0-34.854Z" transform="translate(16.302 0.001)" fill="#636363"/>
    <path id="Path_14" data-name="Path 14" d="M102.087,1.38a.081.081,0,0,1-.008.044c-.116.1-.259.074-.392.074q-3.167,0-6.333,0h-.2c-.309,0-.321.016-.325.319,0,.061,0,.122,0,.182V35.853c0,.554-.036.5.509.5q3.179,0,6.356,0c.134,0,.276-.029.392.074-.058.094-.15.041-.222.041-2.309,0-4.618,0-6.927.008-.191,0-.231-.046-.231-.234q.008-17.433,0-34.866Z" transform="translate(23.053 0.001)" fill="#636363"/>
    <path id="Path_15" data-name="Path 15" d="M62.98,1.425a.1.1,0,0,0,.007-.045h2.142a.088.088,0,0,0,.007.045.344.344,0,0,1-.275.073q-.8,0-1.6,0A.345.345,0,0,1,62.98,1.425Z" transform="translate(12.656 0.001)" fill="#636363"/>
    <path id="Path_16" data-name="Path 16" d="M65.868,1.415h2.155l-.007,0c.179.074.373-.015.552.048l-.005,0c.117.07.252-.011.37.048l-.007,0c.1.068.223-.008.325.048l-.005,0c.1.068.223-.008.325.048l-.005,0c.068.064.163,0,.234.048l-.005,0c.068.064.163,0,.234.048l-.005,0c.064.064.155,0,.222.049.045.086.13.025.191.054s.151-.011.219.037c.506.191,1.036.309,1.546.5A14.18,14.18,0,0,1,75.9,4.295c.328.247.645.5.956.771a.231.231,0,0,1,.058.333c-1.025,2.033-2.045,4.068-3.078,6.128l-1.006-.818a9.538,9.538,0,0,0-3.188-1.876,5.309,5.309,0,0,1-.754-.215c-.084-.062-.19.008-.275-.046l.005,0c-.084-.066-.193.007-.279-.048l.005,0c-.1-.068-.223.008-.325-.048l.005,0c-.149-.07-.312.012-.462-.048l.005,0a5.81,5.81,0,0,0-1.324-.045l.005,0c-.165.062-.344-.025-.507.048l.005,0c-.1.056-.224-.019-.325.048l.005,0c-.069.05-.162-.013-.23.046a5.994,5.994,0,0,0-1.1.41,2.931,2.931,0,0,0-1.37,1.434,1.393,1.393,0,0,1-.137.39c-.045.119.016.25-.037.368l0-.005a.3.3,0,0,0,0,.275l0-.007c.053.118-.008.248.037.368a6.189,6.189,0,0,0,.291.8,4.013,4.013,0,0,0,1.613,1.623,21.975,21.975,0,0,0,3.367,1.3c.884.323,1.762.657,2.618,1.052A14.842,14.842,0,0,1,73.53,18.4,11.052,11.052,0,0,1,76.5,21.866a9.44,9.44,0,0,1,.913,2.472c.048.07-.017.163.046.231l0-.005c.056.086-.019.2.048.279l0-.005c.058.118-.021.254.048.37l0-.005c.064.181-.027.373.048.552l0-.005a4.526,4.526,0,0,1,0,.967l0-.005c-.074.179.015.373-.048.552l0-.005c-.07.117.011.252-.048.37l0-.005c-.066.085.007.193-.048.279l0-.005c-.064.068,0,.163-.048.234l0-.005c-.062.068,0,.161-.046.231a9.911,9.911,0,0,1-.822,2.185,10.655,10.655,0,0,1-1.6,2.316,11.067,11.067,0,0,1-3.553,2.561,15.186,15.186,0,0,1-1.909.681.51.51,0,0,1-.135.007c-.069.048-.159-.015-.226.044-.044.082-.125.025-.185.048-.07.048-.163-.017-.231.046l.005,0c-.086.056-.2-.019-.279.048l.005,0c-.1.056-.224-.019-.325.048l.005,0c-.118.058-.254-.021-.37.048l.005,0c-.165.062-.344-.025-.507.048l.005,0a15.434,15.434,0,0,1-1.787,0l.005,0c-.179-.074-.373.015-.552-.048l.005,0c-.133-.073-.283.012-.416-.048l.005,0c-.1-.068-.223.008-.325-.048l.005,0c-.084-.066-.193.007-.279-.048l.005,0c-.068-.064-.163,0-.234-.048l.005,0c-.068-.064-.163,0-.234-.048l.005,0c-.068-.062-.161,0-.231-.046-.295-.065-.6-.112-.886-.2a19.418,19.418,0,0,1-3.708-1.538,24.314,24.314,0,0,1-3.062-1.989c-.453-.34-.876-.718-1.313-1.078-.1-.086-.119-.15-.023-.276.716-.927,1.415-1.868,2.127-2.8.632-.826,1.28-1.638,1.905-2.47.1-.134.177-.093.248-.033.583.482,1.195.927,1.818,1.356.469.323.951.623,1.442.908A12.167,12.167,0,0,0,64.4,29.145c.183.054.373.088.56.13.073.04.159-.009.231.037l-.005,0c.084.066.193-.007.279.048l-.005,0c.149.07.312-.012.462.048l-.005,0a1.588,1.588,0,0,0,.661.012,1.133,1.133,0,0,0,.389-.057l-.005,0c.086-.056.2.019.279-.048l-.005,0c.069-.05.162.013.23-.046a11.346,11.346,0,0,0,1.079-.4,3.183,3.183,0,0,0,1.369-1.255,4.34,4.34,0,0,0,.242-.578c.058-.068-.005-.159.046-.23l0,.007a2.548,2.548,0,0,0,0-.822l0,.005c-.05-.069.013-.162-.046-.23a4.518,4.518,0,0,0-.578-1.2,4.921,4.921,0,0,0-1.414-1.277,20.059,20.059,0,0,0-3.4-1.532c-.526-.212-1.044-.441-1.559-.676-.961-.437-1.913-.892-2.847-1.384a13.161,13.161,0,0,1-1.737-1.017,6.659,6.659,0,0,1-1.364-1.415A10.106,10.106,0,0,1,55.8,14.395a4.968,4.968,0,0,1-.23-.8c-.048-.069.015-.159-.044-.226-.082-.044-.025-.125-.048-.185-.048-.07.017-.163-.046-.231l0,.005c-.052-.07.015-.166-.048-.234l0,.005c-.056-.1.019-.224-.048-.325l0,.005c-.061-.134.024-.284-.048-.416l0,.005a12.455,12.455,0,0,1,0-1.605l0,.005c.073-.133-.012-.283.048-.416l0,.005c.066-.084-.007-.193.048-.279l0,.005c.062-.068,0-.161.046-.231a5.091,5.091,0,0,1,.364-1.247,10.222,10.222,0,0,1,1.183-2.147,10.761,10.761,0,0,1,1.872-2.013A11.241,11.241,0,0,1,61.406,2.49a9.675,9.675,0,0,1,2.322-.761c.07-.048.163.017.231-.046l0,.005c.07-.052.166.015.234-.048l-.005,0c.07-.052.166.015.234-.048l-.005,0c.086-.056.2.019.279-.048l-.005,0c.1-.056.224.019.325-.048l-.005,0c.118-.058.254.021.37-.048l-.005,0c.165-.062.344.025.507-.048Z" transform="translate(9.767 0.011)" fill="#636363"/>
    <path id="Path_17" data-name="Path 17" d="M102.069,36.421c-2.355,0-4.71,0-7.065,0-.226,0-.271-.065-.271-.279q.008-17.228,0-34.457c0-.215.045-.28.271-.279,2.354.008,4.71.005,7.065,0,0,.076.007.151.007.227V36.194C102.075,36.27,102.072,36.346,102.069,36.421Z" transform="translate(23.063 0.011)" fill="#636363"/>
    <path id="Path_18" data-name="Path 18" d="M91.168,10.518V8.139c.06.021.044.072.044.114q0,1.075,0,2.152C91.212,10.447,91.228,10.5,91.168,10.518Z" transform="translate(21.895 2.216)" fill="#636363"/>
    <path id="Path_19" data-name="Path 19" d="M62.672,27.779h1.787A7.317,7.317,0,0,1,62.672,27.779Z" transform="translate(12.555 8.653)" fill="#636363"/>
    <path id="Path_20" data-name="Path 20" d="M55.03,8.174V9.779c-.06-.02-.044-.072-.044-.113q0-.689,0-1.378C54.988,8.246,54.972,8.194,55.03,8.174Z" transform="translate(10.035 2.227)" fill="#636363"/>
    <path id="Path_21" data-name="Path 21" d="M63.258,6.686a.609.609,0,0,1,.451-.044,4.183,4.183,0,0,1,.872.089C64.14,6.753,63.7,6.646,63.258,6.686Z" transform="translate(12.747 1.718)" fill="#636363"/>
    <path id="Path_22" data-name="Path 22" d="M91.183,8.46c-.081-.053-.048-.135-.048-.2,0-.358,0-.718,0-1.077.089.078.04.181.041.271C91.185,7.786,91.182,8.123,91.183,8.46Z" transform="translate(21.882 1.901)" fill="#636363"/>
    <path id="Path_23" data-name="Path 23" d="M64.068,22.454a1.827,1.827,0,0,1-1.05.045A7.714,7.714,0,0,0,64.068,22.454Z" transform="translate(12.668 6.908)" fill="#636363"/>
    <path id="Path_24" data-name="Path 24" d="M92.3,20.593V19.535A2.583,2.583,0,0,1,92.3,20.593Z" transform="translate(22.266 5.951)" fill="#636363"/>
    <path id="Path_25" data-name="Path 25" d="M71.807,20.709v-.967A2.16,2.16,0,0,1,71.807,20.709Z" transform="translate(15.549 6.019)" fill="#636363"/>
    <path id="Path_26" data-name="Path 26" d="M66.242,19.916a1.4,1.4,0,0,1,0,.822Z" transform="translate(13.725 6.076)" fill="#636363"/>
    <path id="Path_27" data-name="Path 27" d="M88.809,13.93a.748.748,0,0,1-.481-.086h.308C88.657,13.944,88.789,13.825,88.809,13.93Z" transform="translate(20.964 4.086)" fill="#636363"/>
    <path id="Path_28" data-name="Path 28" d="M92.268,20.972c.025-.214-.06-.436.048-.644C92.283,20.542,92.368,20.764,92.268,20.972Z" transform="translate(22.253 6.211)" fill="#636363"/>
    <path id="Path_29" data-name="Path 29" d="M92.317,19.7c-.108-.207-.024-.43-.048-.644C92.367,19.263,92.282,19.487,92.317,19.7Z" transform="translate(22.253 5.794)" fill="#636363"/>
    <path id="Path_30" data-name="Path 30" d="M84.713,27.795c.193-.1.4-.025.6-.048C85.118,27.85,84.911,27.759,84.713,27.795Z" transform="translate(19.779 8.64)" fill="#636363"/>
    <path id="Path_31" data-name="Path 31" d="M65.149,1.46c-.183-.025-.377.06-.552-.048C64.78,1.443,64.973,1.365,65.149,1.46Z" transform="translate(13.186 0.011)" fill="#636363"/>
    <path id="Path_32" data-name="Path 32" d="M71.824,19.882c-.108-.177-.024-.369-.048-.552C71.87,19.507,71.792,19.7,71.824,19.882Z" transform="translate(15.536 5.884)" fill="#636363"/>
    <path id="Path_33" data-name="Path 33" d="M71.775,21.018c.025-.183-.06-.377.048-.552C71.792,20.648,71.871,20.84,71.775,21.018Z" transform="translate(15.536 6.256)" fill="#636363"/>
    <path id="Path_34" data-name="Path 34" d="M62.26,27.747c.183.025.377-.06.552.048C62.629,27.763,62.437,27.843,62.26,27.747Z" transform="translate(12.42 8.64)" fill="#636363"/>
    <path id="Path_35" data-name="Path 35" d="M63.11,1.413c-.161.1-.339.028-.507.048C62.764,1.358,62.943,1.45,63.11,1.413Z" transform="translate(12.532 0.011)" fill="#636363"/>
    <path id="Path_36" data-name="Path 36" d="M91.136,10.434c.02-.169-.053-.347.048-.507C91.146,10.094,91.238,10.274,91.136,10.434Z" transform="translate(21.882 2.802)" fill="#636363"/>
    <path id="Path_37" data-name="Path 37" d="M62.881,6.718c.161-.1.339-.028.507-.048C63.226,6.772,63.047,6.681,62.881,6.718Z" transform="translate(12.624 1.732)" fill="#636363"/>
    <path id="Path_38" data-name="Path 38" d="M64.013,27.795c.161-.1.339-.028.507-.048C64.36,27.849,64.18,27.758,64.013,27.795Z" transform="translate(12.995 8.64)" fill="#636363"/>
    <path id="Path_39" data-name="Path 39" d="M63.136,22.5c-.153-.024-.317.058-.462-.048C62.827,22.487,62.991,22.406,63.136,22.5Z" transform="translate(12.556 6.908)" fill="#636363"/>
    <path id="Path_40" data-name="Path 40" d="M64.251,6.7c.153.024.317-.058.462.048C64.56,6.72,64.4,6.8,64.251,6.7Z" transform="translate(13.073 1.743)" fill="#636363"/>
    <path id="Path_41" data-name="Path 41" d="M61.951,27.712c.138.021.287-.052.416.048C62.23,27.73,62.081,27.806,61.951,27.712Z" transform="translate(12.319 8.629)" fill="#636363"/>
    <path id="Path_42" data-name="Path 42" d="M55.066,7.865c-.021.138.052.287-.048.416C55.048,8.144,54.972,7.994,55.066,7.865Z" transform="translate(10.046 2.126)" fill="#636363"/>
    <path id="Path_43" data-name="Path 43" d="M55.017,9.378c.1.129.027.278.048.416C54.972,9.663,55.048,9.515,55.017,9.378Z" transform="translate(10.046 2.622)" fill="#636363"/>
    <path id="Path_44" data-name="Path 44" d="M92.281,19.163c-.1-.129-.027-.278-.048-.416C92.327,18.876,92.252,19.024,92.281,19.163Z" transform="translate(22.242 5.693)" fill="#636363"/>
    <path id="Path_45" data-name="Path 45" d="M91.15,7.273c-.1-.112-.027-.247-.048-.37C91.2,7.016,91.118,7.153,91.15,7.273Z" transform="translate(21.871 1.811)" fill="#636363"/>
    <path id="Path_46" data-name="Path 46" d="M84.944,1.46c-.121-.021-.254.052-.366-.046C84.7,1.442,84.833,1.363,84.944,1.46Z" transform="translate(19.735 0.011)" fill="#636363"/>
    <path id="Path_47" data-name="Path 47" d="M92.234,21.179c.021-.122-.054-.258.048-.37C92.251,20.93,92.331,21.067,92.234,21.179Z" transform="translate(22.242 6.369)" fill="#636363"/>
    <path id="Path_48" data-name="Path 48" d="M64.391,27.761c.112-.1.247-.027.37-.048C64.649,27.809,64.513,27.729,64.391,27.761Z" transform="translate(13.118 8.629)" fill="#636363"/>
    <path id="Path_49" data-name="Path 49" d="M60.517,9.3c-.077-.116-.021-.246-.037-.368C60.576,9.043,60.508,9.173,60.517,9.3Z" transform="translate(11.835 2.475)" fill="#636363"/>
    <path id="Path_50" data-name="Path 50" d="M71.741,21.247c.021-.122-.054-.258.048-.37C71.758,21,71.838,21.135,71.741,21.247Z" transform="translate(15.525 6.391)" fill="#636363"/>
    <path id="Path_51" data-name="Path 51" d="M85.159,27.761c.112-.1.247-.027.37-.048C85.417,27.809,85.28,27.729,85.159,27.761Z" transform="translate(19.925 8.629)" fill="#636363"/>
    <path id="Path_52" data-name="Path 52" d="M62.7,1.447c-.112.1-.247.027-.37.048C62.442,1.4,62.578,1.477,62.7,1.447Z" transform="translate(12.442 0.022)" fill="#636363"/>
    <path id="Path_53" data-name="Path 53" d="M65.379,1.494c-.122-.021-.258.054-.37-.048C65.13,1.477,65.267,1.4,65.379,1.494Z" transform="translate(13.321 0.022)" fill="#636363"/>
    <path id="Path_54" data-name="Path 54" d="M71.789,19.425c-.1-.112-.027-.247-.048-.37C71.838,19.168,71.758,19.3,71.789,19.425Z" transform="translate(15.525 5.794)" fill="#636363"/>
    <path id="Path_55" data-name="Path 55" d="M60.481,8.821c.016-.122-.04-.251.037-.368C60.508,8.576,60.575,8.707,60.481,8.821Z" transform="translate(11.835 2.319)" fill="#636363"/>
    <path id="Path_56" data-name="Path 56" d="M61.711,27.677c.108.017.228-.048.325.048C61.929,27.7,61.808,27.768,61.711,27.677Z" transform="translate(12.24 8.618)" fill="#636363"/>
    <path id="Path_57" data-name="Path 57" d="M64.594,6.737c.108.017.228-.048.325.048C64.813,6.757,64.691,6.829,64.594,6.737Z" transform="translate(13.185 1.755)" fill="#636363"/>
    <path id="Path_58" data-name="Path 58" d="M65.848,1.563c-.108-.017-.228.048-.325-.048C65.631,1.544,65.751,1.473,65.848,1.563Z" transform="translate(13.489 0.045)" fill="#636363"/>
    <path id="Path_59" data-name="Path 59" d="M64.666,27.725c.1-.1.216-.032.325-.048C64.893,27.768,64.772,27.7,64.666,27.725Z" transform="translate(13.209 8.618)" fill="#636363"/>
    <path id="Path_60" data-name="Path 60" d="M55.052,9.687c.1.1.032.216.048.325C55.01,9.914,55.081,9.793,55.052,9.687Z" transform="translate(10.058 2.723)" fill="#636363"/>
    <path id="Path_61" data-name="Path 61" d="M62.64,6.752c.1-.1.216-.032.325-.048C62.868,6.794,62.746,6.722,62.64,6.752Z" transform="translate(12.545 1.744)" fill="#636363"/>
    <path id="Path_62" data-name="Path 62" d="M92.2,21.408c.017-.108-.048-.228.048-.325C92.218,21.189,92.29,21.311,92.2,21.408Z" transform="translate(22.231 6.458)" fill="#636363"/>
    <path id="Path_63" data-name="Path 63" d="M85.434,27.725c.1-.1.216-.032.325-.048C85.661,27.768,85.54,27.7,85.434,27.725Z" transform="translate(20.015 8.618)" fill="#636363"/>
    <path id="Path_64" data-name="Path 64" d="M65.608,1.529c-.108-.017-.228.048-.325-.048C65.391,1.509,65.511,1.437,65.608,1.529Z" transform="translate(13.411 0.034)" fill="#636363"/>
    <path id="Path_65" data-name="Path 65" d="M62.413,1.48c-.1.1-.216.032-.325.048C62.185,1.438,62.307,1.509,62.413,1.48Z" transform="translate(12.364 0.033)" fill="#636363"/>
    <path id="Path_66" data-name="Path 66" d="M92.247,18.82c-.1-.08-.031-.186-.048-.279C92.3,18.619,92.215,18.728,92.247,18.82Z" transform="translate(22.231 5.625)" fill="#636363"/>
    <path id="Path_67" data-name="Path 67" d="M71.754,19.128c-.1-.08-.031-.186-.048-.279C71.8,18.929,71.722,19.038,71.754,19.128Z" transform="translate(15.514 5.726)" fill="#636363"/>
    <path id="Path_68" data-name="Path 68" d="M92.213,18.614c-.1-.08-.031-.186-.048-.279C92.261,18.413,92.181,18.524,92.213,18.614Z" transform="translate(22.22 5.558)" fill="#636363"/>
    <path id="Path_69" data-name="Path 69" d="M91.1,10.581c.012-.093-.048-.2.046-.276C91.118,10.394,91.195,10.5,91.1,10.581Z" transform="translate(21.871 2.926)" fill="#636363"/>
    <path id="Path_70" data-name="Path 70" d="M64.084,22.42c-.08.1-.186.031-.279.048C63.883,22.372,63.994,22.452,64.084,22.42Z" transform="translate(12.926 6.896)" fill="#636363"/>
    <path id="Path_71" data-name="Path 71" d="M85.88,27.657c.08-.1.186-.031.279-.048C86.079,27.705,85.97,27.625,85.88,27.657Z" transform="translate(20.162 8.596)" fill="#636363"/>
    <path id="Path_72" data-name="Path 72" d="M61.505,27.643c.093.017.2-.046.279.048C61.694,27.659,61.583,27.739,61.505,27.643Z" transform="translate(12.173 8.607)" fill="#636363"/>
    <path id="Path_73" data-name="Path 73" d="M85.129,1.494c-.093-.017-.2.046-.279-.048C84.94,1.478,85.05,1.4,85.129,1.494Z" transform="translate(19.824 0.022)" fill="#636363"/>
    <path id="Path_74" data-name="Path 74" d="M62.748,22.468c-.093-.017-.2.046-.279-.048C62.559,22.452,62.668,22.372,62.748,22.468Z" transform="translate(12.488 6.896)" fill="#636363"/>
    <path id="Path_75" data-name="Path 75" d="M60.5,9a.192.192,0,0,1,0-.275Z" transform="translate(11.823 2.408)" fill="#636363"/>
    <path id="Path_76" data-name="Path 76" d="M64.906,27.691c.08-.1.186-.031.279-.048C65.107,27.739,65,27.659,64.906,27.691Z" transform="translate(13.287 8.607)" fill="#636363"/>
    <path id="Path_77" data-name="Path 77" d="M55.1,7.659c-.017.093.046.2-.048.279C55.084,7.848,55,7.737,55.1,7.659Z" transform="translate(10.057 2.059)" fill="#636363"/>
    <path id="Path_78" data-name="Path 78" d="M85.674,27.691c.08-.1.186-.031.279-.048C85.873,27.739,85.764,27.659,85.674,27.691Z" transform="translate(20.094 8.607)" fill="#636363"/>
    <path id="Path_79" data-name="Path 79" d="M65.04,6.806c.092.015.2-.044.275.046C65.226,6.825,65.118,6.9,65.04,6.806Z" transform="translate(13.331 1.777)" fill="#636363"/>
    <path id="Path_80" data-name="Path 80" d="M92.164,21.6c.017-.093-.046-.2.048-.279C92.182,21.414,92.261,21.523,92.164,21.6Z" transform="translate(22.22 6.537)" fill="#636363"/>
    <path id="Path_81" data-name="Path 81" d="M64.834,6.772c.093.017.2-.046.279.048C65.024,6.788,64.914,6.868,64.834,6.772Z" transform="translate(13.264 1.766)" fill="#636363"/>
    <path id="Path_82" data-name="Path 82" d="M62.162,1.515c-.08.1-.186.031-.279.048C61.961,1.467,62.07,1.547,62.162,1.515Z" transform="translate(12.296 0.045)" fill="#636363"/>
    <path id="Path_83" data-name="Path 83" d="M85.323,1.53c-.089-.017-.193.046-.267-.049C85.141,1.516,85.25,1.427,85.323,1.53Z" transform="translate(19.892 0.033)" fill="#636363"/>
    <path id="Path_84" data-name="Path 84" d="M71.706,21.431c.017-.093-.046-.2.048-.279C71.722,21.242,71.8,21.352,71.706,21.431Z" transform="translate(15.514 6.481)" fill="#636363"/>
    <path id="Path_85" data-name="Path 85" d="M66.256,20.531c-.015.077.042.167-.046.23C66.232,20.685,66.169,20.593,66.256,20.531Z" transform="translate(13.714 6.278)" fill="#636363"/>
    <path id="Path_86" data-name="Path 86" d="M71.671,21.592c.013-.078-.041-.171.048-.234C71.694,21.434,71.759,21.529,71.671,21.592Z" transform="translate(15.503 6.549)" fill="#636363"/>
    <path id="Path_87" data-name="Path 87" d="M71.64,21.76c.009-.078-.042-.169.046-.231C71.66,21.6,71.723,21.7,71.64,21.76Z" transform="translate(15.492 6.605)" fill="#636363"/>
    <path id="Path_88" data-name="Path 88" d="M92.133,21.76c.009-.078-.042-.169.046-.231C92.153,21.6,92.218,21.7,92.133,21.76Z" transform="translate(22.209 6.605)" fill="#636363"/>
    <path id="Path_89" data-name="Path 89" d="M92.064,22.068c.007-.077-.035-.161.035-.227C92.093,21.917,92.146,22,92.064,22.068Z" transform="translate(22.186 6.707)" fill="#636363"/>
    <path id="Path_90" data-name="Path 90" d="M62.53,22.434c-.077-.011-.163.033-.231-.037C62.377,22.4,62.465,22.349,62.53,22.434Z" transform="translate(12.433 6.885)" fill="#636363"/>
    <path id="Path_91" data-name="Path 91" d="M64.24,22.387c-.062.088-.153.031-.23.046C64.072,22.346,64.164,22.41,64.24,22.387Z" transform="translate(12.994 6.885)" fill="#636363"/>
    <path id="Path_92" data-name="Path 92" d="M66.21,19.748c.088.062.031.153.046.23C66.169,19.915,66.232,19.824,66.21,19.748Z" transform="translate(13.714 6.021)" fill="#636363"/>
    <path id="Path_93" data-name="Path 93" d="M71.72,18.91c-.088-.062-.037-.153-.046-.231C71.758,18.743,71.693,18.836,71.72,18.91Z" transform="translate(15.503 5.671)" fill="#636363"/>
    <path id="Path_94" data-name="Path 94" d="M92.179,18.4c-.088-.062-.037-.153-.046-.231C92.217,18.227,92.152,18.32,92.179,18.4Z" transform="translate(22.209 5.502)" fill="#636363"/>
    <path id="Path_95" data-name="Path 95" d="M55.12,10.1c.088.062.037.153.046.231C55.082,10.266,55.147,10.173,55.12,10.1Z" transform="translate(10.08 2.858)" fill="#636363"/>
    <path id="Path_96" data-name="Path 96" d="M60.992,27.542c.078.009.169-.042.231.046C61.147,27.562,61.056,27.627,60.992,27.542Z" transform="translate(12.004 8.573)" fill="#636363"/>
    <path id="Path_97" data-name="Path 97" d="M65.424,27.585c.061-.086.15-.033.226-.044C65.589,27.629,65.5,27.562,65.424,27.585Z" transform="translate(13.457 8.573)" fill="#636363"/>
    <path id="Path_98" data-name="Path 98" d="M61.161,27.574c.078.013.171-.041.234.048C61.319,27.6,61.225,27.662,61.161,27.574Z" transform="translate(12.06 8.584)" fill="#636363"/>
    <path id="Path_99" data-name="Path 99" d="M86.086,27.622c.062-.088.153-.037.231-.046C86.253,27.662,86.16,27.6,86.086,27.622Z" transform="translate(20.229 8.584)" fill="#636363"/>
    <path id="Path_100" data-name="Path 100" d="M61.333,27.608c.078.013.171-.041.234.048C61.491,27.631,61.4,27.7,61.333,27.608Z" transform="translate(12.116 8.596)" fill="#636363"/>
    <path id="Path_101" data-name="Path 101" d="M65.112,27.657c.062-.088.153-.037.231-.046C65.279,27.7,65.186,27.63,65.112,27.657Z" transform="translate(13.355 8.596)" fill="#636363"/>
    <path id="Path_102" data-name="Path 102" d="M55.086,9.927c.089.062.035.155.048.234C55.046,10.1,55.113,10,55.086,9.927Z" transform="translate(10.069 2.802)" fill="#636363"/>
    <path id="Path_103" data-name="Path 103" d="M55.132,7.489c-.009.078.042.169-.046.231C55.113,7.646,55.047,7.553,55.132,7.489Z" transform="translate(10.069 2.003)" fill="#636363"/>
    <path id="Path_104" data-name="Path 104" d="M91.114,6.965c-.088-.062-.037-.153-.046-.231C91.154,6.8,91.089,6.889,91.114,6.965Z" transform="translate(21.86 1.755)" fill="#636363"/>
    <path id="Path_105" data-name="Path 105" d="M62.472,6.783c.062-.088.153-.031.23-.046C62.639,6.825,62.548,6.762,62.472,6.783Z" transform="translate(12.489 1.755)" fill="#636363"/>
    <path id="Path_106" data-name="Path 106" d="M66.637,1.735c-.073-.011-.155.033-.219-.037C66.492,1.7,66.576,1.651,66.637,1.735Z" transform="translate(13.783 0.101)" fill="#636363"/>
    <path id="Path_107" data-name="Path 107" d="M66.329,1.666c-.074-.013-.163.04-.222-.049C66.179,1.646,66.272,1.575,66.329,1.666Z" transform="translate(13.681 0.078)" fill="#636363"/>
    <path id="Path_108" data-name="Path 108" d="M61.6,1.617c-.062.088-.153.037-.231.046C61.433,1.578,61.526,1.644,61.6,1.617Z" transform="translate(12.128 0.078)" fill="#636363"/>
    <path id="Path_109" data-name="Path 109" d="M66.17,1.632c-.078-.013-.171.041-.234-.048C66.012,1.609,66.106,1.543,66.17,1.632Z" transform="translate(13.625 0.067)" fill="#636363"/>
    <path id="Path_110" data-name="Path 110" d="M61.773,1.583c-.062.089-.155.035-.234.048C61.6,1.543,61.7,1.61,61.773,1.583Z" transform="translate(12.184 0.067)" fill="#636363"/>
    <path id="Path_111" data-name="Path 111" d="M66,1.6c-.078-.013-.171.041-.234-.048C65.84,1.576,65.935,1.509,66,1.6Z" transform="translate(13.568 0.056)" fill="#636363"/>
    <path id="Path_112" data-name="Path 112" d="M61.945,1.549c-.062.089-.155.035-.234.048C61.773,1.509,61.868,1.576,61.945,1.549Z" transform="translate(12.24 0.056)" fill="#636363"/>
    <path id="Path_113" data-name="Path 113" d="M55.192,10.411c.086.061.033.15.044.226C55.148,10.576,55.216,10.484,55.192,10.411Z" transform="translate(10.102 2.961)" fill="#636363"/>
    <g id="Group_3" data-name="Group 3" transform="translate(90.434 1.378)">
      <path id="Path_114" data-name="Path 114" d="M84.85,1.446h0l0,0Z" transform="translate(-70.61 -1.356)" fill="#636363"/>
      <path id="Path_115" data-name="Path 115" d="M85.164,27.745h0l0,0Z" transform="translate(-70.509 7.264)" fill="#636363"/>
      <path id="Path_116" data-name="Path 116" d="M91.1,6.9l0,.005h0Z" transform="translate(-68.562 0.433)" fill="#636363"/>
      <path id="Path_117" data-name="Path 117" d="M91.134,7.178h0l0,0Z" transform="translate(-68.55 0.523)" fill="#636363"/>
      <path id="Path_118" data-name="Path 118" d="M92.269,20.809v0h0Z" transform="translate(-68.179 4.991)" fill="#636363"/>
      <path id="Path_119" data-name="Path 119" d="M92.235,21.083h0v.005Z" transform="translate(-68.19 5.08)" fill="#636363"/>
      <path id="Path_120" data-name="Path 120" d="M85.439,27.71l0,0h0Z" transform="translate(-70.418 7.252)" fill="#636363"/>
      <path id="Path_121" data-name="Path 121" d="M85.679,27.676l-.005,0h0Z" transform="translate(-70.34 7.241)" fill="#636363"/>
      <path id="Path_122" data-name="Path 122" d="M91.168,8.139h0l0,.005Z" transform="translate(-68.539 0.838)" fill="#636363"/>
      <path id="Path_123" data-name="Path 123" d="M98.258,26.544a5.422,5.422,0,0,0,0-1.058l0,.005c-.074-.21.015-.433-.048-.644-.066-.13.013-.276-.044-.406-.065-.084.008-.191-.046-.277l0,.005c-.066-.084.007-.193-.048-.279l0,.005c-.062-.068,0-.161-.046-.231a8.036,8.036,0,0,0-1.147-2.71,8.377,8.377,0,0,0-1.166-1.494,7,7,0,0,0-1.083-.913,5.494,5.494,0,0,0-1.174-.534c-.138-.045-.288-.025-.43-.078.09.021.173.06.256-.008a2.506,2.506,0,0,0,1.18-.668,6.268,6.268,0,0,0,1.044-1.172A7.288,7.288,0,0,0,96.665,13.5c.05-.085-.019-.19.044-.274.06-.163-.025-.341.048-.5l0,.005a13.208,13.208,0,0,0,.019-1.337,7.783,7.783,0,0,0-.017-1.041c-.049-.074-.02-.158-.024-.238-.015-.347.024-.693-.021-1.04-.064-.114.011-.246-.044-.361-.061-.068,0-.159-.045-.23A6.837,6.837,0,0,0,95.562,6,9.752,9.752,0,0,0,93.4,3.692a10.977,10.977,0,0,0-3.252-1.766c-.408-.138-.826-.246-1.239-.366-.082-.056-.187.019-.267-.049l.005,0c-.086-.054-.194.017-.277-.048-.116-.053-.247.021-.361-.044a.245.245,0,0,1,0-.044h-.045a.543.543,0,0,1-.268.023H74.383c-.258,0-.258,0-.258.256V36.2c0,.252,0,.252.262.252H87.966a.461.461,0,0,0,.224-.02l-.005,0c.2-.072.4.012.6-.048.114-.064.246.011.361-.044.1-.064.216.005.317-.045.084-.066.193.007.279-.048l-.005,0c.084-.066.192.007.279-.048l-.005,0c.068-.062.161,0,.231-.046a1,1,0,0,0,.157-.012,11.484,11.484,0,0,0,2.776-1.041,10.106,10.106,0,0,0,1.994-1.442,8.393,8.393,0,0,0,.875-.968,10.457,10.457,0,0,0,1.9-3.922c.042-.072-.005-.155.035-.227a.259.259,0,0,0,.057-.183c.048-.07-.017-.163.046-.231l0,.005c.054-.086-.019-.2.048-.279l0,.005c.056-.1-.019-.223.048-.324s-.02-.247.044-.361c.062-.211-.027-.433.048-.643Zm-7.07-.689c-.058.163.023.339-.045.5,0,0,0,0,0,0l0,.005s0,0,0,0c-.053.084.015.189-.045.272a6.527,6.527,0,0,1-.409,1.1,4.07,4.07,0,0,1-2.828,2.142c-.017,0-.032.027-.048.04a5.892,5.892,0,0,1-.648.07q-2.894,0-5.786,0c-.183,0-.243-.04-.243-.234q.008-10.866,0-21.733c0-.163.02-.238.216-.236,1.686.009,3.371.005,5.057.005.06,0,.122-.017.177.025l-.005,0c.1.058.22-.016.32.046a4.347,4.347,0,0,1,1.259.546,3.61,3.61,0,0,1,1.49,2.211c0,.011.023.017.033.025.056.068-.005.159.045.227,0,0,0,0,0,0l0,.005h0c.069.178-.017.37.046.548l0-.005a1.4,1.4,0,0,1,0,.595l0-.005c-.062.147.02.309-.046.457h0l0,.005s0,0,0-.005c-.052.069.011.161-.045.228a3.99,3.99,0,0,1-.584,1.172,2.922,2.922,0,0,1-1.718,1.11c-.031.007-.058.011-.069.044a5.587,5.587,0,0,1-.648.07c-.607,0-1.215,0-1.822,0-.143,0-.2.031-.2.187q.008,3.053,0,6.105c0,.155.05.189.2.187.821-.007,1.64,0,2.46,0a.407.407,0,0,1,.244.025l-.005,0c.1.058.22-.016.32.046a7.054,7.054,0,0,1,1,.362,4.132,4.132,0,0,1,2.195,2.875c0,.017.027.032.04.048.056.068-.005.158.044.227,0,0,0,0,0,0l0,.005s0,0,0,0c.065.194-.012.4.045.592C91.188,25.766,91.188,25.81,91.188,25.855Z" transform="translate(-74.125 -1.378)" fill="#636363"/>
      <path id="Path_124" data-name="Path 124" d="M91.137,10.305l0,0v0Z" transform="translate(-68.55 1.548)" fill="#636363"/>
      <path id="Path_125" data-name="Path 125" d="M92.266,19.055h0l0,.007Z" transform="translate(-68.179 4.416)" fill="#636363"/>
      <path id="Path_126" data-name="Path 126" d="M92.232,18.746v.007Z" transform="translate(-68.19 4.314)" fill="#636363"/>
    </g>
    <path id="Path_127" data-name="Path 127" d="M84.864,6.238q-2.631,0-5.262-.007c-.123,0-.186.025-.163.159a.818.818,0,0,1,0,.114q0,10.809-.005,21.617c0,.218.046.271.267.27,1.921-.011,3.843-.008,5.762,0a4.318,4.318,0,0,1,.627-.049,1.251,1.251,0,0,1-.519.09c-1.982.005-3.965,0-5.946.008-.2,0-.234-.064-.234-.246q.006-10.878,0-21.757c0-.206.058-.25.255-.248,1.664.008,3.326,0,4.99.007C84.71,6.19,84.8,6.15,84.864,6.238Z" transform="translate(18.035 1.574)" fill="#636363"/>
    <path id="Path_128" data-name="Path 128" d="M84.955,18.212c-.911,0-1.82-.005-2.731,0-.139,0-.191-.024-.191-.181q.01-3.085,0-6.169c0-.139.032-.187.174-.174.158.013.319,0,.478,0,.68,0,1.36.023,2.037-.048a1.51,1.51,0,0,1-.542.093c-.623,0-1.244.005-1.867,0-.169,0-.236.031-.235.222q.012,2.993,0,5.988c0,.187.06.226.232.224.8-.008,1.609-.005,2.414,0C84.8,18.165,84.893,18.125,84.955,18.212Z" transform="translate(18.901 3.364)" fill="#636363"/>
    <path id="Path_129" data-name="Path 129" d="M85.912,9.526V8.931A.759.759,0,0,1,85.912,9.526Z" transform="translate(20.172 2.476)" fill="#636363"/>
    <path id="Path_130" data-name="Path 130" d="M86.988,19.859c-.1-.193-.012-.4-.046-.595C87.05,19.455,86.968,19.661,86.988,19.859Z" transform="translate(20.509 5.862)" fill="#636363"/>
    <path id="Path_131" data-name="Path 131" d="M85.926,9.072c-.1-.177-.016-.37-.048-.552C85.986,8.7,85.9,8.889,85.926,9.072Z" transform="translate(20.161 2.341)" fill="#636363"/>
    <path id="Path_132" data-name="Path 132" d="M86.943,20.317c.036-.166-.052-.344.046-.5C86.968,19.981,87.046,20.157,86.943,20.317Z" transform="translate(20.509 6.042)" fill="#636363"/>
    <path id="Path_133" data-name="Path 133" d="M85.877,9.837c.033-.153-.048-.316.048-.462C85.9,9.528,85.985,9.692,85.877,9.837Z" transform="translate(20.16 2.621)" fill="#636363"/>
    <path id="Path_134" data-name="Path 134" d="M83.828,6.269c-.1-.024-.224.044-.32-.046C83.614,6.242,83.734,6.173,83.828,6.269Z" transform="translate(19.384 1.586)" fill="#636363"/>
    <path id="Path_135" data-name="Path 135" d="M84.549,16.636c-.1-.024-.224.044-.32-.046C84.335,16.609,84.455,16.54,84.549,16.636Z" transform="translate(19.62 4.984)" fill="#636363"/>
    <path id="Path_136" data-name="Path 136" d="M86.91,20.463c.027-.09-.049-.2.046-.275C86.94,20.28,87,20.383,86.91,20.463Z" transform="translate(20.498 6.165)" fill="#636363"/>
    <path id="Path_137" data-name="Path 137" d="M86.956,19.325c-.086-.062-.024-.154-.046-.23C87,19.159,86.94,19.249,86.956,19.325Z" transform="translate(20.499 5.807)" fill="#636363"/>
    <path id="Path_138" data-name="Path 138" d="M85.845,9.948c.021-.076-.041-.167.046-.23C85.876,9.8,85.933,9.885,85.845,9.948Z" transform="translate(20.15 2.733)" fill="#636363"/>
    <path id="Path_139" data-name="Path 139" d="M85.891,8.581c-.086-.062-.024-.154-.046-.23C85.933,8.413,85.876,8.505,85.891,8.581Z" transform="translate(20.15 2.285)" fill="#636363"/>
  </g>
</svg>
