<?xml version="1.0" encoding="utf-8"?>
<!-- Generator: Adobe Illustrator 23.0.4, SVG Export Plug-In . SVG Version: 6.00 Build 0)  -->
<svg version="1.1" id="Layer_1" xmlns="http://www.w3.org/2000/svg" xmlns:xlink="http://www.w3.org/1999/xlink" x="0px" y="0px"
	 viewBox="0 0 125.388 29.742" enable-background="new 0 0 125.388 29.742" xml:space="preserve">
<g>
	<path fill-rule="evenodd" clip-rule="evenodd" fill="#636363" d="M104.459,19.414c-0.716,0-1.294,0.578-1.294,1.288
		c0,0.716,0.578,1.294,1.294,1.294c0.713,0,1.288-0.578,1.288-1.294C105.747,19.992,105.172,19.414,104.459,19.414L104.459,19.414
		L104.459,19.414L104.459,19.414z M104.459,21.841c-0.629,0-1.135-0.507-1.135-1.139c0-0.625,0.507-1.132,1.135-1.132
		c0.625,0,1.132,0.507,1.132,1.132C105.592,21.334,105.085,21.841,104.459,21.841L104.459,21.841L104.459,21.841L104.459,21.841z"/>
	<path fill-rule="evenodd" clip-rule="evenodd" fill="#636363" d="M105.122,20.364c0-0.122-0.054-0.25-0.162-0.311
		c-0.108-0.064-0.23-0.071-0.352-0.071l0,0h-0.629v1.443h0.176v-0.666h0.324l0.412,0.666h0.21l-0.436-0.666l0,0
		C104.922,20.753,105.122,20.648,105.122,20.364L105.122,20.364L105.122,20.364L105.122,20.364z M104.426,20.621h-0.27v-0.51h0.412
		l0,0c0.179,0,0.375,0.027,0.375,0.25C104.943,20.655,104.628,20.621,104.426,20.621L104.426,20.621L104.426,20.621L104.426,20.621z
		"/>
	<path fill-rule="evenodd" clip-rule="evenodd" fill="#636363" d="M96.891,13.388l2.64-2.818l0,0
		c0.153-0.207,0.229-0.352,0.229-0.476c0-0.207-0.178-0.29-0.738-0.29l0,0h-0.666V8.024h7.209v1.779h-0.948l0,0
		c-1.094,0-1.297,0.165-2.823,2.089l0,0l-4.176,4.51v2.752l0,0c0,0.704,0.356,0.951,1.374,0.951l0,0h1.577v1.717H90.472v-1.717
		h1.577l0,0c1.017,0,1.373-0.248,1.373-0.951l0,0v-2.752l-4.918-5.441l0,0c-0.813-0.951-0.701-1.158-2.964-1.158l0,0V8.024h9.132
		v1.779h-0.65l0,0c-0.661,0-0.941,0.124-0.941,0.372c0,0.207,0.204,0.373,0.331,0.538l0,0l2.488,2.712l0,0
		C96.194,13.733,96.554,13.773,96.891,13.388L96.891,13.388L96.891,13.388L96.891,13.388z"/>
	<path fill-rule="evenodd" clip-rule="evenodd" fill="#636363" d="M35.624,8.024h2.203v4.965h-2.034l0,0
		c-0.18-0.993-0.801-1.379-1.368-1.899c-1.022-0.939-3.235-1.721-5.096-1.721c-2.402,0-4.43,0.745-4.43,1.841
		c0,3.042,13.739,0.621,13.739,6.372c0,3-2.943,4.675-8.228,4.675c-1.83,0-4.599-0.568-6.232-1.435
		c-0.512-0.296-0.73,0.28-0.825,1.001l0,0h-2.259v-5.131h2.043l0,0c0.45,1.304,1.071,1.572,1.642,2.09
		c0.991,0.91,3.349,1.573,5.511,1.551c3.26-0.032,4.382-0.745,4.382-1.779c0-1.034-1.109-1.283-4.682-1.841l0,0l-3.033-0.496l0,0
		c-3.423-0.517-5.916-1.283-5.916-4.014c0-2.834,3.153-4.614,8.138-4.614c2.101,0,3.859,0.281,5.546,1.234
		C35.191,9.127,35.63,9.163,35.624,8.024L35.624,8.024L35.624,8.024L35.624,8.024z"/>
	<path fill-rule="evenodd" clip-rule="evenodd" fill="#636363" d="M78.611,16.336l0.043-5.518l0,0c0-0.724-0.376-0.972-1.453-0.972
		l0,0h-1.265V8.129h8.046v1.717h-1.049l0,0c-1.077,0-1.454,0.248-1.454,0.972l0,0v11.11l-3.15-0.024l-10.197-9.657v7.013l0,0
		c0,0.704,0.377,0.972,1.453,0.972l0,0h1.399v1.697h-8.355v-1.697h1.384l0,0c1.076,0,1.453-0.269,1.453-0.972l0,0v-8.441l0,0
		c0-0.724-0.377-0.972-1.453-0.972l0,0h-1.384V8.129h7.225L78.611,16.336L78.611,16.336L78.611,16.336z"/>
	<path fill-rule="evenodd" clip-rule="evenodd" fill="#636363" d="M51.661,7.485c-6.412,0-10.426,2.835-10.426,7.386
		c0,4.469,3.958,7.282,10.23,7.282c6.662,0,10.537-2.772,10.537-7.51C62.003,10.382,57.821,7.485,51.661,7.485L51.661,7.485
		L51.661,7.485L51.661,7.485z M51.516,20.353c-3.549,0-5.59-2.048-5.59-5.586c0-3.455,2.129-5.503,5.767-5.503
		c3.49,0,5.53,2.09,5.53,5.648C57.223,18.388,55.153,20.353,51.516,20.353L51.516,20.353L51.516,20.353L51.516,20.353z"/>
</g>
</svg>
