<?xml version="1.0" encoding="utf-8"?>
<!-- Generator: Adobe Illustrator 23.0.4, SVG Export Plug-In . SVG Version: 6.00 Build 0)  -->
<svg version="1.1" id="Layer_1" xmlns="http://www.w3.org/2000/svg" xmlns:xlink="http://www.w3.org/1999/xlink" x="0px" y="0px"
	 viewBox="0 0 125.388 29.742" enable-background="new 0 0 125.388 29.742" xml:space="preserve">
<g id="Star-logo" transform="translate(40.000000, 26.000000)">
	<g id="Star-Icon" transform="translate(0.462979, 0.360397)">
		<path id="Fill-1" fill-rule="evenodd" clip-rule="evenodd" fill="#636363" d="M17.764-14.841
			c-0.483,0.356-0.961,0.716-1.446,1.069c-2.117,1.538-4.235,3.072-6.352,4.609C9.513-8.833,9.06-8.505,8.62-8.161
			C8.552-8.107,8.496-7.957,8.522-7.877c0.234,0.749,0.491,1.49,0.731,2.236c0.29,0.899,0.567,1.802,0.856,2.7
			c0.292,0.899,0.594,1.794,0.888,2.691c0.329,1.008,0.654,2.016,0.978,3.024c0.012,0.038,0.002,0.082,0.002,0.173
			c-0.253-0.178-0.477-0.331-0.696-0.488C9.503,1.173,7.725-0.112,5.949-1.4c-1.03-0.747-2.061-1.49-3.082-2.25
			C2.672-3.794,2.549-3.781,2.361-3.643c-1.716,1.256-3.44,2.504-5.163,3.752C-4.063,1.022-5.326,1.931-6.59,2.842
			c-0.04,0.029-0.086,0.05-0.192,0.111c0.082-0.28,0.14-0.499,0.21-0.716c0.249-0.781,0.477-1.571,0.765-2.338
			c0.112-0.298,0.344-0.558,0.551-0.812c2.028-2.483,4.269-4.762,6.653-6.901c1.597-1.434,3.245-2.807,4.975-4.08
			c0.059-0.044,0.094-0.121,0.169-0.22c-0.429,0.1-0.841,0.164-1.231,0.294c-1.176,0.388-2.357,0.768-3.512,1.21
			C0.155-9.981-1.402-9.17-2.91-8.267c-0.363,0.217-0.357,0.22-0.713-0.041c-1.983-1.454-3.965-2.904-5.948-4.357
			c-0.927-0.678-1.854-1.356-2.78-2.035c-0.062-0.046-0.117-0.099-0.166-0.211h0.411c3.604-0.002,7.208-0.003,10.812,0.003
			c0.206,0.001,0.32-0.039,0.388-0.256c0.443-1.393,0.895-2.781,1.351-4.17C0.8-20.42,1.163-21.5,1.517-22.583
			c0.34-1.033,0.674-2.068,1.011-3.101c0.021-0.063,0.051-0.122,0.106-0.247c0.194,0.594,0.364,1.123,0.538,1.65
			c0.253,0.768,0.511,1.535,0.764,2.304c0.337,1.034,0.671,2.068,1.007,3.101c0.309,0.951,0.622,1.899,0.932,2.848
			c0.09,0.279,0.186,0.557,0.26,0.84c0.052,0.205,0.144,0.281,0.369,0.281c3.658-0.007,7.315-0.005,10.973-0.004
			C17.568-14.911,17.66-14.903,17.764-14.841"/>
	</g>
	<g id="Star-Type" transform="translate(53.314497, 16.884176)">
		<g id="Group-3" transform="translate(0.000000, 0.021883)">
			<g id="Clip-2">
			</g>
		</g>
		<path fill-rule="evenodd" clip-rule="evenodd" fill="#636363" d="M-22.225-28.687c0.287-0.244,0.444-0.525,0.522-0.855
			c0.102-0.432-0.021-0.789-0.38-1.04c-0.195-0.137-0.416-0.26-0.644-0.323c-0.465-0.129-0.937-0.25-1.415-0.306
			c-1.016-0.119-2.024-0.059-2.996,0.294c-1.195,0.433-2.021,1.227-2.345,2.474c-0.093,0.358-0.143,0.734-0.153,1.104
			c-0.039,1.387,0.505,2.471,1.742,3.163c0.335,0.187,0.682,0.357,1.037,0.504c0.609,0.253,1.233,0.47,1.84,0.726
			c0.302,0.128,0.593,0.29,0.868,0.47c0.86,0.562,0.721,2.008-0.225,2.428c-0.326,0.145-0.664,0.227-1.018,0.258
			c-0.775,0.068-1.54-0.005-2.295-0.176c-0.523-0.118-1.04-0.262-1.59-0.402c-0.246,0.635-0.493,1.273-0.746,1.927
			c0.135,0.056,0.233,0.105,0.336,0.139c1.446,0.48,2.93,0.699,4.453,0.602c0.772-0.049,1.528-0.196,2.237-0.523
			c1.007-0.465,1.682-1.217,1.965-2.295c0.061-0.232,0.096-0.473,0.125-0.711c0.173-1.423-0.281-2.568-1.518-3.36
			c-0.111-0.071-0.219-0.15-0.337-0.207c-0.554-0.267-1.107-0.537-1.67-0.785c-0.482-0.213-0.984-0.383-1.464-0.601
			c-0.288-0.131-0.576-0.287-0.817-0.487c-0.657-0.545-0.595-1.596,0.113-2.075c0.178-0.121,0.389-0.207,0.596-0.27
			c0.546-0.167,1.109-0.144,1.67-0.096C-23.618-29.051-22.92-28.904-22.225-28.687"/>
		<path id="Fill-4" fill-rule="evenodd" clip-rule="evenodd" fill="#636363" d="M-16.649-27.904v-2.669
			c-0.837,0.145-1.633,0.282-2.452,0.424c-0.026,0.804-0.051,1.577-0.077,2.385h-1.322c-0.117,0.586-0.228,1.14-0.348,1.74h1.68
			v0.391c0,1.403-0.001,2.807,0.001,4.211c0.001,0.438-0.008,0.878,0.017,1.315c0.076,1.316,0.843,2.151,2.148,2.363
			c0.816,0.132,1.624,0.063,2.426-0.107c0.461-0.098,0.916-0.217,1.371-0.419c-0.162-0.557-0.321-1.1-0.487-1.671
			c-0.2,0.041-0.38,0.075-0.56,0.115c-0.465,0.102-0.936,0.14-1.411,0.098c-0.552-0.05-0.836-0.306-0.939-0.848
			c-0.03-0.16-0.037-0.327-0.038-0.491c-0.003-1.557-0.002-3.114-0.001-4.671c0-0.084,0.014-0.169,0.025-0.29h2.884
			c0.113-0.636,0.219-1.236,0.333-1.874H-16.649z"/>
		<path id="Fill-6" fill-rule="evenodd" clip-rule="evenodd" fill="#636363" d="M1.187-26.818c-0.228-0.747-0.743-1.063-1.426-1.167
			c-0.452-0.069-0.904-0.065-1.341,0.066c-0.227,0.068-0.457,0.174-0.643,0.317c-0.385,0.295-0.452,0.76-0.213,1.21
			c0.183-0.012,0.369-0.044,0.553-0.034c0.459,0.025,0.696,0.27,0.727,0.73c0.008,0.12,0.006,0.241,0.006,0.362
			c0,2.314,0,4.629,0,6.943v0.422c0.873-0.005,1.701,0.013,2.546-0.012v-7.121c0.456-0.335,0.964-0.521,1.501-0.586
			c0.529-0.064,1.067-0.052,1.622-0.074c0.231-0.69,0.469-1.401,0.716-2.141C3.689-28.226,2.356-27.923,1.187-26.818"/>
		<path id="Fill-8" fill-rule="evenodd" clip-rule="evenodd" fill="#636363" d="M-2.767-19.332c-0.221,0-0.419,0.012-0.614-0.003
			c-0.372-0.028-0.584-0.219-0.651-0.584c-0.027-0.15-0.033-0.305-0.033-0.458c-0.002-2.27-0.001-4.541-0.001-6.811v-0.464
			c-0.629-0.117-1.23-0.247-1.838-0.338c-1.029-0.154-2.062-0.182-3.088,0.033c-1.937,0.406-3.194,1.537-3.693,3.464
			c-0.267,1.034-0.283,2.082-0.147,3.135c0.083,0.646,0.251,1.269,0.56,1.847c0.495,0.925,1.253,1.521,2.286,1.733
			c1.215,0.249,2.363,0.052,3.427-0.596c0.091-0.055,0.181-0.11,0.284-0.172c0.284,0.481,0.723,0.704,1.232,0.761
			c0.401,0.045,0.813,0.035,1.216,0.004c0.319-0.025,0.621-0.146,0.872-0.36C-2.572-18.466-2.505-18.977-2.767-19.332z
			 M-6.605-20.136c-0.514,0.283-1.071,0.388-1.65,0.364c-0.978-0.04-1.557-0.469-1.843-1.404c-0.31-1.015-0.352-2.053-0.104-3.086
			c0.281-1.167,1.119-1.82,2.329-1.857c0.274-0.008,0.55,0.006,0.824,0.024c0.14,0.009,0.277,0.051,0.443,0.083V-20.136z"/>
	</g>
</g>
</svg>
