<?xml version="1.0" encoding="utf-8"?>
<!-- Generator: Adobe Illustrator 23.0.4, SVG Export Plug-In . SVG Version: 6.00 Build 0)  -->
<svg version="1.1" id="Layer_1" xmlns="http://www.w3.org/2000/svg" xmlns:xlink="http://www.w3.org/1999/xlink" x="0px" y="0px"
	 viewBox="0 0 125.388 29.742" enable-background="new 0 0 125.388 29.742" xml:space="preserve">
<g id="_x23_1b69b2ff">
	<path fill="#636363" d="M78.186,9.074c1.285-0.149,2.666,0.157,3.634,1.052c1.079,0.942,1.594,2.377,1.698,3.776
		c0.116,1.161,0.038,2.354-0.299,3.475c-0.381,1.234-1.21,2.391-2.412,2.929c-1.069,0.458-2.298,0.493-3.416,0.203
		c-1.192-0.311-2.158-1.226-2.673-2.327c-0.677-1.419-0.758-3.05-0.573-4.589c0.146-1.332,0.701-2.66,1.716-3.561
		C76.501,9.464,77.338,9.151,78.186,9.074 M78.258,11.054c-1.064,0.206-1.798,1.199-1.993,2.222
		c-0.232,1.174-0.239,2.425,0.126,3.573c0.306,0.912,1.081,1.728,2.063,1.864c0.994,0.184,2.018-0.378,2.5-1.245
		c0.52-0.947,0.588-2.063,0.55-3.12c-0.07-0.912-0.23-1.902-0.892-2.588C80.038,11.108,79.094,10.857,78.258,11.054z"/>
	<path fill="#636363" d="M11.088,9.064c3.949,0,7.897,0.004,11.845-0.002c-0.011,1.163,0.025,2.327-0.018,3.488
		c-1.139-0.025-2.281-0.005-3.422-0.01c0.002,2.718-0.004,5.435,0.003,8.154c-1.65,0.006-3.298-0.003-4.948,0.005
		c-0.01-2.72,0-5.44-0.005-8.16c-1.151,0-2.303-0.001-3.453,0C11.088,11.381,11.091,10.223,11.088,9.064z"/>
	<path fill="#636363" d="M26.295,9.064c1.713,0.001,3.425,0.002,5.138,0c1.591,3.88,3.19,7.756,4.772,11.64
		c-1.594-0.017-3.189-0.008-4.785-0.005c-0.848-2.278-1.674-4.565-2.52-6.844c-0.862,2.265-1.652,4.559-2.481,6.838
		c-1.578,0.008-3.156-0.002-4.734,0.004C23.205,16.814,24.763,12.944,26.295,9.064z"/>
	<path fill="#636363" d="M35.087,12.548c-0.038-1.161-0.006-2.324-0.016-3.486c3.941,0.008,7.882,0.001,11.822,0.003
		c-0.001,1.158,0,2.315-0.001,3.473c-1.121,0.001-2.242,0.001-3.363,0c-0.005,2.72-0.003,5.44-0.001,8.159
		c-1.647-0.003-3.292-0.003-4.938,0c0-2.721,0.01-5.442-0.005-8.162C37.419,12.549,36.252,12.526,35.087,12.548z"/>
	<path fill="#636363" d="M45.647,20.691c1.555-3.87,3.081-7.752,4.627-11.624c1.711-0.002,3.422-0.001,5.132-0.001
		c1.602,3.873,3.181,7.755,4.778,11.629c-1.6-0.004-3.202,0.015-4.801-0.008c-0.825-2.28-1.672-4.551-2.502-6.829
		c-0.045,0.08-0.084,0.163-0.117,0.249c-0.791,2.197-1.578,4.395-2.374,6.59C48.808,20.693,47.228,20.704,45.647,20.691z"/>
	<path fill="#636363" d="M65.334,9.212c1.706,0.009,3.415-0.044,5.117,0.103c0.972,0.097,1.766,0.854,2.113,1.736
		c0.337,0.892,0.356,1.884,0.154,2.809c-0.238,0.983-0.938,1.929-1.952,2.192c-1.127,0.276-2.296,0.188-3.444,0.204
		c0,1.421-0.002,2.843,0.001,4.264c-0.664,0.007-1.326,0.002-1.989,0.003C65.334,16.753,65.334,12.982,65.334,9.212 M67.321,11.152
		c-0.002,1.061,0,2.121,0,3.181c0.711,0.001,1.423,0.012,2.132-0.047c0.432-0.032,0.843-0.256,1.081-0.622
		c0.272-0.387,0.273-0.886,0.215-1.337c-0.106-0.548-0.558-1.06-1.135-1.113C68.855,11.106,68.085,11.168,67.321,11.152z"/>
	<path fill="#636363" d="M84.144,9.212c0.675,0,1.351,0,2.026,0c0.502,2.556,0.941,5.126,1.477,7.673
		c0.596-2.556,1.182-5.116,1.781-7.673c0.785,0,1.571,0,2.356,0c0.561,2.605,1.137,5.206,1.701,7.811
		c0.545-2.594,1.006-5.208,1.515-7.809c0.665-0.001,1.331-0.003,1.996,0.002c-0.792,3.771-1.58,7.543-2.392,11.308
		c-0.694,0-1.386-0.006-2.08,0.004c-0.683-2.797-1.295-5.611-1.972-8.41c-0.642,2.802-1.281,5.605-1.935,8.405
		c-0.715,0-1.43,0-2.143,0C85.71,16.75,84.898,12.987,84.144,9.212z"/>
	<path fill="#636363" d="M97.984,9.212c2.432,0,4.863-0.001,7.296,0.001c0,0.647,0,1.292,0,1.939
		c-1.768-0.002-3.536,0.002-5.304-0.002c-0.011,0.825-0.004,1.651-0.003,2.475c1.648,0.002,3.295,0.004,4.942-0.001
		c0.009,0.634,0.003,1.268,0.003,1.901c-1.649,0.001-3.297,0-4.946,0.001c-0.003,1.019-0.003,2.038,0,3.057
		c1.827-0.001,3.653-0.001,5.479,0c0.001,0.645,0.001,1.292,0.001,1.939c-2.49,0-4.979,0-7.469,0
		C97.984,16.753,97.984,12.982,97.984,9.212z"/>
	<path fill="#636363" d="M107.119,9.214c1.364-0.002,2.727-0.001,4.091-0.001c0.859,0.079,1.783-0.007,2.564,0.426
		c0.85,0.502,1.311,1.503,1.343,2.466c0.059,0.908-0.126,1.902-0.794,2.565c-0.456,0.49-1.099,0.732-1.738,0.87
		c1.149,0.736,1.728,2.016,2.368,3.165c0.331,0.606,0.652,1.217,0.989,1.82c-0.789-0.002-1.58,0-2.37-0.001
		c-0.842-1.368-1.571-2.808-2.494-4.124c-0.442-0.644-1.287-0.61-1.978-0.61c-0.001,1.578,0.001,3.155-0.001,4.733
		c-0.659,0.001-1.32,0.001-1.979,0C107.119,16.752,107.119,12.983,107.119,9.214 M109.1,11.152c-0.001,0.948-0.001,1.895,0,2.843
		c1.027-0.025,2.065,0.068,3.084-0.095c0.783-0.16,1.05-1.125,0.848-1.811c-0.098-0.541-0.631-0.911-1.163-0.914
		C110.946,11.128,110.023,11.163,109.1,11.152z"/>
</g>
</svg>
