<svg xmlns="http://www.w3.org/2000/svg" width="1482" height="670.473" viewBox="0 0 1482 670.473">
  <g id="Group_2483" data-name="Group 2483" transform="translate(-69 -163)">
    <g id="Group_73" data-name="Group 73" transform="translate(10 30)">
      <path id="Path_50" data-name="Path 50" d="M6915.258,8245.484l279.99,208.366s41.336,45.1,88.724,45.1,100.827-45.1,100.827-45.1L7655.428,8230l275.2-208.051s40.532-39.346,92.636-39.346,95.991,39.346,95.991,39.346l271.568,222.8" transform="translate(-6854 -7731)" fill="none" stroke="#dbdbdb" stroke-width="3"/>
      <path id="Path_51" data-name="Path 51" d="M6915.258,8239.527l278.073-211.769s41.336-45.1,88.724-45.1,100.827,45.1,100.827,45.1l272.545,227.255,275.2,208.051s40.532,39.347,92.636,39.347,95.991-39.347,95.991-39.347l271.568-222.8" transform="translate(-6854 -7720.411)" fill="none" stroke="#dbdbdb" stroke-width="3"/>
    </g>
    <text id="Project_Assessment" data-name="Project Assessment" transform="translate(94 187)" fill="#020000" font-size="26" font-family="Gilroy-SemiBold, Gilroy" font-weight="600"><tspan x="0" y="0">Project Assessment</tspan></text>
    <text id="Discovery_Report" data-name="Discovery Report" transform="translate(460 187)" fill="#020000" font-size="26" font-family="Gilroy-SemiBold, Gilroy" font-weight="600"><tspan x="0" y="0">Discovery Report</tspan></text>
    <text id="UX_Design_Brief" data-name="UX Design Brief" transform="translate(811 187)" fill="#020000" font-size="26" font-family="Gilroy-SemiBold, Gilroy" font-weight="600"><tspan x="0" y="0">UX Design Brief</tspan></text>
    <text id="Prototypes_Final" data-name="Prototypes &amp; Final" transform="translate(1199 187)" fill="#020000" font-size="26" font-family="Gilroy-SemiBold, Gilroy" font-weight="600"><tspan x="0" y="0">Prototypes &amp; Final</tspan></text>
    <g id="Rectangle_70" data-name="Rectangle 70" transform="translate(99 282)" fill="#fff" stroke="#fff" stroke-width="1">
      <rect width="157" height="43" rx="21.5" stroke="none"/>
      <rect x="0.5" y="0.5" width="156" height="42" rx="21" fill="none"/>
    </g>
    <g id="Rectangle_71" data-name="Rectangle 71" transform="translate(99 339)" fill="#fff" stroke="#fff" stroke-width="1">
      <rect width="131" height="43" rx="21.5" stroke="none"/>
      <rect x="0.5" y="0.5" width="130" height="42" rx="21" fill="none"/>
    </g>
    <rect id="Rectangle_81" data-name="Rectangle 81" width="219" height="43" rx="21.5" transform="translate(467 478)" fill="#fff"/>
    <rect id="Rectangle_84" data-name="Rectangle 84" width="239" height="43" rx="21.5" transform="translate(816 261)" fill="#fff"/>
    <rect id="Rectangle_85" data-name="Rectangle 85" width="192" height="43" rx="21.5" transform="translate(816 323)" fill="#fff"/>
    <rect id="Rectangle_87" data-name="Rectangle 87" width="76" height="43" rx="21.5" transform="translate(1225 252)" fill="#fff"/>
    <rect id="Rectangle_88" data-name="Rectangle 88" width="156" height="43" rx="21.5" transform="translate(1009 373)" fill="#fff"/>
    <rect id="Rectangle_90" data-name="Rectangle 90" width="170" height="43" rx="21.5" transform="translate(1222 478)" fill="#fff"/>
    <rect id="Rectangle_122" data-name="Rectangle 122" width="216" height="43" rx="21.5" transform="translate(1294 407)" fill="#fff"/>
    <rect id="Rectangle_82" data-name="Rectangle 82" width="153" height="43" rx="21.5" transform="translate(467 570)" fill="#fff"/>
    <rect id="Rectangle_91" data-name="Rectangle 91" width="230" height="43" rx="21.5" transform="translate(932 570)" fill="#fff"/>
    <text id="Site_audits" data-name="Site audits" transform="translate(120 311)" fill="#0b0202" font-size="24" font-family="Gilroy-Medium, Gilroy" font-weight="500"><tspan x="0" y="0">Site audits</tspan></text>
    <text id="Analysis" transform="translate(120 368)" fill="#0b0202" font-size="24" font-family="Gilroy-Medium, Gilroy" font-weight="500"><tspan x="0" y="0">Analysis</tspan></text>
    <text id="Digital_Strategy" data-name="Digital Strategy" transform="translate(488 507)" font-size="24" font-family="Gilroy-Medium, Gilroy" font-weight="500"><tspan x="0" y="0">Digital Strategy</tspan></text>
    <text id="Proof_of_concepts" data-name="Proof of concepts" transform="translate(837 290)" font-size="24" font-family="Gilroy-Medium, Gilroy" font-weight="500"><tspan x="0" y="0">Proof of concepts</tspan></text>
    <text id="Mood_Boards" data-name="Mood Boards" transform="translate(837 352)" font-size="24" font-family="Gilroy-Medium, Gilroy" font-weight="500"><tspan x="0" y="0">Mood Boards</tspan></text>
    <text id="QA" transform="translate(1245 281)" font-size="24" font-family="Gilroy-Medium, Gilroy" font-weight="500"><tspan x="0" y="0">QA</tspan></text>
    <text id="Prototypes" transform="translate(1030 402)" font-size="24" font-family="Gilroy-Medium, Gilroy" font-weight="500"><tspan x="0" y="0">Prototypes</tspan></text>
    <text id="Beta_Testing" data-name="Beta Testing" transform="translate(1243 507)" font-size="24" font-family="Gilroy-Medium, Gilroy" font-weight="500"><tspan x="0" y="0">Beta Testing</tspan></text>
    <text id="Usability_Testing" data-name="Usability Testing" transform="translate(1311 436)" font-size="24" font-family="Gilroy-Medium, Gilroy" font-weight="500"><tspan x="0" y="0">Usability Testing</tspan></text>
    <text id="Site_Maps" data-name="Site Maps" transform="translate(488 599)" font-size="24" font-family="Gilroy-Medium, Gilroy" font-weight="500"><tspan x="0" y="0">Site Maps</tspan></text>
    <text id="Functional_Specs" data-name="Functional Specs" transform="translate(953 599)" font-size="24" font-family="Gilroy-Medium, Gilroy" font-weight="500"><tspan x="0" y="0">Functional Specs</tspan></text>
    <line id="Line_1886" data-name="Line 1886" y2="652.973" transform="translate(73.5 180.5)" fill="none" stroke="#000" stroke-width="2"/>
    <line id="Line_1887" data-name="Line 1887" y2="652.973" transform="translate(790.5 180.5)" fill="none" stroke="#000" stroke-width="2"/>
    <line id="Line_1889" data-name="Line 1889" y2="652.973" transform="translate(1178.5 180.5)" fill="none" stroke="#000" stroke-width="2"/>
    <line id="Line_1890" data-name="Line 1890" y2="652.973" transform="translate(441.5 180.5)" fill="none" stroke="#000" stroke-width="2"/>
    <rect id="Rectangle_92" data-name="Rectangle 92" width="179" height="43" rx="21.5" transform="translate(1053 642)" fill="#fff"/>
    <text id="Tech_Specs" data-name="Tech Specs" transform="translate(1074 671)" font-size="24" font-family="Gilroy-Medium, Gilroy" font-weight="500"><tspan x="0" y="0">Tech Specs</tspan></text>
    <rect id="Rectangle_89" data-name="Rectangle 89" width="170" height="43" rx="21.5" transform="translate(1009 478)" fill="#fff"/>
    <text id="User_Testing" data-name="User Testing" transform="translate(1030 507)" font-size="24" font-family="Gilroy-Medium, Gilroy" font-weight="500"><tspan x="0" y="0">User Testing</tspan></text>
    <rect id="Rectangle_86" data-name="Rectangle 86" width="203" height="43" rx="21.5" transform="translate(816 437)" fill="#fff"/>
    <text id="Design_Comps" data-name="Design Comps" transform="translate(837 466)" font-size="24" font-family="Gilroy-Medium, Gilroy" font-weight="500"><tspan x="0" y="0">Design Comps</tspan></text>
    <rect id="Rectangle_80" data-name="Rectangle 80" width="168" height="43" rx="21.5" transform="translate(363 388)" fill="#fff"/>
    <text id="User_Stories" data-name="User Stories" transform="translate(384 417)" font-size="24" font-family="Gilroy-Medium, Gilroy" font-weight="500"><tspan x="0" y="0">User Stories</tspan></text>
    <g id="Rectangle_72" data-name="Rectangle 72" transform="translate(99 420)" fill="#fff" stroke="#fff" stroke-width="1">
      <rect width="254" height="43" rx="21.5" stroke="none"/>
      <rect x="0.5" y="0.5" width="253" height="42" rx="21" fill="none"/>
    </g>
    <text id="Audience_Research" data-name="Audience Research" transform="translate(120 450)" fill="#0b0202" font-size="24" font-family="Gilroy-Medium, Gilroy" font-weight="500"><tspan x="0" y="0">Audience Research</tspan></text>
    <g id="Rectangle_73" data-name="Rectangle 73" transform="translate(99 477)" fill="#fff" stroke="#fff" stroke-width="1">
      <rect width="287" height="43" rx="21.5" stroke="none"/>
      <rect x="0.5" y="0.5" width="286" height="42" rx="21" fill="none"/>
    </g>
    <text id="Stakeholder_Interviews" data-name="Stakeholder Interviews" transform="translate(120 506)" fill="#0b0202" font-size="24" font-family="Gilroy-Medium, Gilroy" font-weight="500"><tspan x="0" y="0">Stakeholder Interviews</tspan></text>
    <g id="Rectangle_74" data-name="Rectangle 74" transform="translate(99 609)" fill="#fff" stroke="#fff" stroke-width="1">
      <rect width="157" height="43" rx="21.5" stroke="none"/>
      <rect x="0.5" y="0.5" width="156" height="42" rx="21" fill="none"/>
    </g>
    <text id="Objectives" transform="translate(120 638)" fill="#0b0202" font-size="24" font-family="Gilroy-Medium, Gilroy" font-weight="500"><tspan x="0" y="0">Objectives</tspan></text>
    <rect id="Rectangle_83" data-name="Rectangle 83" width="234" height="43" rx="21.5" transform="translate(386 630)" fill="#fff"/>
    <text id="Content_Strategy" data-name="Content Strategy" transform="translate(407 659)" font-size="24" font-family="Gilroy-Medium, Gilroy" font-weight="500"><tspan x="0" y="0">Content Strategy</tspan></text>
    <path id="Polygon_1" data-name="Polygon 1" d="M28,0,56,32H0Z" transform="translate(1551 519) rotate(90)" fill="#fff"/>
    <line id="Line_1891" data-name="Line 1891" x2="1473" transform="translate(73.5 549.5)" fill="none" stroke="#fff" stroke-width="1" stroke-dasharray="5 5"/>
    <circle id="Ellipse_5618" data-name="Ellipse 5618" cx="4.5" cy="4.5" r="4.5" transform="translate(69 173)"/>
    <circle id="Ellipse_5619" data-name="Ellipse 5619" cx="4.5" cy="4.5" r="4.5" transform="translate(437 173)"/>
    <circle id="Ellipse_5620" data-name="Ellipse 5620" cx="4.5" cy="4.5" r="4.5" transform="translate(786 173)"/>
    <circle id="Ellipse_5621" data-name="Ellipse 5621" cx="4.5" cy="4.5" r="4.5" transform="translate(1174 173)"/>
    <rect id="Rectangle_79" data-name="Rectangle 79" width="158" height="43" rx="21.5" transform="translate(363 334)" fill="#fff"/>
    <text id="Personnas" transform="translate(384 363)" font-size="24" font-family="Gilroy-Medium, Gilroy" font-weight="500"><tspan x="0" y="0">Personnas</tspan></text>
  </g>
</svg>
